<svg xmlns="http://www.w3.org/2000/svg" height="63.6" viewBox="0 0 50 63.6" width="50"><path d="M9.556 55.182h.003l22.054-.03c.98-.003 1.777-.8 1.777-1.78V50.9c0-.979-.796-1.775-1.777-1.775l-22.054.03c-.98.001-1.777.8-1.777 1.78v2.474c0 .978.796 1.774 1.774 1.774z" style="stroke-width:.11612882"/><path d="M.017 60.146c.009 3.398.009 3.42.357 3.42H.38l1.233.034h.01s9.965 0 19.93-.004c4.984-.002 9.967-.006 13.704-.01 1.868-.003 3.426-.006 4.516-.01 2.067-.006 2.067-.006 2.067-.356l.035-1.243V38.714a1.78 1.78 0 0 0-1.777-1.777h-1.383a1.78 1.78 0 0 0-1.777 1.777v18.92c0 .587-.478 1.065-1.066 1.065H6.038a1.067 1.067 0 0 1-1.067-1.066v-18.92a1.78 1.78 0 0 0-1.776-1.776H1.777A1.78 1.78 0 0 0 0 38.714c0 2.71.001 8.835.006 14.281.003 2.723.006 5.278.011 7.151z" style="stroke-width:.11612882"/><path d="m9.732 46.158 21.995 2.028a1.758 1.758 0 0 0 1.924-1.61l.213-2.449a1.789 1.789 0 0 0-1.614-1.93l-21.96-2.029a1.767 1.767 0 0 0-1.934 1.606l-.229 2.451a1.767 1.767 0 0 0 1.605 1.932zm34.294-21.896a1.771 1.771 0 0 0 2.055 1.445l2.446-.427a1.78 1.78 0 0 0 1.447-2.057L46.199 1.481A1.773 1.773 0 0 0 44.144.035l-2.446.427a1.78 1.78 0 0 0-1.446 2.056zM15.307 22.58l18.999 11.231a1.774 1.774 0 0 0 2.434-.624l1.263-2.132c.242-.408.31-.886.193-1.346a1.763 1.763 0 0 0-.817-1.087L18.38 17.392c-.814-.483-1.955-.186-2.434.623l-1.263 2.132c-.241.409-.31.887-.192 1.346.118.46.408.846.816 1.088zm22.9 5.357a1.774 1.774 0 0 0 2.469.462l2.021-1.386a1.787 1.787 0 0 0 .466-2.472L30.747 6.29c-.532-.782-1.683-1.001-2.466-.462l-2.06 1.418a1.785 1.785 0 0 0-.46 2.472zm-27.063 7.179 21.306 5.709a1.776 1.776 0 0 0 2.174-1.257l.64-2.395a1.78 1.78 0 0 0-1.257-2.176L12.7 29.287c-.93-.249-1.928.332-2.175 1.258l-.64 2.396a1.78 1.78 0 0 0 1.258 2.175z" style="stroke-width:.11612882"/></svg>