<svg xmlns="http://www.w3.org/2000/svg" version="1.1" id="cat-bunny" width="200" height="174.2" viewBox="0 0 200 174.2"><path style="color:#000;font-style:normal;font-variant:normal;font-weight:400;font-stretch:normal;font-size:medium;line-height:normal;font-family:sans-serif;font-variant-ligatures:normal;font-variant-position:normal;font-variant-caps:normal;font-variant-numeric:normal;font-variant-alternates:normal;font-feature-settings:normal;text-indent:0;text-align:start;text-decoration:none;text-decoration-line:none;text-decoration-style:solid;text-decoration-color:#000;letter-spacing:normal;word-spacing:normal;text-transform:none;writing-mode:lr-tb;direction:ltr;text-orientation:mixed;dominant-baseline:auto;baseline-shift:baseline;text-anchor:start;white-space:normal;shape-padding:0;clip-rule:nonzero;display:inline;overflow:visible;visibility:visible;opacity:1;isolation:auto;mix-blend-mode:normal;color-interpolation:sRGB;color-interpolation-filters:linearRGB;solid-color:#000;solid-opacity:1;vector-effect:none;fill:none;fill-opacity:1;fill-rule:nonzero;stroke:none;stroke-width:1px;stroke-linecap:butt;stroke-linejoin:miter;stroke-miterlimit:4;stroke-dasharray:none;stroke-dashoffset:0;stroke-opacity:1;color-rendering:auto;image-rendering:auto;shape-rendering:auto;text-rendering:auto;enable-background:accumulate" d="M26.307 87.393a4.094 4.094 0 0 0-2.479.49c-1.468.777-2.275 2.38-2.305 3.965v.039a4.537 4.537 0 0 0 1.127 2.75c1.3 1.496 3.637 2.038 5.395.957 1.36-.82 1.94-2.37 2.037-3.791l.004-.041-.004-.04c-.111-1.184-.584-2.387-1.486-3.251a3.903 3.903 0 0 0-2.29-1.078zm-.123 1.003c.642.075 1.258.341 1.712.79l.004.002.002.003c.681.652 1.072 1.613 1.172 2.58-.09 1.185-.575 2.383-1.545 2.967l-.002.002h-.002c-1.278.79-3.14.373-4.123-.76l-.002-.003-.004-.004c-.516-.575-.815-1.344-.867-2.127.031-1.25.685-2.514 1.774-3.086l.006-.002.005-.004a3.104 3.104 0 0 1 1.87-.357z" id="trajTail"/><g id="leftEar" style="opacity:1;stroke:#b537f2;stroke-width:10;stroke-miterlimit:4;stroke-dasharray:none" transform="matrix(-.07963 0 0 .07963 286.189 -16.95)"><path id="none" d="M1425.81 1542.988c-37.786-47.067-76.613-47.865-93.2-97.178-46.554-143.106 59.557-145.119 19.076-253.442-70.594-219.071-107.376-64.569-218.013-267.067-31.569-140.575 50.494-142.992 49.053-305.22-3.729-50.871-91.395-72.849-95.381-141.708-1.41-243.694 176.06-286.15 253.44-207.113 14.393 185.812-33.263 81.973-32.701 250.716 47.753 226.497 340.024 242.265 149.884 673.118 38.485 173.293 238.227 3.483 155.335 389.7-82.699 115.146-16.35 5.45-82.699 115.146-15.46 25.56-82.4-115.878-104.794-156.952z" style="fill:#09fbd3;stroke:#b537f2;stroke-width:10;stroke-linecap:butt;stroke-linejoin:miter;stroke-miterlimit:4;stroke-dasharray:none;stroke-opacity:1"/><path id="path846" d="M1564.25 1590.244c-.18-114.87-38.294-125.422-65.404-166.236-109.665-45.395-102.164-103.99-92.656-245.265 17.67-68.559 68.012-139.841-27.252-201.663-44.207-21.4-110.524-45.92-73.58-130.809 4.97-98.689 3.576-134.865-38.152-204.388-56.022-107.305-60.22-195.177 0-258.891" style="fill:none;stroke:#b537f2;stroke-width:10;stroke-linecap:butt;stroke-linejoin:miter;stroke-miterlimit:4;stroke-dasharray:none;stroke-opacity:1"/></g><g id="rightEar" style="opacity:1;stroke:#b537f2;stroke-width:9.99597775;stroke-miterlimit:4;stroke-dasharray:none" transform="matrix(-.07963 0 0 .07963 286.189 -16.95)"><path id="path840" d="M1943.05 1473.062c87.955-67.19 149.833-135.466 65.403-209.839 0 0-91.52-81.413 24.527-174.411 134.016-107.398 23.204-266.096 32.702-277.968-1.308-.981-52.793-65.84 19.076-207.113 58.415-114.826 10.9-185.312 10.9-185.312-59.11-164.592 29.387-165.177 95.382-190.762 58.395-1.919 145.343-55.23 100.832 128.083-5.632 84.117 17.558 189.85-40.878 234.365-33.437 46.18-100.975 62.047-10.9 218.014 33.815 93.493 45.74 177.035 0 234.365-67.66 65.97-88.42 145.734-32.703 247.99 93.751 126.344-25.469 165.562-79.03 231.64-32.469-49.838-102.244-57.041-185.312-49.053z" style="fill:#09fbd3;stroke:#b537f2;stroke-width:9.99597775;stroke-linecap:butt;stroke-linejoin:miter;stroke-miterlimit:4;stroke-dasharray:none;stroke-opacity:1"/><path id="path848" d="M2136.537 1434.909c6.831-121.836-27.144-187.809-27.252-188.037-51.812-78.638-2.58-133.026 32.702-190.762 46.786-69.43 73.96-139.535 16.35-212.564 0 0-85.471-118.107 2.726-239.815 27.893-38.491 60.703-72.611 57.229-138.984-20.365-42.34-24.052-75.7 2.725-92.656" style="fill:none;stroke:#b537f2;stroke-width:9.99597775;stroke-linecap:butt;stroke-linejoin:miter;stroke-miterlimit:4;stroke-dasharray:none;stroke-opacity:1"/></g><ellipse style="opacity:1;fill:#3cb9fc;fill-opacity:1;fill-rule:evenodd;stroke:#de38c8;stroke-width:.79632026;stroke-linecap:round;stroke-miterlimit:4;stroke-dasharray:none;stroke-opacity:1;paint-order:normal" id="tail" cx="-21.719" cy="89.273" rx="12.695" ry="11.285" transform="scale(-1 1)"/><path style="opacity:1;fill:#3cb9fc;stroke:#de38c8;stroke-width:.79632026;stroke-linecap:butt;stroke-linejoin:miter;stroke-miterlimit:4;stroke-dasharray:none;stroke-opacity:1" d="M109.108 102.306C82.76 61.166 20.59 71.414 8.198 118.582c-1.81 10.281 6.005 28.924 13.454 34.939l94.183 4.34-.651-10.85c-2.026-14.902 3.268-35.126-6.076-44.705z" id="body"/><g id="foot4" style="stroke-width:10;stroke-miterlimit:4;stroke-dasharray:none" transform="matrix(-.07963 0 0 .07963 286.189 -16.95)"><ellipse ry="133.368" rx="197.409" cy="2159.981" cx="3391.479" id="path876" style="opacity:1;fill:#09fbd3;fill-opacity:1;fill-rule:evenodd;stroke:#de38c8;stroke-width:10;stroke-linecap:round;stroke-miterlimit:4;stroke-dasharray:none;stroke-opacity:1;paint-order:normal"/><path id="path884" d="M3550.265 2233.385c-87.82 79.479-223.844 66.516-307.414 12.75 129.426-42.168 164.288-51.612 307.414-12.75z" style="opacity:1;fill:#8a2be2;stroke:#8a2be2;stroke-width:10;stroke-linecap:butt;stroke-linejoin:miter;stroke-miterlimit:4;stroke-dasharray:none;stroke-opacity:1"/></g><g id="foot3" style="stroke-width:10;stroke-miterlimit:4;stroke-dasharray:none" transform="matrix(-.07963 0 0 .07963 286.189 -16.95)"><ellipse ry="151.153" rx="239.721" cy="2177.695" cx="3003.142" id="path878" style="opacity:1;fill:#09fbd3;fill-opacity:1;fill-rule:evenodd;stroke:#de38c8;stroke-width:10;stroke-linecap:round;stroke-miterlimit:4;stroke-dasharray:none;stroke-opacity:1;paint-order:normal"/><path id="path884-6" d="M3210.15 2252.947c-97.858 95.868-318.631 93.643-397.876 10.9 129.426-42.166 290.177-48.399 397.875-10.9z" style="opacity:1;fill:#8a2be2;stroke:#8a2be2;stroke-width:10;stroke-linecap:butt;stroke-linejoin:miter;stroke-miterlimit:4;stroke-dasharray:none;stroke-opacity:1"/></g><g id="foot2" style="stroke-width:10;stroke-miterlimit:4;stroke-dasharray:none" transform="matrix(-.07963 0 0 .07963 286.189 -16.95)"><ellipse ry="144.374" rx="181.164" cy="2195.408" cx="2628.431" id="path880" style="opacity:1;fill:#09fbd3;fill-opacity:1;fill-rule:evenodd;stroke:#de38c8;stroke-width:10;stroke-linecap:round;stroke-miterlimit:4;stroke-dasharray:none;stroke-opacity:1;paint-order:normal"/><path id="path884-8" d="M2780.934 2273.386c-75.823 81.95-229.865 81.417-302.494 1.363 129.426-42.167 194.796-38.862 302.494-1.363z" style="opacity:1;fill:#8a2be2;stroke:#8a2be2;stroke-width:10;stroke-linecap:butt;stroke-linejoin:miter;stroke-miterlimit:4;stroke-dasharray:none;stroke-opacity:1"/></g><g id="foot1" style="stroke-width:10;stroke-miterlimit:4;stroke-dasharray:none" transform="matrix(-.07963 0 0 .07963 286.189 -16.95)"><ellipse ry="129.446" rx="132.171" cy="2199.496" cx="2336.837" id="path882" style="opacity:1;fill:#09fbd3;fill-opacity:1;fill-rule:evenodd;stroke:#de38c8;stroke-width:10;stroke-linecap:round;stroke-miterlimit:4;stroke-dasharray:none;stroke-opacity:1;paint-order:normal"/><path id="path884-9" d="M2448.463 2262.485c-44.63 71.907-163.394 93.136-222.102 2.725 91.274-23.09 128.03-23.873 222.102-2.725z" style="opacity:1;fill:#8a2be2;stroke:#8a2be2;stroke-width:10;stroke-linecap:butt;stroke-linejoin:miter;stroke-miterlimit:4;stroke-dasharray:none;stroke-opacity:1"/></g><g id="head"><path id="path922" d="M161.624 112.506c-8.245-11.848-27.217-12.788-40.147-11.719-16.635 3.558-18.74 27.118-6.293 46.224l23.654 11.284 23.654-11.718c4.505-7.555 10.813-13.68-.868-34.071z" style="fill:#3cb9fc;stroke:#de38c8;stroke-width:.79632026;stroke-linecap:butt;stroke-linejoin:miter;stroke-miterlimit:4;stroke-dasharray:none;stroke-opacity:1"/><g transform="matrix(-.07963 0 0 .07963 286.189 -16.95)" id="leftEye"><path style="fill:#fefefe;stroke:#120052;stroke-width:5;stroke-linecap:butt;stroke-linejoin:miter;stroke-miterlimit:4;stroke-dasharray:none;stroke-opacity:1" d="M1607.853 2034.447c-14.972-35.09-24.551-71.53-19.077-111.732 9.087-137.666 216.843-196.96 201.663 40.878l-19.076 149.884z" id="path924"/><path style="fill:#120052;stroke:#120052;stroke-width:5;stroke-linecap:butt;stroke-linejoin:miter;stroke-miterlimit:4;stroke-dasharray:none;stroke-opacity:1" d="m1701.531 1887.261-11.561 181.137" id="path928"/></g><g transform="matrix(-.07963 0 0 .07963 286.189 -16.95)" id="rightEye"><path style="fill:#fefefe;stroke:#120052;stroke-width:5;stroke-linecap:butt;stroke-linejoin:miter;stroke-miterlimit:4;stroke-dasharray:none;stroke-opacity:1" d="M1917.354 2024.077c-21.957-39.785-29.796-84.276-36.613-129.108-2.447-197.74 208.621-230.946 208.115-9.635.76 40.214 2.611 80.063-11.562 125.254z" id="path926"/><path style="fill:#120052;stroke:#120052;stroke-width:5;stroke-linecap:butt;stroke-linejoin:miter;stroke-miterlimit:4;stroke-dasharray:none;stroke-opacity:1" d="m1965.529 1814.035 7.708 200.407" id="path930"/></g><ellipse transform="scale(-1 1)" ry="4.373" rx="6.138" cy="169.627" cx="-140.104" id="path974" style="opacity:1;fill:#fe53bb;fill-opacity:1;fill-rule:evenodd;stroke:#fe53bb;stroke-width:.39816013;stroke-linecap:round;stroke-miterlimit:4;stroke-dasharray:none;stroke-opacity:1;paint-order:normal"/><path id="path958" d="M141.025 154.513c-1.864-15.265-23.904-16.27-27.775-3.223-2.234 7.807-3.247 16.644 4.91 20.41 6.43 1.56 18.732-.042 23.018-6.6z" style="fill:#e1ef7e;stroke:#ffaa01;stroke-width:.79632026;stroke-linecap:butt;stroke-linejoin:miter;stroke-miterlimit:4;stroke-dasharray:none;stroke-opacity:1"/><path id="path956" d="M158.152 145.057c-4.643.157-19.367 4.356-18.355 16.208 1.176 8.478 7.523 10.17 15.192 10.127 13.344-.485 12.352-8.515 10.434-17.033-1.485-3.476-1.92-7.372-7.271-9.302z" style="fill:#e1ef7e;stroke:#ffaa01;stroke-width:.79632026;stroke-linecap:butt;stroke-linejoin:miter;stroke-miterlimit:4;stroke-dasharray:none;stroke-opacity:1"/><ellipse transform="scale(-1 1)" ry="1.228" rx="1.304" cy="154.052" cx="-155.679" id="path960" style="opacity:1;fill:#f5d300;fill-opacity:1;fill-rule:evenodd;stroke:#ffaa01;stroke-width:.39816013;stroke-linecap:round;stroke-miterlimit:4;stroke-dasharray:none;stroke-opacity:1;paint-order:normal"/><ellipse transform="scale(-1 1)" ry=".844" rx=".921" cy="159.5" cx="-146.703" id="path962" style="opacity:1;fill:#f5d300;fill-opacity:1;fill-rule:evenodd;stroke:#ffaa01;stroke-width:.39816013;stroke-linecap:round;stroke-miterlimit:4;stroke-dasharray:none;stroke-opacity:1;paint-order:normal"/><circle transform="scale(-1 1)" r="1.151" cy="151.521" cx="-147.086" id="path964" style="opacity:1;fill:#f5d300;fill-opacity:1;fill-rule:evenodd;stroke:#ffaa01;stroke-width:.39816013;stroke-linecap:round;stroke-miterlimit:4;stroke-dasharray:none;stroke-opacity:1;paint-order:normal"/><ellipse transform="scale(-1 1)" ry="1.458" rx="1.381" cy="165.638" cx="-156.216" id="path966" style="opacity:1;fill:#f5d300;fill-opacity:1;fill-rule:evenodd;stroke:#ffaa01;stroke-width:.39816013;stroke-linecap:round;stroke-miterlimit:4;stroke-dasharray:none;stroke-opacity:1;paint-order:normal"/><ellipse transform="scale(-1 1)" ry="1.074" rx="1.228" cy="152.058" cx="-128.442" id="path968" style="opacity:1;fill:#f5d300;fill-opacity:1;fill-rule:evenodd;stroke:#ffaa01;stroke-width:.39816013;stroke-linecap:round;stroke-miterlimit:4;stroke-dasharray:none;stroke-opacity:1;paint-order:normal"/><ellipse transform="scale(-1 1)" ry="1.074" rx=".997" cy="153.132" cx="-117.931" id="path970" style="opacity:1;fill:#f5d300;fill-opacity:1;fill-rule:evenodd;stroke:#ffaa01;stroke-width:.39816013;stroke-linecap:round;stroke-miterlimit:4;stroke-dasharray:none;stroke-opacity:1;paint-order:normal"/><ellipse transform="scale(-1 1)" ry="1.074" rx="1.611" cy="165.101" cx="-124.376" id="path972" style="opacity:1;fill:#f5d300;fill-opacity:1;fill-rule:evenodd;stroke:#ffaa01;stroke-width:.39816013;stroke-linecap:round;stroke-miterlimit:4;stroke-dasharray:none;stroke-opacity:1;paint-order:normal"/></g><path style="fill:none;stroke:#000;stroke-width:1px;stroke-linecap:butt;stroke-linejoin:miter;stroke-opacity:1" d="M12.164 46.657z" id="path946"/><path style="fill:none;stroke:none;stroke-width:1px;stroke-linecap:butt;stroke-linejoin:miter;stroke-opacity:1" d="M12.5 161.043c.181-4.885 6.81-5.68 7.566-.155-.407 5.768-7.266 4.705-7.565.155z" id="traj4"/><path style="fill:none;stroke:none;stroke-width:1px;stroke-linecap:butt;stroke-linejoin:miter;stroke-opacity:1" d="M42.5 164.9c.027-1.421.762-2.862 2.047-3.538 1.314-.742 3.094-.557 4.178.512.798.763 1.234 1.854 1.336 2.939-.09 1.308-.626 2.692-1.796 3.397-1.519.938-3.621.457-4.762-.859a4.049 4.049 0 0 1-1.002-2.45z" id="traj3"/><path style="fill:none;stroke:none;stroke-width:1px;stroke-linecap:butt;stroke-linejoin:miter;stroke-opacity:1" d="M73.5 165.265c.18-4.885 6.81-5.68 7.565-.156-.407 5.77-7.266 4.706-7.566.156z" id="traj2"/><path style="fill:none;stroke:none;stroke-width:1px;stroke-linecap:butt;stroke-linejoin:miter;stroke-opacity:1" d="M97.26 164.754c.18-4.885 6.81-5.68 7.565-.155-.407 5.768-7.266 4.705-7.566.155z" id="traj1"/></svg>