<svg xmlns="http://www.w3.org/2000/svg" width="361" height="393" viewBox="0 0 95.515 103.981" version="1.1" id="cat1" class="cat"><g id="layer1" transform="translate(0 -193.019)"><g id="g1050" transform="matrix(.35278 0 0 -.35278 32.774 282.931)"><path d="M0 0v-12.419c0-12.799 10.375-23.174 23.174-23.174h37.89c12.799 0 23.174 10.375 23.174 23.174V0c0 12.798-10.375 23.174-23.174 23.174h-37.89C10.375 23.174 0 12.798 0 0" style="fill:#c9802e;fill-opacity:1;fill-rule:nonzero;stroke:none" id="path1052"/></g><g id="g1054" transform="matrix(.35278 0 0 -.35278 54.316 274.756)"><path d="M0 0h-18.945v-58.767H0c12.798 0 23.174 10.375 23.174 23.174v12.419C23.174-10.375 12.798 0 0 0" style="fill:#ad702c;fill-opacity:1;fill-rule:nonzero;stroke:none" id="path1056"/></g><g id="g1058" transform="matrix(.35278 0 0 -.35278 49.38 233.905)"><path d="m0 0 14.61 47.871c7.292 23.891-2.666 49.672-24.123 62.459l-.041.024c-15.806 9.42-36.236 4.606-46.173-10.881a6.45 6.45 0 0 1 1.628-8.695 8.512 8.512 0 0 1 11.999 2.01c6.172 8.856 18.384 10.973 27.177 4.714C-.091 86.943 6.388 68.123 1.199 50.672L-13.87 0z" style="fill:#926029;fill-opacity:1;fill-rule:nonzero;stroke:none" id="path1060"/></g><g id="g1062" transform="matrix(.35278 0 0 -.35278 93.788 129.538)"><path d="M-14.01-317.713a9.388 9.388 0 0 1-.068 2.088c-2.834 21.003 18.165 66.571 11.32 76.857-5.503 8.271-38.278-18.448-50.915-29.239-16.435 10.682-36.926 17.955-59.505 20.54l-5.054 8.754a1.006 1.006 0 0 1-1.743 0l-4.55-7.879h-.795l-4.598 7.965a.949.949 0 0 1-1.644 0l-4.563-7.903h-.867l-4.513 7.817c-.388.671-6.768-8.704-6.768-8.704-22.714-2.442-43.357-9.61-59.928-20.254-12.908 10.996-45.074 37.091-50.522 28.903-6.844-10.286 14.155-55.854 11.32-76.857-.072-.543-.067-.952-.07-1.375l-.765-4.944a48.312 48.312 0 0 1-.57-7.395s.077-3.707.135-6.834c.05-2.79.309-5.573.77-8.326l.52-3.109c.177-1.06.385-2.117.66-3.156 10.627-40.189 58.285-70.514 115.524-70.514 58.262 0 106.597 31.418 116.057 72.676l1.354 8.114.022.222c.23 2.343.262 4.702.195 7.056z" style="fill:#c9802e;fill-opacity:1;fill-rule:nonzero;stroke:none" id="path1064"/></g><g id="g1066" transform="matrix(.35278 0 0 -.35278 92.816 213.77)"><path d="M0 0c-5.504 8.271-38.279-18.448-50.916-29.24-16.435 10.682-36.926 17.956-59.505 20.541l-5.055 8.754a1.005 1.005 0 0 1-1.742 0l-4.549-7.879h-.796l-4.598 7.965a.924.924 0 0 1-.726.45v-183.092c58.012.199 106.072 31.54 115.502 72.666l1.354 8.115.022.221c.23 2.344.261 4.703.195 7.056l-.439 15.498a9.38 9.38 0 0 1-.068 2.087C-14.155-55.854 6.844-10.286 0 0" style="fill:#ad702c;fill-opacity:1;fill-rule:nonzero;stroke:none" id="path1068"/></g><g id="g1070" transform="matrix(.35278 0 0 -.35278 90.38 267.215)"><path d="M0 0c0 42.155-54.252 25.296-121.176 25.296-66.923 0-121.175 16.859-121.175-25.296 0-19.175 43.951-35.076 101.526-38.066 3.16-7.752 10.761-13.221 19.649-13.221 8.888 0 16.49 5.469 19.649 13.221C-43.951-35.076 0-19.175 0 0" style="fill:#f1f1f2;fill-opacity:1;fill-rule:nonzero;stroke:none" id="path1072"/></g><g id="g1074" transform="matrix(.35278 0 0 -.35278 58.59 293.833)"><path d="M0 0v5.641c0 5.813-7.626 10.525-17.034 10.525h-27.852c-9.407 0-17.033-4.712-17.033-10.525V0c0-.5.06-.991.173-1.471a23.023 23.023 0 0 1 11.74-3.22h37.891c4.385 0 8.47 1.24 11.967 3.356C-.055-.898 0-.453 0 0" style="fill:#ffe1b2;fill-opacity:1;fill-rule:nonzero;stroke:none" id="path1076"/></g><g id="g1078" transform="matrix(.35278 0 0 -.35278 77.403 225.823)"><path d="M0 0s27.78 26.165 31.656 20.027c3.876-6.137-8.016-33.326-6.411-45.857C26.849-38.362 0 0 0 0" style="fill:#765027;fill-opacity:1;fill-rule:nonzero;stroke:none" id="path1080"/></g><g id="g1082" transform="matrix(.35278 0 0 -.35278 17.582 225.823)"><path d="M0 0s-27.78 26.165-31.656 20.027c-3.876-6.137 8.016-33.326 6.411-45.857C-26.849-38.362 0 0 0 0" style="fill:#926029;fill-opacity:1;fill-rule:nonzero;stroke:none" id="path1084"/></g><g id="g1086" transform="matrix(.35278 0 0 -.35278 11.316 245.91)"><path d="m0 0-14.895 3.991a48.533 48.533 0 0 1-.132-3.455s.076-3.706.134-6.833c.051-2.791.309-5.573.769-8.326l.199-1.19c.037.027.081.032.114.066L.409-1.528A.913.913 0 0 1 0 0" style="fill:#404041;fill-opacity:1;fill-rule:nonzero;stroke:none" id="path1088"/></g><g id="g1090" transform="matrix(.35278 0 0 -.35278 13.413 253.56)"><path d="m0 0-19.425 5.205c-.115.031-.223.01-.331-.002l.209-1.25c.177-1.06.385-2.117.66-3.156 1.414-5.346 3.501-10.511 6.161-15.46L.409-1.528A.913.913 0 0 1 0 0" style="fill:#404041;fill-opacity:1;fill-rule:nonzero;stroke:none" id="path1092"/></g><g id="g1094" transform="matrix(.35278 0 0 -.35278 89 247.087)"><path d="m0 0-.204 7.19-15.298-4.1a.912.912 0 0 1-.409-1.527l14.219-14.22a.872.872 0 0 1 .537-.24l.938 5.619.022.222C.035-4.713.067-2.354 0 0" style="fill:#333;fill-opacity:1;fill-rule:nonzero;stroke:none" id="path1096"/></g><g id="g1098" transform="matrix(.35278 0 0 -.35278 81.435 253.647)"><path d="M0 0a.913.913 0 0 1-.409-1.528l13.35-13.35c3.14 5.75 5.493 11.799 6.934 18.081l.307 1.84c-.21.152-.472.238-.757.162z" style="fill:#333;fill-opacity:1;fill-rule:nonzero;stroke:none" id="path1100"/></g><g id="g1102" transform="matrix(.35278 0 0 -.35278 59.585 282.686)"><path d="m0 0 8.24-4.847v4.151c0 2.025-.287 3.98-.775 5.853L.008.932A.538.538 0 0 1 0 0" style="fill:#333;fill-opacity:1;fill-rule:nonzero;stroke:none" id="path1104"/></g><g id="g1106" transform="matrix(.35278 0 0 -.35278 52.858 211.937)"><path d="m0 0 6.805-4.003a54.08 54.08 0 0 1 .169 8.882L.007.932A.538.538 0 0 1 0 0" style="fill:#404041;fill-opacity:1;fill-rule:nonzero;stroke:none" id="path1108"/></g><g id="g1110" transform="matrix(.35278 0 0 -.35278 49.027 205.439)"><path d="M0 0a42.634 42.634 0 0 0 2.857-8.353l5.335 5.249a.538.538 0 0 1-.234.902z" style="fill:#404041;fill-opacity:1;fill-rule:nonzero;stroke:none" id="path1112"/></g><g id="g1114" transform="matrix(.35278 0 0 -.35278 44.116 199.509)"><path d="M0 0c.234-.166.447-.352.676-.523l.057 6.971a.538.538 0 0 1-.804.472l-6.773-3.837A19.32 19.32 0 0 0 0 0" style="fill:#404041;fill-opacity:1;fill-rule:nonzero;stroke:none" id="path1116"/></g><g id="g1118" transform="matrix(.35278 0 0 -.35278 49.91 198.046)"><path d="m0 0-2.542-6.531a.538.538 0 0 1 .583-.727l7.133 1.096A54.11 54.11 0 0 1 0 0" style="fill:#404041;fill-opacity:1;fill-rule:nonzero;stroke:none" id="path1120"/></g><g id="g1122" transform="matrix(.35278 0 0 -.35278 36.57 193.747)"><path d="m0 0 3.352-5.916a.538.538 0 0 1 .932-.008L8.533 1.3A34.255 34.255 0 0 1 0 0" style="fill:#404041;fill-opacity:1;fill-rule:nonzero;stroke:none" id="path1124"/></g><g id="g1126" transform="matrix(.35278 0 0 -.35278 59.523 288.056)"><path d="M0 0a.538.538 0 0 1-.008-.932l7.234-4.256a23.106 23.106 0 0 1 1.19 7.295v2.661z" style="fill:#333;fill-opacity:1;fill-rule:nonzero;stroke:none" id="path1128"/></g><g id="g1130" transform="matrix(.35278 0 0 -.35278 32.774 286.517)"><path d="M0 0v-2.256c0-2.619.455-5.128 1.256-7.476l6.976 3.953a.538.538 0 0 1 .008.932z" style="fill:#404041;fill-opacity:1;fill-rule:nonzero;stroke:none" id="path1132"/></g><g id="g1134" transform="matrix(.35278 0 0 -.35278 33.058 280.824)"><path d="M0 0a23.124 23.124 0 0 1-.806-5.973v-4.275l8.474 4.801a.538.538 0 0 1 .008.932z" style="fill:#404041;fill-opacity:1;fill-rule:nonzero;stroke:none" id="path1136"/></g><g id="g1138" transform="matrix(.35278 0 0 -.35278 35.868 199.323)"><path d="m0 0-14.506-8.002c3.698-1.809 8.271-.734 10.708 2.763A19.385 19.385 0 0 0-.024-1.213z" style="fill:#404041;fill-opacity:1;fill-rule:nonzero;stroke:none" id="path1140"/></g><g id="g1142" transform="matrix(.35278 0 0 -.35278 30.295 201.88)"><path d="M0 0c3.76-2.743 8.985-1.926 11.773 1.747l.155 7.92-13.745-7.583A6.391 6.391 0 0 1 0 0" style="fill:#404041;fill-opacity:1;fill-rule:nonzero;stroke:none" id="path1144"/></g><g id="g1146" transform="matrix(.35278 0 0 -.35278 30.295 201.88)"><path d="M0 0c2.368-1.727 5.321-2.039 7.881-1.126l.248 12.728-10.735-5.923C-2.761 3.527-1.858 1.355 0 0" style="fill:#404041;fill-opacity:1;fill-rule:nonzero;stroke:none" id="path1148"/></g><g id="g1150" transform="matrix(.35278 0 0 -.35278 29.721 198.813)"><path d="M0 0a6.45 6.45 0 0 1 1.628-8.695 8.476 8.476 0 0 1 3.247-1.44l.287 14.734-3.065-1.69A34.327 34.327 0 0 1 0 0" style="fill:#404041;fill-opacity:1;fill-rule:nonzero;stroke:none" id="path1152"/></g><g id="g1154" transform="matrix(.35278 0 0 -.35278 40.349 248.343)"><path d="M0 0a9.582 9.582 0 0 0-9.583-9.583c-5.292 0-9.583 4.29-9.583 9.583s4.291 9.583 9.583 9.583A9.582 9.582 0 0 0 0 0" style="fill:#404041;fill-opacity:1;fill-rule:nonzero;stroke:none" id="path1156"/></g><g id="g1158" transform="matrix(.35278 0 0 -.35278 61.678 248.343)"><path d="M0 0a9.582 9.582 0 0 0-9.583-9.583c-5.292 0-9.583 4.29-9.583 9.583s4.291 9.583 9.583 9.583A9.582 9.582 0 0 0 0 0" style="fill:#404041;fill-opacity:1;fill-rule:nonzero;stroke:none" id="path1160"/></g><g id="g1162" transform="matrix(.35278 0 0 -.35278 42.718 259.74)"><path d="M0 0c-.866.109-86.908 10.77-120.582.033l-.509 1.593c34.026 10.847 120.432.142 121.3.033z" style="fill:#404041;fill-opacity:1;fill-rule:nonzero;stroke:none" id="path1164"/></g><g id="g1166" transform="matrix(.35278 0 0 -.35278 .462 267.927)"><path d="m0 0-.741 1.499c32.013 15.827 119.047 18.199 119.923 18.222l.042-1.672C118.352 18.027 31.685 15.664 0 0" style="fill:#404041;fill-opacity:1;fill-rule:nonzero;stroke:none" id="path1168"/></g><g id="g1170" transform="matrix(.35278 0 0 -.35278 2.081 275.342)"><path d="m0 0-.947 1.378c29.431 20.227 115.24 34.975 116.103 35.121l.28-1.648C114.576 34.705 29.129 20.019 0 0" style="fill:#404041;fill-opacity:1;fill-rule:nonzero;stroke:none" id="path1172"/></g><g id="g1174" transform="matrix(.35278 0 0 -.35278 37.217 247.247)"><path d="M0 0a3.105 3.105 0 1 0-6.21 0A3.105 3.105 0 0 0 0 0" style="fill:#f1f1f2;fill-opacity:1;fill-rule:nonzero;stroke:none" id="path1176"/></g><g id="g1178" transform="matrix(.35278 0 0 -.35278 58.297 247.247)"><path d="M0 0a3.105 3.105 0 1 0-6.21 0A3.105 3.105 0 0 0 0 0" style="fill:#f1f1f2;fill-opacity:1;fill-rule:nonzero;stroke:none" id="path1180"/></g><g id="g1182" transform="matrix(.35278 0 0 -.35278 44.714 293.64)"><path d="M0 0c-1.73 0-3.133-1.173-3.602-2.752-.131 2.449-2.116 4.408-4.597 4.408-2.481 0-4.467-1.959-4.598-4.407C-13.265-1.173-14.669 0-16.399 0a3.817 3.817 0 0 1-3.817-3.818c0-.108.052-.199.061-.305v-3.843c0-.862.699-1.561 1.562-1.561H2.265c.838 0 1.518.679 1.518 1.517v4.019c.003.061.035.112.035.173A3.818 3.818 0 0 1 0 0" style="fill:#c9802e;fill-opacity:1;fill-rule:nonzero;stroke:none" id="path1184"/></g><g id="g1186" transform="matrix(.35278 0 0 -.35278 47.633 226.018)"><path d="m0 0 58.873-8.508H-58.873z" style="fill:#404041;fill-opacity:1;fill-rule:nonzero;stroke:none" id="path1188"/></g><g id="g1190" transform="matrix(.35278 0 0 -.35278 47.633 221.213)"><path d="m0 0 48.793-7.051h-97.586z" style="fill:#404041;fill-opacity:1;fill-rule:nonzero;stroke:none" id="path1192"/></g><g id="g1194" transform="matrix(.35278 0 0 -.35278 47.633 230.703)"><path d="m0 0 35.607-5.146h-71.214z" style="fill:#404041;fill-opacity:1;fill-rule:nonzero;stroke:none" id="path1196"/></g><g id="g1198" transform="matrix(.35278 0 0 -.35278 58.59 293.833)"><path d="M0 0v5.641c0 5.813-7.626 10.525-17.034 10.525H-31.06V-4.691h18.945c4.383 0 8.466 1.239 11.961 3.353C-.06-.9 0-.455 0 0" style="fill:#edc186;fill-opacity:1;fill-rule:nonzero;stroke:none" id="path1200"/></g><g id="g1202" transform="matrix(.35278 0 0 -.35278 58.59 293.833)"><path d="M0 0v5.641c0 5.813-7.626 10.525-17.034 10.525H-31.06V-4.691h18.945c4.383 0 8.466 1.239 11.961 3.353C-.06-.9 0-.455 0 0" style="fill:#edc186;fill-opacity:1;fill-rule:nonzero;stroke:none" id="path1204"/></g><g id="g1206" transform="matrix(.35278 0 0 -.35278 56.337 293.64)"><path d="M0 0c-1.73 0-3.133-1.173-3.602-2.752-.131 2.449-2.116 4.408-4.597 4.408-2.481 0-4.467-1.959-4.598-4.407C-13.265-1.173-14.669 0-16.399 0a3.817 3.817 0 0 1-3.817-3.818c0-.108.052-.199.061-.305v-3.843c0-.862.699-1.561 1.562-1.561H2.265c.838 0 1.518.679 1.518 1.517v4.019c.003.061.035.112.035.173A3.818 3.818 0 0 1 0 0" style="fill:#a86828;fill-opacity:1;fill-rule:nonzero;stroke:none" id="path1208"/></g><g id="g1210" transform="matrix(.35278 0 0 -.35278 47.7 258.29)"><path d="M0 0v-76.571c8.804.079 16.322 5.512 19.458 13.207 57.576 2.99 101.527 18.891 101.527 38.066C120.985 16.817 66.835.032 0 0" style="fill:#e6e7e8;fill-opacity:1;fill-rule:nonzero;stroke:none" id="path1212"/></g><g id="g1214" transform="matrix(.35278 0 0 -.35278 47.662 258.734)"><path d="M0 0v-22.104s-8.43-15.615-20.751 0" style="fill:none;stroke:#404041;stroke-width:1.5;stroke-linecap:butt;stroke-linejoin:miter;stroke-miterlimit:10;stroke-dasharray:none;stroke-opacity:1" id="path1216"/></g><g id="g1218" transform="matrix(.35278 0 0 -.35278 52.682 259.877)"><path d="m0 0-.209 1.659c.869.11 87.274 10.815 121.3-.033l-.509-1.593C86.908 10.768.865.109 0 0" style="fill:#404041;fill-opacity:1;fill-rule:nonzero;stroke:none" id="path1220"/></g><g id="g1222" transform="matrix(.35278 0 0 -.35278 93.319 275.478)"><path d="M0 0c-29.131 20.02-114.576 34.705-115.436 34.851l.28 1.648c.863-.146 86.672-14.895 116.103-35.121z" style="fill:#404041;fill-opacity:1;fill-rule:nonzero;stroke:none" id="path1224"/></g><g id="g1226" transform="matrix(.35278 0 0 -.35278 94.938 267.927)"><path d="M0 0c-31.684 15.664-118.352 18.027-119.224 18.049l.042 1.672c.876-.023 87.911-2.395 119.923-18.222z" style="fill:#404041;fill-opacity:1;fill-rule:nonzero;stroke:none" id="path1228"/></g><g id="g1230" transform="matrix(.35278 0 0 -.35278 50.812 257.742)"><path d="m0 0-6.009-10.408c-1.25-2.166-4.377-2.166-5.627 0L-17.645 0c-1.251 2.166.312 4.874 2.814 4.874h12.017C-.313 4.874 1.251 2.166 0 0" style="fill:#404041;fill-opacity:1;fill-rule:nonzero;stroke:none" id="path1232"/></g><g id="g1234" transform="matrix(.35278 0 0 -.35278 54.89 266.513)"><path d="M0 0s-10.201-15.587-20.403 0" style="fill:none;stroke:#404041;stroke-width:1.5;stroke-linecap:butt;stroke-linejoin:miter;stroke-miterlimit:10;stroke-dasharray:none;stroke-opacity:1" id="path1236"/></g></g></svg>