<svg xmlns="http://www.w3.org/2000/svg" width="312.189" height="103.4mm" viewBox="0 0 82.6 103.4" version="1.1" id="cat4" class="cat"><g id="layer1" transform="translate(0 -193.6)"><g id="g1478" transform="matrix(.35278 0 0 -.35278 23.532 281.998)"><path d="M0 0v-14.839C0-30.13 12.396-42.526 27.688-42.526h45.271c15.292 0 27.688 12.396 27.688 27.687V0c0 15.292-12.396 27.688-27.688 27.688H27.688C12.396 27.688 0 15.292 0 0" style="fill:#eee;fill-opacity:1;fill-rule:nonzero;stroke:none" id="path1480"/></g><g id="g1482" transform="matrix(.35278 0 0 -.35278 30.091 228.216)"><path d="M0 0c0-54.178-9.83-98.098-21.955-98.098-12.126 0-21.955 43.92-21.955 98.098s9.829 98.098 21.955 98.098C-9.83 98.098 0 54.178 0 0" style="fill:#fff;fill-opacity:1;fill-rule:nonzero;stroke:none" id="path1484"/></g><g id="g1486" transform="matrix(.35278 0 0 -.35278 64.361 228.216)"><path d="M0 0c0-54.178-9.83-98.098-21.955-98.098-12.126 0-21.955 43.92-21.955 98.098s9.829 98.098 21.955 98.098C-9.83 98.098 0 54.178 0 0" style="fill:#eee;fill-opacity:1;fill-rule:nonzero;stroke:none" id="path1488"/></g><g id="g1490" transform="matrix(.35278 0 0 -.35278 62.167 229.81)"><path d="M0 0c0-43.263-7.044-78.335-15.734-78.335-8.689 0-15.734 35.072-15.734 78.335 0 43.263 7.045 78.335 15.734 78.335C-7.044 78.335 0 43.263 0 0" style="fill:#efd5be;fill-opacity:1;fill-rule:nonzero;stroke:none" id="path1492"/></g><g id="g1494" transform="matrix(.35278 0 0 -.35278 27.897 229.81)"><path d="M0 0c0-43.263-7.044-78.335-15.734-78.335-8.689 0-15.734 35.072-15.734 78.335 0 43.263 7.045 78.335 15.734 78.335C-7.044 78.335 0 43.263 0 0" style="fill:#ffe7d1;fill-opacity:1;fill-rule:nonzero;stroke:none" id="path1496"/></g><g id="g1498" transform="matrix(.35278 0 0 -.35278 76.278 255.394)"><path d="M0 0c.041.486.04 1.043-.057 1.765-.899 6.657-5.83 13.982-11.643 20.537-11.003 12.408-25.032 21.713-40.448 27.825-10.073 3.994-22.329 8.18-31.676 9.25l-9.59.74h-.673l-9.133.052h-.733l-9.536-.75c-9.305-1-21.488-5.052-31.574-8.962-15.58-6.041-29.704-15.466-40.68-28.065-5.755-6.605-10.639-13.97-11.537-20.627-.062-.459-.058-.805-.061-1.163l-6.778-3.715a.27.27 0 0 1 0-.473l5.651-3.097v-3.144l-5.549-3.041a.335.335 0 0 1 0-.587l5.716-3.132v-2.485l-5.716-3.133a.334.334 0 0 1 0-.586l6.978-3.824c8.275-34.625 48.974-60.926 97.983-60.926 49.247 0 90.103 26.557 98.099 61.431l6.83 3.743-5.686 3.116c.125 1.231.21 2.471.253 3.719l5.433 2.977-5.891 3.229v2.879l5.247 2.876C5.508-3.419 0 0 0 0" style="fill:#fff;fill-opacity:1;fill-rule:nonzero;stroke:none" id="path1500"/></g><g id="g1502" transform="matrix(.35278 0 0 -.35278 49.27 272.23)"><path d="M0 0h-22.48v-70.214H0c15.291 0 27.688 12.396 27.688 27.688v14.838C27.688-12.396 15.291 0 0 0" style="fill:#ddd;fill-opacity:1;fill-rule:nonzero;stroke:none" id="path1504"/></g><g id="g1506" transform="matrix(.35278 0 0 -.35278 78.35 259.823)"><path d="m0 0-5.891 3.229v2.879l5.247 2.876c.279.152-5.229 3.571-5.229 3.571.041.485.04 1.043-.058 1.764-.898 6.658-5.829 13.983-11.642 20.538-11.003 12.408-25.032 21.713-40.448 27.825-10.074 3.994-22.329 8.18-31.676 9.25l-9.59.74h-.674l-4.95.028V-74.986c49.238.007 90.086 26.561 98.081 61.431L0-9.812l-5.686 3.116c.125 1.231.21 2.471.253 3.719z" style="fill:#eee;fill-opacity:1;fill-rule:nonzero;stroke:none" id="path1508"/></g><g id="g1510" transform="matrix(.35278 0 0 -.35278 35.29 292.445)"><path d="M0 0c-2.344 0-4.246-1.59-4.881-3.729-.177 3.318-2.868 5.973-6.23 5.973-3.362 0-6.052-2.654-6.23-5.972C-17.976-1.589-19.878 0-22.222 0a5.173 5.173 0 0 1-5.173-5.173c0-.147.071-.27.083-.414v-5.207c0-1.169.948-2.117 2.116-2.117H3.069c1.136 0 2.057.921 2.057 2.057v5.446c.004.082.047.152.047.235A5.173 5.173 0 0 1 0 0" style="fill:#fff;fill-opacity:1;fill-rule:nonzero;stroke:none" id="path1512"/></g><g id="g1514" transform="matrix(.35278 0 0 -.35278 55.304 292.445)"><path d="M0 0c-2.344 0-4.246-1.59-4.881-3.729-.177 3.318-2.868 5.973-6.23 5.973-3.362 0-6.052-2.654-6.23-5.972C-17.976-1.589-19.878 0-22.222 0a5.173 5.173 0 0 1-5.173-5.173c0-.147.071-.27.083-.414v-5.207c0-1.169.948-2.117 2.116-2.117H3.069c1.136 0 2.057.921 2.057 2.057v5.446c.004.082.047.152.047.235A5.173 5.173 0 0 1 0 0" style="fill:#eee;fill-opacity:1;fill-rule:nonzero;stroke:none" id="path1516"/></g><g id="g1518" transform="matrix(.35278 0 0 -.35278 34.633 255.792)"><path d="M0 0c0-6.501-5.27-11.772-11.772-11.772-6.501 0-11.771 5.271-11.771 11.772s5.27 11.772 11.771 11.772C-5.27 11.772 0 6.501 0 0" style="fill:#404041;fill-opacity:1;fill-rule:nonzero;stroke:none" id="path1520"/></g><g id="g1522" transform="matrix(.35278 0 0 -.35278 56.61 255.792)"><path d="M0 0c0-6.501-5.27-11.772-11.772-11.772-6.501 0-11.771 5.271-11.771 11.772s5.27 11.772 11.771 11.772C-5.27 11.772 0 6.501 0 0" style="fill:#404041;fill-opacity:1;fill-rule:nonzero;stroke:none" id="path1524"/></g><g id="g1526" transform="matrix(.35278 0 0 -.35278 30.786 254.446)"><path d="M0 0a3.814 3.814 0 1 0-7.628 0A3.814 3.814 0 0 0 0 0" style="fill:#f1f1f2;fill-opacity:1;fill-rule:nonzero;stroke:none" id="path1528"/></g><g id="g1530" transform="matrix(.35278 0 0 -.35278 52.458 254.446)"><path d="M0 0a3.814 3.814 0 1 0-7.628 0A3.814 3.814 0 0 0 0 0" style="fill:#f1f1f2;fill-opacity:1;fill-rule:nonzero;stroke:none" id="path1532"/></g><g id="g1534" transform="matrix(.35278 0 0 -.35278 41.397 266.667)"><path d="M0 0c-4.476 0-7.779 4.411-7.918 4.6l1.345.994c.029-.041 2.949-3.922 6.574-3.922h.054c2.077.023 4.053 1.337 5.874 3.908l1.364-.967C5.143 1.578 2.71.025.064 0z" style="fill:#404041;fill-opacity:1;fill-rule:nonzero;stroke:none" id="path1536"/></g><g id="g1538" transform="matrix(.35278 0 0 -.35278 45.6 263.628)"><path d="m0 0-.209 1.659c.753.095 75.54 9.358 105.004-.032l-.508-1.594C75.175 9.316.749.095 0 0" style="fill:#404041;fill-opacity:1;fill-rule:nonzero;stroke:none" id="path1540"/></g><g id="g1542" transform="matrix(.35278 0 0 -.35278 80.735 277.12)"><path d="M0 0c-25.186 17.308-99.093 30.011-99.837 30.138l.28 1.648C-98.81 31.66-24.539 18.893.947 1.378z" style="fill:#404041;fill-opacity:1;fill-rule:nonzero;stroke:none" id="path1544"/></g><g id="g1546" transform="matrix(.35278 0 0 -.35278 36.97 263.51)"><path d="M0 0c-.748.095-75.173 9.318-104.287.033l-.508 1.594C-75.331 11.02-.543 1.754.209 1.659z" style="fill:#404041;fill-opacity:1;fill-rule:nonzero;stroke:none" id="path1548"/></g><g id="g1550" transform="matrix(.35278 0 0 -.35278 .43 270.589)"><path d="m0 0-.741 1.498C26.98 15.204 102.312 17.257 103.07 17.277l.042-1.673C102.358 15.586 27.392 13.542 0 0" style="fill:#404041;fill-opacity:1;fill-rule:nonzero;stroke:none" id="path1552"/></g><g id="g1554" transform="matrix(.35278 0 0 -.35278 82.14 270.589)"><path d="M0 0c-27.395 13.544-102.359 15.586-103.113 15.604l.042 1.673c.758-.02 76.09-2.073 103.812-15.779z" style="fill:#404041;fill-opacity:1;fill-rule:nonzero;stroke:none" id="path1556"/></g><g id="g1558" transform="matrix(.35278 0 0 -.35278 1.835 277.002)"><path d="m0 0-.947 1.378C24.539 18.893 98.81 31.66 99.558 31.786l.28-1.648C99.094 30.011 25.184 17.307 0 0" style="fill:#404041;fill-opacity:1;fill-rule:nonzero;stroke:none" id="path1560"/></g><g id="g1562" transform="matrix(.35278 0 0 -.35278 43.266 273.376)"><path d="M0 0h-5.25v9.531L0 5.394z" style="fill:#cdcdcd;fill-opacity:1;fill-rule:nonzero;stroke:none" id="path1564"/></g><g id="g1566" transform="matrix(.35278 0 0 -.35278 41.34 273.376)"><path d="M0 0h-5.25v5.118L0 9.531z" style="fill:#ddd;fill-opacity:1;fill-rule:nonzero;stroke:none" id="path1568"/></g><g id="g1570" transform="matrix(.35278 0 0 -.35278 45.168 269.65)"><path d="M0 0c-.024-.044-2.375-4.392-5.273-4.392h-.002c-1.671.001-3.301 1.479-4.847 4.391l-.051-.027-.093 9.33-1.477-.016.097-9.675c-.349-.721-2.101-4.064-4.633-4.26-1.815-.134-3.759 1.372-5.759 4.497l-1.244-.796c2.204-3.445 4.479-5.188 6.768-5.187.118 0 .236.004.354.014 2.694.211 4.553 2.788 5.404 4.262 1.655-2.66 3.495-4.009 5.483-4.009 3.786 0 6.465 4.963 6.577 5.175z" style="fill:#404041;fill-opacity:1;fill-rule:nonzero;stroke:none" id="path1572"/></g></g></svg>