<svg xmlns="http://www.w3.org/2000/svg" width="101mm" height="103.3mm" viewBox="0 0 101 103.3" version="1.1" id="cat5" class="cat"><g id="layer1" transform="translate(0 -193.7)"><g id="g1358" transform="matrix(.35278 0 0 -.35278 35.096 283.43)"><path d="M0 0v-12.419c0-12.799 10.375-23.174 23.174-23.174h37.89c12.798 0 23.174 10.375 23.174 23.174V0c0 12.798-10.376 23.174-23.174 23.174h-37.89C10.375 23.174 0 12.798 0 0" style="fill:#58595b;fill-opacity:1;fill-rule:nonzero;stroke:none" id="path1360"/></g><g id="g1362" transform="matrix(.35278 0 0 -.35278 56.638 275.256)"><path d="M0 0h-17.358v-58.767H0c12.799 0 23.174 10.376 23.174 23.174v12.419C23.174-10.375 12.799 0 0 0" style="fill:#404041;fill-opacity:1;fill-rule:nonzero;stroke:none" id="path1364"/></g><g id="g1366" transform="matrix(.35278 0 0 -.35278 51.703 234.404)"><path d="m0 0 14.61 47.871c7.292 23.891-2.666 49.672-24.123 62.459l-.041.024c-15.806 9.42-36.236 4.606-46.173-10.881a6.45 6.45 0 0 1 1.628-8.695 8.513 8.513 0 0 1 11.999 2.01c6.172 8.856 18.384 10.973 27.177 4.714C-.091 86.943 6.388 68.123 1.199 50.672L-13.87 0z" style="fill:#404041;fill-opacity:1;fill-rule:nonzero;stroke:none" id="path1368"/></g><g id="g1370" transform="matrix(.35278 0 0 -.35278 93.555 243.764)"><path d="M0 0a9.89 9.89 0 0 1-.072 2.208c-2.998 22.22 19.217 70.427 11.977 81.309-5.823 8.751-40.496-19.516-53.865-30.933-17.386 11.301-39.065 18.996-62.951 21.73l-5.347 9.262a1.064 1.064 0 0 1-1.843 0l-4.813-8.336h-.842l-4.865 8.426a1.004 1.004 0 0 1-1.739 0l-4.827-8.361h-.917l-4.775 8.271a1.064 1.064 0 0 1-1.843 0l-5.317-9.209c-24.03-2.583-45.867-10.166-63.398-21.427-13.656 11.633-47.685 39.239-53.448 30.577-7.241-10.882 14.974-59.089 11.977-81.309-.078-.573-.073-1.006-.076-1.454l-8.485-4.65a.337.337 0 0 1 0-.592l7.074-3.877V-12.3l-6.945-3.806a.418.418 0 0 1 0-.733l7.154-3.921v-3.11l-7.154-3.921a.42.42 0 0 1 0-.734l8.733-4.785c10.356-43.336 61.294-76.253 122.632-76.253 61.635 0 112.77 33.238 122.778 76.885l8.548 4.684-7.116 3.9c.156 1.541.262 3.093.316 4.654l6.8 3.727-7.374 4.041v3.603L6.545-4.47a.503.503 0 0 1 0 .883z" style="fill:#909090;fill-opacity:1;fill-rule:nonzero;stroke:none" id="path1372"/></g><g id="g1374" transform="matrix(.35278 0 0 -.35278 97.755 214.301)"><path d="M0 0c-5.822 8.75-40.496-19.516-53.865-30.933-17.386 11.3-39.064 18.995-62.951 21.73l-5.347 9.261a1.064 1.064 0 0 1-1.843 0l-4.812-8.335h-.843l-4.41 7.638V-193.05c60.822.645 111.06 33.637 120.969 76.854l8.548 4.685-7.116 3.899c.156 1.542.262 3.094.316 4.655l6.8 3.726-7.373 4.041v3.604l6.567 3.599a.503.503 0 0 1 0 .883l-6.545 3.587c.052.607.05 1.305-.071 2.208C-14.974-59.089 7.241-10.882 0 0" style="fill:#7d7d7d;fill-opacity:1;fill-rule:nonzero;stroke:none" id="path1376"/></g><g id="g1378" transform="matrix(.35278 0 0 -.35278 54.903 284.08)"><path d="M0 0h-27.852c-9.407 0-17.033-7.626-17.033-17.034v-9.129c0-1.621.241-3.184.664-4.67a23.058 23.058 0 0 1 11.25-2.921h37.89c4.185 0 8.099 1.125 11.488 3.065a17.02 17.02 0 0 1 .627 4.526v9.129C17.034-7.626 9.408 0 0 0" style="fill:#f1f1f2;fill-opacity:1;fill-rule:nonzero;stroke:none" id="path1380"/></g><g id="g1382" transform="matrix(.35278 0 0 -.35278 57.885 295.882)"><path d="M0 0c.735.114 1.46.257 2.17.439.185.047.371.092.555.143 1.843.521 3.6 1.253 5.229 2.186a17.02 17.02 0 0 1 .627 4.526v9.129c0 9.407-7.627 17.034-17.034 17.034h-12.439V-.297h17.358c.958 0 1.896.074 2.822.188.24.029.475.073.712.109" style="fill:#d0d2d3;fill-opacity:1;fill-rule:nonzero;stroke:none" id="path1384"/></g><g id="g1386" transform="matrix(.35278 0 0 -.35278 81.45 227.052)"><path d="M0 0s29.389 27.68 33.49 21.187c4.1-6.493-8.481-35.256-6.783-48.513C28.404-40.584 0 0 0 0" style="fill:#d0d2d3;fill-opacity:1;fill-rule:nonzero;stroke:none" id="path1388"/></g><g id="g1390" transform="matrix(.35278 0 0 -.35278 18.164 227.052)"><path d="M0 0s-29.389 27.68-33.489 21.187c-4.101-6.493 8.48-35.256 6.782-48.513C-28.404-40.584 0 0 0 0" style="fill:#f1f1f2;fill-opacity:1;fill-rule:nonzero;stroke:none" id="path1392"/></g><g id="g1394" transform="matrix(.35278 0 0 -.35278 42.25 242.864)"><path d="M0 0c0-5.599-4.539-10.138-10.138-10.138S-20.276-5.599-20.276 0s4.539 10.138 10.138 10.138S0 5.599 0 0" style="fill:#404041;fill-opacity:1;fill-rule:nonzero;stroke:none" id="path1396"/></g><g id="g1398" transform="matrix(.35278 0 0 -.35278 64.813 242.864)"><path d="M0 0c0-5.599-4.539-10.138-10.138-10.138S-20.276-5.599-20.276 0s4.539 10.138 10.138 10.138S0 5.599 0 0" style="fill:#404041;fill-opacity:1;fill-rule:nonzero;stroke:none" id="path1400"/></g><g id="g1402" transform="matrix(.35278 0 0 -.35278 19.675 273.516)"><path d="M0 0c22.299-15.632 52.352-25.227 85.447-25.227 33.48 0 63.842 9.821 86.217 25.776-13.486 34.162-46.777 58.34-85.732 58.34C46.771 58.889 13.344 34.449 0 0" style="fill:#f1f1f2;fill-opacity:1;fill-rule:nonzero;stroke:none" id="path1404"/></g><g id="g1406" transform="matrix(.35278 0 0 -.35278 50.457 252.76)"><path d="M0 0v-84.032l.296.005c11.052.137 21.748 1.346 31.918 3.486.295.062.592.118.886.181 1.328.288 2.64.601 3.949.92.51.124 1.023.245 1.53.374 1.171.298 2.33.615 3.484.937.637.179 1.274.357 1.905.543a146.603 146.603 0 0 1 5.314 1.671c.931.312 1.858.63 2.777.958.832.297 1.656.604 2.478.915.807.304 1.613.61 2.41.927.951.379 1.889.773 2.826 1.17.657.278 1.318.552 1.968.839a138.08 138.08 0 0 1 3.412 1.573c.42.199.846.39 1.262.593 6.402 3.123 12.395 6.67 17.903 10.59l.089.065C71.074-24.517 38.378-.545 0 0" style="fill:#d0d2d3;fill-opacity:1;fill-rule:nonzero;stroke:none" id="path1408"/></g><g id="g1410" transform="matrix(.35278 0 0 -.35278 47.52 262.377)"><path d="M0 0c-3.331 0-6.67 2.58-9.931 7.676l1.283.822C-5.549 3.654-2.513 1.31.383 1.538c4.115.321 6.881 5.772 7.33 6.717v23.161h1.523V7.927l-.064-.145C9.041 7.482 5.899.443.506.02A6.583 6.583 0 0 0 0 0" style="fill:#404041;fill-opacity:1;fill-rule:nonzero;stroke:none" id="path1412"/></g><g id="g1414" transform="matrix(.35278 0 0 -.35278 53.477 262.372)"><path d="M0 0c-3.308 0-6.365 2.596-9.082 7.716l1.346.714c2.431-4.581 5.034-6.904 7.733-6.906H0c4.653 0 8.347 6.838 8.384 6.906l1.345-.714C9.562 7.401 5.569 0 0 0" style="fill:#404041;fill-opacity:1;fill-rule:nonzero;stroke:none" id="path1416"/></g><g id="g1418" transform="matrix(.35278 0 0 -.35278 55.726 250.717)"><path d="m0 0-.209 1.659c.92.116 92.321 11.437 128.303-.032l-.507-1.594C91.95 11.395.916.115 0 0" style="fill:#404041;fill-opacity:1;fill-rule:nonzero;stroke:none" id="path1420"/></g><g id="g1422" transform="matrix(.35278 0 0 -.35278 98.728 267.225)"><path d="M0 0c-30.827 21.185-121.231 36.722-122.141 36.877l.281 1.648C-120.948 38.37-30.18 22.77.947 1.378z" style="fill:#404041;fill-opacity:1;fill-rule:nonzero;stroke:none" id="path1424"/></g><g id="g1426" transform="matrix(.35278 0 0 -.35278 45.19 250.573)"><path d="M0 0c-.914.114-91.952 11.393-127.586.033l-.509 1.594C-92.11 13.097-.711 1.776.209 1.659z" style="fill:#404041;fill-opacity:1;fill-rule:nonzero;stroke:none" id="path1428"/></g><g id="g1430" transform="matrix(.35278 0 0 -.35278 .476 259.235)"><path d="m0 0-.741 1.498C33.116 18.238 125.18 20.746 126.106 20.77l.043-1.672C125.226 19.075 33.529 16.576 0 0" style="fill:#404041;fill-opacity:1;fill-rule:nonzero;stroke:none" id="path1432"/></g><g id="g1434" transform="matrix(.35278 0 0 -.35278 100.439 259.235)"><path d="M0 0c-33.529 16.576-125.226 19.075-126.148 19.098l.041 1.672c.926-.024 92.99-2.532 126.847-19.272z" style="fill:#404041;fill-opacity:1;fill-rule:nonzero;stroke:none" id="path1436"/></g><g id="g1438" transform="matrix(.35278 0 0 -.35278 2.187 267.08)"><path d="m0 0-.947 1.378C30.181 22.77 120.948 38.37 121.861 38.525l.28-1.648C121.231 36.722 30.825 21.184 0 0" style="fill:#404041;fill-opacity:1;fill-rule:nonzero;stroke:none" id="path1440"/></g><g id="g1442" transform="matrix(.35278 0 0 -.35278 53.808 251.724)"><path d="m0 0-6.357-11.01c-1.323-2.292-4.63-2.292-5.953 0L-18.667 0c-1.323 2.292.331 5.156 2.977 5.156h12.713C-.331 5.156 1.323 2.292 0 0" style="fill:#404041;fill-opacity:1;fill-rule:nonzero;stroke:none" id="path1444"/></g><g id="g1446" transform="matrix(.35278 0 0 -.35278 38.19 199.823)"><path d="m0 0-14.506-8.002c3.698-1.809 8.271-.734 10.708 2.763A19.385 19.385 0 0 0-.024-1.213z" style="fill:#f1f1f2;fill-opacity:1;fill-rule:nonzero;stroke:none" id="path1448"/></g><g id="g1450" transform="matrix(.35278 0 0 -.35278 32.618 202.38)"><path d="M0 0c3.76-2.743 8.985-1.926 11.773 1.747l.155 7.92-13.745-7.583A6.391 6.391 0 0 1 0 0" style="fill:#f1f1f2;fill-opacity:1;fill-rule:nonzero;stroke:none" id="path1452"/></g><g id="g1454" transform="matrix(.35278 0 0 -.35278 32.618 202.38)"><path d="M0 0c2.368-1.727 5.321-2.039 7.881-1.126l.248 12.728-10.735-5.923C-2.761 3.527-1.858 1.355 0 0" style="fill:#f1f1f2;fill-opacity:1;fill-rule:nonzero;stroke:none" id="path1456"/></g><g id="g1458" transform="matrix(.35278 0 0 -.35278 32.043 199.313)"><path d="M0 0a6.45 6.45 0 0 1 1.628-8.695 8.476 8.476 0 0 1 3.247-1.44l.287 14.734-3.065-1.69A34.327 34.327 0 0 1 0 0" style="fill:#f1f1f2;fill-opacity:1;fill-rule:nonzero;stroke:none" id="path1460"/></g><g id="g1462" transform="matrix(.35278 0 0 -.35278 38.936 241.705)"><path d="M0 0a3.285 3.285 0 1 0-6.57 0A3.285 3.285 0 0 0 0 0" style="fill:#f1f1f2;fill-opacity:1;fill-rule:nonzero;stroke:none" id="path1464"/></g><g id="g1466" transform="matrix(.35278 0 0 -.35278 61.237 241.705)"><path d="M0 0a3.285 3.285 0 1 0-6.57 0A3.285 3.285 0 0 0 0 0" style="fill:#f1f1f2;fill-opacity:1;fill-rule:nonzero;stroke:none" id="path1468"/></g><g id="g1470" transform="matrix(.35278 0 0 -.35278 45.463 293.64)"><path d="M0 0c-1.73 0-3.133-1.173-3.602-2.752-.131 2.449-2.116 4.408-4.597 4.408-2.481 0-4.467-1.959-4.598-4.407C-13.265-1.173-14.669 0-16.399 0a3.817 3.817 0 0 1-3.817-3.818c0-.108.052-.199.061-.305v-3.843c0-.862.699-1.561 1.562-1.561H2.265c.838 0 1.518.679 1.518 1.517v4.019c.003.061.035.112.035.173A3.818 3.818 0 0 1 0 0" style="fill:#58595b;fill-opacity:1;fill-rule:nonzero;stroke:none" id="path1472"/></g><g id="g1474" transform="matrix(.35278 0 0 -.35278 60.232 293.64)"><path d="M0 0c-1.73 0-3.133-1.173-3.602-2.752-.131 2.449-2.116 4.408-4.597 4.408-2.481 0-4.467-1.959-4.598-4.407C-13.265-1.173-14.669 0-16.399 0a3.817 3.817 0 0 1-3.817-3.818c0-.108.052-.199.061-.305v-3.843c0-.862.699-1.561 1.562-1.561H2.265c.838 0 1.518.679 1.518 1.517v4.019c.003.061.035.112.035.173A3.818 3.818 0 0 1 0 0" style="fill:#404041;fill-opacity:1;fill-rule:nonzero;stroke:none" id="path1476"/></g></g></svg>