<svg xmlns="http://www.w3.org/2000/svg" width="53mm" height="74.835" viewBox="0 0 53 19.8" version="1.1" id="svg8"><g id="layer1" transform="translate(0 -277.2)"><g id="g896" transform="translate(-13.329 179.15) scale(.45492)"><g id="text817" style="font-style:normal;font-weight:400;font-size:10.58333302px;line-height:1.25;font-family:sans-serif;letter-spacing:0;word-spacing:0;fill:#fe53bb;fill-opacity:1;stroke:none;stroke-width:.26458332;stroke-miterlimit:4;stroke-dasharray:none" aria-label="dmai.developer@gmail.com"><path id="path821" style="font-style:normal;font-variant:normal;font-weight:400;font-stretch:normal;font-size:5.64444447px;font-family:'FiraCode Nerd Font Mono';-inkscape-font-specification:'FiraCode Nerd Font Mono, Normal';font-variant-ligatures:normal;font-variant-caps:normal;font-variant-numeric:normal;font-feature-settings:normal;text-align:start;writing-mode:lr-tb;text-anchor:start;fill:#fe53bb;stroke:none;stroke-width:.26458332;stroke-miterlimit:4;stroke-dasharray:none" d="M49.583 236.193v1.583c-.203-.237-.466-.359-.817-.359-.752 0-1.195.675-1.195 1.592 0 .944.365 1.587 1.16 1.587.336 0 .637-.145.866-.47l.046.403h.426v-4.275zm-.69 1.615c.281 0 .525.145.69.391v1.523c-.165.248-.406.48-.75.48-.478 0-.732-.402-.732-1.193 0-.804.283-1.2.793-1.2z"/><path id="path823" style="font-style:normal;font-variant:normal;font-weight:400;font-stretch:normal;font-size:5.64444447px;font-family:'FiraCode Nerd Font Mono';-inkscape-font-specification:'FiraCode Nerd Font Mono, Normal';font-variant-ligatures:normal;font-variant-caps:normal;font-variant-numeric:normal;font-feature-settings:normal;text-align:start;writing-mode:lr-tb;text-anchor:start;fill:#fe53bb;stroke:none;stroke-width:.26458332;stroke-miterlimit:4;stroke-dasharray:none" d="M53.241 237.417c-.312 0-.506.163-.671.403-.096-.316-.322-.403-.553-.403-.304 0-.498.183-.663.417l-.029-.353h-.382v3.048h.449v-2.368c.168-.26.344-.364.532-.364.22 0 .235.159.235.54v2.192h.454v-2.368c.168-.26.35-.364.533-.364.22 0 .234.159.234.54v2.192h.452v-2.27c0-.703-.301-.842-.59-.842z"/><path id="path825" style="font-style:normal;font-variant:normal;font-weight:400;font-stretch:normal;font-size:5.64444447px;font-family:'FiraCode Nerd Font Mono';-inkscape-font-specification:'FiraCode Nerd Font Mono, Normal';font-variant-ligatures:normal;font-variant-caps:normal;font-variant-numeric:normal;font-feature-settings:normal;text-align:start;writing-mode:lr-tb;text-anchor:start;fill:#fe53bb;stroke:none;stroke-width:.26458332;stroke-miterlimit:4;stroke-dasharray:none" d="M56.888 239.863v-1.461c0-.602-.382-.985-1.14-.985a2.81 2.81 0 0 0-.996.192l.128.367c.315-.11.59-.156.793-.156.454 0 .726.165.726.605v.255h-.448c-.927 0-1.43.347-1.43.975 0 .567.373.94.984.94.394 0 .738-.144.955-.428.087.272.295.394.559.429l.118-.342c-.17-.052-.249-.145-.249-.39zm-1.259.362c-.396 0-.587-.197-.587-.576 0-.39.246-.64.917-.64h.44v.785a.934.934 0 0 1-.77.431z"/><path id="path827" style="font-style:normal;font-variant:normal;font-weight:400;font-stretch:normal;font-size:5.64444447px;font-family:'FiraCode Nerd Font Mono';-inkscape-font-specification:'FiraCode Nerd Font Mono, Normal';font-variant-ligatures:normal;font-variant-caps:normal;font-variant-numeric:normal;font-feature-settings:normal;text-align:start;writing-mode:lr-tb;text-anchor:start;fill:#fe53bb;stroke:none;stroke-width:.26458332;stroke-miterlimit:4;stroke-dasharray:none" d="M59.334 236.054a.335.335 0 0 0-.35.339c0 .197.145.347.35.347.217 0 .356-.15.356-.347 0-.191-.139-.339-.356-.339zm.388 1.427h-1.398v.385h.912v2.278h-.94v.385h2.286v-.385h-.86z"/><path id="path829" style="font-style:normal;font-variant:normal;font-weight:400;font-stretch:normal;font-size:5.64444447px;font-family:'FiraCode Nerd Font Mono';-inkscape-font-specification:'FiraCode Nerd Font Mono, Normal';font-variant-ligatures:normal;font-variant-caps:normal;font-variant-numeric:normal;font-feature-settings:normal;text-align:start;writing-mode:lr-tb;text-anchor:start;fill:#fe53bb;stroke:none;stroke-width:.26458332;stroke-miterlimit:4;stroke-dasharray:none" d="M62.296 240.083c0 .287.22.513.506.513a.504.504 0 0 0 .512-.513c0-.28-.22-.506-.512-.506a.502.502 0 0 0-.506.506z"/><path id="path831" style="font-style:normal;font-variant:normal;font-weight:400;font-stretch:normal;font-size:5.64444447px;font-family:'FiraCode Nerd Font Mono';-inkscape-font-specification:'FiraCode Nerd Font Mono, Normal';font-variant-ligatures:normal;font-variant-caps:normal;font-variant-numeric:normal;font-feature-settings:normal;text-align:start;writing-mode:lr-tb;text-anchor:start;fill:#fe53bb;stroke:none;stroke-width:.26458332;stroke-miterlimit:4;stroke-dasharray:none" d="M66.95 236.193v1.583c-.203-.237-.466-.359-.816-.359-.753 0-1.196.675-1.196 1.592 0 .944.365 1.587 1.161 1.587.336 0 .637-.145.866-.47l.046.403h.425v-4.275zm-.689 1.615c.28 0 .524.145.689.391v1.523c-.165.248-.405.48-.75.48-.477 0-.732-.402-.732-1.193 0-.804.284-1.2.793-1.2z"/><path id="path833" style="font-style:normal;font-variant:normal;font-weight:400;font-stretch:normal;font-size:5.64444447px;font-family:'FiraCode Nerd Font Mono';-inkscape-font-specification:'FiraCode Nerd Font Mono, Normal';font-variant-ligatures:normal;font-variant-caps:normal;font-variant-numeric:normal;font-feature-settings:normal;text-align:start;writing-mode:lr-tb;text-anchor:start;fill:#fe53bb;stroke:none;stroke-width:.26458332;stroke-miterlimit:4;stroke-dasharray:none" d="M68.982 239.177h2.05c.005-.066.011-.162.011-.266 0-.926-.469-1.494-1.239-1.494-.81 0-1.331.67-1.331 1.592 0 .947.503 1.587 1.395 1.587.379 0 .764-.136 1.048-.36l-.23-.32c-.268.182-.503.274-.812.274-.472 0-.866-.306-.892-1.013zm.828-1.36c.457 0 .752.333.764.984h-1.59c.041-.671.371-.984.826-.984z"/><path id="path835" style="font-style:normal;font-variant:normal;font-weight:400;font-stretch:normal;font-size:5.64444447px;font-family:'FiraCode Nerd Font Mono';-inkscape-font-specification:'FiraCode Nerd Font Mono, Normal';font-variant-ligatures:normal;font-variant-caps:normal;font-variant-numeric:normal;font-feature-settings:normal;text-align:start;writing-mode:lr-tb;text-anchor:start;fill:#fe53bb;stroke:none;stroke-width:.26458332;stroke-miterlimit:4;stroke-dasharray:none" d="M74.615 237.481h-.504l-.871 2.605-.883-2.605h-.515l1.1 3.048h.564z"/><path id="path837" style="font-style:normal;font-variant:normal;font-weight:400;font-stretch:normal;font-size:5.64444447px;font-family:'FiraCode Nerd Font Mono';-inkscape-font-specification:'FiraCode Nerd Font Mono, Normal';font-variant-ligatures:normal;font-variant-caps:normal;font-variant-numeric:normal;font-feature-settings:normal;text-align:start;writing-mode:lr-tb;text-anchor:start;fill:#fe53bb;stroke:none;stroke-width:.26458332;stroke-miterlimit:4;stroke-dasharray:none" d="M75.929 239.177h2.05c.005-.066.011-.162.011-.266 0-.926-.469-1.494-1.239-1.494-.81 0-1.331.67-1.331 1.592 0 .947.503 1.587 1.395 1.587.379 0 .764-.136 1.048-.36l-.23-.32c-.268.182-.503.274-.812.274-.472 0-.866-.306-.892-1.013zm.828-1.36c.457 0 .752.333.764.984h-1.59c.041-.671.371-.984.826-.984z"/><path id="path839" style="font-style:normal;font-variant:normal;font-weight:400;font-stretch:normal;font-size:5.64444447px;font-family:'FiraCode Nerd Font Mono';-inkscape-font-specification:'FiraCode Nerd Font Mono, Normal';font-variant-ligatures:normal;font-variant-caps:normal;font-variant-numeric:normal;font-feature-settings:normal;text-align:start;writing-mode:lr-tb;text-anchor:start;fill:#fe53bb;stroke:none;stroke-width:.26458332;stroke-miterlimit:4;stroke-dasharray:none" d="M80.207 236.254h-1.421v.385h.935v3.111c0 .53.368.846.909.846.307 0 .558-.076.723-.157l-.13-.356c-.165.067-.33.107-.512.107-.295 0-.504-.112-.504-.413z"/><path id="path841" style="font-style:normal;font-variant:normal;font-weight:400;font-stretch:normal;font-size:5.64444447px;font-family:'FiraCode Nerd Font Mono';-inkscape-font-specification:'FiraCode Nerd Font Mono, Normal';font-variant-ligatures:normal;font-variant-caps:normal;font-variant-numeric:normal;font-feature-settings:normal;text-align:start;writing-mode:lr-tb;text-anchor:start;fill:#fe53bb;stroke:none;stroke-width:.26458332;stroke-miterlimit:4;stroke-dasharray:none" d="M83.655 237.417c-.86 0-1.317.652-1.317 1.592 0 .959.451 1.587 1.31 1.587.855 0 1.312-.66 1.312-1.592 0-.967-.446-1.587-1.305-1.587zm0 .397c.518 0 .784.38.784 1.19 0 .81-.266 1.192-.79 1.192s-.79-.382-.79-1.187c0-.816.272-1.195.796-1.195z"/><path id="path843" style="font-style:normal;font-variant:normal;font-weight:400;font-stretch:normal;font-size:5.64444447px;font-family:'FiraCode Nerd Font Mono';-inkscape-font-specification:'FiraCode Nerd Font Mono, Normal';font-variant-ligatures:normal;font-variant-caps:normal;font-variant-numeric:normal;font-feature-settings:normal;text-align:start;writing-mode:lr-tb;text-anchor:start;fill:#fe53bb;stroke:none;stroke-width:.26458332;stroke-miterlimit:4;stroke-dasharray:none" d="M87.33 237.417c-.367 0-.685.177-.908.49l-.04-.426h-.415v4.275l.487-.06v-1.453c.202.237.472.353.804.353.794 0 1.176-.669 1.176-1.592 0-.956-.29-1.587-1.103-1.587zm-.115.391c.478 0 .698.397.698 1.193 0 .813-.255 1.19-.762 1.19a.83.83 0 0 1-.697-.383v-1.51c.165-.247.422-.49.761-.49z"/><path id="path845" style="font-style:normal;font-variant:normal;font-weight:400;font-stretch:normal;font-size:5.64444447px;font-family:'FiraCode Nerd Font Mono';-inkscape-font-specification:'FiraCode Nerd Font Mono, Normal';font-variant-ligatures:normal;font-variant-caps:normal;font-variant-numeric:normal;font-feature-settings:normal;text-align:start;writing-mode:lr-tb;text-anchor:start;fill:#fe53bb;stroke:none;stroke-width:.26458332;stroke-miterlimit:4;stroke-dasharray:none" d="M89.823 239.177h2.05c.005-.066.011-.162.011-.266 0-.926-.469-1.494-1.239-1.494-.81 0-1.331.67-1.331 1.592 0 .947.503 1.587 1.395 1.587.379 0 .764-.136 1.048-.36l-.23-.32c-.268.182-.503.274-.812.274-.472 0-.866-.306-.892-1.013zm.828-1.36c.457 0 .752.333.764.984h-1.59c.041-.671.371-.984.826-.984z"/><path id="path847" style="font-style:normal;font-variant:normal;font-weight:400;font-stretch:normal;font-size:5.64444447px;font-family:'FiraCode Nerd Font Mono';-inkscape-font-specification:'FiraCode Nerd Font Mono, Normal';font-variant-ligatures:normal;font-variant-caps:normal;font-variant-numeric:normal;font-feature-settings:normal;text-align:start;writing-mode:lr-tb;text-anchor:start;fill:#fe53bb;stroke:none;stroke-width:.26458332;stroke-miterlimit:4;stroke-dasharray:none" d="M94.972 237.415c-.552 0-.86.286-1.094.787l-.09-.72h-.845v.373h.475v2.3h-.475v.374h1.58v-.373h-.619v-1.291c.203-.672.533-1.002 1.005-1.002h.026v.649h.4l.069-1.03a1.42 1.42 0 0 0-.432-.067z"/><path id="path849" style="font-style:normal;font-variant:normal;font-weight:400;font-stretch:normal;font-size:5.64444447px;font-family:'FiraCode Nerd Font Mono';-inkscape-font-specification:'FiraCode Nerd Font Mono, Normal';font-variant-ligatures:normal;font-variant-caps:normal;font-variant-numeric:normal;font-feature-settings:normal;text-align:start;writing-mode:lr-tb;text-anchor:start;fill:#fe53bb;stroke:none;stroke-width:.26458332;stroke-miterlimit:4;stroke-dasharray:none" d="M97.447 236.48c-.515 0-1.068.18-1.586.63l.278.325c.492-.434.938-.533 1.314-.533 1.065 0 1.245.88 1.245 1.986 0 .99 0 1.774-.362 1.774-.229 0-.408-.136-.408-.761v-1.71c-.324-.174-.547-.218-.816-.218-.715 0-1.135.487-1.135 1.494 0 .767.243 1.326.874 1.326.463 0 .683-.296.79-.562h.023c-.005.284.197.822.68.822.698 0 .852-.712.852-2.17 0-1.185-.252-2.403-1.749-2.403zm-.312 1.852c.139 0 .249.023.37.087v1.5c-.07.167-.194.509-.596.509-.35 0-.46-.394-.46-.961 0-.747.159-1.135.686-1.135z"/><path id="path851" style="font-style:normal;font-variant:normal;font-weight:400;font-stretch:normal;font-size:5.64444447px;font-family:'FiraCode Nerd Font Mono';-inkscape-font-specification:'FiraCode Nerd Font Mono, Normal';font-variant-ligatures:normal;font-variant-caps:normal;font-variant-numeric:normal;font-feature-settings:normal;text-align:start;writing-mode:lr-tb;text-anchor:start;fill:#fe53bb;stroke:none;stroke-width:.26458332;stroke-miterlimit:4;stroke-dasharray:none" d="M102.34 237.157c-.36.156-.62.255-1.39.258-.718 0-1.216.442-1.216 1.059 0 .39.162.657.512.842-.22.145-.335.336-.335.533 0 .301.24.573.767.573h.544c.394 0 .689.148.689.437 0 .333-.295.5-.967.5-.683 0-.845-.164-.845-.52h-.44c0 .62.315.917 1.288.917.926 0 1.456-.33 1.456-.929 0-.469-.463-.828-1.077-.828h-.55c-.315 0-.408-.11-.408-.254 0-.116.067-.232.16-.296.127.041.248.058.454.058.72 0 1.146-.434 1.146-1.036 0-.347-.177-.605-.53-.767.342 0 .631-.009.892-.09zm-1.39.614c.446 0 .674.24.674.7 0 .449-.234.712-.663.712-.498 0-.73-.295-.73-.709 0-.408.227-.703.719-.703z"/><path id="path853" style="font-style:normal;font-variant:normal;font-weight:400;font-stretch:normal;font-size:5.64444447px;font-family:'FiraCode Nerd Font Mono';-inkscape-font-specification:'FiraCode Nerd Font Mono, Normal';font-variant-ligatures:normal;font-variant-caps:normal;font-variant-numeric:normal;font-feature-settings:normal;text-align:start;writing-mode:lr-tb;text-anchor:start;fill:#fe53bb;stroke:none;stroke-width:.26458332;stroke-miterlimit:4;stroke-dasharray:none" d="M105.344 237.417c-.313 0-.507.163-.672.403-.095-.316-.321-.403-.553-.403-.304 0-.498.183-.663.417l-.028-.353h-.383v3.048h.45v-2.368c.167-.26.344-.364.532-.364.22 0 .234.159.234.54v2.192h.455v-2.368c.168-.26.35-.364.532-.364.22 0 .235.159.235.54v2.192h.451v-2.27c0-.703-.3-.842-.59-.842z"/><path id="path855" style="font-style:normal;font-variant:normal;font-weight:400;font-stretch:normal;font-size:5.64444447px;font-family:'FiraCode Nerd Font Mono';-inkscape-font-specification:'FiraCode Nerd Font Mono, Normal';font-variant-ligatures:normal;font-variant-caps:normal;font-variant-numeric:normal;font-feature-settings:normal;text-align:start;writing-mode:lr-tb;text-anchor:start;fill:#fe53bb;stroke:none;stroke-width:.26458332;stroke-miterlimit:4;stroke-dasharray:none" d="M108.99 239.863v-1.461c0-.602-.381-.985-1.14-.985a2.81 2.81 0 0 0-.995.192l.127.367c.316-.11.59-.156.793-.156.455 0 .727.165.727.605v.255h-.449c-.926 0-1.43.347-1.43.975 0 .567.374.94.984.94.394 0 .738-.144.956-.428.086.272.295.394.558.429l.119-.342c-.17-.052-.25-.145-.25-.39zm-1.258.362c-.397 0-.588-.197-.588-.576 0-.39.246-.64.918-.64h.44v.785a.934.934 0 0 1-.77.431z"/><path id="path857" style="font-style:normal;font-variant:normal;font-weight:400;font-stretch:normal;font-size:5.64444447px;font-family:'FiraCode Nerd Font Mono';-inkscape-font-specification:'FiraCode Nerd Font Mono, Normal';font-variant-ligatures:normal;font-variant-caps:normal;font-variant-numeric:normal;font-feature-settings:normal;text-align:start;writing-mode:lr-tb;text-anchor:start;fill:#fe53bb;stroke:none;stroke-width:.26458332;stroke-miterlimit:4;stroke-dasharray:none" d="M111.437 236.054a.335.335 0 0 0-.35.339c0 .197.144.347.35.347.217 0 .356-.15.356-.347 0-.191-.14-.339-.356-.339zm.388 1.427h-1.398v.385h.911v2.278h-.94v.385h2.286v-.385h-.86z"/><path id="path859" style="font-style:normal;font-variant:normal;font-weight:400;font-stretch:normal;font-size:5.64444447px;font-family:'FiraCode Nerd Font Mono';-inkscape-font-specification:'FiraCode Nerd Font Mono, Normal';font-variant-ligatures:normal;font-variant-caps:normal;font-variant-numeric:normal;font-feature-settings:normal;text-align:start;writing-mode:lr-tb;text-anchor:start;fill:#fe53bb;stroke:none;stroke-width:.26458332;stroke-miterlimit:4;stroke-dasharray:none" d="M114.942 236.254h-1.421v.385h.935v3.111c0 .53.367.846.909.846.307 0 .558-.076.723-.157l-.13-.356c-.165.067-.33.107-.512.107-.295 0-.504-.112-.504-.413z"/><path id="path861" style="font-style:normal;font-variant:normal;font-weight:400;font-stretch:normal;font-size:5.64444447px;font-family:'FiraCode Nerd Font Mono';-inkscape-font-specification:'FiraCode Nerd Font Mono, Normal';font-variant-ligatures:normal;font-variant-caps:normal;font-variant-numeric:normal;font-feature-settings:normal;text-align:start;writing-mode:lr-tb;text-anchor:start;fill:#fe53bb;stroke:none;stroke-width:.26458332;stroke-miterlimit:4;stroke-dasharray:none" d="M117.871 240.083c0 .287.22.513.507.513a.504.504 0 0 0 .512-.513c0-.28-.22-.506-.512-.506a.502.502 0 0 0-.507.506z"/><path id="path863" style="font-style:normal;font-variant:normal;font-weight:400;font-stretch:normal;font-size:5.64444447px;font-family:'FiraCode Nerd Font Mono';-inkscape-font-specification:'FiraCode Nerd Font Mono, Normal';font-variant-ligatures:normal;font-variant-caps:normal;font-variant-numeric:normal;font-feature-settings:normal;text-align:start;writing-mode:lr-tb;text-anchor:start;fill:#fe53bb;stroke:none;stroke-width:.26458332;stroke-miterlimit:4;stroke-dasharray:none" d="M122.08 240.176c-.524 0-.903-.344-.903-1.158 0-.805.376-1.195.903-1.195.267 0 .527.092.788.272l.237-.324a1.57 1.57 0 0 0-1.019-.354c-.915 0-1.436.686-1.436 1.601 0 .955.518 1.578 1.43 1.578.36 0 .764-.142 1.03-.368l-.237-.318a1.373 1.373 0 0 1-.793.266z"/><path id="path865" style="font-style:normal;font-variant:normal;font-weight:400;font-stretch:normal;font-size:5.64444447px;font-family:'FiraCode Nerd Font Mono';-inkscape-font-specification:'FiraCode Nerd Font Mono, Normal';font-variant-ligatures:normal;font-variant-caps:normal;font-variant-numeric:normal;font-feature-settings:normal;text-align:start;writing-mode:lr-tb;text-anchor:start;fill:#fe53bb;stroke:none;stroke-width:.26458332;stroke-miterlimit:4;stroke-dasharray:none" d="M125.337 237.417c-.86 0-1.317.652-1.317 1.592 0 .959.451 1.587 1.31 1.587.855 0 1.312-.66 1.312-1.592 0-.967-.446-1.587-1.305-1.587zm0 .397c.518 0 .784.38.784 1.19 0 .81-.266 1.192-.79 1.192s-.79-.382-.79-1.187c0-.816.272-1.195.796-1.195z"/><path id="path867" style="font-style:normal;font-variant:normal;font-weight:400;font-stretch:normal;font-size:5.64444447px;font-family:'FiraCode Nerd Font Mono';-inkscape-font-specification:'FiraCode Nerd Font Mono, Normal';font-variant-ligatures:normal;font-variant-caps:normal;font-variant-numeric:normal;font-feature-settings:normal;text-align:start;writing-mode:lr-tb;text-anchor:start;fill:#fe53bb;stroke:none;stroke-width:.26458332;stroke-miterlimit:4;stroke-dasharray:none" d="M129.658 237.417c-.312 0-.506.163-.671.403-.096-.316-.322-.403-.553-.403-.304 0-.498.183-.663.417l-.029-.353h-.382v3.048h.449v-2.368c.168-.26.344-.364.532-.364.22 0 .235.159.235.54v2.192h.454v-2.368c.168-.26.35-.364.533-.364.22 0 .234.159.234.54v2.192h.452v-2.27c0-.703-.301-.842-.59-.842z"/></g><path id="path819" d="M34.55 222.289c-30.922 9.41 112.42 17.301 106.431-.18-16.004-25.322-4.36 38.021 2.773 33.32 16.71-12.146-124.942-12.928-113.28-2.422 16.571 23.843 18.227-37.03 4.077-30.718z" style="fill:none;stroke:#fe53bb;stroke-width:.9875055;stroke-linecap:round;stroke-linejoin:miter;stroke-miterlimit:4;stroke-dasharray:none;stroke-opacity:1"/></g></g></svg>