<svg xmlns="http://www.w3.org/2000/svg" viewBox="0 0 466 328" width="466" height="328"><path d="M360.707 206.83v1l-1 1h-1q-1 0-6 3l-5 3h-4l-1 1-1 1h1v1h-3l-3-1h-1v-1h1v-1l1-1v-1h1q1 0 1-1l7-4q7-5 9-5t3 2z" style="fill:#fe53bb;fill-rule:evenodd;stroke:#fe53bb"/><path d="M270.707 223.83c1.333 3.333 2.333 5.333 3 6 .667 0 1-1.667 1-5 .667-2.667 2-4 4-4h3l5 1c3.333.667 6 1.333 8 2l3 1h5v1l1 1v1h-1v1h-12l-2 1h-2v2h1v1h1v1l1 1 1 1v2c.667 2 1.333 3 2 3h2l-6 3c-9.566.054-16.765-4.354-18-20z" style="fill:#b537f2;fill-rule:evenodd;stroke:#b537f2"/><path d="M296.707 228.83h6v-1h2c1.333 0 2.333 1 3 3 .667 2 1 3.333 1 4-7.503 3.577-5 3.215-8 5l-6 1h-2c-.667 0-1.333-1-2-3v-2l-1-1-1-1v-1h-1v-1h-1v-2h2l2-1z" style="fill:#b537f2;fill-rule:evenodd;stroke:#b537f2"/><path d="M347.707 229.83v1h-1l2 1q3 0 2 2 0 2 2 2t4 3q1 2 2 3 2 1 2 2v1h-1q-1 0-11-6l-9-6h-1l-1-1h-1v-1l1-1h5q5-1 5 0z" style="fill:#fe53bb;fill-rule:evenodd;stroke:#fe53bb"/><path d="M31.707 142.83h1l12 1q11 1 16 3t10 3h5l1-1q2 0 4-1h1v1q-1 0-2 1-2 1-3 3v2l1 2 1 1v2h-2v-1h-4q0-1-1-1v-1h-7q-7 0-14-1t-14-1q-8 0-10 1l-3 1h-1q-2 0-4-1l-2-1h-1l-3-1h-2v-9h3l3-1h14v-1z" style="fill:#b537f2;fill-rule:evenodd;stroke:#b537f2"/><path d="M386.707 278.83v1h-2l-1 1h1v2h-1l-1 2-2 1-1 1h-1l-6 1-5 2h-1v1q-1 0-4-1h-3v-1l1-1v-1h2v-1l1-1 1-1v-1h2q2-1 3-2 0-1 9-2z" style="fill:#fe53bb;fill-rule:evenodd;stroke:#fe53bb"/><path d="m270.707 223.83-1-6 6 1 6 2h-3q-3 0-4 4 0 5-1 5-1-1-3-6z" style="fill:#b537f2;fill-rule:evenodd;stroke:#b537f2"/><path d="m81.707 147.83 29 2q30 1 38 2h11l13 2q13 1 16 3h20v1l-5 2q-6 1-5 2t-1 1q-2 0-6 3-3 2-3 3 1 0 1 2 0 1-1 1h-2v2h-2v2h-1v1h-3q-2 0-4-2l-3-2v-1q0-1-11-1h-12l-3-2q-3-2-8 0t-11 0q-7 0-12-1h-5v1l-1 1v1h-2v2h-4q-1 0-3-2-2 0-7-2-6-2-11-5l-5-3v-3l-1-1-1-2v-1l1-2 1-2 1-1h1q1 0 1-1z" style="fill:#fe53bb;fill-rule:evenodd;stroke:#fe53bb;stroke-opacity:1;fill-opacity:1"/><path d="M152.707 71.83v-1l1 1q1 1 6 4t6 4q1 1 2 1v1h-1q-1-1-5-1-4-2-7-2h-8v-3q0-1 2-2 1-1 2-1h2z" style="fill:#b537f2;fill-rule:evenodd;stroke:#b537f2;stroke-opacity:1;fill-opacity:1"/><path d="M366.707 193.83v-1h1v1h1v1h1l1 1 1 1h1v2h-1l-1 1-2 1h-1q-1 0-3 2-3 2-2 3 0 1-1 2l-2 1v-2q-1-1-1-2-1-2-3-2t-9 5l-7 4h-1l-1 1h-3v-4q0-1-2-2-2-2-2-3v-1h-1l-1 1h-1v-4h1l1-1h1v-2h-1l1-1h2l1 1h1v1l-1 1v1h1l2-1 9-1q9-1 14-1h5l1-1q1-1 1-2zm-114-76h12l17 3q17 2 21 3h3l-1 1v2q-1 0-1 1v1h-3q-2 0-2 4l-1 4h-1v-3h-1v-1q-1 0-1-2-2-2-12-4-10-1-11 1l-1 2q-1-1-9-1t-9-1q-2-1-4-3t-14-2l-12-2 5-1q5-1 8-1h5q1 0 12-1z" style="fill:#fe53bb;fill-rule:evenodd;stroke:#fe53bb"/><path d="M239.707 16.83v2l1 1v-1h1v-1h1v5q-1 0 0 1v1q-1 0-1 1h-1v1q-1 0-1 1v1q-1 1-1 3l-1 2q-1 0-1 6v7h-3v-1h-1v-1l-1-1-1-1v-1h-1v-1h-1v-7q0-5 1-6 1 0 1-1 1-2 4-2 2-1 2-3v-2l1-1q1-2 2-2z" style="fill:#de38c8;fill-rule:evenodd;stroke:#de38c8"/><path d="m324.707 132.83-1-2h15v1q0 1-2 2l-1 1h-5q-4 0-6-2zm-151 39v1q-1 1-1 2v1q-1-1-8-1t-10-2l-3-2h11q11 0 11 1zm224 107 1-1v6q0 1-2 1h-3q-1 0-4-3l-3-2v-1h3l3 1q3 1 4 0h1z" style="fill:#fe53bb;fill-rule:evenodd;stroke:#fe53bb"/><path d="M305.707 124.83v-1l7 1q6 2 9 2h3l2 1 1 1h5q5 0 6 1h1v1h-16l1 2q2 2 6 2h5l1 1v-1h2v1h1v1h1l6 6q6 6 7 6h1v1h1v4q1 4 1 7v4h2l-2 1-1 1h-4v-1h-1v-1h-1l-4-3-4-2v-1h-1q0-1-1-1h-1q0-1-3-3t-11-2h-8v1q0 1-1 1t-1-1-1-1h-1v1h-1v-1h-1v-1h-1v-1h-1v-7h2l1-1q1 0-2-8-2-7-4-7h-2v-1q0-1 1-1t1-1z" style="fill:#fe53bb;fill-rule:evenodd;stroke:#fe53bb;fill-opacity:1;stroke-opacity:1"/><path d="M296.707 101.83h3l1 1h2l20 10q19 8 20 9l2 1h2l1 1h1v1h1v2h-3l-2-1-2-1h-2q-2 0-3-1h-3q-2-1-16-3-13-4-29-5l-16-1-3-1-4-1h2v-2h1v-1h2l2-1h1q2 0 4-1h1l9-2 8-3q-1 0 0-1z" style="fill:#fe53bb;fill-rule:evenodd;stroke:#fe53bb"/><path d="M18.707 143.83h-2l-3 1h-3v9l-1-1v-4q-1-2-3-2-3 0-2 1 0 2-1 2t-1-4q0-4-1-5l-1-1 2-2q1-3 4-2 2 0 3 1 0 2 1 2t2 1q0 1 3 3 3 0 3 1z" style="fill:#b537f2;fill-rule:evenodd;stroke:#b537f2"/><path d="m187.707 120.83-1-3h1q1 0 1 1t9 1q9 1 16 1h7l-4 1-3 1h-19q-6 0-7-2z" style="fill:#fe53bb;fill-rule:evenodd;stroke:#fe53bb"/><path d="m8.707 152.83 1-1v1l1 1h2l3 1h1l2 1q2 1 4 1h7l4 1q4 1 7 1h4l-8 2-7 1h-2q-2 1-6 1h-4l-1-1v-1q0-1-2-2l-1-1q0-1-1-1h-2v-1h-1v1h-1q-1 0-1-1-1-2 1-3zm238-99h3l2 1v3c-.667 2 3.553-.341 3.553.325-.666.667 1.317 4.355 1.317 4.355l-3.994 3.675c-3.267 2.483-6.094 2.952-7.876-1.355v-6c0-3.333.667-5 2-5z" style="fill:#b537f2;fill-rule:evenodd;stroke:#b537f2"/><path d="M304.707 126.83h2q1 1 3 8 3 8 2 8l-1 1h-2v-3q0-4-3-8l-2-4v-1q1 0 1-1z" style="fill:#fe53bb;fill-rule:evenodd;stroke:#fe53bb"/><path d="M365.707 131.83h2q2 1 3 1v1h1l5 5q4 6 5 6v1q1 1 0 1h-3q-2 0-2 1 1 2 0 2-1-1-2 1-2 2-2 1-1-1-4-1h-4v5h-2v-1h-2v-3l-1-1-1-2v-6q0-2 2-3h1v-1q0-1 2-1t3-1v-2q0-2-1-2z" style="fill:#fe53bb;fill-rule:evenodd;stroke:#fe53bb;fill-opacity:1;stroke-opacity:1"/><path d="m149.707 80.83 1-2 3 1q3 1 2 2t-1 2h-1v1h-3q-2-1-2-2t1-2z" style="fill:#b537f2;fill-rule:evenodd;stroke:#b537f2;stroke-opacity:1;fill-opacity:1"/><path d="M222.707 208.83h10q11 0 22 1l11 1h-14l-1 1h-2v2l1 1h-3q-2 0-13-3z" style="fill:#fe53bb;fill-rule:evenodd;stroke:#fe53bb"/><path d="M237.707 33.83q0 1 1 1v3l6 2q5 1 5 2h-1q-2 1-3 1t-1 1-1 1q-1 0-1-2 1-2 0-2-2 0-3 3t-2 3l-1-1v-6q0-6 1-6z" style="fill:#b537f2;fill-rule:evenodd;stroke:#b537f2"/><path d="M339.707 130.83v-1h3l2 1h5l-1 1q-2 1 0 2 0 1 1 2l1 1 2 3q2 2 2 5t1 4v1h-1q-1-1-8-7l-6-6h-1v-1h-1v-1h-2v1l-1-1 1-1q2-1 2-2v-1zm-129 64h1l1 1 2 1h3l4 2c2.667 0 4.333.333 5 1l1 1h1v1h1v1h1v1h1v1h2l-5.914 2.207-9.086-.207h-1c-.667 0-17.787-6.425-23.12-5.759l-7.88-1.241 2-2c2-2 4.667-2.667 8-2 4 .667 6 .667 6 0 .666-.667 2-1 4-1h4zm27-84 1-1v1h3l5 2q5 2 10 2h6q0 1 1 1v1h1v1h-12q-11 1-12 1h-2v-1h1v-1h1l2-1 1-1h-1l-1-1q-1-1-3-1l-1-1z" style="fill:#fe53bb;fill-rule:evenodd;stroke:#fe53bb"/><path d="M336.707 124.83v-1h1q1 1 3 1h2l2 1 2 1 1-1q1 0 1-1v-1h1q1 0 1 1t1 2l1 1q0 1 2 1h3v1h-6l-6 1h-1l-2-1h-4q-1-1-6-1h-5l-1-1-2-1h6q6-1 6-2zm12 7 1-1h1q2 0 4 5t2 6v1l1 2 1 1v3l1 2 1 1v3h1l1 4q1 5-1 5l-2 1h-3v-4q0-3-1-7v-5h-1v-4q0-3-2-5l-2-3-1-1q-1-1-1-2-2-1 0-2z" style="fill:#fe53bb;fill-rule:evenodd;stroke:#fe53bb"/><path d="M293.707 301.83h9v1l-4 3-3 3h-1q0 1-1 2v1h-1l-1 1h-1v1l-1 1q-1 2-1 5v4h-1v1h-1l-2 1h-2v-2h-1v-1h-1q-1 0-2-1l-1-1-3-1q-2-1-2-3 0-3-2-4l-2-2-1-2v-1h2v-1l1-1v-1h-2v-1l12-1q13 0 13-1z" style="fill:#b537f2;fill-rule:evenodd;stroke:#b537f2;fill-opacity:1;stroke-opacity:1"/><path d="m150.287 77.45 3.318-5.839-2.92-2.654-5.113-.388c-1.288 4.668-3.162 7.248 2.426 13.744l2.29-4.863z" style="fill:#b537f2;fill-rule:evenodd;stroke:#b537f2;stroke-opacity:1;fill-opacity:1"/><path d="M419.707 256.83v-1h5q0 1 2 1h1l2 1 2 1h5q4 0 6-1h3q2-1 3-1l2-1h2v1h-1v1h-1v1h-1v1h-1v1q-1 0-1 1v1q-1 0-7 2l-6 2q-1 0-1 1h-1q-1 1-4 3-4 2-14 6l-9 4h-1l-1 1h-1v2h-1v-7h2q2 0 7-8 4-8 6-10t3-2zm-103-80-1-2 4 3 5 3 1 1 1 1h2v1h1q0 1 1 1l1 1 2 2q1 1 2 3l1 1v7l-2 1h-1v-1l1-1v-1h-1l-1-1h-2v-1h-3q-2 0-5-3t-4-5v-5q0-2-2-5zm-166-6h1l3 2q3 2 10 2t8 1v12h-1v1h-8q-4 0-12-1h-8q0-1-2-1t-7-1h-8q-1-1-10-5l-8-6h-2l-1-1-1-1h4v-2h2v-1l1-1v-1h5q5 1 12 1 6 2 11 0t8 0zm216 119h1v2h-1v1l-2 1q-2 1-3 3-1 1-6 2h-5 4v-1h1v-1h1v-3q0-2 1-3l2-1h3q3 1 4 1z" style="fill:#fe53bb;fill-rule:evenodd;stroke:#fe53bb"/><path d="M324.707 83.83h1v1h2q1 0 1 1v2q0 1 8 7 7 6 11 8t5 3l2 1h8-1v-1h-1v-2l-1-1h2v1h1v1l5 5q5 5 5 9t-1 8l-2 4h1v1l1 1v1h-2v-1q0-1-2-1h-3q0-1-4-1l-3-1v-1h-3q-2 0-2-1l-1-1-2-2-1-1h-1l-1-1h-2l-2-1q-1-1-20-9l-20-10h-2l-1-1h-1v-1h-1v-1h-1v-1h5v-1h1v-1l4-2q4-4 8-5 4-2 4-5t2-2q3 0 4 1zm1 3v-1q1 0 1 1z" style="fill:#fe53bb;fill-rule:evenodd;stroke:#fe53bb;stroke-opacity:1;fill-opacity:1"/><path d="M309.707 154.83v-3h1v1h1v1h1v-1h4v1l2 4q1 4 0 5l3 4q3 5 4 7l1 3h1v1h1v1l1 1v1h3v4h-2v-1h-1v-1h-3l-1-1-1-1-5-3-4-3v-1q-1-1-4-8l-3-7-1-1v-1h1q1 0 1-2z" style="fill:#ffaa01;fill-rule:evenodd;stroke:#ffaa01;fill-opacity:1"/><path d="M316.707 152.83h8q8 0 11 2t3 3h1q0 1 1 1v1h1l1 3q2 3 2 4v4l-2 1-2 1h-2v1h-1v1h-2l-1 1q-2 1-4 1h-4l-1-3q-1-2-5-8t-3-6q1 0 0-3l-1-3z" style="fill:#fe53bb;fill-rule:evenodd;stroke:#fe53bb;stroke-opacity:1;fill-opacity:1"/><path d="M64.707 156.83h7v1q1 0 1 1h-32q-3 0-7-1l-4-1h-6l3-1q2-1 10-1 7 0 14 1t14 1zm239-91v3q-1 2-1 3l-1 1v-1l-2-2q-1-1-7-3t-10 2q-4 4-10 5l-5 1h-4v-1h-1v-6h-3v-1l1-1v-1h1l1-1h1v-2l1 1q2 2 4 1l6-3q3-2 12 0 8 0 12 2 5 1 5 3z" style="fill:#b537f2;fill-rule:evenodd;stroke:#b537f2"/><path d="M362.707 40.83v-2l7 5q7 5 12 11t6 6v1q0 1 1 1v1h1q0 1 1 1v3l5 7q4 8 6 10 3 3 3 8 2 5 4 9t3 11q1 8 2 11l1 3 1 8q1 7 1 10v3l1 1v1h-1l-1-1h-1l-1-1q-1-1-13-3-11-4-14-4-4 0-4 2l-1 2q-1 0-5-6l-5-5v-1h-1v-2h-1l2-4q1-4 1-8t-5-9l-5-5-1-1h-1v-1h-2l-2-1q-1-1-2-1l-2-2h-2v-1h-1v-1h-1v-1h-1v-1l1-1v-1h1l1 1 1 1h6v-2h-2v-1h-1v-1h-1l-1-1-1-1h-1l-2-1q-1-1-8-3-8-2-8-1t-2 1h-5v-1h1v-3l2-1q1 0 2-3 0-4 2-6 2-3 2-4v-3q0-1 3-2t5-3q2-2 8-6 7-3 7-4t3-2q2-2 2-4z" style="fill:#fe53bb;fill-rule:evenodd;stroke:#fe53bb;fill-opacity:1;stroke-opacity:1"/><path d="m337.707 276.83 2 2q3 2 3 3t1 1l2 2q0 1 3 3 4 2 4 3 0 2-1 2-1-1-3-1l-2-1-3 1q-3 1-5 1h-2q-1 0-1 1h-3q-2 1-10 1-7 1-8 3 0 2-3 2l-3 1h-8v1h-12l-4-1h-6l-2-1-1-1h1v-3l1-1h2l14-4q14-2 15-4 2 0 2-1h1l6-1q6 0 14-2 8-1 7-3-1-1-1-2z" style="fill:#b537f2;fill-rule:evenodd;stroke:#b537f2"/><path d="m280.707 186.83 3 1q3 1 4 3 1 1 5 2 3 0 4 1l2 1h-1q-1 0-2 2-1 3 0 4h3q0-1 1 2v4h-5v1h-1v1h-7q-7 0-14 1l-7 1-11-1q-11-1-22-1h-11l-1-1-2-1 8-1 7-1h-2v-1h-1v-1h-1v-1h-1v-1h-1l-1-1q-1-1-5-1l-4-2h-3l-2-1-1-1h4l5-2q6-1 8-3 2-1 4-1h1l23-1q23-1 24-1z" style="fill:#fe53bb;fill-rule:evenodd;stroke:#fe53bb"/><path d="m413.707 147.83 1 1h2v1h1l1 5v6q-1 0-1 1h-1v2q0 1-7 6l-7 5-3 1q-3 1-3 2t9 1q9 0 10-2l2-2q1 0 1-1v-1l2 3q1 3 6 3 4 0 4 1h1v5q-1 4-1 6v2h-8q-4 0-4 2 0 3-2 3-2-1-3 0l-1 1h-10q-1 0-6 2-4 1-6 3l-2 3h1l-1 1q-2 1-9 4t-7 5q0 2-2 2h-1v1h-1v1h-2v1h-1v-1h-2v-1q1 0 1-1l1-1q1-1 1-2v-1h-4l-3 1q-3 1-5 1h-1v1h-2l-1 1h-4l-2-1h-2v-1h-1l1-1 1-1h4l5-3q5-3 6-3h2v-1l1-1q1 0 1-1-1-1 2-3 2-2 3-2h1l2-1 1-1h1v-2h-1l-1-1-1-1h-1v-1h-1v-1h-3l-2-1q-1-1-2-1l-3 1q-3 1-8 1h-11l-1-1v-3h2v-1l1-1 8-1q7-1 9-1 3-1 5-6 2-6 5-6h3l1-1h1v-3h-1l-1-1q-2-1-4-1h-1q-1-1 1-2 2-2 0-4l-2-3v-1h-1v-1h-1v-1l1-1h1v-3h4q3 0 4 1 0 1 2-1 1-2 2-1 1 0 0-2 0-1 2-1h3q1 0 0-1v-1l1-2q0-2 4-2 3 0 14 4 12 2 13 3z" style="fill:#fe53bb;fill-rule:evenodd;stroke:#fe53bb;stroke-opacity:1;fill-opacity:1"/><path d="M301.707 71.83v1h-1l-4 1-15 5-12 4-1-1c-3.925.106-5.541-3.33-6-7v-1h1v1h4l5-1c4-.667 7.333-2.333 10-5s6-3.333 10-2c4 1.333 6.333 2.333 7 3z" style="fill:#b537f2;fill-rule:evenodd;stroke:#b537f2"/><path d="M178.707 178.83h1v1h-1v2h-2l4 1 3 1 16 1q16 1 29 5 14 2 16 3h2v1q0 1-6 2h-9q-3 0-9-2l-7-1h-3q-4-1-21-3l-17-3v-1h-1v-1q-1 0-1-1h-1l3-2q2-2 4-3z" style="fill:#fe53bb;fill-rule:evenodd;stroke:#fe53bb"/><path d="M336.707 292.83h1q-1 1-4 3l-3 3h-1l-1 1h-2q-3 1-4 1t-1 1q-1 1-3 1l-3 1h-1q-2-1-6-1h-5v-1h-3v-1h8l3-1q3 0 3-2 1-2 10-3 10-2 12-2z" style="fill:#b537f2;fill-rule:evenodd;stroke:#b537f2"/><path d="m293.707 146.83 3-10h1l5 10q4 9 5 10l1 1 3 7q3 8 4 9v1l1 2q2 3 2 5v5q1 2 4 5t5 3h3v1l-1 1h1v2h-1l-1 1h-1v4h1l1-1h1v1q0 1 2 3 2 1 2 2v4l1 1h1v-1q0-1 2-1h1v1h-1v1h-1v1h-1v1h-1v1h-3q-3 0-5 3t-10 5l-8 1h-1v-1h5v-1h1v-1h-1v-1q1 0 0-1-1 0 1-1 1-1-2-5-4-4-10-5l-7-1h-2v-1h1v-1h5v-4q-1-3-1-2h-3q-1-1 0-4 1-2 2-2h1l-2-1q-1-1-4-1-4-1-5-2-1-2-4-3l-3-1v-2h1q1-1 2-1v1h1v-4q0-2-1-3l-1-1h3v1h1v-1h1v-1h1v-2h-2q-1-1-2-1t-1-2l4-8q3-6 6-16zm-6 39v-1h1q0 1-1 1z" style="fill:#fe53bb;fill-rule:evenodd;stroke:#fe53bb;fill-opacity:1;stroke-opacity:1"/><path d="M202.707 182.83h4l2 1 3 1 5 1q6 1 8 1h4q2-2 3 0l2 2h-1q-2 0-4 1-2 2-8 3l-5 2h-9q-3 0-4 1 0 1-6 0-5-1-8 2l-2 2v-3q0-2-2-2h-2l-2-1-1-1h-1v-1h-1v-1h-1v-2h1v-1h1v-1h1v-1h1l1-1q1-2 9-2z" style="fill:#fe53bb;fill-rule:evenodd;stroke:#fe53bb"/><path d="m282.707 27.83 4 1q5 2 6 2h9v-1h1q0-1 2-1h6q2 0 2 1h-3v10q-1 10-2 15-1 4-2 7l-1 3v3h-1v-2q0-2-5-3-4-2-12-2-9-2-12 0l-6 3q-2 1-4-1l-1-1v-1q-1 0-5-4-5-3-5-4t-2-2l-2-2v-2l-1-1v-2l1-1v-1q0-1-5-2l-6-2v-4h1v-1h1v-1h1v-1h14l1 2q1 1 4 0 2 0 3-1l1-1v-1h1v-1l1-1q0-1 2-1 2 1 2 2 2 2 2 1v-1h2q1-1 1 1 1 2 0 3l-1 2 2 1 1 1h1v-1l1-5 1-4q1 0 2 1z" style="fill:#b537f2;fill-rule:evenodd;stroke:#b537f2"/><path d="M302.707 128.83h1l2 4q3 4 3 8v10h1v4l-1 3v-1h-1q-1-1-5-10l-5-10 1-4q0-4 2-4z" style="fill:#ffaa01;fill-rule:evenodd;stroke:#ffaa01;stroke-opacity:1;fill-opacity:1"/><path d="M363.707 218.83h1v1q0 1 1 1v1l-2 3q-3 3-3 6 0 2 4 4l4 2 1 1h1v5l-3 2q-3 2-3 3t-3 3l-2 1 1-1q0-2 1-2h1v-3h-1q0-1-1-1 0-1-1-1v-1h-1q0-1-2-4t-4-3q-2 0-2-2 1-2-2-2l-2-1h1v-1h1l1-1 5-2q4-2 5-2h1l1-1 2-2v-1l-1-1q0-1 1-1z" style="fill:#fe53bb;fill-rule:evenodd;stroke:#fe53bb"/><path d="m341.707 160.83-2-3 5 3 5 4h1v1h1v1h4l1-1 2-1h1l1 1q1 1 3 1h3q2 0 4 1l1 1h1v3h-1l-1 1h-3q-3 0-5 6-2 5-5 6-2 0-9 1l-8 1-1 1v1h-2v2h-1v1l-1-1q-1-2-2-3t-3-2l-1-1h-1v-2l2 1q2 1 2-1v-2h-3v-1l-1-1v-1h-1v-1h3q2 0 4-1l1-1h2v-1h1v-1h2l2-1 2-1v-6q0-1-3-4z" style="fill:#fe53bb;fill-rule:evenodd;stroke:#fe53bb;fill-opacity:1;stroke-opacity:1"/><path d="m243.187 49.91-2.929-2.13-2.55-.953c.666 0 1.333-1 2-3s1.667-3 3-3c.666 0 1 .333 1 1s.333 1 1 1c1.333 0 2.667-.333 4-1h1v1l-1 1v2l1 1v4c-.667.667.597.295.597.962l.598 1.16 1.636.958.207 1.89c4 1.239 3.535-1.414 2.122-.198 7.04.373.827-2.847 3.84 9.228h2v1l-1 1v1h3l.177 2.556-.177 3.444c-.922-1.604-1.075-2.668-1.946-3.718-.495-.597-1.392-.508-1.911-.942-.492-.41-1.328-1.37-.83-2.009-1.307.58-2.224-.036-2.6-.741-.916-1.72.187-1.655-2.14-2.294 3.509-2.274 2.802-5.417-1.13-4.319 1.993-7.898-5.432-5.364-6.624-5.678l-2.34-4.216zm31.52-32.08h1l1 2 3 3q3 1 3 3v2q-1-1-2-1l-1 4-1 5v1h-1l-1-1-2-1 1-2q1-1 0-3 0-2-1-1h-2v-5l-1-3h-1q0-1 1-1 2 0 2-1t1-1z" style="fill:#b537f2;fill-rule:evenodd;stroke:#b537f2"/><path d="M399.707 278.83v-1h2v6l-1 5-2 5q0 1-1 1h-1v1q-1-1-3-1-1 0-1-3t-4-3l-3 1q0-1-1-1 0-1-1-2h-4v-1q0-1 2-2l2-1h1v-2h-1l1-1h2l3 2q3 3 4 3h3q2 0 2-1v-5z" style="fill:#fe53bb;fill-rule:evenodd;stroke:#fe53bb"/><path d="M258.707 2.83h2q0 1 1 2v1h3q3 0 3 1l1 1v3h-1q-1 0-2 2l-1 2h-1v1h-1v1l1 1v2q0 1-1 1t-2 2q0 1-3 1t-6 1q-3 0-3-2 0-1-3-1-2 0-2 1l-1 1v-6h-1v1h-1v1l-1-1v-2l1-1q2 0 4-3 3-4 5-4l2-2q0-1 3-2 3-2 4-2z" style="fill:#de38c8;fill-rule:evenodd;stroke:#de38c8;fill-opacity:1"/><path d="M262.707.83h10q8 0 12 3 4 2 8 7l5 6h1v1h1v1h1v1h1v1h1q1 0 1 1t2 3 2 3v1h-3q-2 0-2 1h-1v1h-9q-1 0-6-2l-4-1v-2q0-2-3-3l-3-3-1-2v-1q-1 0-2-1-2-1-5 1h-3v1h-1v1h-1v-1l-1-1v-1h1v-1h1l1-2q1-2 2-2h1v-3l-1-1q0-1-3-1h-3v-1q-1-1-1-2v-1q0-1 2-1z" style="fill:#b537f2;fill-rule:evenodd;stroke:#b537f2"/><path d="M326.707 299.83h2l-2 2c-2 2-2 3 0 3h4l-2 1c-2 .667-6 2.333-12 5l-10 4-1 1-1.616 1.077-1.384.923-2 1h-7l1-1v-2h-1v-1h-1l-1 1h-1v-2h2v-1h1v-1h1v-1l10-2 10-4h1v-1l3-1c1.333 0 2.333-.333 3-1 0-.667.333-1 1-1s2-.333 4-1z" style="fill:#b537f2;fill-rule:evenodd;stroke:#b537f2;fill-opacity:1;stroke-opacity:1"/><path d="M309.707 39.83v-10h3l4 1q3 2 18 2 16 2 22 4 5 2 6 2v1h1v1q-1 0-1 2t-2 4q-3 1-3 2t-7 4q-6 4-8 6t-5 3q-3 1-3 2v3q0 1-1 3-2 3-3 7-2 5-3 4h-1v3h-2q-1-1-4-1-2-1-2 2t-4 5q-4 1-8 5l-4 2v1h-1v1h-6q-1 0-5-1-5-1-4 2 1 2-1 3l-1 1h-1q0 1-2 2l-2 2h-1q-2 1-4 1h-1l-2 1h-3q-2 1-4 3l-3 2h-5q-5 0-10-2l-5-2h-3v-1l-1 1v1l1 1q2 0 3 1l1 1h1l-1 1-2 1h-1v1h-1v1h-3q-3 0-8 1l-5 1h-9q-7 0-16-1-9 0-9-1t-1-1h-1v-9q0-5-1-13v-8h1v-8q0-8 1-9 0-1 4-1l4-1 7 1q7 1 11 3 5 2 5 3 1 1 10 3 10 2 19 2h15l2 1 1 1h4l12-4 15-5 4-1h1l1-1q0-1 1-3v-1h1v-3l1-3q1-3 2-7 1-5 2-15z" style="fill:#fe53bb;fill-rule:evenodd;stroke:#fe53bb;stroke-opacity:1;fill-opacity:1"/><path d="M44.707 158.83h4l1 2q1 2 0 3l-1 1q-1 0-4 2-2 2-8 2h-6q-2-1-2-4-1-2 0-2l1-1 7-1zm231-142v1h-1q-1 0-1 1t-2 1q-1 0-1 1h1l1 3v6q0 1-2-1 0-1-2-2-2 0-2 1l-1 1v1h-1v-12h1v-1h3q3-2 5-1 1 1 2 1z" style="fill:#b537f2;fill-rule:evenodd;stroke:#b537f2"/><path d="M286.707 208.83h9l7 1q6 1 10 5 3 4 2 5-2 1-1 1 1 1 0 1v1h1v1h-1v1h-5v1h-2q-1-1-2-1h-7l-3-1q-3-1-8-2l-5-1-6-2-6-1h-2q-2-1-9-1l-6-2h-3l-1-1v-2h2l1-1h14l7-1q7-1 14-1zm59-78 6-1h6l3 1q4 0 4 1h1v1q1 0 1 2v2q-1 1-3 1t-2 1v1h-1q-2 1-2 3v3l-1-1-1-2v-1q0-1-2-6t-4-5z" style="fill:#fe53bb;fill-rule:evenodd;stroke:#fe53bb"/><path d="M166.707 81.83h8c4 .667 6.667 1 8 1h2l1 4.786c-12.328-.449-25.198-.552-28.948-6.492-.69-.855-.735.143-1.052.706.667-.667 0-1.333-2-2l-3-1h4c2 0 4.333.667 7 2 2.667 0 4.333.333 5 1z" style="fill:#b537f2;fill-rule:evenodd;stroke:#b537f2"/><path d="M428.707 192.83h2-1q-1 1 1 3l6 6q6 5 14 14 10 9 10 11 2 2 2 3v4l-1 2-1 2v1h-1l-4 1q-4 1-16 0l-12-1v1h-1v1h1l1 2q2 2-1 3t-1 4q2 3 2 4v1h-1v-1h-1v1h-1l-1 1h-7q-2 1-11 3l-9 2v1h-1v2l3 4q3 4 3 5l-1 1q-1 1-1 2v1h-1v1h-1l-1 1v1h-1q-1 1-4 0l-3-1h-11q-9 1-9 2-1 1-3 2h-2v1l-1 1-1 1v1h-2v1l-1 1v1l-2 1q-1 1-1 3v3h-1v1h-1v1h-4v-4l1-1v-1q1 0 0-1v-1l-3-3q-3-2-6-5l-3-4-1-1v-1h-1v-2q1-2 8-9 8-7 11-10 2-3 3-3v-1q1 0 1-1h1v-1l1-1q2 0 2-1t3-3l3-2v-5h-1l-1-1-4-2q-4-2-4-4 0-3 3-6l2-3h1v-1h2v-1h1v-1h1q2 0 2-2t7-5q7-3 9-4l1-1 10-3q11-3 12-4l1-1v-1h3q3 0 3-3 0-2 4-2z" style="fill:#fe53bb;fill-rule:evenodd;stroke:#fe53bb"/><path d="M295.707 132.83v1h1v3l-3 10q-3 10-6 16l-4 8q0 2 1 2t2 1h2v2h-1v1h-1v1h-1v-1h-23q-17 0-19 1-3 1-6-1t-11-1q-7 1-8 3-2 2-7 3l-5 1h-1l-1-1q-1-1-11-2l-10-1v-3h1v-2h2v-2h2q1 0 1-1 0-2-1-2 0-1 3-3 4-3 6-3t1-1q-1-1 5-2l5-2v-1l17 1q17 1 30-3 13-3 13-8 2-4 2-10v-7l1-2q1-2 11-1 10 2 12 4 0 2 1 2z" style="fill:#fe53bb;fill-rule:evenodd;stroke:#fe53bb;stroke-opacity:1;fill-opacity:1"/><path d="m78.707 161.83-1-2h1v1l5 3q5 3 11 5 5 2 7 2 2 2 3 2l1 1 1 1h2l8 6q9 4 10 5h3v1h1l1 1 1 1 1 1v1h-5q-6 0-14 1l-8 1v2h1l1 1q1 0 1 1v1h-1l-1-1h-1q-1 0-2-1t-4-1q-4-1-4-3t-4-4q-5-3-7-7-2-5-3-6h-1q1-1 0-4l-1-2v-2l-1-2-1-1z" style="fill:#fe53bb;fill-rule:evenodd;stroke:#fe53bb"/><path d="m242.707 24.83 3 1q3 1 3 2 1 1 4 2l3 1h-14v1h-1v1h-1v1h-1v1q-1 0-1-1l1-2q0-2 1-3v-1q1 0 1-1h1v-1q1 0 1-1z" style="fill:#b537f2;fill-rule:evenodd;stroke:#b537f2"/><path d="m326.707 86.83 1-1q1 0 1 1h3l1 1 1 1 5 3 8 4h1q0 1 1 1h1v1h1v1h2l2 2q1 0 2 1l2 1h1l1 1v2h1v1h1-8l-2-1q-1-1-5-3t-13-9z" style="fill:#fe53bb;fill-rule:evenodd;stroke:#fe53bb"/><path d="M192.707 68.83h3l-4 1q-4 0-4 1-1 1-1 9v8h-1v-3l-1-2h-2q-2 0-8-1h-7v-1q-1 0-2-1t-6-4-6-4l-1-1h-1q-1 0-1-1h-1v-1h-2l-1 1h-1v-1l1-2 2-1q2-1 5-4l3-3v-1h1v-1h2v-1l5-1q5 0 7-2 2 0 8 6 7 6 8 8t5 2z" style="fill:#b537f2;fill-rule:evenodd;stroke:#b537f2;fill-opacity:1;stroke-opacity:1"/><path d="M332.707 216.83h4l3 1h5l2 1h4l1-1h1l2 1q3 0 2 1l-1 1h-3l-2 1q-1 1-8 3-6 3-6 4l1 1-1 1v1h-1q-1-1-3-1t-10-2h-7l-1-1-1-1h-4v-1l8-1q8-2 10-5t5-3zm16-129 2 1h1l1 1 1 1h1v1h1v1h2v2h-6l-1-1-1-1h-1v4h-1q-1 0-7-4l-7-4-1-1-1-1h-3q0-1-1-1v-1h3q2 0 2-1t8 1q7 2 8 3z" style="fill:#fe53bb;fill-rule:evenodd;stroke:#fe53bb"/><path d="m173.707 172.83 3 2q2 2 4 2h3v2l10 1q10 1 11 2l1 1h-15q-8 0-9 2l-1 1h-1v1h-1v1h-1v1h-1v1q0 1 1 1t1 1v1h-2l-2-1-1-1h-2l-2-1-2-1h4v-1h1v-13q0-1 1-2z" style="fill:#fe53bb;fill-rule:evenodd;stroke:#fe53bb;fill-opacity:1;stroke-opacity:1"/><path d="M336.707 190.83h1v1l1 1h11q5 0 8-1l3-1q1 0 2 1l2 1h2v1q0 1-1 2l-1 1h-5q-5 0-14 1l-9 1z" style="fill:#fe53bb;fill-rule:evenodd;stroke:#fe53bb"/><path d="m.707 139.83 1 4c.667 2.667 1.333 3.667 2 3h3c1.333 0 2.333.667 3 2v3l-1 1c-1.333.667-1.667 1.667-1 3 0 .667.333 1 1 1h1v-1h1v1h2c.667 0 1 .333 1 1l-1 1c-1.333 0-2 1.333-2 4v5c.667.667 1.333 1 2 1h2v-1c.667-.667 1.333-1 2-1h2.796l10.35 1.858-.796-6.166-10.35.796c.248 4.397-19.23 18.77-18-23.488zm343 152 3-1h5v3l-1 1v1q-1 1-4 1l-6 4q-3 2-6 3l-4 1h-4q-3 0 0-3l2-2 1-1h1l2-2q2-2 3-2v-1h1l1-1h1q2 0 5-1z" style="fill:#b537f2;fill-rule:evenodd;stroke:#b537f2"/><path d="m362.707 158.83-1-4h1v1h1v1h1v1l2 3q2 2 0 4-2 1-1 2h-2q-2 0-3-1l-1-1 2-1q2 0 1-5zm55 97h2v1q-1 0-3 2t-6 10q-5 8-7 8h-2v1h-1q0 1-1 1h-1v-1l1-1q1-2 2-3l1-1q0-1-3-5l-3-4v-2h1v-1l9-2q9-2 11-3zm-39 31h2v-1l2 1q2 1 2 2 1 0 1 1h-1q-1 1-6 1h-6q-1 0-1 1-1 0-3 1h-2v-2h1v-1l5-2zm-235-99h-2l-2 1 3 2 4 3v1h11v1h-3l-3 1h-3q-4 0-15 2l-11 1h-4q-3-1-4-1h-2l-2-1h-1v-1h-1v-1h-1v-1h-1v-2l8-1q8-1 14-1h5v-1l-1-1-1-1-1-1h-1v-1h-1 6q5 1 7 1t2 1z" style="fill:#fe53bb;fill-rule:evenodd;stroke:#fe53bb"/><path d="m12.707 158.83 1-1 1 1q2 1 2 2v2h1v4h-1q-1 0-2 1v1h-2q-1 0-2-1v-5q0-4 2-4z" style="fill:#b537f2;fill-rule:evenodd;stroke:#b537f2"/><path d="M276.707 294.83h1l-1 1v3h-1l1 1 2 1h6l4 1h5q0 1-13 1l-12 1h-1l-1-1h-1l1-4q1-3 5-3 4-1 5-1z" style="fill:#b537f2;fill-rule:evenodd;stroke:#b537f2;fill-opacity:1;stroke-opacity:1"/><path d="M295.707 98.83h1v1h1v1h1v1h-2q-1 1 0 1l-8 3-9 2 2-2q2-1 2-2h1l1-1q2-1 1-3-1-3 4-2 4 1 5 1zm107 100h1l5-1h4v1l-1 1q-1 1-12 4l-10 3h-1l2-3q2-2 6-3 5-2 6-2z" style="fill:#fe53bb;fill-rule:evenodd;stroke:#fe53bb"/><path d="M249.707 50.83v-2l2 2c1.333.667 2 1.333 2 2s1.667 2 5 4c2.667 2.667 4.333 4 5 4v3h-1l-1 1h-3c-.667 0-4.528-1.518-5.195-1.518.73-1.857 1.182-2.303-1.403.719l-1.843 1.435c-1.222 1.24 6.867-2.12 6.47-4.713 0 0-2.781-5.446-6.029 1.077 0-.667.333-2 1-4l-2.895-1.588.895-2.412h-2l1-1c0-.667.333-1.333 1-2z" style="fill:#b537f2;fill-rule:evenodd;stroke:#b537f2"/><path d="m290.707 312.83 2-1v2h-1l-1 1h3v1h1v2l7.707-.002c-6.299 3.476-5.259 5.075-9.441 6.85-11.488 5.445-12.024 1.927-16.11-1.54l-1.156-1.308v-1h2l1 1c.666.666 1.333 1 2 1h1v1h1v2h2l2-1h1v-1h1v-5c0-2.667.666-4.667 2-6z" style="fill:#b537f2;fill-rule:evenodd;stroke:#b537f2;fill-opacity:1;stroke-opacity:1"/><path d="M462.707 232.83v-2h1v1q0 1 1 1v7q-1 7-2 7t-1 1v1h-1v1h-22q-6 0-5 3t-2 4h-5q-2 0-2-1l1-1h1v-1h1v1h1v-1q0-1-2-4t1-4q3-1 1-3l-1-2h-1v-1h1v-1l12 1q12 1 16 0l4-1h1v-1l1-2 1-2z" style="fill:#fe53bb;fill-rule:evenodd;stroke:#fe53bb"/><path d="M417.707 162.83v-1h1q1 0 0 5v6l-1 1v1l-2 2q-1 2-10 2t-9-1q0-1 3-2l3-1 7-5q7-5 7-6v-1z" style="fill:#ffaa01;fill-rule:evenodd;stroke:#ffaa01;stroke-opacity:1;fill-opacity:1"/><path d="M438.707 249.83h6v1q-1 0 0 2 2 1 0 3-1 1-1 2h-1q-2 1-6 1h-5l-2-1-2-1h4q3-1 2-4t5-3z" style="fill:#fe53bb;fill-rule:evenodd;stroke:#fe53bb"/><path d="M460.707 248.83h1v1q0 1-3 2-4 1-4 2t-1 1h-1v1h-2l-2 1q-1 0-3 1h-2q0-1 1-2 2-2 0-3-1-2 0-2v-1h8q7-1 8-1z" style="fill:#fe53bb;fill-rule:evenodd;stroke:#fe53bb"/><path d="M302.707 302.83v-1h1v1h5q4 0 6 1h1v1h-1l-10 3q-9 3-11 4l-2 2v-1l1-1 1-1q1-2 2-2l3-3z" style="fill:#b537f2;fill-rule:evenodd;stroke:#b537f2;fill-opacity:1;stroke-opacity:1"/><path d="m142.707 190.83-3-2 2-1h10q8 1 12 1h4l2 1 2 1h2l2 1h2q0 1 1 1h1l1 1 2 1h2q2 0 2 2v3h-2q-3-1-15-2l-12-2v-1h-11v-1z" style="fill:#fe53bb;fill-rule:evenodd;stroke:#fe53bb"/><path d="m49.707 160.83-1-2h28v1h1l1 2v2l1 1 1 2v4h-1q-1 0-3-1t-13-1q-11-2-13-3l-2-1 1-1q1-1 0-3z" style="fill:#b537f2;fill-rule:evenodd;stroke:#b537f2"/><path d="m359.707 215.83 3-1h4v1q0 1-1 2l-1 1q-1 0-1 1h-1v1h1v1l-2 2-1 1h-1q-1 0-5 2l-5 2-1 1h-1q0-1-5 0h-5l-1-1q0-1 6-4 7-2 8-3l2-1h3l1-1q1-1-2-1l-2-1h1v-1h1q2 0 5-1z" style="fill:#fe53bb;fill-rule:evenodd;stroke:#fe53bb"/><path d="M280.707 176.83h2l1 1q1 1 2 3v2h2v1h1v2h-1l-1-1h-1v-1h-1v1h-1v-1q-1 0-2 1h-1v2q-1 0-24 1l-23 1-2-2q-1-2-3 0h-4q-2 0-8-1l-5-1-3-1-2-1 5-1q5-1 7-3 1-2 8-3 8-1 11 1t6 1q2-1 19-1z" style="fill:#fe53bb;fill-rule:evenodd;stroke:#fe53bb;stroke-opacity:1;fill-opacity:1"/><path d="M263.707 19.83v-1h1v12l-1 1q-1 1-3 1-3 1-4 0l-1-2-3-1q-3-1-4-2 0-1-2-2t-4 1l-3 1 1-2 2-2v-1l2-1q3-1 4 1 0 2 3 2 3-1 6-1t3-1q1-2 2-2t1-1z" style="fill:#de38c8;fill-rule:evenodd;stroke:#de38c8"/><path style="fill:#fe53bb;fill-opacity:1;stroke:#fe53bb;stroke-width:.19160028;stroke-linecap:round;stroke-linejoin:round;stroke-miterlimit:4;stroke-dasharray:none;stroke-dashoffset:19.60000038;stroke-opacity:1;paint-order:normal" d="M319.892 126.113c-1.344-.197-3.83-.816-5.721-1.422-1.89-.607-6.308-1.262-9.772-1.451-1.528-.083-3.123-.24-3.544-.347-1.08-.275-9.169-1.435-14.179-2.033-3.427-.409-19.809-3.113-21.016-3.47-.178-.052-.35-.328-.383-.613-.042-.363-.185-.535-.48-.577a.544.544 0 0 1-.478-.471c-.037-.256-.242-.455-.538-.524-.714-.167-.69-.664.053-1.124.357-.22 1.332-.97 2.166-1.666 2.139-1.784 2.187-1.803 2.187-.857 0 .77-.003.774-.744.774-.61 0-.765.077-.856.427-.15.57-.07.619 1.6 1.009.79.184 2.345.624 3.455.978 2.014.642 2.036.645 11.208 1.225 9.634.61 11.625.77 15.705 1.26 5.572.67 12.252 1.963 16.765 3.245 2.473.702 3.666.933 10.826 2.092 2.318.375 5.077.907 6.13 1.183 1.055.276 2.374.544 2.933.595 1.233.113 1.225.403-.025.867-2.323.862-4.455 1.107-9.452 1.082-2.618-.013-5.246-.095-5.84-.182z"/><path style="fill:#fe53bb;fill-opacity:1;stroke:#fe53bb;stroke-width:.19160028;stroke-linecap:round;stroke-linejoin:round;stroke-miterlimit:4;stroke-dasharray:none;stroke-dashoffset:19.60000038;stroke-opacity:1;paint-order:normal" d="M347.892 263.434c0-.039 1.672-1.585 3.715-3.438 2.043-1.852 4.134-3.863 4.646-4.47a54.541 54.541 0 0 1 1.938-2.147c.553-.575 1.006-1.199 1.006-1.385 0-.187.244-.584.543-.882.341-.342.59-.84.67-1.346.14-.871.673-1.398 1.416-1.398.401 0 .436-.085.436-1.054 0-.988-.029-1.054-.465-1.054-.337 0-.483-.119-.527-.43-.053-.373-.21-.448-1.143-.548-.814-.088-1.622-.403-3.258-1.27-3.692-1.956-8.11-4.638-12.808-7.775-3.377-2.254-4.65-3.006-5.092-3.006-.381 0-.749-.169-1.04-.479-.36-.383-.635-.479-1.382-.479-.649 0-1.1-.123-1.48-.405-.398-.294-1.013-.452-2.244-.576-2.238-.225-3.371-.435-7.208-1.333-3.12-.73-3.315-.751-6.713-.751h-3.5l-.944-.958-.943-.958h-4.326v-.48c0-.462-.044-.478-1.258-.478-1.078 0-1.357-.076-1.948-.527l-.69-.527-4.231-.107c-4.151-.106-4.264-.12-5.955-.724-2.055-.734-5.942-1.7-10.155-2.52-1.697-.332-4.478-1.061-6.227-1.635-3.213-1.053-6.467-1.73-9.676-2.01-.949-.084-2.242-.293-2.874-.466-.72-.196-2.332-.358-4.311-.432l-3.162-.117-3.059-1.024-3.059-1.024h-3.386c-4.474 0-4.977-.104-19.126-3.942-4.05-1.099-7.635-1.998-7.966-1.998-.406 0-.755-.165-1.067-.504-.566-.614-2.578-1.603-3.261-1.603-.274 0-2.645-.695-5.27-1.545-9.023-2.922-13.073-3.906-17.309-4.207-1.324-.094-3.738-.388-5.364-.653-2.042-.333-3.03-.422-3.192-.287-.16.134-.275.132-.36-.005-.068-.11-.501-.2-.962-.2-.461 0-1.045-.079-1.297-.175-.863-.328-5.218-.957-9.434-1.363-2.318-.223-7.079-.874-10.578-1.446-7.294-1.192-8.544-1.258-10.594-.561-1.145.39-1.78.479-3.392.479-2.692 0-6.703.442-12.111 1.335-2.486.41-5.144.804-5.908.875l-1.39.128v-49.28h1.224c1.82 0 10.7.543 14.155.867 1.831.17 5.16.282 8.452.282h5.43l6.11.945c3.362.52 7.879 1.125 10.039 1.346 6.06.617 10.382 1.446 12.09 2.317.698.356 1.2.374 10.846.377 8.944.003 11.213.068 19.6.572 18.026 1.084 25.166.642 35.924-2.224 6.69-1.782 9.498-2.85 11.657-4.434 1.03-.756 2.043-2.17 2.043-2.85 0-.235.27-1.1.598-1.922 1.118-2.791 1.344-4.38 1.455-10.245l.1-5.292-.933-.207c-1.682-.374-2.4-.426-8.405-.61-3.267-.1-6.367-.27-6.89-.38-1.195-.248-3.091-1.372-4.702-2.787-1.47-1.292-2.377-1.736-4.289-2.102-1.664-.319-6.177-.665-8.704-.667-1.242-.001-3.522-.293-7.508-.96-3.15-.527-6.341-.958-7.094-.958-1.457 0-3.4.423-6.256 1.36l-1.759.578-11.366-.065c-11.161-.064-11.39-.073-12.642-.492-1.696-.569-2.295-1.163-2.838-2.818-.242-.738-.472-1.397-.51-1.465-.038-.069-.107-3.13-.154-6.802-.078-6.098-.34-10.466-.865-14.438-.104-.79-.192-3.097-.195-5.125l-.006-3.688h2.107v-6.568c0-6.684.177-9.32.697-10.417.357-.752.52-.818 2.35-.947 1.435-.101 4.603-.745 5.223-1.061.2-.102.28-.305.217-.548-.056-.212-.007-.386.107-.386s2.301.305 4.86.677c6.85.996 9.25 1.613 13.55 3.485 2.914 1.268 3.799 1.777 4.575 2.63.468.514.99.784 2.377 1.226 2.774.885 7.16 1.903 10.854 2.522 6.89 1.153 7.676 1.205 19.555 1.29l11.004.08 1.258.634c.693.349 1.423.816 1.624 1.039.32.355.577.404 2.109.404h1.744l13.219-4.412c12.614-4.21 17.025-5.551 18.255-5.551.31 0 .708-.167.898-.378.465-.513 1.269-2.77 1.385-3.885.084-.807.147-.91.555-.91.437 0 .46-.06.46-1.207 0-.903.195-1.783.773-3.497 1.969-5.837 2.778-9.685 3.723-17.717.417-3.535.486-4.935.486-9.82V29.37h1.794c1.858 0 5.263.727 6.57 1.402 1.596.826 6.186 1.355 14.34 1.654 3.835.141 5.708.312 9.39.857 8.588 1.273 13.565 2.374 17.52 3.875 2.69 1.022 3.46 1.246 3.46 1.008 0-.19.724.165 1.05.514.107.116 2.048 1.53 4.314 3.145 7.027 5.008 9.972 7.624 14.665 13.028 3.164 3.641 5.067 5.556 5.524 5.556.212 0 .307.25.35.91.05.769.123.92.478.97.293.042.437.214.479.575.042.37.184.532.5.577.256.037.516.258.619.527.106.28.33.465.564.465.36 0 .388.12.388 1.678v1.679l2.408 3.35c1.324 1.844 2.758 4.041 3.187 4.884 2.061 4.055 3.783 6.83 5.386 8.678 1.805 2.083 2.616 4.03 2.922 7.017.137 1.344 1.564 4.998 3.33 8.527 1.907 3.813 2.943 7.407 3.76 13.045 1.048 7.239 1.281 8.41 2.288 11.496.9 2.759 2.386 14.063 2.535 19.292l.1 3.485.55.526c.433.415.55.696.55 1.327 0 .44.215 1.858.479 3.152.395 1.94.479 2.898.479 5.477v3.125l-1.006.058c-.938.054-1.01.093-1.067.584-.047.414-.16.527-.527.527-.423 0-.466.078-.466.845 0 .776-.082.918-1.006 1.751-1.299 1.171-3.679 2.967-8.67 6.54-3.846 2.754-4.117 2.911-6.152 3.585-3.21 1.063-4.442 2.01-4.026 3.095.353.919 4.059 1.335 10.466 1.174 4.48-.112 6.451-.352 7.916-.964.983-.41 3.567-3.14 3.574-3.775.003-.287.237-.713.561-1.024l.556-.532.75 1.119a42.64 42.64 0 0 1 1.256 2.002c.916 1.594 2.063 2.043 5.792 2.268 2.492.15 3.736.419 3.736.808 0 .088.302.16.67.16h.671v2.544c0 1.955-.108 3.066-.47 4.809-.258 1.246-.53 3.21-.602 4.365l-.133 2.099-.547.109c-.705.141-.704.558.006 1.518.709.958 6.377 6.505 10.063 9.848 1.569 1.423 4.41 4.268 6.315 6.323 1.905 2.055 4.371 4.591 5.48 5.637 4.953 4.666 8.629 8.696 8.629 9.458 0 .109.374.658.831 1.221 1.058 1.301 1.276 1.721 1.276 2.448 0 .523.063.587.565.587.546 0 .567.033.623 1.006.051.89.11 1.014.507 1.07l.449.063-.083 4.344c-.068 3.541-.162 4.714-.511 6.352-.574 2.693-1.023 3.702-1.8 4.044-.596.263-.614.307-.708 1.726-.056.855-.21 1.593-.37 1.787-.416.5-1.827 1.152-3.749 1.734-2.04.617-2.778 1.014-2.778 1.491 0 .564-.865 1.291-1.536 1.291-.327 0-.544.081-.483.18.061.1.056.526-.012.948-.094.59-.217.781-.53.826-.285.04-.427.218-.47.585-.047.414-.16.527-.527.527-.37 0-.466.1-.466.479 0 .383-.096.479-.479.479-.38 0-.479.097-.479.466 0 .367-.113.48-.527.527-.358.041-.544.186-.582.45-.03.214-.247.473-.48.575-.333.146-.435.372-.48 1.07l-.057.886-.88.12c-.91.126-99.308.176-99.308.051zm-15.687-80.225c.071-.255.138-.788.149-1.183l.019-.718h-3.066v-.638c0-.431-.154-.782-.479-1.087-.263-.247-.479-.65-.479-.895 0-.368-.1-.446-.575-.446-.48 0-.574-.076-.574-.466 0-.328-.12-.483-.409-.527-.326-.049-.529-.409-1.01-1.797-.695-2.003-1.331-3.119-4.852-8.514-2.918-4.471-3.987-6.463-3.795-7.07.07-.221.263-.403.427-.403.407 0 .24-.976-.618-3.631-.365-1.132-.665-2.367-.665-2.745 0-.603.065-.697.527-.767.29-.044-.83-.093-2.49-.109l-3.018-.029v-.479c0-.383-.096-.479-.48-.479-.382 0-.478-.095-.478-.479 0-.402-.09-.479-.565-.479h-.565l-.06-5.987c-.057-5.769-.076-6.036-.524-7.308-.256-.726-.875-1.976-1.375-2.778s-1.438-2.479-2.082-3.726l-1.172-2.268-2.078.065c-1.75.054-2.146.125-2.509.447-.623.555-1.084 1.736-1.235 3.162-.072.685-.34 2.084-.596 3.11l-.465 1.865 2.373 4.745c1.305 2.61 3.04 6.211 3.857 8.003 2.608 5.723 3.747 7.76 4.338 7.76.175 0 .363.117.417.26.055.143.35.31.656.371.512.103.66.359 1.925 3.332a325.543 325.543 0 0 1 2.51 6.096c1.415 3.57 2.057 5.009 2.53 5.673.202.284.368.744.368 1.02 0 .874.901 2.354 1.927 3.165.531.42 2.147 1.468 3.59 2.328 1.601.955 3.077 2.004 3.78 2.689 1.078 1.048 1.216 1.123 2.06 1.123.878 0 .905-.017.905-.575 0-.316.037-.574.082-.574.045 0 .796.345 1.67.768.874.423 1.676.74 1.782.704.105-.035.25-.273.322-.529zm-11.66-57.016c-.13-.053-.388-.056-.575-.007-.186.048-.08.091.236.095.316.004.469-.036.34-.088zm10.824-.006c-.183-.048-.528-.05-.766-.004-.239.046-.089.085.333.087.421.002.616-.035.433-.083zm4.836-1.785c0-.105-.194-.185-.431-.178-.412.013-.414.021-.048.178.21.09.405.171.43.178.027.007.049-.072.049-.178zm-24.769-.307c-.063-.064-.228-.07-.367-.015-.153.061-.107.106.116.116.202.008.315-.037.251-.101zm-1.241-.203a.739.739 0 0 0-.479 0c-.132.053-.024.097.24.097.263 0 .37-.044.239-.097zm23.467.011c-.064-.063-.229-.07-.367-.015-.153.061-.108.107.116.116.202.008.315-.037.251-.1zm-24.808-.202a.74.74 0 0 0-.48 0c-.13.053-.023.096.24.096.264 0 .372-.043.24-.096zm24.042.01c-.064-.063-.23-.07-.368-.014-.152.06-.107.106.116.115.202.008.315-.037.252-.1zm-25.483-.19c-.064-.065-.23-.071-.367-.016-.153.061-.108.107.115.116.202.008.316-.037.252-.1zm24.716 0c-.063-.065-.229-.071-.367-.016-.153.061-.107.107.116.116.202.008.315-.037.251-.1zm-27.171-.146c-.044-.038-.813-.118-1.708-.177-.957-.063-1.431-.042-1.15.05.465.153 3.018.266 2.858.127zm26.313-.058a.739.739 0 0 0-.479 0c-.132.054-.024.097.24.097.263 0 .37-.043.24-.097zm-.958-.191a.739.739 0 0 0-.479 0c-.132.053-.024.096.24.096.263 0 .37-.043.24-.096zm-.954-.19c-.13-.053-.389-.056-.575-.008-.186.049-.08.092.236.096.316.004.468-.036.339-.088zm-1.154-.193a.739.739 0 0 0-.479 0c-.131.053-.023.096.24.096s.371-.043.24-.096zm-.954-.19c-.13-.053-.388-.056-.575-.008-.186.049-.08.092.236.096.316.004.469-.036.34-.089zm-1.345-.194a.739.739 0 0 0-.479 0c-.131.054-.024.097.24.097.263 0 .371-.043.24-.097zm-1.058-.18c-.063-.064-.228-.07-.367-.015-.153.061-.107.106.116.116.202.008.315-.037.251-.101zm-1.34-.192c-.064-.063-.23-.07-.368-.015-.153.061-.107.107.116.116.202.008.315-.037.251-.1zm-34.297-.766c-.064-.064-.23-.07-.367-.015-.153.061-.108.106.115.116.202.008.315-.037.252-.101zm-1.533-.192c-.064-.063-.229-.07-.367-.015-.153.061-.108.107.116.116.202.008.315-.037.251-.1zm-1.43-.201c-.13-.053-.388-.056-.574-.007-.187.048-.08.091.236.095.316.004.468-.036.339-.088zm-1.532-.192c-.13-.052-.389-.055-.575-.007-.186.049-.08.092.236.096.316.004.469-.036.339-.089zm-3.596-.56c-1.476-.253-2.855-.44-3.066-.414-.5.06 4.204.869 5.078.872.368.002-.537-.205-2.012-.458zm34.148.187c-.063-.064-.228-.07-.367-.015-.153.061-.107.106.116.116.202.008.315-.037.251-.101zm-.766-.192c-.064-.063-.229-.07-.367-.015-.153.061-.108.107.116.116.202.008.315-.037.251-.1zm-37.07-.586a.739.739 0 0 0-.48 0c-.131.054-.024.097.24.097.263 0 .371-.043.24-.097zm34.77.012c-.063-.064-.228-.071-.366-.016-.153.062-.108.107.115.116.202.008.316-.037.252-.1zm-35.725-.202c-.13-.053-.388-.056-.575-.007-.186.049-.08.091.236.095.316.004.469-.035.339-.088zm34.96.01c-.064-.064-.23-.07-.368-.015-.153.061-.107.106.116.116.202.008.315-.037.251-.101zm-36.305-.203a.74.74 0 0 0-.479 0c-.132.053-.024.097.24.097.263 0 .37-.044.24-.097zm35.346.011c-.063-.063-.228-.07-.367-.015-.153.061-.107.107.116.116.202.008.315-.037.251-.1zm-36.404-.191c-.063-.064-.229-.07-.367-.015-.153.06-.107.106.116.115.202.008.315-.037.251-.1zm35.638 0c-.064-.064-.229-.07-.367-.015-.153.06-.108.106.116.115.202.008.315-.037.251-.1zm-36.787-.192c-.064-.064-.23-.07-.367-.015-.153.061-.108.107.115.116.202.008.315-.037.252-.1zm35.829 0c-.064-.064-.229-.07-.367-.015-.153.061-.108.107.116.116.202.008.315-.037.251-.1zm-.958-.191c-.064-.064-.229-.071-.367-.016-.153.062-.108.107.116.116.202.008.315-.037.251-.1zm-1.05-.203a.739.739 0 0 0-.479 0c-.131.053-.024.096.24.096.263 0 .371-.043.24-.096zm-1.058-.18c-.063-.064-.228-.071-.367-.016-.153.061-.107.107.116.116.202.008.315-.037.251-.1zm-1.05-.203a.739.739 0 0 0-.478 0c-.132.053-.024.096.24.096.263 0 .37-.043.239-.096zm-1.249-.18c-.063-.065-.229-.071-.367-.016-.153.061-.107.107.116.116.202.008.315-.037.251-.1zm-36.979-.192c-.063-.064-.229-.071-.367-.016-.153.062-.107.107.116.116.202.008.315-.037.251-.1zm35.738-.012a.739.739 0 0 0-.48 0c-.13.054-.023.097.24.097.264 0 .372-.043.24-.097zm-36.567-.21a1.04 1.04 0 0 1-.32-.43c-.073-.191-.115-.143-.125.145-.01.29.095.43.32.428.207-.002.255-.057.125-.144zm35.417.019a.739.739 0 0 0-.479 0c-.131.053-.024.096.24.096.263 0 .371-.043.24-.096zm-1.533-.192a.739.739 0 0 0-.479 0c-.131.053-.024.097.24.097.263 0 .371-.044.24-.097zm-1.529-.19c-.13-.053-.388-.056-.575-.007-.186.048-.08.091.236.095.316.004.469-.036.34-.088zm-1.724-.192c-.13-.052-.389-.055-.575-.007-.186.049-.08.092.236.096.316.004.469-.036.339-.089zm-2.016-.198a1.573 1.573 0 0 0-.67 0c-.185.048-.034.088.335.088s.52-.04.335-.088zm-2.297-.19c-.183-.049-.528-.05-.766-.005-.238.046-.088.085.333.087.422.002.617-.035.433-.083zm-26.985-.115c-.044-.03-.231-.17-.416-.311-.287-.22-.335-.212-.335.054 0 .191.16.311.415.311.229 0 .38-.024.336-.054zm24.397-.081a2.728 2.728 0 0 0-.863 0c-.237.046-.043.083.432.083.474 0 .668-.038.43-.083zm-3.16-.188c-.183-.048-.528-.05-.766-.004s-.088.085.333.087c.422.002.617-.035.433-.083zm-2.874-.192c-.183-.048-.528-.05-.766-.004s-.088.085.333.087c.422.002.617-.035.433-.083zm-3.16-.185c-.13-.053-.388-.056-.574-.007-.187.048-.08.091.235.095.317.004.47-.036.34-.088zm-2.785-.182c-.064-.064-.23-.07-.368-.015-.152.061-.107.106.116.116.202.008.315-.037.252-.101zm-13.36-.15c0-.04-.173-.118-.384-.173-.21-.055-.335-.022-.276.073.103.167.66.252.66.1zm2.778-3.566c.19-.211.303-.384.25-.384-.052 0-.251.173-.442.384-.19.21-.304.383-.25.383.052 0 .25-.173.442-.383zm1.437-.958c0-.106-.038-.192-.085-.192-.046 0-.138.086-.203.192-.065.105-.027.191.085.191.111 0 .203-.086.203-.191z"/><path style="fill:#fe53bb;fill-opacity:1;stroke:#fe53bb;stroke-width:.19160028;stroke-linecap:round;stroke-linejoin:round;stroke-miterlimit:4;stroke-dasharray:none;stroke-dashoffset:19.60000038;stroke-opacity:1;paint-order:normal" d="M347.91 263.36c.01-.079 1.556-1.543 3.436-3.254 3.758-3.421 7.85-7.73 7.85-8.264 0-.188.208-.536.461-.774s.552-.798.665-1.244c.23-.918.665-1.391 1.366-1.487.438-.06.479-.146.479-1.023 0-.842-.052-.965-.422-1.018-.233-.033-.475-.227-.54-.43-.116-.367-.29-.435-1.65-.653-1.486-.238-7.656-3.76-14.728-8.407-2.582-1.697-5.104-3.225-5.605-3.396-.5-.172-1.078-.463-1.282-.648-.204-.185-.872-.402-1.485-.482-.612-.08-1.386-.29-1.721-.466-.335-.177-1.37-.405-2.3-.508-1.917-.212-3.7-.551-7.15-1.36-2.055-.482-2.932-.579-6.167-.679l-3.771-.116-.916-.93-.915-.93h-2.15c-2.083 0-2.151-.012-2.21-.43-.056-.39-.192-.44-1.403-.527-.954-.068-1.507-.215-1.916-.508-.53-.38-.892-.422-4.624-.534-4.045-.12-4.053-.122-6.515-.893-2.756-.863-4.9-1.394-9.602-2.378-1.762-.368-4.455-1.056-5.985-1.527-4.155-1.28-8.66-2.207-10.729-2.207-.34 0-1.148-.138-1.795-.306-.648-.168-2.816-.418-4.818-.555-3.606-.247-3.667-.259-6.514-1.24-2.458-.847-3.027-.978-3.928-.905-.58.047-2.304.02-3.832-.06-3.368-.178-4.506-.426-15.787-3.44-4.659-1.244-8.854-2.326-9.323-2.405-.469-.079-1.101-.353-1.406-.609-.773-.648-2.177-1.324-3.086-1.485-.422-.075-3.052-.86-5.844-1.743-8.969-2.838-12.019-3.578-16.514-4.009-1.648-.158-4.13-.463-5.516-.678-1.385-.216-2.836-.387-3.225-.38-.74.012-1.381-.082-5.043-.74-1.226-.22-4.33-.625-6.898-.9-2.568-.276-7.376-.93-10.685-1.452-6.898-1.09-8.786-1.193-10.845-.59-.935.275-2.181.43-4.12.514-3.143.137-6.91.584-12.042 1.43-1.931.318-4.194.635-5.027.704l-1.515.127v-49.411l1.197.053c4.761.21 9.748.506 12.598.747 1.844.156 6.198.333 9.676.394 6.203.108 6.427.126 11.879.943 3.056.458 7.496 1.055 9.867 1.326 6.952.795 10.134 1.393 12.055 2.263.849.385 1.285.403 13.045.531 9.052.1 13.883.24 18.873.553 12.086.755 20.128.58 27.111-.59 2.938-.492 9.672-2.178 12.923-3.236 4.758-1.548 7.625-3.438 8.162-5.38.128-.463.482-1.512.786-2.33.94-2.53 1.114-3.75 1.342-9.467.118-2.968.166-5.525.106-5.681-.193-.502-1.837-.705-7.32-.901-7.58-.271-9.026-.43-10.438-1.142-.63-.319-1.86-1.155-2.73-1.858-.872-.704-1.845-1.433-2.163-1.62-1.236-.73-4.491-1.18-10.248-1.417-1.97-.081-4.55-.372-7.664-.863-6.63-1.047-7.829-1.19-8.81-1.048-1.165.168-4.243.95-5.638 1.431-1.087.376-1.554.39-11.975.387-5.964-.002-11.381-.082-12.04-.177-1.637-.237-3.203-.982-3.668-1.746-.204-.336-.585-1.226-.847-1.977-.466-1.338-.478-1.517-.587-8.838-.073-4.932-.214-8.351-.415-10.059-.168-1.422-.35-4.72-.407-7.328l-.103-4.742h1.955l.009-2.922c.014-4.841.341-12.647.561-13.397.386-1.319.668-1.496 2.712-1.704 1.015-.104 2.61-.38 3.545-.615 1.461-.367 1.708-.487 1.76-.858.04-.274.194-.43.425-.43 1.054 0 9.808 1.416 11.872 1.92 4.048.99 9.103 3.192 10.772 4.692.698.627 1.312.944 2.69 1.39 3.484 1.128 10.002 2.474 15.566 3.215 2.497.333 12.116.637 20.651.652l5.132.01 1 .499c.55.275 1.229.715 1.51.978.435.408.745.493 2.107.578l1.597.1 13.412-4.454c7.377-2.45 14.68-4.775 16.23-5.167 1.55-.392 2.946-.819 3.102-.949.302-.25 1.16-2.687 1.373-3.896.09-.514.223-.718.468-.718.435 0 .574-.373.574-1.545 0-.589.327-1.956.878-3.673 1.733-5.395 2.504-8.987 3.341-15.571.552-4.343.756-7.776.76-12.79l.003-4.358 1.868.002c2.013.002 4.772.569 6.5 1.335 1.835.813 6.758 1.38 14.24 1.636 3.971.137 8.044.607 14.138 1.634 5.658.954 9.178 1.804 12.686 3.063 1.528.55 3.056 1.024 3.395 1.056.761.07.27-.247 5.406 3.495 7.406 5.395 10.127 7.788 14.43 12.687 2.636 3.002 5.47 5.901 5.904 6.039.22.07.374.398.462.982.093.622.234.905.483.97.194.05.404.298.467.55a.82.82 0 0 0 .573.573c.252.063.503.287.558.496a.76.76 0 0 0 .497.485c.362.095.397.246.397 1.709v1.605l1.76 2.444c2.33 3.24 3.6 5.211 4.452 6.91 1.226 2.446 3.164 5.566 4.403 7.09 2.176 2.673 2.793 3.996 3.282 7.036.345 2.143 1.037 4.02 3.132 8.492 2.46 5.252 3.15 7.706 4.24 15.069.755 5.104 1.163 7.122 1.997 9.868.998 3.288 2.26 12.624 2.615 19.35.189 3.571.218 3.759.666 4.226.258.27.47.709.47.977 0 .267.214 1.642.476 3.055.386 2.078.478 3.179.48 5.77l.001 3.203-.943.126c-.773.102-.963.204-1.054.568a.661.661 0 0 1-.542.504c-.352.05-.442.201-.49.827-.046.576-.237.95-.767 1.501-.79.822-4.515 3.68-8.562 6.57-4.162 2.972-4.282 3.043-6.419 3.802-3.15 1.12-4.421 2.024-4.131 2.938.294.927 2.448 1.237 8.538 1.23 5.014-.008 7.402-.198 9.216-.735.86-.255 1.285-.56 2.513-1.805.824-.837 1.536-1.738 1.61-2.04.072-.296.37-.814.66-1.15l.53-.612 1.406 2.144c1.836 2.801 2.075 2.93 6.127 3.288 2.892.255 3.835.453 4.084.856.07.112.38.204.69.204h.563v2.634c0 1.87-.112 3.191-.385 4.55a33.048 33.048 0 0 0-.49 3.929c-.144 2.716-.184 2.874-.745 2.874-1.417 0-.746.873 4.805 6.246 5.217 5.05 8.033 7.853 17.502 17.416 6.151 6.212 7.365 7.547 8.017 8.814.217.421.784 1.28 1.26 1.91.505.668.916 1.444.987 1.868.102.604.2.724.585.724.376 0 .462.099.465.527.004.874.203 1.348.61 1.455.375.098.383.216.3 4.664-.07 3.846-.152 4.863-.519 6.476-.532 2.341-1.046 3.478-1.732 3.833-.472.244-.533.4-.65 1.662-.192 2.056-.55 2.367-4.055 3.502-2.294.744-2.962 1.107-2.962 1.61 0 .503-.805 1.18-1.402 1.18-.441 0-.514.08-.514.562 0 .793-.322 1.545-.662 1.545-.16 0-.342.21-.406.468-.072.285-.28.491-.531.527a.542.542 0 0 0-.473.478.542.542 0 0 1-.479.48.542.542 0 0 0-.478.472c-.035.248-.241.459-.514.527-.25.063-.51.287-.577.497a1.133 1.133 0 0 1-.47.57c-.215.115-.395.505-.474 1.03-.112.753-.191.86-.717.964-.855.171-99.603.146-99.581-.025zm-15.767-80.95.057-1.102h-1.446c-1.393 0-1.447-.017-1.447-.453 0-.248-.207-.757-.46-1.13-.253-.372-.517-.858-.587-1.08-.084-.264-.289-.403-.594-.403-.34 0-.466-.105-.466-.388 0-.226-.18-.457-.431-.553-.314-.12-.58-.575-.979-1.672-.745-2.055-1.353-3.134-4.582-8.142-3.802-5.894-4.658-7.652-3.876-7.952.456-.175.346-1.168-.38-3.44-.366-1.15-.668-2.457-.67-2.905l-.004-.814-1.485-.002c-.817 0-1.933-.055-2.48-.121-.823-.099-1.007-.19-1.055-.526a.542.542 0 0 0-.477-.465.542.542 0 0 1-.479-.479c-.04-.289-.214-.437-.556-.477l-.496-.057-.127-5.952c-.147-6.865-.215-7.2-2.096-10.38a93.156 93.156 0 0 1-2.068-3.742l-1.03-1.987-2.01.134c-1.106.074-2.156.213-2.333.308-.551.294-1.127 1.78-1.417 3.653-.152.987-.407 2.269-.566 2.849-.159.58-.29 1.232-.291 1.45-.002.34 1.476 3.483 7.862 16.716 1.355 2.807 2.176 4.06 2.662 4.06.195 0 .4.122.458.272.058.15.303.3.546.335.517.074 1.12 1.356 4.183 8.898 1.065 2.623 2.19 5.22 2.5 5.772.31.551.564 1.155.565 1.34.004.706.934 2.299 1.769 3.029.477.417 2.155 1.556 3.729 2.53 1.574.974 3.071 1.999 3.327 2.277.877.953 1.935 1.604 2.607 1.604.567 0 .661-.072.763-.58.135-.674.292-.657 1.982.216 1.545.799 1.807.71 1.877-.642z"/></svg>