<?xml version="1.0" encoding="UTF-8" standalone="no"?>
<!-- Created with Inkscape (http://www.inkscape.org/) -->

<svg
   xmlns:dc="http://purl.org/dc/elements/1.1/"
   xmlns:cc="http://creativecommons.org/ns#"
   xmlns:rdf="http://www.w3.org/1999/02/22-rdf-syntax-ns#"
   xmlns:svg="http://www.w3.org/2000/svg"
   xmlns="http://www.w3.org/2000/svg"
   xmlns:sodipodi="http://sodipodi.sourceforge.net/DTD/sodipodi-0.dtd"
   xmlns:inkscape="http://www.inkscape.org/namespaces/inkscape"
   width="361"
   height="393"
   viewBox="0 0 95.51458 103.98125"
   version="1.1"
   id="svg1580"
   inkscape:version="0.92.5 (2060ec1f9f, 2020-04-08)"
   sodipodi:docname="cat1.svg">
  <defs
     id="defs1574" />
  <sodipodi:namedview
     id="base"
     pagecolor="#ffffff"
     bordercolor="#666666"
     borderopacity="1.0"
     inkscape:pageopacity="0.0"
     inkscape:pageshadow="2"
     inkscape:zoom="0.93712831"
     inkscape:cx="190.61436"
     inkscape:cy="303.89846"
     inkscape:document-units="mm"
     inkscape:current-layer="g1062"
     showgrid="false"
     units="px"
     inkscape:window-width="1198"
     inkscape:window-height="987"
     inkscape:window-x="710"
     inkscape:window-y="45"
     inkscape:window-maximized="0" />
  <metadata
     id="metadata1577">
    <rdf:RDF>
      <cc:Work
         rdf:about="">
        <dc:format>image/svg+xml</dc:format>
        <dc:type
           rdf:resource="http://purl.org/dc/dcmitype/StillImage" />
        <dc:title></dc:title>
      </cc:Work>
    </rdf:RDF>
  </metadata>
  <g
     inkscape:label="Layer 1"
     inkscape:groupmode="layer"
     id="layer1"
     transform="translate(0,-193.01871)">
    <g
       id="g1050"
       transform="matrix(0.35277777,0,0,-0.35277777,32.774185,282.93126)">
      <path
         d="m 0,0 v -12.419 c 0,-12.799 10.375,-23.174 23.174,-23.174 h 37.89 c 12.799,0 23.174,10.375 23.174,23.174 V 0 c 0,12.798 -10.375,23.174 -23.174,23.174 H 23.174 C 10.375,23.174 0,12.798 0,0"
         style="fill:#c9802e;fill-opacity:1;fill-rule:nonzero;stroke:none"
         id="path1052"
         inkscape:connector-curvature="0" />
    </g>
    <g
       id="g1054"
       transform="matrix(0.35277777,0,0,-0.35277777,54.316276,274.75606)">
      <path
         d="M 0,0 H -18.945 V -58.767 H 0 c 12.798,0 23.174,10.375 23.174,23.174 v 12.419 C 23.174,-10.375 12.798,0 0,0"
         style="fill:#ad702c;fill-opacity:1;fill-rule:nonzero;stroke:none"
         id="path1056"
         inkscape:connector-curvature="0" />
    </g>
    <g
       id="g1058"
       transform="matrix(0.35277777,0,0,-0.35277777,49.380456,233.90503)">
      <path
         d="m 0,0 14.61,47.871 c 7.292,23.891 -2.666,49.672 -24.123,62.459 l -0.041,0.024 c -15.806,9.42 -36.236,4.606 -46.173,-10.881 v 0 c -1.843,-2.872 -1.13,-6.683 1.628,-8.695 v 0 c 3.856,-2.812 9.27,-1.906 11.999,2.01 v 0 c 6.172,8.856 18.384,10.973 27.177,4.714 v 0 C -0.091,86.943 6.388,68.123 1.199,50.672 L -13.87,0 Z"
         style="fill:#926029;fill-opacity:1;fill-rule:nonzero;stroke:none"
         id="path1060"
         inkscape:connector-curvature="0" />
    </g>
    <g
       id="g1062"
       transform="matrix(0.35277777,0,0,-0.35277777,93.788406,129.53805)">
      <path
         d="m -14.010203,-317.71281 c 0.048,0.575 0.047,1.234 -0.068,2.088 -2.834,21.003 18.1650003,66.571 11.3210003,76.857 -5.504,8.271 -38.2790003,-18.448 -50.9160003,-29.239 -16.435,10.682 -36.926,17.955 -59.504997,20.54 l -5.054,8.754 c -0.388,0.671 -1.355,0.671 -1.743,0 l -4.549,-7.879 h -0.796 l -4.598,7.965 c -0.366,0.633 -1.279,0.633 -1.644,0 l -4.563,-7.903 h -0.867 l -4.513,7.817 c -0.388,0.671 -6.768,-8.704 -6.768,-8.704 -22.714,-2.442 -43.357,-9.61 -59.928,-20.254 -12.908,10.996 -45.074,37.091 -50.522,28.903 -6.844,-10.286 14.155,-55.854 11.321,-76.857 -0.073,-0.543 -0.068,-0.952 -0.071,-1.375 l -0.765,-4.944 c -0.379,-2.447 -0.569,-4.919 -0.569,-7.395 0,0 0.076,-3.707 0.134,-6.834 0.051,-2.79 0.309,-5.573 0.77,-8.326 l 0.52,-3.109 c 0.177,-1.06 0.385,-2.117 0.66,-3.156 10.627,-40.189 58.285,-70.514 115.524,-70.514 58.261997,0 106.596997,31.418 116.056997,72.676 l 1.354,8.114 c 0.007,0.074 0.015,0.148 0.022,0.222 0.23,2.343 0.262,4.702 0.195,7.056 z"
         style="fill:#c9802e;fill-opacity:1;fill-rule:nonzero;stroke:none"
         id="path1064"
         inkscape:connector-curvature="0" />
    </g>
    <g
       id="g1066"
       transform="matrix(0.35277777,0,0,-0.35277777,92.815726,213.76992)">
      <path
         d="m 0,0 c -5.504,8.271 -38.279,-18.448 -50.916,-29.24 -16.435,10.682 -36.926,17.956 -59.505,20.541 l -5.055,8.754 c -0.387,0.671 -1.355,0.671 -1.742,0 l -4.549,-7.879 h -0.796 l -4.598,7.965 c -0.164,0.283 -0.441,0.42 -0.726,0.45 v -183.092 c 58.012,0.199 106.072,31.54 115.502,72.666 l 1.354,8.115 c 0.007,0.074 0.015,0.148 0.022,0.221 0.23,2.344 0.261,4.703 0.195,7.056 l -0.439,15.498 c 0.048,0.574 0.047,1.234 -0.068,2.087 C -14.155,-55.854 6.844,-10.286 0,0"
         style="fill:#ad702c;fill-opacity:1;fill-rule:nonzero;stroke:none"
         id="path1068"
         inkscape:connector-curvature="0" />
    </g>
    <g
       id="g1070"
       transform="matrix(0.35277777,0,0,-0.35277777,90.38089,267.21459)">
      <path
         d="m 0,0 c 0,42.155 -54.252,25.296 -121.176,25.296 -66.923,0 -121.175,16.859 -121.175,-25.296 0,-19.175 43.951,-35.076 101.526,-38.066 3.16,-7.752 10.761,-13.221 19.649,-13.221 8.888,0 16.49,5.469 19.649,13.221 C -43.951,-35.076 0,-19.175 0,0"
         style="fill:#f1f1f2;fill-opacity:1;fill-rule:nonzero;stroke:none"
         id="path1072"
         inkscape:connector-curvature="0" />
    </g>
    <g
       id="g1074"
       transform="matrix(0.35277777,0,0,-0.35277777,58.590004,293.83287)">
      <path
         d="m 0,0 v 5.641 c 0,5.813 -7.626,10.525 -17.034,10.525 h -27.852 c -9.407,0 -17.033,-4.712 -17.033,-10.525 V 0 c 0,-0.5 0.06,-0.991 0.173,-1.471 3.446,-2.033 7.45,-3.22 11.74,-3.22 h 10e-4 37.89 c 4.385,0 8.47,1.24 11.967,3.356 C -0.055,-0.898 0,-0.453 0,0"
         style="fill:#ffe1b2;fill-opacity:1;fill-rule:nonzero;stroke:none"
         id="path1076"
         inkscape:connector-curvature="0" />
    </g>
    <g
       id="g1078"
       transform="matrix(0.35277777,0,0,-0.35277777,77.403358,225.82282)">
      <path
         d="M 0,0 C 0,0 27.78,26.165 31.656,20.027 35.532,13.89 23.64,-13.299 25.245,-25.83 26.849,-38.362 0,0 0,0"
         style="fill:#765027;fill-opacity:1;fill-rule:nonzero;stroke:none"
         id="path1080"
         inkscape:connector-curvature="0" />
    </g>
    <g
       id="g1082"
       transform="matrix(0.35277777,0,0,-0.35277777,17.582022,225.82282)">
      <path
         d="M 0,0 C 0,0 -27.78,26.165 -31.656,20.027 -35.532,13.89 -23.64,-13.299 -25.245,-25.83 -26.849,-38.362 0,0 0,0"
         style="fill:#926029;fill-opacity:1;fill-rule:nonzero;stroke:none"
         id="path1084"
         inkscape:connector-curvature="0" />
    </g>
    <g
       id="g1086"
       transform="matrix(0.35277777,0,0,-0.35277777,11.316125,245.91083)">
      <path
         d="m 0,0 -14.895,3.991 c -0.082,-1.149 -0.132,-2.301 -0.132,-3.455 0,0 0.076,-3.706 0.134,-6.833 0.051,-2.791 0.309,-5.573 0.769,-8.326 l 0.199,-1.19 c 0.037,0.027 0.081,0.032 0.114,0.066 L 0.409,-1.528 C 0.906,-1.031 0.679,-0.182 0,0"
         style="fill:#404041;fill-opacity:1;fill-rule:nonzero;stroke:none"
         id="path1088"
         inkscape:connector-curvature="0" />
    </g>
    <g
       id="g1090"
       transform="matrix(0.35277777,0,0,-0.35277777,13.412895,253.56092)">
      <path
         d="m 0,0 -19.425,5.205 c -0.115,0.031 -0.223,0.01 -0.331,-0.002 l 0.209,-1.25 c 0.177,-1.06 0.385,-2.117 0.66,-3.156 1.414,-5.346 3.501,-10.511 6.161,-15.46 L 0.409,-1.528 C 0.906,-1.031 0.679,-0.182 0,0"
         style="fill:#404041;fill-opacity:1;fill-rule:nonzero;stroke:none"
         id="path1092"
         inkscape:connector-curvature="0" />
    </g>
    <g
       id="g1094"
       transform="matrix(0.35277777,0,0,-0.35277777,89.000752,247.08717)">
      <path
         d="m 0,0 -0.204,7.19 -15.298,-4.1 c -0.679,-0.182 -0.906,-1.03 -0.409,-1.527 l 14.219,-14.22 c 0.156,-0.155 0.345,-0.218 0.537,-0.24 l 0.938,5.619 c 0.007,0.074 0.015,0.148 0.022,0.222 C 0.035,-4.713 0.067,-2.354 0,0"
         style="fill:#333333;fill-opacity:1;fill-rule:nonzero;stroke:none"
         id="path1096"
         inkscape:connector-curvature="0" />
    </g>
    <g
       id="g1098"
       transform="matrix(0.35277777,0,0,-0.35277777,81.435221,253.64714)">
      <path
         d="m 0,0 c -0.679,-0.182 -0.906,-1.031 -0.409,-1.528 l 13.35,-13.35 c 3.14,5.75 5.493,11.799 6.934,18.081 l 0.307,1.84 c -0.21,0.152 -0.472,0.238 -0.757,0.162 z"
         style="fill:#333333;fill-opacity:1;fill-rule:nonzero;stroke:none"
         id="path1100"
         inkscape:connector-curvature="0" />
    </g>
    <g
       id="g1102"
       transform="matrix(0.35277777,0,0,-0.35277777,59.584554,282.68551)">
      <path
         d="m 0,0 8.24,-4.847 v 4.151 c 0,2.025 -0.287,3.98 -0.775,5.853 L 0.008,0.932 C -0.353,0.728 -0.357,0.21 0,0"
         style="fill:#333333;fill-opacity:1;fill-rule:nonzero;stroke:none"
         id="path1104"
         inkscape:connector-curvature="0" />
    </g>
    <g
       id="g1106"
       transform="matrix(0.35277777,0,0,-0.35277777,52.858422,211.93678)">
      <path
         d="m 0,0 6.805,-4.003 c 0.301,2.975 0.356,5.942 0.169,8.882 L 0.007,0.932 C -0.353,0.728 -0.357,0.21 0,0"
         style="fill:#404041;fill-opacity:1;fill-rule:nonzero;stroke:none"
         id="path1108"
         inkscape:connector-curvature="0" />
    </g>
    <g
       id="g1110"
       transform="matrix(0.35277777,0,0,-0.35277777,49.027433,205.43896)">
      <path
         d="m 0,0 c 1.24,-2.679 2.195,-5.476 2.857,-8.353 l 5.335,5.249 c 0.295,0.291 0.165,0.792 -0.234,0.902 z"
         style="fill:#404041;fill-opacity:1;fill-rule:nonzero;stroke:none"
         id="path1112"
         inkscape:connector-curvature="0" />
    </g>
    <g
       id="g1114"
       transform="matrix(0.35277777,0,0,-0.35277777,44.116094,199.50859)">
      <path
         d="M 0,0 C 0.234,-0.166 0.447,-0.352 0.676,-0.523 L 0.733,6.448 C 0.736,6.862 0.29,7.124 -0.071,6.92 L -6.844,3.083 C -4.452,2.526 -2.125,1.513 0,0"
         style="fill:#404041;fill-opacity:1;fill-rule:nonzero;stroke:none"
         id="path1116"
         inkscape:connector-curvature="0" />
    </g>
    <g
       id="g1118"
       transform="matrix(0.35277777,0,0,-0.35277777,49.91093,198.04598)">
      <path
         d="m 0,0 -2.542,-6.531 c -0.15,-0.386 0.174,-0.79 0.583,-0.727 l 7.133,1.096 C 3.61,-3.996 1.889,-1.932 0,0"
         style="fill:#404041;fill-opacity:1;fill-rule:nonzero;stroke:none"
         id="path1120"
         inkscape:connector-curvature="0" />
    </g>
    <g
       id="g1122"
       transform="matrix(0.35277777,0,0,-0.35277777,36.569085,193.74738)">
      <path
         d="M 0,0 3.352,-5.916 C 3.556,-6.277 4.074,-6.281 4.284,-5.924 L 8.533,1.3 C 5.638,1.232 2.775,0.786 0,0"
         style="fill:#404041;fill-opacity:1;fill-rule:nonzero;stroke:none"
         id="path1124"
         inkscape:connector-curvature="0" />
    </g>
    <g
       id="g1126"
       transform="matrix(0.35277777,0,0,-0.35277777,59.522501,288.05575)">
      <path
         d="m 0,0 c -0.36,-0.204 -0.365,-0.722 -0.008,-0.932 l 7.234,-4.256 c 0.762,2.296 1.19,4.744 1.19,7.295 v 2.661 z"
         style="fill:#333333;fill-opacity:1;fill-rule:nonzero;stroke:none"
         id="path1128"
         inkscape:connector-curvature="0" />
    </g>
    <g
       id="g1130"
       transform="matrix(0.35277777,0,0,-0.35277777,32.774219,286.51658)">
      <path
         d="m 0,0 v -2.256 c 0,-2.619 0.455,-5.128 1.256,-7.476 l 6.976,3.953 c 0.361,0.204 0.365,0.722 0.008,0.932 z"
         style="fill:#404041;fill-opacity:1;fill-rule:nonzero;stroke:none"
         id="path1132"
         inkscape:connector-curvature="0" />
    </g>
    <g
       id="g1134"
       transform="matrix(0.35277777,0,0,-0.35277777,33.058381,280.82422)">
      <path
         d="m 0,0 c -0.509,-1.909 -0.806,-3.904 -0.806,-5.973 v -4.275 l 8.474,4.801 c 0.361,0.204 0.365,0.722 0.008,0.932 z"
         style="fill:#404041;fill-opacity:1;fill-rule:nonzero;stroke:none"
         id="path1136"
         inkscape:connector-curvature="0" />
    </g>
    <g
       id="g1138"
       transform="matrix(0.35277777,0,0,-0.35277777,35.868291,199.32335)">
      <path
         d="m 0,0 -14.506,-8.002 c 3.698,-1.809 8.271,-0.734 10.708,2.763 1.086,1.558 2.367,2.895 3.774,4.026 z"
         style="fill:#404041;fill-opacity:1;fill-rule:nonzero;stroke:none"
         id="path1140"
         inkscape:connector-curvature="0" />
    </g>
    <g
       id="g1142"
       transform="matrix(0.35277777,0,0,-0.35277777,30.295425,201.88042)">
      <path
         d="M 0,0 C 3.76,-2.743 8.985,-1.926 11.773,1.747 L 11.928,9.667 -1.817,2.084 C -1.376,1.29 -0.78,0.569 0,0"
         style="fill:#404041;fill-opacity:1;fill-rule:nonzero;stroke:none"
         id="path1144"
         inkscape:connector-curvature="0" />
    </g>
    <g
       id="g1146"
       transform="matrix(0.35277777,0,0,-0.35277777,30.295425,201.88042)">
      <path
         d="M 0,0 C 2.368,-1.727 5.321,-2.039 7.881,-1.126 L 8.129,11.602 -2.606,5.679 C -2.761,3.527 -1.858,1.355 0,0"
         style="fill:#404041;fill-opacity:1;fill-rule:nonzero;stroke:none"
         id="path1148"
         inkscape:connector-curvature="0" />
    </g>
    <g
       id="g1150"
       transform="matrix(0.35277777,0,0,-0.35277777,29.72121,198.81309)">
      <path
         d="m 0,0 c -1.843,-2.872 -1.13,-6.684 1.628,-8.695 1.001,-0.73 2.109,-1.198 3.247,-1.44 L 5.162,4.599 2.097,2.909 C 1.357,1.984 0.653,1.018 0,0"
         style="fill:#404041;fill-opacity:1;fill-rule:nonzero;stroke:none"
         id="path1152"
         inkscape:connector-curvature="0" />
    </g>
    <g
       id="g1154"
       transform="matrix(0.35277777,0,0,-0.35277777,40.348922,248.34267)">
      <path
         d="m 0,0 c 0,-5.293 -4.29,-9.583 -9.583,-9.583 -5.292,0 -9.583,4.29 -9.583,9.583 0,5.293 4.291,9.583 9.583,9.583 C -4.29,9.583 0,5.293 0,0"
         style="fill:#404041;fill-opacity:1;fill-rule:nonzero;stroke:none"
         id="path1156"
         inkscape:connector-curvature="0" />
    </g>
    <g
       id="g1158"
       transform="matrix(0.35277777,0,0,-0.35277777,61.677972,248.34267)">
      <path
         d="m 0,0 c 0,-5.293 -4.29,-9.583 -9.583,-9.583 -5.292,0 -9.583,4.29 -9.583,9.583 0,5.293 4.291,9.583 9.583,9.583 C -4.29,9.583 0,5.293 0,0"
         style="fill:#404041;fill-opacity:1;fill-rule:nonzero;stroke:none"
         id="path1160"
         inkscape:connector-curvature="0" />
    </g>
    <g
       id="g1162"
       transform="matrix(0.35277777,0,0,-0.35277777,42.718213,259.74053)">
      <path
         d="m 0,0 c -0.866,0.109 -86.908,10.77 -120.582,0.033 l -0.509,1.593 c 34.026,10.847 120.432,0.142 121.3,0.033 z"
         style="fill:#404041;fill-opacity:1;fill-rule:nonzero;stroke:none"
         id="path1164"
         inkscape:connector-curvature="0" />
    </g>
    <g
       id="g1166"
       transform="matrix(0.35277777,0,0,-0.35277777,0.46175205,267.92681)">
      <path
         d="m 0,0 -0.741,1.499 c 32.013,15.827 119.047,18.199 119.923,18.222 l 0.042,-1.672 C 118.352,18.027 31.685,15.664 0,0"
         style="fill:#404041;fill-opacity:1;fill-rule:nonzero;stroke:none"
         id="path1168"
         inkscape:connector-curvature="0" />
    </g>
    <g
       id="g1170"
       transform="matrix(0.35277777,0,0,-0.35277777,2.0811765,275.34167)">
      <path
         d="m 0,0 -0.947,1.378 c 29.431,20.227 115.24,34.975 116.103,35.121 l 0.28,-1.648 C 114.576,34.705 29.129,20.019 0,0"
         style="fill:#404041;fill-opacity:1;fill-rule:nonzero;stroke:none"
         id="path1172"
         inkscape:connector-curvature="0" />
    </g>
    <g
       id="g1174"
       transform="matrix(0.35277777,0,0,-0.35277777,37.216925,247.24726)">
      <path
         d="m 0,0 c 0,-1.715 -1.39,-3.105 -3.105,-3.105 -1.715,0 -3.105,1.39 -3.105,3.105 0,1.715 1.39,3.105 3.105,3.105 C -1.39,3.105 0,1.715 0,0"
         style="fill:#f1f1f2;fill-opacity:1;fill-rule:nonzero;stroke:none"
         id="path1176"
         inkscape:connector-curvature="0" />
    </g>
    <g
       id="g1178"
       transform="matrix(0.35277777,0,0,-0.35277777,58.297338,247.24726)">
      <path
         d="m 0,0 c 0,-1.715 -1.39,-3.105 -3.105,-3.105 -1.715,0 -3.105,1.39 -3.105,3.105 0,1.715 1.39,3.105 3.105,3.105 C -1.39,3.105 0,1.715 0,0"
         style="fill:#f1f1f2;fill-opacity:1;fill-rule:nonzero;stroke:none"
         id="path1180"
         inkscape:connector-curvature="0" />
    </g>
    <g
       id="g1182"
       transform="matrix(0.35277777,0,0,-0.35277777,44.713947,293.63909)">
      <path
         d="m 0,0 c -1.73,0 -3.133,-1.173 -3.602,-2.752 -0.131,2.449 -2.116,4.408 -4.597,4.408 -2.481,0 -4.467,-1.959 -4.598,-4.407 -0.468,1.578 -1.872,2.751 -3.602,2.751 -2.108,0 -3.817,-1.709 -3.817,-3.818 0,-0.108 0.052,-0.199 0.061,-0.305 v -3.843 c 0,-0.862 0.699,-1.561 1.562,-1.561 H 2.265 c 0.838,0 1.518,0.679 1.518,1.517 v 4.019 C 3.786,-3.93 3.818,-3.879 3.818,-3.818 3.818,-1.709 2.108,0 0,0"
         style="fill:#c9802e;fill-opacity:1;fill-rule:nonzero;stroke:none"
         id="path1184"
         inkscape:connector-curvature="0" />
    </g>
    <g
       id="g1186"
       transform="matrix(0.35277777,0,0,-0.35277777,47.632796,226.01766)">
      <path
         d="M 0,0 58.873,-8.508 H -58.873 Z"
         style="fill:#404041;fill-opacity:1;fill-rule:nonzero;stroke:none"
         id="path1188"
         inkscape:connector-curvature="0" />
    </g>
    <g
       id="g1190"
       transform="matrix(0.35277777,0,0,-0.35277777,47.632796,221.21325)">
      <path
         d="M 0,0 48.793,-7.051 H -48.793 Z"
         style="fill:#404041;fill-opacity:1;fill-rule:nonzero;stroke:none"
         id="path1192"
         inkscape:connector-curvature="0" />
    </g>
    <g
       id="g1194"
       transform="matrix(0.35277777,0,0,-0.35277777,47.632796,230.70311)">
      <path
         d="M 0,0 35.607,-5.146 H -35.607 Z"
         style="fill:#404041;fill-opacity:1;fill-rule:nonzero;stroke:none"
         id="path1196"
         inkscape:connector-curvature="0" />
    </g>
    <g
       id="g1198"
       transform="matrix(0.35277777,0,0,-0.35277777,58.590038,293.83287)">
      <path
         d="m 0,0 v 5.641 c 0,5.813 -7.626,10.525 -17.034,10.525 H -31.06 V -4.691 h 18.945 c 4.383,0 8.466,1.239 11.961,3.353 C -0.06,-0.9 0,-0.455 0,0"
         style="fill:#edc186;fill-opacity:1;fill-rule:nonzero;stroke:none"
         id="path1200"
         inkscape:connector-curvature="0" />
    </g>
    <g
       id="g1202"
       transform="matrix(0.35277777,0,0,-0.35277777,58.590038,293.83287)">
      <path
         d="m 0,0 v 5.641 c 0,5.813 -7.626,10.525 -17.034,10.525 H -31.06 V -4.691 h 18.945 c 4.383,0 8.466,1.239 11.961,3.353 C -0.06,-0.9 0,-0.455 0,0"
         style="fill:#edc186;fill-opacity:1;fill-rule:nonzero;stroke:none"
         id="path1204"
         inkscape:connector-curvature="0" />
    </g>
    <g
       id="g1206"
       transform="matrix(0.35277777,0,0,-0.35277777,56.336846,293.63909)">
      <path
         d="m 0,0 c -1.73,0 -3.133,-1.173 -3.602,-2.752 -0.131,2.449 -2.116,4.408 -4.597,4.408 -2.481,0 -4.467,-1.959 -4.598,-4.407 -0.468,1.578 -1.872,2.751 -3.602,2.751 -2.108,0 -3.817,-1.709 -3.817,-3.818 0,-0.108 0.052,-0.199 0.061,-0.305 v -3.843 c 0,-0.862 0.699,-1.561 1.562,-1.561 H 2.265 c 0.838,0 1.518,0.679 1.518,1.517 v 4.019 C 3.786,-3.93 3.818,-3.879 3.818,-3.818 3.818,-1.709 2.108,0 0,0"
         style="fill:#a86828;fill-opacity:1;fill-rule:nonzero;stroke:none"
         id="path1208"
         inkscape:connector-curvature="0" />
    </g>
    <g
       id="g1210"
       transform="matrix(0.35277777,0,0,-0.35277777,47.700034,258.29008)">
      <path
         d="m 0,0 v -76.571 c 8.804,0.079 16.322,5.512 19.458,13.207 57.576,2.99 101.527,18.891 101.527,38.066 C 120.985,16.817 66.835,0.032 0,0"
         style="fill:#e6e7e8;fill-opacity:1;fill-rule:nonzero;stroke:none"
         id="path1212"
         inkscape:connector-curvature="0" />
    </g>
    <g
       id="g1214"
       transform="matrix(0.35277777,0,0,-0.35277777,47.661828,258.73437)">
      <path
         d="m 0,0 v -22.104 c 0,0 -8.43,-15.615 -20.751,0"
         style="fill:none;stroke:#404041;stroke-width:1.5;stroke-linecap:butt;stroke-linejoin:miter;stroke-miterlimit:10;stroke-dasharray:none;stroke-opacity:1"
         id="path1216"
         inkscape:connector-curvature="0" />
    </g>
    <g
       id="g1218"
       transform="matrix(0.35277777,0,0,-0.35277777,52.681786,259.87744)">
      <path
         d="m 0,0 -0.209,1.659 c 0.869,0.11 87.274,10.815 121.3,-0.033 L 120.582,0.033 C 86.908,10.768 0.865,0.109 0,0"
         style="fill:#404041;fill-opacity:1;fill-rule:nonzero;stroke:none"
         id="path1220"
         inkscape:connector-curvature="0" />
    </g>
    <g
       id="g1222"
       transform="matrix(0.35277777,0,0,-0.35277777,93.318823,275.47841)">
      <path
         d="m 0,0 c -29.131,20.02 -114.576,34.705 -115.436,34.851 l 0.28,1.648 C -114.293,36.353 -28.484,21.604 0.947,1.378 Z"
         style="fill:#404041;fill-opacity:1;fill-rule:nonzero;stroke:none"
         id="path1224"
         inkscape:connector-curvature="0" />
    </g>
    <g
       id="g1226"
       transform="matrix(0.35277777,0,0,-0.35277777,94.938285,267.92681)">
      <path
         d="m 0,0 c -31.684,15.664 -118.352,18.027 -119.224,18.049 l 0.042,1.672 c 0.876,-0.023 87.911,-2.395 119.923,-18.222 z"
         style="fill:#404041;fill-opacity:1;fill-rule:nonzero;stroke:none"
         id="path1228"
         inkscape:connector-curvature="0" />
    </g>
    <g
       id="g1230"
       transform="matrix(0.35277777,0,0,-0.35277777,50.812487,257.74173)">
      <path
         d="m 0,0 -6.009,-10.408 c -1.25,-2.166 -4.377,-2.166 -5.627,0 L -17.645,0 c -1.251,2.166 0.312,4.874 2.814,4.874 H -2.814 C -0.313,4.874 1.251,2.166 0,0"
         style="fill:#404041;fill-opacity:1;fill-rule:nonzero;stroke:none"
         id="path1232"
         inkscape:connector-curvature="0" />
    </g>
    <g
       id="g1234"
       transform="matrix(0.35277777,0,0,-0.35277777,54.890316,266.51323)">
      <path
         d="M 0,0 C 0,0 -10.201,-15.587 -20.403,0"
         style="fill:none;stroke:#404041;stroke-width:1.5;stroke-linecap:butt;stroke-linejoin:miter;stroke-miterlimit:10;stroke-dasharray:none;stroke-opacity:1"
         id="path1236"
         inkscape:connector-curvature="0" />
    </g>
  </g>
</svg>
