<?xml version="1.0" encoding="UTF-8" standalone="no"?>
<!-- Created with Inkscape (http://www.inkscape.org/) -->

<svg
   xmlns:dc="http://purl.org/dc/elements/1.1/"
   xmlns:cc="http://creativecommons.org/ns#"
   xmlns:rdf="http://www.w3.org/1999/02/22-rdf-syntax-ns#"
   xmlns:svg="http://www.w3.org/2000/svg"
   xmlns="http://www.w3.org/2000/svg"
   xmlns:sodipodi="http://sodipodi.sourceforge.net/DTD/sodipodi-0.dtd"
   xmlns:inkscape="http://www.inkscape.org/namespaces/inkscape"
   width="99.199997mm"
   height="105.8mm"
   viewBox="0 0 99.199997 105.8"
   version="1.1"
   id="cat2"
   class="cat"
   inkscape:version="0.92.5 (2060ec1f9f, 2020-04-08)"
   sodipodi:docname="cat2.svg"
   >
  <defs
     id="defs2438" />
  <sodipodi:namedview
     id="base"
     pagecolor="#ffffff"
     bordercolor="#666666"
     borderopacity="1.0"
     inkscape:pageopacity="0.0"
     inkscape:pageshadow="2"
     inkscape:zoom="0.83477983"
     inkscape:cx="338.55756"
     inkscape:cy="176.66539"
     inkscape:document-units="mm"
     inkscape:current-layer="layer1"
     showgrid="false"
     units="mm"
     inkscape:window-width="1134"
     inkscape:window-height="987"
     inkscape:window-x="774"
     inkscape:window-y="45"
     inkscape:window-maximized="0" />
  <metadata
     id="metadata2441">
    <rdf:RDF>
      <cc:Work
         rdf:about="">
        <dc:format>image/svg+xml</dc:format>
        <dc:type
           rdf:resource="http://purl.org/dc/dcmitype/StillImage" />
        <dc:title></dc:title>
      </cc:Work>
    </rdf:RDF>
  </metadata>
  <g
     inkscape:label="Layer 1"
     inkscape:groupmode="layer"
     id="layer1"
     transform="translate(0,-191.2)">
    <g
       id="g1238"
       transform="matrix(-0.35277777,0,0,-0.35277777,64.057141,282.93126)">
      <path
         d="m 0,0 v -12.419 c 0,-12.799 10.375,-23.174 23.174,-23.174 h 37.89 c 12.799,0 23.174,10.375 23.174,23.174 V 0 c 0,12.798 -10.375,23.174 -23.174,23.174 H 23.174 C 10.375,23.174 0,12.798 0,0"
         style="fill:#f8c786;fill-opacity:1;fill-rule:nonzero;stroke:none"
         id="path1240"
         inkscape:connector-curvature="0" />
    </g>
    <g
       id="g1242"
       transform="matrix(-0.35277777,0,0,-0.35277777,42.515083,274.7561)">
      <path
         d="M 0,0 H -19.048 V -58.767 H 0 c 12.798,0 23.174,10.376 23.174,23.174 v 12.419 C 23.174,-10.375 12.798,0 0,0"
         style="fill:#e4b170;fill-opacity:1;fill-rule:nonzero;stroke:none"
         id="path1244"
         inkscape:connector-curvature="0" />
    </g>
    <g
       id="g1246"
       transform="matrix(-0.35277777,0,0,-0.35277777,47.450867,231.85751)">
      <path
         d="m 0,0 14.61,47.871 c 7.292,23.891 -2.666,49.672 -24.123,62.459 l -0.041,0.024 c -15.806,9.42 -36.235,4.606 -46.173,-10.881 -1.843,-2.872 -1.13,-6.683 1.628,-8.695 v 0 c 3.856,-2.812 9.27,-1.905 11.999,2.01 6.172,8.856 18.384,10.973 27.177,4.714 C -0.091,86.943 6.388,68.123 1.199,50.672 L -13.87,0 Z"
         style="fill:#e4b170;fill-opacity:1;fill-rule:nonzero;stroke:none"
         id="path1248"
         inkscape:connector-curvature="0" />
    </g>
    <g
       id="g1250"
       transform="matrix(-0.35277777,0,0,-0.35277777,1.5146321e-4,244.59476)">
      <path
         d="m 0,0 c 0,65.972 -90.594,119.452 -140.508,119.452 -49.914,0 -140.508,-53.48 -140.508,-119.452 0,-53.822 41.877,-99.317 99.437,-114.254 0.005,-0.004 -0.006,-0.007 0,-0.011 9.874,-3.337 28.483,-4.183 42.31,-9.745 13.826,5.441 38.057,8.275 41.928,10.304 0.017,0.009 -0.001,0.017 0.013,0.026 C -40.86,-98.188 0,-53.161 0,0"
         style="fill:#ad702c;fill-opacity:1;fill-rule:nonzero;stroke:none"
         id="path1252"
         inkscape:connector-curvature="0" />
    </g>
    <g
       id="g1254"
       transform="matrix(-0.35277777,0,0,-0.35277777,60.963066,197.27583)">
      <path
         d="m 0,0 -14.506,-8.002 c 3.698,-1.809 8.271,-0.734 10.708,2.763 1.086,1.558 2.367,2.895 3.774,4.026 z"
         style="fill:#404041;fill-opacity:1;fill-rule:nonzero;stroke:none"
         id="path1256"
         inkscape:connector-curvature="0" />
    </g>
    <g
       id="g1258"
       transform="matrix(-0.35277777,0,0,-0.35277777,66.535932,199.83291)">
      <path
         d="M 0,0 C 3.76,-2.743 8.985,-1.926 11.773,1.747 L 11.928,9.667 -1.817,2.084 C -1.376,1.29 -0.78,0.569 0,0"
         style="fill:#404041;fill-opacity:1;fill-rule:nonzero;stroke:none"
         id="path1260"
         inkscape:connector-curvature="0" />
    </g>
    <g
       id="g1262"
       transform="matrix(-0.35277777,0,0,-0.35277777,66.535932,199.83291)">
      <path
         d="M 0,0 C 2.368,-1.727 5.321,-2.039 7.881,-1.126 L 8.129,11.602 -2.606,5.679 C -2.761,3.527 -1.858,1.355 0,0"
         style="fill:#404041;fill-opacity:1;fill-rule:nonzero;stroke:none"
         id="path1264"
         inkscape:connector-curvature="0" />
    </g>
    <g
       id="g1266"
       transform="matrix(-0.35277777,0,0,-0.35277777,67.110112,196.76557)">
      <path
         d="m 0,0 c -1.843,-2.872 -1.13,-6.684 1.628,-8.695 1.001,-0.73 2.109,-1.198 3.247,-1.44 L 5.162,4.599 2.097,2.909 C 1.357,1.984 0.653,1.018 0,0"
         style="fill:#404041;fill-opacity:1;fill-rule:nonzero;stroke:none"
         id="path1268"
         inkscape:connector-curvature="0" />
    </g>
    <g
       id="g1270"
       transform="matrix(-0.35277777,0,0,-0.35277777,53.690589,293.63909)">
      <path
         d="m 0,0 c -1.73,0 -3.133,-1.173 -3.602,-2.752 -0.131,2.449 -2.116,4.408 -4.597,4.408 -2.481,0 -4.467,-1.959 -4.598,-4.407 -0.468,1.578 -1.872,2.751 -3.602,2.751 -2.108,0 -3.817,-1.709 -3.817,-3.818 0,-0.108 0.052,-0.199 0.061,-0.305 v -3.843 c 0,-0.862 0.699,-1.561 1.562,-1.561 H 2.265 c 0.838,0 1.518,0.679 1.518,1.517 v 4.019 C 3.786,-3.93 3.818,-3.879 3.818,-3.818 3.818,-1.709 2.109,0 0,0"
         style="fill:#ffe1b2;fill-opacity:1;fill-rule:nonzero;stroke:none"
         id="path1272"
         inkscape:connector-curvature="0" />
    </g>
    <g
       id="g1274"
       transform="matrix(-0.35277777,0,0,-0.35277777,38.92137,293.63909)">
      <path
         d="m 0,0 c -1.73,0 -3.133,-1.173 -3.602,-2.752 -0.131,2.449 -2.116,4.408 -4.597,4.408 -2.481,0 -4.467,-1.959 -4.598,-4.407 -0.468,1.578 -1.872,2.751 -3.602,2.751 -2.108,0 -3.817,-1.709 -3.817,-3.818 0,-0.108 0.052,-0.199 0.061,-0.305 v -3.843 c 0,-0.862 0.699,-1.561 1.562,-1.561 H 2.265 c 0.838,0 1.518,0.679 1.518,1.517 v 4.019 C 3.786,-3.93 3.818,-3.879 3.818,-3.818 3.818,-1.709 2.109,0 0,0"
         style="fill:#f2cb9b;fill-opacity:1;fill-rule:nonzero;stroke:none"
         id="path1276"
         inkscape:connector-curvature="0" />
    </g>
    <g
       id="g1278"
       transform="matrix(-0.35277777,0,0,-0.35277777,48.638529,202.47295)">
      <path
         d="m 0,0 c -0.466,0.007 -0.93,0.022 -1.397,0.025 v -243.436 c 13.827,5.442 38.058,8.276 41.928,10.305 0.018,0.009 0,0.017 0.013,0.026 56.469,15.491 97.329,60.519 97.329,113.68 C 137.873,-54.573 50.396,-1.811 0,0"
         style="fill:#926029;fill-opacity:1;fill-rule:nonzero;stroke:none"
         id="path1280"
         inkscape:connector-curvature="0" />
    </g>
    <g
       id="g1282"
       transform="matrix(-0.35277777,0,0,-0.35277777,10.846056,258.9247)">
      <path
         d="m 0,0 c 3.163,5.774 5.53,11.852 6.977,18.163 l 1.354,8.114 c 0.007,0.074 0.014,0.148 0.022,0.222 0.23,2.344 0.261,4.703 0.195,7.056 L 8.109,49.052 c 0.048,0.575 0.047,1.234 -0.068,2.088 -2.834,21.003 18.165,66.571 11.321,76.858 -5.504,8.271 -38.279,-18.448 -50.917,-29.24 -16.434,10.682 -36.925,17.956 -59.505,20.541 l -5.054,8.754 c -0.387,0.67 -1.355,0.67 -1.742,0 l -4.549,-7.879 h -0.796 l -4.599,7.965 c -0.365,0.632 -1.278,0.632 -1.643,0 l -4.563,-7.904 h -0.867 l -4.513,7.818 c -0.388,0.67 -6.768,-8.705 -6.768,-8.705 -22.715,-2.442 -43.357,-9.609 -59.928,-20.254 -12.909,10.997 -45.074,37.091 -50.522,28.904 -6.844,-10.287 14.155,-55.855 11.321,-76.858 -0.073,-0.542 -0.068,-0.951 -0.072,-1.375 l -0.764,-4.943 c -0.379,-2.447 -0.569,-4.92 -0.569,-7.396 0,0 0.076,-3.706 0.134,-6.833 0.051,-2.791 0.309,-5.573 0.77,-8.326 l 0.52,-3.109 c 0.177,-1.061 0.385,-2.117 0.66,-3.157 1.492,-5.642 3.738,-11.081 6.614,-16.278 -7.626,-4.212 -11.901,-11.392 -11.901,-23.222 0,-19.175 43.951,-35.076 101.526,-38.066 3.16,-7.752 10.761,-13.221 19.649,-13.221 8.888,0 16.489,5.469 19.649,13.221 57.575,2.99 101.527,18.891 101.527,38.066 C 12.46,-11.392 7.965,-4.169 0,0"
         style="fill:#ffe1b2;fill-opacity:1;fill-rule:nonzero;stroke:none"
         id="path1284"
         inkscape:connector-curvature="0" />
    </g>
    <g
       id="g1286"
       transform="matrix(-0.35277777,0,0,-0.35277777,4.0156005,213.76989)">
      <path
         d="m 0,0 c -5.504,8.271 -38.279,-18.448 -50.916,-29.24 -16.435,10.682 -36.926,17.956 -59.505,20.541 l -5.055,8.754 c -0.387,0.671 -1.355,0.671 -1.742,0 l -4.549,-7.879 h -0.796 l -4.599,7.965 c -0.163,0.283 -0.44,0.42 -0.725,0.449 v -203.36 c 8.804,0.079 16.322,5.512 19.458,13.207 57.576,2.99 101.527,18.891 101.527,38.066 0,12.107 -4.494,19.33 -12.46,23.499 3.163,5.774 5.53,11.852 6.977,18.163 l 1.354,8.115 c 0.007,0.073 0.015,0.147 0.022,0.221 0.23,2.344 0.261,4.703 0.195,7.056 l -0.439,15.498 c 0.048,0.574 0.047,1.234 -0.068,2.087 C -14.155,-55.854 6.844,-10.286 0,0"
         style="fill:#edc186;fill-opacity:1;fill-rule:nonzero;stroke:none"
         id="path1288"
         inkscape:connector-curvature="0" />
    </g>
    <g
       id="g1290"
       transform="matrix(-0.35277777,0,0,-0.35277777,19.428002,225.82282)">
      <path
         d="M 0,0 C 0,0 27.78,26.165 31.656,20.027 35.532,13.89 23.64,-13.299 25.245,-25.83 26.849,-38.362 0,0 0,0"
         style="fill:#b16d29;fill-opacity:1;fill-rule:nonzero;stroke:none"
         id="path1292"
         inkscape:connector-curvature="0" />
    </g>
    <g
       id="g1294"
       transform="matrix(-0.35277777,0,0,-0.35277777,79.249338,225.82282)">
      <path
         d="M 0,0 C 0,0 -27.78,26.165 -31.656,20.027 -35.532,13.89 -23.64,-13.299 -25.245,-25.83 -26.849,-38.362 0,0 0,0"
         style="fill:#c9802e;fill-opacity:1;fill-rule:nonzero;stroke:none"
         id="path1296"
         inkscape:connector-curvature="0" />
    </g>
    <g
       id="g1298"
       transform="matrix(-0.35277777,0,0,-0.35277777,56.482401,248.34271)">
      <path
         d="m 0,0 c 0,-5.293 -4.29,-9.583 -9.583,-9.583 -5.292,0 -9.583,4.29 -9.583,9.583 0,5.292 4.291,9.583 9.583,9.583 C -4.29,9.583 0,5.292 0,0"
         style="fill:#404041;fill-opacity:1;fill-rule:nonzero;stroke:none"
         id="path1300"
         inkscape:connector-curvature="0" />
    </g>
    <g
       id="g1302"
       transform="matrix(-0.35277777,0,0,-0.35277777,44.216635,259.87731)">
      <path
         d="M 0,0 -0.209,1.659 C 0.66,1.768 87.067,12.474 121.09,1.626 L 120.583,0.033 C 86.902,10.771 0.864,0.109 0,0"
         style="fill:#404041;fill-opacity:1;fill-rule:nonzero;stroke:none"
         id="path1304"
         inkscape:connector-curvature="0" />
    </g>
    <g
       id="g1306"
       transform="matrix(-0.35277777,0,0,-0.35277777,3.5795935,275.47848)">
      <path
         d="m 0,0 c -29.129,20.018 -114.576,34.705 -115.437,34.851 l 0.281,1.648 C -114.292,36.353 -28.485,21.604 0.947,1.378 Z"
         style="fill:#404041;fill-opacity:1;fill-rule:nonzero;stroke:none"
         id="path1308"
         inkscape:connector-curvature="0" />
    </g>
    <g
       id="g1310"
       transform="matrix(-0.35277777,0,0,-0.35277777,1.9599725,267.92688)">
      <path
         d="m 0,0 c -31.686,15.664 -118.353,18.027 -119.224,18.049 l 0.041,1.672 c 0.876,-0.023 87.91,-2.395 119.923,-18.222 z"
         style="fill:#404041;fill-opacity:1;fill-rule:nonzero;stroke:none"
         id="path1312"
         inkscape:connector-curvature="0" />
    </g>
    <g
       id="g1314"
       transform="matrix(-0.35277777,0,0,-0.35277777,59.614432,247.24726)">
      <path
         d="m 0,0 c 0,-1.715 -1.39,-3.105 -3.105,-3.105 -1.715,0 -3.105,1.39 -3.105,3.105 0,1.715 1.39,3.105 3.105,3.105 C -1.39,3.105 0,1.715 0,0"
         style="fill:#f1f1f2;fill-opacity:1;fill-rule:nonzero;stroke:none"
         id="path1316"
         inkscape:connector-curvature="0" />
    </g>
    <g
       id="g1318"
       transform="matrix(-0.35277777,0,0,-0.35277777,76.491602,223.96639)">
      <path
         d="m 0,0 67.898,-20.133 c 5.499,-1.63 11.35,-1.661 16.867,-0.089 l 69.762,19.886 -7.834,22.689 -82.351,21.813 z"
         style="fill:#ad702c;fill-opacity:1;fill-rule:nonzero;stroke:none"
         id="path1320"
         inkscape:connector-curvature="0" />
    </g>
    <g
       id="g1322"
       transform="matrix(-0.35277777,0,0,-0.35277777,54.18042,259.7406)">
      <path
         d="m 0,0 c -0.866,0.109 -86.909,10.769 -120.582,0.033 l -0.508,1.593 C -87.066,12.474 -0.659,1.768 0.209,1.659 Z"
         style="fill:#404041;fill-opacity:1;fill-rule:nonzero;stroke:none"
         id="path1324"
         inkscape:connector-curvature="0" />
    </g>
    <g
       id="g1326"
       transform="matrix(-0.35277777,0,0,-0.35277777,96.436707,267.92688)">
      <path
         d="m 0,0 -0.741,1.499 c 32.012,15.827 119.047,18.199 119.922,18.222 l 0.043,-1.672 C 118.352,18.027 31.684,15.664 0,0"
         style="fill:#404041;fill-opacity:1;fill-rule:nonzero;stroke:none"
         id="path1328"
         inkscape:connector-curvature="0" />
    </g>
    <g
       id="g1330"
       transform="matrix(-0.35277777,0,0,-0.35277777,94.817422,275.34157)">
      <path
         d="m 0,0 -0.947,1.378 c 29.432,20.226 115.24,34.975 116.103,35.121 l 0.28,-1.648 C 114.576,34.705 29.129,20.018 0,0"
         style="fill:#404041;fill-opacity:1;fill-rule:nonzero;stroke:none"
         id="path1332"
         inkscape:connector-curvature="0" />
    </g>
    <g
       id="g1334"
       transform="matrix(-0.35277777,0,0,-0.35277777,52.519085,269.03235)">
      <path
         d="m 0,0 c -3.69,0 -7.414,2.351 -11.082,6.999 l 1.161,0.916 c 3.589,-4.549 7.14,-6.712 10.544,-6.409 4.619,0.4 7.673,5.216 8.221,6.147 v 21.199 h 1.478 V 7.27 L 10.234,7.106 C 10.089,6.838 6.626,0.542 0.751,0.033 0.501,0.011 0.25,0 0,0"
         style="fill:#404041;fill-opacity:1;fill-rule:nonzero;stroke:none"
         id="path1336"
         inkscape:connector-curvature="0" />
    </g>
    <g
       id="g1338"
       transform="matrix(-0.35277777,0,0,-0.35277777,46.052737,257.74173)">
      <path
         d="m 0,0 -6.009,-10.408 c -1.25,-2.166 -4.377,-2.166 -5.627,0 L -17.645,0 c -1.251,2.166 0.312,4.874 2.814,4.874 H -2.814 C -0.313,4.874 1.251,2.166 0,0"
         style="fill:#803031;fill-opacity:1;fill-rule:nonzero;stroke:none"
         id="path1340"
         inkscape:connector-curvature="0" />
    </g>
    <g
       id="g1342"
       transform="matrix(-0.35277777,0,0,-0.35277777,49.131289,231.47979)">
      <path
         d="M 0,0 C 2.427,0.086 4.849,0.404 7.208,1.076 L 76.971,20.962 69.136,43.65 0,61.963 Z"
         style="fill:#926029;fill-opacity:1;fill-rule:nonzero;stroke:none"
         id="path1344"
         inkscape:connector-curvature="0" />
    </g>
    <g
       id="g1346"
       transform="matrix(-0.35277777,0,0,-0.35277777,35.153351,248.34271)">
      <path
         d="m 0,0 c 0,-5.293 -4.29,-9.583 -9.583,-9.583 -5.292,0 -9.583,4.29 -9.583,9.583 0,5.292 4.291,9.583 9.583,9.583 C -4.29,9.583 0,5.292 0,0"
         style="fill:#404041;fill-opacity:1;fill-rule:nonzero;stroke:none"
         id="path1348"
         inkscape:connector-curvature="0" />
    </g>
    <g
       id="g1350"
       transform="matrix(-0.35277777,0,0,-0.35277777,38.53402,247.24726)">
      <path
         d="m 0,0 c 0,-1.715 -1.39,-3.105 -3.105,-3.105 -1.715,0 -3.105,1.39 -3.105,3.105 0,1.715 1.39,3.105 3.105,3.105 C -1.39,3.105 0,1.715 0,0"
         style="fill:#f1f1f2;fill-opacity:1;fill-rule:nonzero;stroke:none"
         id="path1352"
         inkscape:connector-curvature="0" />
    </g>
    <g
       id="g1354"
       transform="matrix(-0.35277777,0,0,-0.35277777,45.783815,269.0279)">
      <path
         d="M 0,0 C -3.663,0 -7.07,2.368 -10.127,7.04 L -8.89,7.849 C -6.125,3.624 -3.135,1.481 -0.005,1.478 H 0 c 5.377,0 9.58,6.308 9.622,6.372 L 10.859,7.04 C 10.67,6.753 6.179,0 0,0"
         style="fill:#404041;fill-opacity:1;fill-rule:nonzero;stroke:none"
         id="path1356"
         inkscape:connector-curvature="0" />
    </g>
  </g>
</svg>
