<svg xmlns="http://www.w3.org/2000/svg" width="360.567" height="105.8mm" viewBox="0 0 95.4 105.8" version="1.1" id="cat3" class="cat"><g id="layer1" transform="translate(0 -191.2)"><g id="g946" transform="matrix(.35278 0 0 -.35278 32.84 282.931)"><path d="M0 0v-12.419c0-12.799 10.375-23.174 23.174-23.174h37.89c12.799 0 23.174 10.375 23.174 23.174V0c0 12.799-10.375 23.174-23.174 23.174h-37.89C10.375 23.174 0 12.799 0 0" style="fill:#f8c786;fill-opacity:1;fill-rule:nonzero;stroke:none" id="path948"/></g><g id="g950" transform="matrix(.35278 0 0 -.35278 54.383 274.756)"><path d="M0 0h-18.755v-58.767H0c12.798 0 23.174 10.376 23.174 23.174v12.419C23.174-10.375 12.798 0 0 0" style="fill:#e4b170;fill-opacity:1;fill-rule:nonzero;stroke:none" id="path952"/></g><g id="g954" transform="matrix(.35278 0 0 -.35278 49.447 231.858)"><path d="m0 0 14.61 47.871c7.292 23.891-2.666 49.672-24.123 62.459l-.04.024c-15.807 9.42-36.237 4.606-46.174-10.881a6.45 6.45 0 0 1 1.628-8.695 8.513 8.513 0 0 1 11.999 2.01c6.172 8.856 18.384 10.973 27.177 4.714C-.091 86.943 6.388 68.123 1.199 50.672L-13.87 0z" style="fill:#e4b170;fill-opacity:1;fill-rule:nonzero;stroke:none" id="path956"/></g><g id="g958" transform="matrix(.35278 0 0 -.35278 86.052 258.925)"><path d="M0 0c3.163 5.774 5.53 11.852 6.977 18.163l1.353 8.114.023.222c.23 2.344.261 4.703.195 7.056l-.439 15.497a9.388 9.388 0 0 1-.068 2.088c-2.834 21.003 18.165 66.571 11.321 76.858-5.504 8.271-38.279-18.448-50.917-29.24-16.434 10.682-36.925 17.956-59.505 20.541l-5.054 8.754c-.387.67-1.355.67-1.742 0l-4.549-7.879h-.796l-4.599 7.964a.948.948 0 0 1-1.643 0l-4.563-7.903h-.867l-4.513 7.818c-.388.67-6.768-8.705-6.768-8.705-22.715-2.442-43.357-9.609-59.928-20.254-12.909 10.997-45.074 37.091-50.522 28.904-6.844-10.287 14.155-55.855 11.321-76.858-.073-.542-.068-.951-.072-1.375l-.764-4.943a48.325 48.325 0 0 1-.569-7.396s.076-3.706.134-6.833c.051-2.791.309-5.573.77-8.327l.52-3.108c.177-1.061.385-2.117.66-3.157 1.492-5.642 3.738-11.081 6.614-16.278-7.626-4.212-11.901-11.392-11.901-23.222 0-19.175 43.951-35.076 101.526-38.066 3.16-7.752 10.761-13.221 19.649-13.221 8.888 0 16.489 5.469 19.649 13.221C-31.492-58.575 12.46-42.674 12.46-23.499 12.46-11.392 7.965-4.169 0 0" style="fill:#ffe1b2;fill-opacity:1;fill-rule:nonzero;stroke:none" id="path960"/></g><g id="g962" transform="matrix(.35278 0 0 -.35278 92.883 213.77)"><path d="M0 0c-5.504 8.271-38.279-18.448-50.917-29.24-16.434 10.682-36.925 17.956-59.504 20.541l-5.055 8.754c-.387.67-1.355.67-1.742 0l-4.549-7.879h-.796l-4.599 7.965a.917.917 0 0 1-.725.449v-203.36c8.804.079 16.322 5.512 19.458 13.207 57.576 2.99 101.527 18.891 101.527 38.066 0 12.107-4.494 19.33-12.46 23.499 3.163 5.774 5.53 11.852 6.977 18.163l1.354 8.114.022.222c.23 2.344.261 4.703.195 7.056l-.439 15.498a9.38 9.38 0 0 1-.068 2.087C-14.155-55.855 6.844-10.287 0 0" style="fill:#edc186;fill-opacity:1;fill-rule:nonzero;stroke:none" id="path964"/></g><g id="g966" transform="matrix(.35278 0 0 -.35278 77.47 225.823)"><path d="M0 0s27.78 26.165 31.656 20.027c3.876-6.137-8.016-33.326-6.411-45.857C26.849-38.362 0 0 0 0" style="fill:#b16d29;fill-opacity:1;fill-rule:nonzero;stroke:none" id="path968"/></g><g id="g970" transform="matrix(.35278 0 0 -.35278 17.649 225.823)"><path d="M0 0s-27.78 26.165-31.656 20.027c-3.876-6.137 8.016-33.326 6.411-45.857C-26.849-38.362 0 0 0 0" style="fill:#c9802e;fill-opacity:1;fill-rule:nonzero;stroke:none" id="path972"/></g><g id="g974" transform="matrix(.35278 0 0 -.35278 35.935 197.276)"><path d="m0 0-14.506-8.002c3.698-1.809 8.271-.734 10.708 2.763A19.385 19.385 0 0 0-.024-1.213z" style="fill:#404041;fill-opacity:1;fill-rule:nonzero;stroke:none" id="path976"/></g><g id="g978" transform="matrix(.35278 0 0 -.35278 30.362 199.833)"><path d="M0 0c3.76-2.743 8.985-1.926 11.773 1.747l.155 7.92-13.745-7.583A6.391 6.391 0 0 1 0 0" style="fill:#404041;fill-opacity:1;fill-rule:nonzero;stroke:none" id="path980"/></g><g id="g982" transform="matrix(.35278 0 0 -.35278 30.362 199.833)"><path d="M0 0c2.368-1.727 5.321-2.039 7.881-1.126l.248 12.728-10.735-5.923C-2.761 3.527-1.858 1.355 0 0" style="fill:#404041;fill-opacity:1;fill-rule:nonzero;stroke:none" id="path984"/></g><g id="g986" transform="matrix(.35278 0 0 -.35278 29.788 196.766)"><path d="M0 0a6.45 6.45 0 0 1 1.628-8.695 8.476 8.476 0 0 1 3.247-1.44l.287 14.734-3.065-1.69A34.327 34.327 0 0 1 0 0" style="fill:#404041;fill-opacity:1;fill-rule:nonzero;stroke:none" id="path988"/></g><g id="g990" transform="matrix(.35278 0 0 -.35278 40.416 248.343)"><path d="M0 0a9.582 9.582 0 0 0-9.583-9.583c-5.292 0-9.583 4.29-9.583 9.583 0 5.292 4.291 9.583 9.583 9.583C-4.29 9.583 0 5.292 0 0" style="fill:#404041;fill-opacity:1;fill-rule:nonzero;stroke:none" id="path992"/></g><g id="g994" transform="matrix(.35278 0 0 -.35278 61.745 248.343)"><path d="M0 0a9.582 9.582 0 0 0-9.583-9.583c-5.292 0-9.583 4.29-9.583 9.583 0 5.292 4.291 9.583 9.583 9.583C-4.29 9.583 0 5.292 0 0" style="fill:#404041;fill-opacity:1;fill-rule:nonzero;stroke:none" id="path996"/></g><g id="g998" transform="matrix(.35278 0 0 -.35278 44.487 268.702)"><path d="M0 0c-3.57 0-7.174 2.274-10.722 6.772l1.123.885C-6.128 3.258-2.71 1.168.603 1.456c4.47.388 7.424 5.048 7.955 5.948v20.512h1.43V7.034l-.085-.159C9.763 6.616 6.412.524.727.031A8.416 8.416 0 0 0 0 0" style="fill:#404041;fill-opacity:1;fill-rule:nonzero;stroke:none" id="path1000"/></g><g id="g1002" transform="matrix(.35278 0 0 -.35278 51.004 268.698)"><path d="M0 0c-3.544 0-6.84 2.292-9.798 6.811l1.197.783C-5.924 3.504-3.031 1.43 0 1.43c5.214 0 9.269 6.103 9.309 6.164l1.197-.783C10.324 6.533 5.979 0 0 0" style="fill:#404041;fill-opacity:1;fill-rule:nonzero;stroke:none" id="path1004"/></g><g id="g1006" transform="matrix(.35278 0 0 -.35278 52.682 259.877)"><path d="m0 0-.209 1.659c.869.109 87.273 10.815 121.298-.033l-.507-1.593C86.905 10.769.865.109 0 0" style="fill:#404041;fill-opacity:1;fill-rule:nonzero;stroke:none" id="path1008"/></g><g id="g1010" transform="matrix(.35278 0 0 -.35278 93.319 275.479)"><path d="M0 0c-29.132 20.02-114.576 34.705-115.437 34.851l.281 1.648c.864-.146 86.671-14.894 116.103-35.121z" style="fill:#404041;fill-opacity:1;fill-rule:nonzero;stroke:none" id="path1012"/></g><g id="g1014" transform="matrix(.35278 0 0 -.35278 94.938 267.927)"><path d="M0 0c-31.687 15.665-118.352 18.027-119.223 18.049l.041 1.672c.876-.023 87.91-2.395 119.922-18.222z" style="fill:#404041;fill-opacity:1;fill-rule:nonzero;stroke:none" id="path1016"/></g><g id="g1018" transform="matrix(.35278 0 0 -.35278 50.845 257.742)"><path d="m0 0-6.009-10.408c-1.25-2.166-4.377-2.166-5.627 0L-17.645 0c-1.251 2.166.312 4.874 2.814 4.874h12.017C-.313 4.874 1.251 2.166 0 0" style="fill:#803031;fill-opacity:1;fill-rule:nonzero;stroke:none" id="path1020"/></g><g id="g1022" transform="matrix(.35278 0 0 -.35278 37.284 247.247)"><path d="M0 0a3.105 3.105 0 1 0-6.21 0A3.105 3.105 0 0 0 0 0" style="fill:#f1f1f2;fill-opacity:1;fill-rule:nonzero;stroke:none" id="path1024"/></g><g id="g1026" transform="matrix(.35278 0 0 -.35278 58.364 247.247)"><path d="M0 0a3.105 3.105 0 1 0-6.21 0A3.105 3.105 0 0 0 0 0" style="fill:#f1f1f2;fill-opacity:1;fill-rule:nonzero;stroke:none" id="path1028"/></g><g id="g1030" transform="matrix(.35278 0 0 -.35278 42.718 259.74)"><path d="M0 0c-.865.109-86.907 10.769-120.582.033l-.507 1.593C-87.064 12.475-.66 1.769.209 1.659z" style="fill:#404041;fill-opacity:1;fill-rule:nonzero;stroke:none" id="path1032"/></g><g id="g1034" transform="matrix(.35278 0 0 -.35278 .461 267.927)"><path d="m0 0-.74 1.499c32.012 15.827 119.046 18.199 119.922 18.222l.041-1.672C118.352 18.027 31.685 15.664 0 0" style="fill:#404041;fill-opacity:1;fill-rule:nonzero;stroke:none" id="path1036"/></g><g id="g1038" transform="matrix(.35278 0 0 -.35278 2.08 275.342)"><path d="m0 0-.947 1.378c29.432 20.227 115.239 34.975 116.103 35.121l.281-1.648C114.576 34.705 29.129 20.019 0 0" style="fill:#404041;fill-opacity:1;fill-rule:nonzero;stroke:none" id="path1040"/></g><g id="g1042" transform="matrix(.35278 0 0 -.35278 43.208 293.64)"><path d="M0 0c-1.73 0-3.133-1.173-3.602-2.752-.131 2.449-2.116 4.408-4.597 4.408-2.481 0-4.467-1.959-4.598-4.407C-13.265-1.173-14.669 0-16.399 0a3.817 3.817 0 0 1-3.817-3.818c0-.108.052-.199.061-.305v-3.843c0-.862.699-1.561 1.562-1.561H2.265c.838 0 1.518.679 1.518 1.517v4.019c.003.061.035.112.035.173A3.818 3.818 0 0 1 0 0" style="fill:#ffe1b2;fill-opacity:1;fill-rule:nonzero;stroke:none" id="path1044"/></g><g id="g1046" transform="matrix(.35278 0 0 -.35278 57.977 293.64)"><path d="M0 0c-1.73 0-3.133-1.173-3.602-2.752-.131 2.449-2.116 4.408-4.597 4.408-2.481 0-4.467-1.959-4.598-4.407C-13.265-1.173-14.669 0-16.399 0a3.817 3.817 0 0 1-3.817-3.818c0-.108.052-.199.061-.305v-3.843c0-.862.699-1.561 1.562-1.561H2.265c.838 0 1.518.679 1.518 1.517v4.019c.003.061.035.112.035.173A3.818 3.818 0 0 1 0 0" style="fill:#f2cb9b;fill-opacity:1;fill-rule:nonzero;stroke:none" id="path1048"/></g></g></svg>