<?xml version="1.0" encoding="UTF-8" standalone="no"?>
<!-- Created with Inkscape (http://www.inkscape.org/) -->

<svg
   xmlns:dc="http://purl.org/dc/elements/1.1/"
   xmlns:cc="http://creativecommons.org/ns#"
   xmlns:rdf="http://www.w3.org/1999/02/22-rdf-syntax-ns#"
   xmlns:svg="http://www.w3.org/2000/svg"
   xmlns="http://www.w3.org/2000/svg"
   xmlns:sodipodi="http://sodipodi.sourceforge.net/DTD/sodipodi-0.dtd"
   xmlns:inkscape="http://www.inkscape.org/namespaces/inkscape"
   width="95.400002mm"
   height="105.8mm"
   viewBox="0 0 95.400002 105.8"
   version="1.1"
   id="cat3"
   class="cat"
   inkscape:version="0.92.5 (2060ec1f9f, 2020-04-08)"
   sodipodi:docname="cat3.svg"
   >
  <defs
     id="defs2438" />
  <sodipodi:namedview
     id="base"
     pagecolor="#ffffff"
     bordercolor="#666666"
     borderopacity="1.0"
     inkscape:pageopacity="0.0"
     inkscape:pageshadow="2"
     inkscape:zoom="0.83278036"
     inkscape:cx="338.55756"
     inkscape:cy="176.66539"
     inkscape:document-units="mm"
     inkscape:current-layer="layer1"
     showgrid="false"
     units="mm"
     inkscape:window-width="1038"
     inkscape:window-height="987"
     inkscape:window-x="870"
     inkscape:window-y="45"
     inkscape:window-maximized="0" />
  <metadata
     id="metadata2441">
    <rdf:RDF>
      <cc:Work
         rdf:about="">
        <dc:format>image/svg+xml</dc:format>
        <dc:type
           rdf:resource="http://purl.org/dc/dcmitype/StillImage" />
        <dc:title></dc:title>
      </cc:Work>
    </rdf:RDF>
  </metadata>
  <g
     inkscape:label="Layer 1"
     inkscape:groupmode="layer"
     id="layer1"
     transform="translate(0,-191.2)">
    <g
       id="g946"
       transform="matrix(0.35277777,0,0,-0.35277777,32.840929,282.9313)">
      <path
         d="m 0,0 v -12.419 c 0,-12.799 10.375,-23.174 23.174,-23.174 h 37.89 c 12.799,0 23.174,10.375 23.174,23.174 V 0 c 0,12.799 -10.375,23.174 -23.174,23.174 H 23.174 C 10.375,23.174 0,12.799 0,0"
         style="fill:#f8c786;fill-opacity:1;fill-rule:nonzero;stroke:none"
         id="path948"
         inkscape:connector-curvature="0" />
    </g>
    <g
       id="g950"
       transform="matrix(0.35277777,0,0,-0.35277777,54.382986,274.7561)">
      <path
         d="M 0,0 H -18.755 V -58.767 H 0 c 12.798,0 23.174,10.376 23.174,23.174 v 12.419 C 23.174,-10.375 12.798,0 0,0"
         style="fill:#e4b170;fill-opacity:1;fill-rule:nonzero;stroke:none"
         id="path952"
         inkscape:connector-curvature="0" />
    </g>
    <g
       id="g954"
       transform="matrix(0.35277777,0,0,-0.35277777,49.447211,231.85751)">
      <path
         d="m 0,0 14.61,47.871 c 7.292,23.891 -2.666,49.672 -24.123,62.459 l -0.04,0.024 c -15.807,9.42 -36.237,4.606 -46.174,-10.881 -1.843,-2.872 -1.13,-6.683 1.628,-8.695 3.856,-2.812 9.27,-1.905 11.999,2.01 6.172,8.856 18.384,10.973 27.177,4.714 C -0.091,86.943 6.388,68.123 1.199,50.672 L -13.87,0 Z"
         style="fill:#e4b170;fill-opacity:1;fill-rule:nonzero;stroke:none"
         id="path956"
         inkscape:connector-curvature="0" />
    </g>
    <g
       id="g958"
       transform="matrix(0.35277777,0,0,-0.35277777,86.052077,258.9247)">
      <path
         d="m 0,0 c 3.163,5.774 5.53,11.852 6.977,18.163 l 1.353,8.114 c 0.008,0.074 0.015,0.148 0.023,0.222 0.23,2.344 0.261,4.703 0.195,7.056 L 8.109,49.052 c 0.048,0.575 0.047,1.234 -0.068,2.088 -2.834,21.003 18.165,66.571 11.321,76.858 -5.504,8.271 -38.279,-18.448 -50.917,-29.24 -16.434,10.682 -36.925,17.956 -59.505,20.541 l -5.054,8.754 c -0.387,0.67 -1.355,0.67 -1.742,0 l -4.549,-7.879 h -0.796 l -4.599,7.964 c -0.365,0.633 -1.278,0.633 -1.643,0 l -4.563,-7.903 h -0.867 l -4.513,7.818 c -0.388,0.67 -6.768,-8.705 -6.768,-8.705 -22.715,-2.442 -43.357,-9.609 -59.928,-20.254 -12.909,10.997 -45.074,37.091 -50.522,28.904 -6.844,-10.287 14.155,-55.855 11.321,-76.858 -0.073,-0.542 -0.068,-0.951 -0.072,-1.375 l -0.764,-4.943 c -0.379,-2.447 -0.569,-4.92 -0.569,-7.396 0,0 0.076,-3.706 0.134,-6.833 0.051,-2.791 0.309,-5.573 0.77,-8.327 l 0.52,-3.108 c 0.177,-1.061 0.385,-2.117 0.66,-3.157 1.492,-5.642 3.738,-11.081 6.614,-16.278 -7.626,-4.212 -11.901,-11.392 -11.901,-23.222 0,-19.175 43.951,-35.076 101.526,-38.066 3.16,-7.752 10.761,-13.221 19.649,-13.221 8.888,0 16.489,5.469 19.649,13.221 57.575,2.99 101.527,18.891 101.527,38.066 C 12.46,-11.392 7.965,-4.169 0,0"
         style="fill:#ffe1b2;fill-opacity:1;fill-rule:nonzero;stroke:none"
         id="path960"
         inkscape:connector-curvature="0" />
    </g>
    <g
       id="g962"
       transform="matrix(0.35277777,0,0,-0.35277777,92.882507,213.76989)">
      <path
         d="m 0,0 c -5.504,8.271 -38.279,-18.448 -50.917,-29.24 -16.434,10.682 -36.925,17.956 -59.504,20.541 l -5.055,8.754 c -0.387,0.67 -1.355,0.67 -1.742,0 l -4.549,-7.879 h -0.796 l -4.599,7.965 c -0.163,0.283 -0.44,0.42 -0.725,0.449 v -203.36 c 8.804,0.079 16.322,5.512 19.458,13.207 57.576,2.99 101.527,18.891 101.527,38.066 0,12.107 -4.494,19.33 -12.46,23.499 3.163,5.774 5.53,11.852 6.977,18.163 l 1.354,8.114 c 0.007,0.074 0.015,0.148 0.022,0.222 0.23,2.344 0.261,4.703 0.195,7.056 l -0.439,15.498 c 0.048,0.574 0.047,1.234 -0.068,2.087 C -14.155,-55.855 6.844,-10.287 0,0"
         style="fill:#edc186;fill-opacity:1;fill-rule:nonzero;stroke:none"
         id="path964"
         inkscape:connector-curvature="0" />
    </g>
    <g
       id="g966"
       transform="matrix(0.35277777,0,0,-0.35277777,77.470078,225.82282)">
      <path
         d="M 0,0 C 0,0 27.78,26.165 31.656,20.027 35.532,13.89 23.64,-13.299 25.245,-25.83 26.849,-38.362 0,0 0,0"
         style="fill:#b16d29;fill-opacity:1;fill-rule:nonzero;stroke:none"
         id="path968"
         inkscape:connector-curvature="0" />
    </g>
    <g
       id="g970"
       transform="matrix(0.35277777,0,0,-0.35277777,17.648765,225.82282)">
      <path
         d="M 0,0 C 0,0 -27.78,26.165 -31.656,20.027 -35.532,13.89 -23.64,-13.299 -25.245,-25.83 -26.849,-38.362 0,0 0,0"
         style="fill:#c9802e;fill-opacity:1;fill-rule:nonzero;stroke:none"
         id="path972"
         inkscape:connector-curvature="0" />
    </g>
    <g
       id="g974"
       transform="matrix(0.35277777,0,0,-0.35277777,35.935019,197.27583)">
      <path
         d="m 0,0 -14.506,-8.002 c 3.698,-1.809 8.271,-0.734 10.708,2.763 1.086,1.558 2.367,2.895 3.774,4.026 z"
         style="fill:#404041;fill-opacity:1;fill-rule:nonzero;stroke:none"
         id="path976"
         inkscape:connector-curvature="0" />
    </g>
    <g
       id="g978"
       transform="matrix(0.35277777,0,0,-0.35277777,30.362154,199.83291)">
      <path
         d="M 0,0 C 3.76,-2.743 8.985,-1.926 11.773,1.747 L 11.928,9.667 -1.817,2.084 C -1.376,1.29 -0.78,0.569 0,0"
         style="fill:#404041;fill-opacity:1;fill-rule:nonzero;stroke:none"
         id="path980"
         inkscape:connector-curvature="0" />
    </g>
    <g
       id="g982"
       transform="matrix(0.35277777,0,0,-0.35277777,30.362154,199.83291)">
      <path
         d="M 0,0 C 2.368,-1.727 5.321,-2.039 7.881,-1.126 L 8.129,11.602 -2.606,5.679 C -2.761,3.527 -1.858,1.355 0,0"
         style="fill:#404041;fill-opacity:1;fill-rule:nonzero;stroke:none"
         id="path984"
         inkscape:connector-curvature="0" />
    </g>
    <g
       id="g986"
       transform="matrix(0.35277777,0,0,-0.35277777,29.788008,196.76558)">
      <path
         d="m 0,0 c -1.843,-2.872 -1.13,-6.684 1.628,-8.695 1.001,-0.73 2.109,-1.198 3.247,-1.44 L 5.162,4.599 2.097,2.909 C 1.357,1.984 0.653,1.018 0,0"
         style="fill:#404041;fill-opacity:1;fill-rule:nonzero;stroke:none"
         id="path988"
         inkscape:connector-curvature="0" />
    </g>
    <g
       id="g990"
       transform="matrix(0.35277777,0,0,-0.35277777,40.415685,248.34271)">
      <path
         d="m 0,0 c 0,-5.293 -4.29,-9.583 -9.583,-9.583 -5.292,0 -9.583,4.29 -9.583,9.583 0,5.292 4.291,9.583 9.583,9.583 C -4.29,9.583 0,5.292 0,0"
         style="fill:#404041;fill-opacity:1;fill-rule:nonzero;stroke:none"
         id="path992"
         inkscape:connector-curvature="0" />
    </g>
    <g
       id="g994"
       transform="matrix(0.35277777,0,0,-0.35277777,61.744727,248.34271)">
      <path
         d="m 0,0 c 0,-5.293 -4.29,-9.583 -9.583,-9.583 -5.292,0 -9.583,4.29 -9.583,9.583 0,5.292 4.291,9.583 9.583,9.583 C -4.29,9.583 0,5.292 0,0"
         style="fill:#404041;fill-opacity:1;fill-rule:nonzero;stroke:none"
         id="path996"
         inkscape:connector-curvature="0" />
    </g>
    <g
       id="g998"
       transform="matrix(0.35277777,0,0,-0.35277777,44.486882,268.70194)">
      <path
         d="m 0,0 c -3.57,0 -7.174,2.274 -10.722,6.772 l 1.123,0.885 C -6.128,3.258 -2.71,1.168 0.603,1.456 5.073,1.844 8.027,6.504 8.558,7.404 v 20.512 h 1.43 V 7.034 L 9.903,6.875 C 9.763,6.616 6.412,0.524 0.727,0.031 0.485,0.01 0.242,0 0,0"
         style="fill:#404041;fill-opacity:1;fill-rule:nonzero;stroke:none"
         id="path1000"
         inkscape:connector-curvature="0" />
    </g>
    <g
       id="g1002"
       transform="matrix(0.35277777,0,0,-0.35277777,51.003728,268.69784)">
      <path
         d="m 0,0 c -3.544,0 -6.84,2.292 -9.798,6.811 l 1.197,0.783 C -5.924,3.504 -3.031,1.43 0,1.43 c 5.214,0 9.269,6.103 9.309,6.164 L 10.506,6.811 C 10.324,6.533 5.979,0 0,0"
         style="fill:#404041;fill-opacity:1;fill-rule:nonzero;stroke:none"
         id="path1004"
         inkscape:connector-curvature="0" />
    </g>
    <g
       id="g1006"
       transform="matrix(0.35277777,0,0,-0.35277777,52.681504,259.87741)">
      <path
         d="M 0,0 -0.209,1.659 C 0.66,1.768 87.064,12.474 121.089,1.626 L 120.582,0.033 C 86.905,10.769 0.865,0.109 0,0"
         style="fill:#404041;fill-opacity:1;fill-rule:nonzero;stroke:none"
         id="path1008"
         inkscape:connector-curvature="0" />
    </g>
    <g
       id="g1010"
       transform="matrix(0.35277777,0,0,-0.35277777,93.318514,275.47862)">
      <path
         d="m 0,0 c -29.132,20.02 -114.576,34.705 -115.437,34.851 l 0.281,1.648 C -114.292,36.353 -28.485,21.605 0.947,1.378 Z"
         style="fill:#404041;fill-opacity:1;fill-rule:nonzero;stroke:none"
         id="path1012"
         inkscape:connector-curvature="0" />
    </g>
    <g
       id="g1014"
       transform="matrix(0.35277777,0,0,-0.35277777,94.937764,267.92681)">
      <path
         d="m 0,0 c -31.687,15.665 -118.352,18.027 -119.223,18.049 l 0.041,1.672 c 0.876,-0.023 87.91,-2.395 119.922,-18.222 z"
         style="fill:#404041;fill-opacity:1;fill-rule:nonzero;stroke:none"
         id="path1016"
         inkscape:connector-curvature="0" />
    </g>
    <g
       id="g1018"
       transform="matrix(0.35277777,0,0,-0.35277777,50.845375,257.74177)">
      <path
         d="m 0,0 -6.009,-10.408 c -1.25,-2.166 -4.377,-2.166 -5.627,0 L -17.645,0 c -1.251,2.166 0.312,4.874 2.814,4.874 H -2.814 C -0.313,4.874 1.251,2.166 0,0"
         style="fill:#803031;fill-opacity:1;fill-rule:nonzero;stroke:none"
         id="path1020"
         inkscape:connector-curvature="0" />
    </g>
    <g
       id="g1022"
       transform="matrix(0.35277777,0,0,-0.35277777,37.28368,247.24726)">
      <path
         d="m 0,0 c 0,-1.715 -1.39,-3.105 -3.105,-3.105 -1.715,0 -3.105,1.39 -3.105,3.105 0,1.715 1.39,3.105 3.105,3.105 C -1.39,3.105 0,1.715 0,0"
         style="fill:#f1f1f2;fill-opacity:1;fill-rule:nonzero;stroke:none"
         id="path1024"
         inkscape:connector-curvature="0" />
    </g>
    <g
       id="g1026"
       transform="matrix(0.35277777,0,0,-0.35277777,58.364093,247.24726)">
      <path
         d="m 0,0 c 0,-1.715 -1.39,-3.105 -3.105,-3.105 -1.715,0 -3.105,1.39 -3.105,3.105 0,1.715 1.39,3.105 3.105,3.105 C -1.39,3.105 0,1.715 0,0"
         style="fill:#f1f1f2;fill-opacity:1;fill-rule:nonzero;stroke:none"
         id="path1028"
         inkscape:connector-curvature="0" />
    </g>
    <g
       id="g1030"
       transform="matrix(0.35277777,0,0,-0.35277777,42.717507,259.7405)">
      <path
         d="m 0,0 c -0.865,0.109 -86.907,10.769 -120.582,0.033 l -0.507,1.593 C -87.064,12.475 -0.66,1.769 0.209,1.659 Z"
         style="fill:#404041;fill-opacity:1;fill-rule:nonzero;stroke:none"
         id="path1032"
         inkscape:connector-curvature="0" />
    </g>
    <g
       id="g1034"
       transform="matrix(0.35277777,0,0,-0.35277777,0.46122009,267.92681)">
      <path
         d="m 0,0 -0.74,1.499 c 32.012,15.827 119.046,18.199 119.922,18.222 l 0.041,-1.672 C 118.352,18.027 31.685,15.664 0,0"
         style="fill:#404041;fill-opacity:1;fill-rule:nonzero;stroke:none"
         id="path1036"
         inkscape:connector-curvature="0" />
    </g>
    <g
       id="g1038"
       transform="matrix(0.35277777,0,0,-0.35277777,2.0804701,275.34168)">
      <path
         d="m 0,0 -0.947,1.378 c 29.432,20.227 115.239,34.975 116.103,35.121 l 0.281,-1.648 C 114.576,34.705 29.129,20.019 0,0"
         style="fill:#404041;fill-opacity:1;fill-rule:nonzero;stroke:none"
         id="path1040"
         inkscape:connector-curvature="0" />
    </g>
    <g
       id="g1042"
       transform="matrix(0.35277777,0,0,-0.35277777,43.207516,293.63909)">
      <path
         d="m 0,0 c -1.73,0 -3.133,-1.173 -3.602,-2.752 -0.131,2.449 -2.116,4.408 -4.597,4.408 -2.481,0 -4.467,-1.959 -4.598,-4.407 -0.468,1.578 -1.872,2.751 -3.602,2.751 -2.108,0 -3.817,-1.709 -3.817,-3.818 0,-0.108 0.052,-0.199 0.061,-0.305 v -3.843 c 0,-0.862 0.699,-1.561 1.562,-1.561 H 2.265 c 0.838,0 1.518,0.679 1.518,1.517 v 4.019 C 3.786,-3.93 3.818,-3.879 3.818,-3.818 3.818,-1.709 2.108,0 0,0"
         style="fill:#ffe1b2;fill-opacity:1;fill-rule:nonzero;stroke:none"
         id="path1044"
         inkscape:connector-curvature="0" />
    </g>
    <g
       id="g1046"
       transform="matrix(0.35277777,0,0,-0.35277777,57.976743,293.63909)">
      <path
         d="m 0,0 c -1.73,0 -3.133,-1.173 -3.602,-2.752 -0.131,2.449 -2.116,4.408 -4.597,4.408 -2.481,0 -4.467,-1.959 -4.598,-4.407 -0.468,1.578 -1.872,2.751 -3.602,2.751 -2.108,0 -3.817,-1.709 -3.817,-3.818 0,-0.108 0.052,-0.199 0.061,-0.305 v -3.843 c 0,-0.862 0.699,-1.561 1.562,-1.561 H 2.265 c 0.838,0 1.518,0.679 1.518,1.517 v 4.019 C 3.786,-3.93 3.818,-3.879 3.818,-3.818 3.818,-1.709 2.108,0 0,0"
         style="fill:#f2cb9b;fill-opacity:1;fill-rule:nonzero;stroke:none"
         id="path1048"
         inkscape:connector-curvature="0" />
    </g>
  </g>
</svg>
