<?xml version="1.0" encoding="UTF-8" standalone="no"?>
<!-- Created with Inkscape (http://www.inkscape.org/) -->

<svg
   xmlns:dc="http://purl.org/dc/elements/1.1/"
   xmlns:cc="http://creativecommons.org/ns#"
   xmlns:rdf="http://www.w3.org/1999/02/22-rdf-syntax-ns#"
   xmlns:svg="http://www.w3.org/2000/svg"
   xmlns="http://www.w3.org/2000/svg"
   xmlns:sodipodi="http://sodipodi.sourceforge.net/DTD/sodipodi-0.dtd"
   xmlns:inkscape="http://www.inkscape.org/namespaces/inkscape"
   width="82.599998mm"
   height="103.4mm"
   viewBox="0 0 82.599999 103.4"
   version="1.1"
   id="cat4"
   class="cat"
   inkscape:version="0.92.5 (2060ec1f9f, 2020-04-08)"
   sodipodi:docname="cat4.svg">
  <defs
     id="defs2438" />
  <sodipodi:namedview
     id="base"
     pagecolor="#ffffff"
     bordercolor="#666666"
     borderopacity="1.0"
     inkscape:pageopacity="0.0"
     inkscape:pageshadow="2"
     inkscape:zoom="0.83278036"
     inkscape:cx="338.55756"
     inkscape:cy="176.66539"
     inkscape:document-units="mm"
     inkscape:current-layer="layer1"
     showgrid="false"
     units="mm"
     inkscape:window-width="1038"
     inkscape:window-height="987"
     inkscape:window-x="870"
     inkscape:window-y="45"
     inkscape:window-maximized="0" />
  <metadata
     id="metadata2441">
    <rdf:RDF>
      <cc:Work
         rdf:about="">
        <dc:format>image/svg+xml</dc:format>
        <dc:type
           rdf:resource="http://purl.org/dc/dcmitype/StillImage" />
        <dc:title></dc:title>
      </cc:Work>
    </rdf:RDF>
  </metadata>
  <g
     inkscape:label="Layer 1"
     inkscape:groupmode="layer"
     id="layer1"
     transform="translate(0,-193.60001)">
    <g
       id="g1478"
       transform="matrix(0.35277777,0,0,-0.35277777,23.531935,281.99753)">
      <path
         d="M 0,0 V -14.839 C 0,-30.13 12.396,-42.526 27.688,-42.526 h 45.271 c 15.292,0 27.688,12.396 27.688,27.687 V 0 c 0,15.292 -12.396,27.688 -27.688,27.688 H 27.688 C 12.396,27.688 0,15.292 0,0"
         style="fill:#eeeeee;fill-opacity:1;fill-rule:nonzero;stroke:none"
         id="path1480"
         inkscape:connector-curvature="0" />
    </g>
    <g
       id="g1482"
       transform="matrix(0.35277777,0,0,-0.35277777,30.091273,228.2159)">
      <path
         d="m 0,0 c 0,-54.178 -9.83,-98.098 -21.955,-98.098 -12.126,0 -21.955,43.92 -21.955,98.098 0,54.178 9.829,98.098 21.955,98.098 C -9.83,98.098 0,54.178 0,0"
         style="fill:#ffffff;fill-opacity:1;fill-rule:nonzero;stroke:none"
         id="path1484"
         inkscape:connector-curvature="0" />
    </g>
    <g
       id="g1486"
       transform="matrix(0.35277777,0,0,-0.35277777,64.36141,228.2159)">
      <path
         d="m 0,0 c 0,-54.178 -9.83,-98.098 -21.955,-98.098 -12.126,0 -21.955,43.92 -21.955,98.098 0,54.178 9.829,98.098 21.955,98.098 C -9.83,98.098 0,54.178 0,0"
         style="fill:#eeeeee;fill-opacity:1;fill-rule:nonzero;stroke:none"
         id="path1488"
         inkscape:connector-curvature="0" />
    </g>
    <g
       id="g1490"
       transform="matrix(0.35277777,0,0,-0.35277777,62.166673,229.81042)">
      <path
         d="m 0,0 c 0,-43.263 -7.044,-78.335 -15.734,-78.335 -8.689,0 -15.734,35.072 -15.734,78.335 0,43.263 7.045,78.335 15.734,78.335 C -7.044,78.335 0,43.263 0,0"
         style="fill:#efd5be;fill-opacity:1;fill-rule:nonzero;stroke:none"
         id="path1492"
         inkscape:connector-curvature="0" />
    </g>
    <g
       id="g1494"
       transform="matrix(0.35277777,0,0,-0.35277777,27.896535,229.81042)">
      <path
         d="m 0,0 c 0,-43.263 -7.044,-78.335 -15.734,-78.335 -8.689,0 -15.734,35.072 -15.734,78.335 0,43.263 7.045,78.335 15.734,78.335 C -7.044,78.335 0,43.263 0,0"
         style="fill:#ffe7d1;fill-opacity:1;fill-rule:nonzero;stroke:none"
         id="path1496"
         inkscape:connector-curvature="0" />
    </g>
    <g
       id="g1498"
       transform="matrix(0.35277777,0,0,-0.35277777,76.278103,255.394)">
      <path
         d="m 0,0 c 0.041,0.486 0.04,1.043 -0.057,1.765 -0.899,6.657 -5.83,13.982 -11.643,20.537 -11.003,12.408 -25.032,21.713 -40.448,27.825 -10.073,3.994 -22.329,8.18 -31.676,9.25 l -9.59,0.74 h -0.673 l -9.133,0.052 h -0.733 l -9.536,-0.75 c -9.305,-1 -21.488,-5.052 -31.574,-8.962 -15.58,-6.041 -29.704,-15.466 -40.68,-28.065 -5.755,-6.605 -10.639,-13.97 -11.537,-20.627 -0.062,-0.459 -0.058,-0.805 -0.061,-1.163 l -6.778,-3.715 c -0.187,-0.102 -0.187,-0.371 0,-0.473 l 5.651,-3.097 v -3.144 l -5.549,-3.041 c -0.231,-0.127 -0.231,-0.46 0,-0.587 l 5.716,-3.132 c 0,-1.119 0,-1.366 0,-2.485 l -5.716,-3.133 c -0.231,-0.127 -0.231,-0.459 0,-0.586 l 6.978,-3.824 c 8.275,-34.625 48.974,-60.926 97.983,-60.926 49.247,0 90.103,26.557 98.099,61.431 l 6.83,3.743 -5.686,3.116 c 0.125,1.231 0.21,2.471 0.253,3.719 l 5.433,2.977 -5.891,3.229 v 2.879 l 5.247,2.876 C 5.508,-3.419 0,0 0,0"
         style="fill:#ffffff;fill-opacity:1;fill-rule:nonzero;stroke:none"
         id="path1500"
         inkscape:connector-curvature="0" />
    </g>
    <g
       id="g1502"
       transform="matrix(0.35277777,0,0,-0.35277777,49.270283,272.22985)">
      <path
         d="M 0,0 H -22.48 V -70.214 H 0 c 15.291,0 27.688,12.396 27.688,27.688 v 14.838 C 27.688,-12.396 15.291,0 0,0"
         style="fill:#dddddd;fill-opacity:1;fill-rule:nonzero;stroke:none"
         id="path1504"
         inkscape:connector-curvature="0" />
    </g>
    <g
       id="g1506"
       transform="matrix(0.35277777,0,0,-0.35277777,78.350037,259.82306)">
      <path
         d="m 0,0 -5.891,3.229 v 2.879 l 5.247,2.876 c 0.279,0.152 -5.229,3.571 -5.229,3.571 0.041,0.485 0.04,1.043 -0.058,1.764 -0.898,6.658 -5.829,13.983 -11.642,20.538 -11.003,12.408 -25.032,21.713 -40.448,27.825 -10.074,3.994 -22.329,8.18 -31.676,9.25 l -9.59,0.74 h -0.674 l -4.95,0.028 V -74.986 c 49.238,0.007 90.086,26.561 98.081,61.431 L 0,-9.812 -5.686,-6.696 c 0.125,1.231 0.21,2.471 0.253,3.719 z"
         style="fill:#eeeeee;fill-opacity:1;fill-rule:nonzero;stroke:none"
         id="path1508"
         inkscape:connector-curvature="0" />
    </g>
    <g
       id="g1510"
       transform="matrix(0.35277777,0,0,-0.35277777,35.28984,292.44529)">
      <path
         d="m 0,0 c -2.344,0 -4.246,-1.59 -4.881,-3.729 -0.177,3.318 -2.868,5.973 -6.23,5.973 -3.362,0 -6.052,-2.654 -6.23,-5.972 -0.635,2.139 -2.537,3.728 -4.881,3.728 -2.857,0 -5.173,-2.316 -5.173,-5.173 0,-0.147 0.071,-0.27 0.083,-0.414 v -5.207 c 0,-1.169 0.948,-2.117 2.116,-2.117 H 3.069 c 1.136,0 2.057,0.921 2.057,2.057 v 5.446 C 5.13,-5.326 5.173,-5.256 5.173,-5.173 5.173,-2.316 2.857,0 0,0"
         style="fill:#ffffff;fill-opacity:1;fill-rule:nonzero;stroke:none"
         id="path1512"
         inkscape:connector-curvature="0" />
    </g>
    <g
       id="g1514"
       transform="matrix(0.35277777,0,0,-0.35277777,55.303559,292.44529)">
      <path
         d="m 0,0 c -2.344,0 -4.246,-1.59 -4.881,-3.729 -0.177,3.318 -2.868,5.973 -6.23,5.973 -3.362,0 -6.052,-2.654 -6.23,-5.972 -0.635,2.139 -2.537,3.728 -4.881,3.728 -2.857,0 -5.173,-2.316 -5.173,-5.173 0,-0.147 0.071,-0.27 0.083,-0.414 v -5.207 c 0,-1.169 0.948,-2.117 2.116,-2.117 H 3.069 c 1.136,0 2.057,0.921 2.057,2.057 v 5.446 C 5.13,-5.326 5.173,-5.256 5.173,-5.173 5.173,-2.316 2.857,0 0,0"
         style="fill:#eeeeee;fill-opacity:1;fill-rule:nonzero;stroke:none"
         id="path1516"
         inkscape:connector-curvature="0" />
    </g>
    <g
       id="g1518"
       transform="matrix(0.35277777,0,0,-0.35277777,34.633039,255.792)">
      <path
         d="m 0,0 c 0,-6.501 -5.27,-11.772 -11.772,-11.772 -6.501,0 -11.771,5.271 -11.771,11.772 0,6.501 5.27,11.772 11.771,11.772 C -5.27,11.772 0,6.501 0,0"
         style="fill:#404041;fill-opacity:1;fill-rule:nonzero;stroke:none"
         id="path1520"
         inkscape:connector-curvature="0" />
    </g>
    <g
       id="g1522"
       transform="matrix(0.35277777,0,0,-0.35277777,56.610494,255.792)">
      <path
         d="m 0,0 c 0,-6.501 -5.27,-11.772 -11.772,-11.772 -6.501,0 -11.771,5.271 -11.771,11.772 0,6.501 5.27,11.772 11.771,11.772 C -5.27,11.772 0,6.501 0,0"
         style="fill:#404041;fill-opacity:1;fill-rule:nonzero;stroke:none"
         id="path1524"
         inkscape:connector-curvature="0" />
    </g>
    <g
       id="g1526"
       transform="matrix(0.35277777,0,0,-0.35277777,30.785716,254.44637)">
      <path
         d="m 0,0 c 0,-2.107 -1.708,-3.814 -3.814,-3.814 -2.107,0 -3.815,1.707 -3.815,3.814 0,2.107 1.708,3.814 3.815,3.814 C -1.708,3.814 0,2.107 0,0"
         style="fill:#f1f1f2;fill-opacity:1;fill-rule:nonzero;stroke:none"
         id="path1528"
         inkscape:connector-curvature="0" />
    </g>
    <g
       id="g1530"
       transform="matrix(0.35277777,0,0,-0.35277777,52.457737,254.44637)">
      <path
         d="m 0,0 c 0,-2.107 -1.708,-3.814 -3.814,-3.814 -2.107,0 -3.815,1.707 -3.815,3.814 0,2.107 1.708,3.814 3.815,3.814 C -1.708,3.814 0,2.107 0,0"
         style="fill:#f1f1f2;fill-opacity:1;fill-rule:nonzero;stroke:none"
         id="path1532"
         inkscape:connector-curvature="0" />
    </g>
    <g
       id="g1534"
       transform="matrix(0.35277777,0,0,-0.35277777,41.396918,266.66712)">
      <path
         d="m 0,0 c -4.476,0 -7.779,4.411 -7.918,4.6 l 1.345,0.994 C -6.544,5.553 -3.624,1.672 0.001,1.672 H 0.055 C 2.132,1.695 4.108,3.009 5.929,5.58 L 7.293,4.613 C 5.143,1.578 2.71,0.025 0.064,0 Z"
         style="fill:#404041;fill-opacity:1;fill-rule:nonzero;stroke:none"
         id="path1536"
         inkscape:connector-curvature="0" />
    </g>
    <g
       id="g1538"
       transform="matrix(0.35277777,0,0,-0.35277777,45.600584,263.62798)">
      <path
         d="m 0,0 -0.209,1.659 c 0.753,0.095 75.54,9.358 105.004,-0.032 L 104.287,0.033 C 75.175,9.316 0.749,0.095 0,0"
         style="fill:#404041;fill-opacity:1;fill-rule:nonzero;stroke:none"
         id="path1540"
         inkscape:connector-curvature="0" />
    </g>
    <g
       id="g1542"
       transform="matrix(0.35277777,0,0,-0.35277777,80.734639,277.12038)">
      <path
         d="m 0,0 c -25.186,17.308 -99.093,30.011 -99.837,30.138 l 0.28,1.648 C -98.81,31.66 -24.539,18.893 0.947,1.378 Z"
         style="fill:#404041;fill-opacity:1;fill-rule:nonzero;stroke:none"
         id="path1544"
         inkscape:connector-curvature="0" />
    </g>
    <g
       id="g1546"
       transform="matrix(0.35277777,0,0,-0.35277777,36.969346,263.50969)">
      <path
         d="m 0,0 c -0.748,0.095 -75.173,9.318 -104.287,0.033 l -0.508,1.594 C -75.331,11.02 -0.543,1.754 0.209,1.659 Z"
         style="fill:#404041;fill-opacity:1;fill-rule:nonzero;stroke:none"
         id="path1548"
         inkscape:connector-curvature="0" />
    </g>
    <g
       id="g1550"
       transform="matrix(0.35277777,0,0,-0.35277777,0.42919121,270.58888)">
      <path
         d="M 0,0 -0.741,1.498 C 26.98,15.204 102.312,17.257 103.07,17.277 l 0.042,-1.673 C 102.358,15.586 27.392,13.542 0,0"
         style="fill:#404041;fill-opacity:1;fill-rule:nonzero;stroke:none"
         id="path1552"
         inkscape:connector-curvature="0" />
    </g>
    <g
       id="g1554"
       transform="matrix(0.35277777,0,0,-0.35277777,82.140741,270.58888)">
      <path
         d="m 0,0 c -27.395,13.544 -102.359,15.586 -103.113,15.604 l 0.042,1.673 c 0.758,-0.02 76.09,-2.073 103.812,-15.779 z"
         style="fill:#404041;fill-opacity:1;fill-rule:nonzero;stroke:none"
         id="path1556"
         inkscape:connector-curvature="0" />
    </g>
    <g
       id="g1558"
       transform="matrix(0.35277777,0,0,-0.35277777,1.8350812,277.00209)">
      <path
         d="M 0,0 -0.947,1.378 C 24.539,18.893 98.81,31.66 99.558,31.786 l 0.28,-1.648 C 99.094,30.011 25.184,17.307 0,0"
         style="fill:#404041;fill-opacity:1;fill-rule:nonzero;stroke:none"
         id="path1560"
         inkscape:connector-curvature="0" />
    </g>
    <g
       id="g1562"
       transform="matrix(0.35277777,0,0,-0.35277777,43.266218,273.37608)">
      <path
         d="M 0,0 H -5.25 V 9.531 L 0,5.394 Z"
         style="fill:#cdcdcd;fill-opacity:1;fill-rule:nonzero;stroke:none"
         id="path1564"
         inkscape:connector-curvature="0" />
    </g>
    <g
       id="g1566"
       transform="matrix(0.35277777,0,0,-0.35277777,41.339628,273.37608)">
      <path
         d="M 0,0 H -5.25 V 5.118 L 0,9.531 Z"
         style="fill:#dddddd;fill-opacity:1;fill-rule:nonzero;stroke:none"
         id="path1568"
         inkscape:connector-curvature="0" />
    </g>
    <g
       id="g1570"
       transform="matrix(0.35277777,0,0,-0.35277777,45.167726,269.65049)">
      <path
         d="m 0,0 c -0.024,-0.044 -2.375,-4.392 -5.273,-4.392 h -0.002 c -1.671,0.001 -3.301,1.479 -4.847,4.391 l -0.051,-0.027 -0.093,9.33 -1.477,-0.016 0.097,-9.675 c -0.349,-0.721 -2.101,-4.064 -4.633,-4.26 -1.815,-0.134 -3.759,1.372 -5.759,4.497 l -1.244,-0.796 c 2.204,-3.445 4.479,-5.188 6.768,-5.187 0.118,0 0.236,0.004 0.354,0.014 2.694,0.211 4.553,2.788 5.404,4.262 1.655,-2.66 3.495,-4.009 5.483,-4.009 3.786,0 6.465,4.963 6.577,5.175 z"
         style="fill:#404041;fill-opacity:1;fill-rule:nonzero;stroke:none"
         id="path1572"
         inkscape:connector-curvature="0" />
    </g>
  </g>
</svg>
