<?xml version="1.0" encoding="UTF-8" standalone="no"?>
<!-- Created with Inkscape (http://www.inkscape.org/) -->

<svg
   xmlns:dc="http://purl.org/dc/elements/1.1/"
   xmlns:cc="http://creativecommons.org/ns#"
   xmlns:rdf="http://www.w3.org/1999/02/22-rdf-syntax-ns#"
   xmlns:svg="http://www.w3.org/2000/svg"
   xmlns="http://www.w3.org/2000/svg"
   xmlns:sodipodi="http://sodipodi.sourceforge.net/DTD/sodipodi-0.dtd"
   xmlns:inkscape="http://www.inkscape.org/namespaces/inkscape"
   width="101mm"
   height="103.3mm"
   viewBox="0 0 101 103.3"
   version="1.1"
   id="svg2444"
   inkscape:version="0.92.5 (2060ec1f9f, 2020-04-08)"
   sodipodi:docname="cat5.svg">
  <defs
     id="defs2438" />
  <sodipodi:namedview
     id="base"
     pagecolor="#ffffff"
     bordercolor="#666666"
     borderopacity="1.0"
     inkscape:pageopacity="0.0"
     inkscape:pageshadow="2"
     inkscape:zoom="0.83278036"
     inkscape:cx="338.55756"
     inkscape:cy="176.66539"
     inkscape:document-units="mm"
     inkscape:current-layer="layer1"
     showgrid="false"
     units="mm"
     inkscape:window-width="1038"
     inkscape:window-height="987"
     inkscape:window-x="870"
     inkscape:window-y="45"
     inkscape:window-maximized="0" />
  <metadata
     id="metadata2441">
    <rdf:RDF>
      <cc:Work
         rdf:about="">
        <dc:format>image/svg+xml</dc:format>
        <dc:type
           rdf:resource="http://purl.org/dc/dcmitype/StillImage" />
        <dc:title></dc:title>
      </cc:Work>
    </rdf:RDF>
  </metadata>
  <g
     inkscape:label="Layer 1"
     inkscape:groupmode="layer"
     id="layer1"
     transform="translate(0,-193.70001)">
    <g
       id="g1358"
       transform="matrix(0.35277777,0,0,-0.35277777,35.096309,283.43071)">
      <path
         d="m 0,0 v -12.419 c 0,-12.799 10.375,-23.174 23.174,-23.174 h 37.89 c 12.798,0 23.174,10.375 23.174,23.174 V 0 c 0,12.798 -10.376,23.174 -23.174,23.174 H 23.174 C 10.375,23.174 0,12.798 0,0"
         style="fill:#58595b;fill-opacity:1;fill-rule:nonzero;stroke:none"
         id="path1360"
         inkscape:connector-curvature="0" />
    </g>
    <g
       id="g1362"
       transform="matrix(0.35277777,0,0,-0.35277777,56.638329,275.25553)">
      <path
         d="M 0,0 H -17.358 V -58.767 H 0 c 12.799,0 23.174,10.376 23.174,23.174 v 12.419 C 23.174,-10.375 12.799,0 0,0"
         style="fill:#404041;fill-opacity:1;fill-rule:nonzero;stroke:none"
         id="path1364"
         inkscape:connector-curvature="0" />
    </g>
    <g
       id="g1366"
       transform="matrix(0.35277777,0,0,-0.35277777,51.70258,234.40447)">
      <path
         d="m 0,0 14.61,47.871 c 7.292,23.891 -2.666,49.672 -24.123,62.459 l -0.041,0.024 c -15.806,9.42 -36.236,4.606 -46.173,-10.881 v 0 c -1.843,-2.872 -1.13,-6.683 1.628,-8.695 v 0 c 3.856,-2.812 9.27,-1.905 11.999,2.01 v 0 c 6.172,8.856 18.384,10.973 27.177,4.714 v 0 C -0.091,86.943 6.388,68.123 1.199,50.672 L -13.87,0 Z"
         style="fill:#404041;fill-opacity:1;fill-rule:nonzero;stroke:none"
         id="path1368"
         inkscape:connector-curvature="0" />
    </g>
    <g
       id="g1370"
       transform="matrix(0.35277777,0,0,-0.35277777,93.554837,243.76437)">
      <path
         d="M 0,0 C 0.051,0.608 0.05,1.305 -0.072,2.208 -3.07,24.428 19.145,72.635 11.905,83.517 6.082,92.268 -28.591,64.001 -41.96,52.584 -59.346,63.885 -81.025,71.58 -104.911,74.314 l -5.347,9.262 c -0.41,0.709 -1.434,0.709 -1.843,0 l -4.813,-8.336 h -0.842 l -4.865,8.426 c -0.387,0.669 -1.352,0.669 -1.739,0 l -4.827,-8.361 c -0.407,0 -0.509,0 -0.917,0 l -4.775,8.271 c -0.41,0.709 -1.434,0.709 -1.843,0 l -5.317,-9.209 c -24.03,-2.583 -45.867,-10.166 -63.398,-21.427 -13.656,11.633 -47.685,39.239 -53.448,30.577 -7.241,-10.882 14.974,-59.089 11.977,-81.309 -0.078,-0.573 -0.073,-1.006 -0.076,-1.454 l -8.485,-4.65 c -0.234,-0.128 -0.234,-0.464 0,-0.592 l 7.074,-3.877 V -12.3 l -6.945,-3.806 c -0.289,-0.158 -0.289,-0.575 0,-0.733 l 7.154,-3.921 v -3.11 l -7.154,-3.921 c -0.289,-0.158 -0.289,-0.575 0,-0.734 l 8.733,-4.785 c 10.356,-43.336 61.294,-76.253 122.632,-76.253 61.635,0 112.77,33.238 122.778,76.885 l 8.548,4.684 -7.116,3.9 c 0.156,1.541 0.262,3.093 0.316,4.654 l 6.8,3.727 -7.374,4.041 c 0,1.622 0,1.981 0,3.603 l 6.568,3.599 c 0.349,0.191 0.349,0.692 0,0.883 z"
         style="fill:#909090;fill-opacity:1;fill-rule:nonzero;stroke:none"
         id="path1372"
         inkscape:connector-curvature="0" />
    </g>
    <g
       id="g1374"
       transform="matrix(0.35277777,0,0,-0.35277777,97.754542,214.30125)">
      <path
         d="m 0,0 c -5.822,8.75 -40.496,-19.516 -53.865,-30.933 -17.386,11.3 -39.064,18.995 -62.951,21.73 l -5.347,9.261 c -0.41,0.709 -1.433,0.709 -1.843,0 l -4.812,-8.335 h -0.843 l -4.41,7.638 V -193.05 c 60.822,0.645 111.06,33.637 120.969,76.854 l 8.548,4.685 -7.116,3.899 c 0.156,1.542 0.262,3.094 0.316,4.655 l 6.8,3.726 -7.373,4.041 v 3.604 l 6.567,3.599 c 0.349,0.191 0.349,0.692 0,0.883 l -6.545,3.587 c 0.052,0.607 0.05,1.305 -0.071,2.208 C -14.974,-59.089 7.241,-10.882 0,0"
         style="fill:#7d7d7d;fill-opacity:1;fill-rule:nonzero;stroke:none"
         id="path1376"
         inkscape:connector-curvature="0" />
    </g>
    <g
       id="g1378"
       transform="matrix(0.35277777,0,0,-0.35277777,54.902911,284.07947)">
      <path
         d="m 0,0 h -27.852 c -9.407,0 -17.033,-7.626 -17.033,-17.034 v -9.129 c 0,-1.621 0.241,-3.184 0.664,-4.67 3.333,-1.855 7.165,-2.921 11.25,-2.921 h 37.89 c 4.185,0 8.099,1.125 11.488,3.065 0.397,1.443 0.627,2.956 0.627,4.526 v 9.129 C 17.034,-7.626 9.408,0 0,0"
         style="fill:#f1f1f2;fill-opacity:1;fill-rule:nonzero;stroke:none"
         id="path1380"
         inkscape:connector-curvature="0" />
    </g>
    <g
       id="g1382"
       transform="matrix(0.35277777,0,0,-0.35277777,57.884977,295.88221)">
      <path
         d="m 0,0 c 0.735,0.114 1.46,0.257 2.17,0.439 0.185,0.047 0.371,0.092 0.555,0.143 1.843,0.521 3.6,1.253 5.229,2.186 0.397,1.443 0.627,2.956 0.627,4.526 v 9.129 c 0,9.407 -7.627,17.034 -17.034,17.034 H -20.892 V -0.297 h 17.358 c 0.958,0 1.896,0.074 2.822,0.188 C -0.472,-0.08 -0.237,-0.036 0,0"
         style="fill:#d0d2d3;fill-opacity:1;fill-rule:nonzero;stroke:none"
         id="path1384"
         inkscape:connector-curvature="0" />
    </g>
    <g
       id="g1386"
       transform="matrix(0.35277777,0,0,-0.35277777,81.449568,227.05223)">
      <path
         d="M 0,0 C 0,0 29.389,27.68 33.49,21.187 37.59,14.694 25.009,-14.069 26.707,-27.326 28.404,-40.584 0,0 0,0"
         style="fill:#d0d2d3;fill-opacity:1;fill-rule:nonzero;stroke:none"
         id="path1388"
         inkscape:connector-curvature="0" />
    </g>
    <g
       id="g1390"
       transform="matrix(0.35277777,0,0,-0.35277777,18.16375,227.05223)">
      <path
         d="m 0,0 c 0,0 -29.389,27.68 -33.489,21.187 -4.101,-6.493 8.48,-35.256 6.782,-48.513 C -28.404,-40.584 0,0 0,0"
         style="fill:#f1f1f2;fill-opacity:1;fill-rule:nonzero;stroke:none"
         id="path1392"
         inkscape:connector-curvature="0" />
    </g>
    <g
       id="g1394"
       transform="matrix(0.35277777,0,0,-0.35277777,42.249195,242.86394)">
      <path
         d="m 0,0 c 0,-5.599 -4.539,-10.138 -10.138,-10.138 -5.599,0 -10.138,4.539 -10.138,10.138 0,5.599 4.539,10.138 10.138,10.138 C -4.539,10.138 0,5.599 0,0"
         style="fill:#404041;fill-opacity:1;fill-rule:nonzero;stroke:none"
         id="path1396"
         inkscape:connector-curvature="0" />
    </g>
    <g
       id="g1398"
       transform="matrix(0.35277777,0,0,-0.35277777,64.813496,242.86394)">
      <path
         d="m 0,0 c 0,-5.599 -4.539,-10.138 -10.138,-10.138 -5.599,0 -10.138,4.539 -10.138,10.138 0,5.599 4.539,10.138 10.138,10.138 C -4.539,10.138 0,5.599 0,0"
         style="fill:#404041;fill-opacity:1;fill-rule:nonzero;stroke:none"
         id="path1400"
         inkscape:connector-curvature="0" />
    </g>
    <g
       id="g1402"
       transform="matrix(0.35277777,0,0,-0.35277777,19.675262,273.51619)">
      <path
         d="m 0,0 c 22.299,-15.632 52.352,-25.227 85.447,-25.227 33.48,0 63.842,9.821 86.217,25.776 -13.486,34.162 -46.777,58.34 -85.732,58.34 C 46.771,58.889 13.344,34.449 0,0"
         style="fill:#f1f1f2;fill-opacity:1;fill-rule:nonzero;stroke:none"
         id="path1404"
         inkscape:connector-curvature="0" />
    </g>
    <g
       id="g1406"
       transform="matrix(0.35277777,0,0,-0.35277777,50.457276,252.75943)">
      <path
         d="m 0,0 v -84.032 c 0.099,10e-4 0.197,0.004 0.296,0.005 11.052,0.137 21.748,1.346 31.918,3.486 0.295,0.062 0.592,0.118 0.886,0.181 1.328,0.288 2.64,0.601 3.949,0.92 0.51,0.124 1.023,0.245 1.53,0.374 1.171,0.298 2.33,0.615 3.484,0.937 0.637,0.179 1.274,0.357 1.905,0.543 1.047,0.307 2.085,0.627 3.118,0.955 0.735,0.234 1.468,0.472 2.196,0.716 0.931,0.312 1.858,0.63 2.777,0.958 0.832,0.297 1.656,0.604 2.478,0.915 0.807,0.304 1.613,0.61 2.41,0.927 0.951,0.379 1.889,0.773 2.826,1.17 0.657,0.278 1.318,0.552 1.968,0.839 1.152,0.509 2.285,1.038 3.412,1.573 0.42,0.199 0.846,0.39 1.262,0.593 6.402,3.123 12.395,6.67 17.903,10.59 0.03,0.022 0.059,0.043 0.089,0.065 C 71.074,-24.517 38.378,-0.545 0,0"
         style="fill:#d0d2d3;fill-opacity:1;fill-rule:nonzero;stroke:none"
         id="path1408"
         inkscape:connector-curvature="0" />
    </g>
    <g
       id="g1410"
       transform="matrix(0.35277777,0,0,-0.35277777,47.520825,262.37664)">
      <path
         d="m 0,0 c -3.331,0 -6.67,2.58 -9.931,7.676 l 1.283,0.822 C -5.549,3.654 -2.513,1.31 0.383,1.538 4.498,1.859 7.264,7.31 7.713,8.255 V 31.416 H 9.236 V 7.927 L 9.172,7.782 C 9.041,7.482 5.899,0.443 0.506,0.02 0.337,0.007 0.169,0 0,0"
         style="fill:#404041;fill-opacity:1;fill-rule:nonzero;stroke:none"
         id="path1412"
         inkscape:connector-curvature="0" />
    </g>
    <g
       id="g1414"
       transform="matrix(0.35277777,0,0,-0.35277777,53.477019,262.37178)">
      <path
         d="M 0,0 C -3.308,0 -6.365,2.596 -9.082,7.716 L -7.736,8.43 C -5.305,3.849 -2.702,1.526 -0.003,1.524 H 0 c 4.653,0 8.347,6.838 8.384,6.906 L 9.729,7.716 C 9.562,7.401 5.569,0 0,0"
         style="fill:#404041;fill-opacity:1;fill-rule:nonzero;stroke:none"
         id="path1416"
         inkscape:connector-curvature="0" />
    </g>
    <g
       id="g1418"
       transform="matrix(0.35277777,0,0,-0.35277777,55.72566,250.71741)">
      <path
         d="M 0,0 -0.209,1.659 C 0.711,1.775 92.112,13.096 128.094,1.627 L 127.587,0.033 C 91.95,11.395 0.916,0.115 0,0"
         style="fill:#404041;fill-opacity:1;fill-rule:nonzero;stroke:none"
         id="path1420"
         inkscape:connector-curvature="0" />
    </g>
    <g
       id="g1422"
       transform="matrix(0.35277777,0,0,-0.35277777,98.727812,267.2248)">
      <path
         d="m 0,0 c -30.827,21.185 -121.231,36.722 -122.141,36.877 l 0.281,1.648 C -120.948,38.37 -30.18,22.77 0.947,1.378 Z"
         style="fill:#404041;fill-opacity:1;fill-rule:nonzero;stroke:none"
         id="path1424"
         inkscape:connector-curvature="0" />
    </g>
    <g
       id="g1426"
       transform="matrix(0.35277777,0,0,-0.35277777,45.189068,250.57263)">
      <path
         d="m 0,0 c -0.914,0.114 -91.952,11.393 -127.586,0.033 l -0.509,1.594 C -92.11,13.097 -0.711,1.776 0.209,1.659 Z"
         style="fill:#404041;fill-opacity:1;fill-rule:nonzero;stroke:none"
         id="path1428"
         inkscape:connector-curvature="0" />
    </g>
    <g
       id="g1430"
       transform="matrix(0.35277777,0,0,-0.35277777,0.47568545,259.23459)">
      <path
         d="M 0,0 -0.741,1.498 C 33.116,18.238 125.18,20.746 126.106,20.77 l 0.043,-1.672 C 125.226,19.075 33.529,16.576 0,0"
         style="fill:#404041;fill-opacity:1;fill-rule:nonzero;stroke:none"
         id="path1432"
         inkscape:connector-curvature="0" />
    </g>
    <g
       id="g1434"
       transform="matrix(0.35277777,0,0,-0.35277777,100.43887,259.23459)">
      <path
         d="m 0,0 c -33.529,16.576 -125.226,19.075 -126.148,19.098 l 0.041,1.672 c 0.926,-0.024 92.99,-2.532 126.847,-19.272 z"
         style="fill:#404041;fill-opacity:1;fill-rule:nonzero;stroke:none"
         id="path1436"
         inkscape:connector-curvature="0" />
    </g>
    <g
       id="g1438"
       transform="matrix(0.35277777,0,0,-0.35277777,2.1867274,267.07998)">
      <path
         d="M 0,0 -0.947,1.378 C 30.181,22.77 120.948,38.37 121.861,38.525 l 0.28,-1.648 C 121.231,36.722 30.825,21.184 0,0"
         style="fill:#404041;fill-opacity:1;fill-rule:nonzero;stroke:none"
         id="path1440"
         inkscape:connector-curvature="0" />
    </g>
    <g
       id="g1442"
       transform="matrix(0.35277777,0,0,-0.35277777,53.807605,251.72427)">
      <path
         d="m 0,0 -6.357,-11.01 c -1.323,-2.292 -4.63,-2.292 -5.953,0 L -18.667,0 c -1.323,2.292 0.331,5.156 2.977,5.156 H -2.977 C -0.331,5.156 1.323,2.292 0,0"
         style="fill:#404041;fill-opacity:1;fill-rule:nonzero;stroke:none"
         id="path1444"
         inkscape:connector-curvature="0" />
    </g>
    <g
       id="g1446"
       transform="matrix(0.35277777,0,0,-0.35277777,38.190381,199.82279)">
      <path
         d="m 0,0 -14.506,-8.002 c 3.698,-1.809 8.271,-0.734 10.708,2.763 1.086,1.558 2.367,2.895 3.774,4.026 z"
         style="fill:#f1f1f2;fill-opacity:1;fill-rule:nonzero;stroke:none"
         id="path1448"
         inkscape:connector-curvature="0" />
    </g>
    <g
       id="g1450"
       transform="matrix(0.35277777,0,0,-0.35277777,32.617515,202.37987)">
      <path
         d="M 0,0 C 3.76,-2.743 8.985,-1.926 11.773,1.747 L 11.928,9.667 -1.817,2.084 C -1.376,1.29 -0.78,0.569 0,0"
         style="fill:#f1f1f2;fill-opacity:1;fill-rule:nonzero;stroke:none"
         id="path1452"
         inkscape:connector-curvature="0" />
    </g>
    <g
       id="g1454"
       transform="matrix(0.35277777,0,0,-0.35277777,32.617515,202.37987)">
      <path
         d="M 0,0 C 2.368,-1.727 5.321,-2.039 7.881,-1.126 L 8.129,11.602 -2.606,5.679 C -2.761,3.527 -1.858,1.355 0,0"
         style="fill:#f1f1f2;fill-opacity:1;fill-rule:nonzero;stroke:none"
         id="path1456"
         inkscape:connector-curvature="0" />
    </g>
    <g
       id="g1458"
       transform="matrix(0.35277777,0,0,-0.35277777,32.043335,199.31254)">
      <path
         d="m 0,0 c -1.843,-2.872 -1.13,-6.684 1.628,-8.695 1.001,-0.73 2.109,-1.198 3.247,-1.44 L 5.162,4.599 2.097,2.909 C 1.357,1.984 0.653,1.018 0,0"
         style="fill:#f1f1f2;fill-opacity:1;fill-rule:nonzero;stroke:none"
         id="path1460"
         inkscape:connector-curvature="0" />
    </g>
    <g
       id="g1462"
       transform="matrix(0.35277777,0,0,-0.35277777,38.935799,241.70507)">
      <path
         d="m 0,0 c 0,-1.814 -1.471,-3.285 -3.285,-3.285 -1.814,0 -3.285,1.471 -3.285,3.285 0,1.814 1.471,3.285 3.285,3.285 C -1.471,3.285 0,1.814 0,0"
         style="fill:#f1f1f2;fill-opacity:1;fill-rule:nonzero;stroke:none"
         id="path1464"
         inkscape:connector-curvature="0" />
    </g>
    <g
       id="g1466"
       transform="matrix(0.35277777,0,0,-0.35277777,61.237071,241.70507)">
      <path
         d="m 0,0 c 0,-1.814 -1.471,-3.285 -3.285,-3.285 -1.814,0 -3.285,1.471 -3.285,3.285 0,1.814 1.471,3.285 3.285,3.285 C -1.471,3.285 0,1.814 0,0"
         style="fill:#f1f1f2;fill-opacity:1;fill-rule:nonzero;stroke:none"
         id="path1468"
         inkscape:connector-curvature="0" />
    </g>
    <g
       id="g1470"
       transform="matrix(0.35277777,0,0,-0.35277777,45.462895,293.6391)">
      <path
         d="m 0,0 c -1.73,0 -3.133,-1.173 -3.602,-2.752 -0.131,2.449 -2.116,4.408 -4.597,4.408 -2.481,0 -4.467,-1.959 -4.598,-4.407 -0.468,1.578 -1.872,2.751 -3.602,2.751 -2.108,0 -3.817,-1.709 -3.817,-3.818 0,-0.108 0.052,-0.199 0.061,-0.305 v -3.843 c 0,-0.862 0.699,-1.561 1.562,-1.561 H 2.265 c 0.838,0 1.518,0.679 1.518,1.517 v 4.019 C 3.786,-3.93 3.818,-3.879 3.818,-3.818 3.818,-1.709 2.108,0 0,0"
         style="fill:#58595b;fill-opacity:1;fill-rule:nonzero;stroke:none"
         id="path1472"
         inkscape:connector-curvature="0" />
    </g>
    <g
       id="g1474"
       transform="matrix(0.35277777,0,0,-0.35277777,60.232077,293.6391)">
      <path
         d="m 0,0 c -1.73,0 -3.133,-1.173 -3.602,-2.752 -0.131,2.449 -2.116,4.408 -4.597,4.408 -2.481,0 -4.467,-1.959 -4.598,-4.407 -0.468,1.578 -1.872,2.751 -3.602,2.751 -2.108,0 -3.817,-1.709 -3.817,-3.818 0,-0.108 0.052,-0.199 0.061,-0.305 v -3.843 c 0,-0.862 0.699,-1.561 1.562,-1.561 H 2.265 c 0.838,0 1.518,0.679 1.518,1.517 v 4.019 C 3.786,-3.93 3.818,-3.879 3.818,-3.818 3.818,-1.709 2.108,0 0,0"
         style="fill:#404041;fill-opacity:1;fill-rule:nonzero;stroke:none"
         id="path1476"
         inkscape:connector-curvature="0" />
    </g>
  </g>
</svg>
