<?xml version="1.0" encoding="UTF-8" standalone="no"?>
<!-- Created with Inkscape (http://www.inkscape.org/) -->

<svg
   xmlns:dc="http://purl.org/dc/elements/1.1/"
   xmlns:cc="http://creativecommons.org/ns#"
   xmlns:rdf="http://www.w3.org/1999/02/22-rdf-syntax-ns#"
   xmlns:svg="http://www.w3.org/2000/svg"
   xmlns="http://www.w3.org/2000/svg"
   xmlns:sodipodi="http://sodipodi.sourceforge.net/DTD/sodipodi-0.dtd"
   xmlns:inkscape="http://www.inkscape.org/namespaces/inkscape"
   width="95.400002mm"
   height="103.8mm"
   viewBox="0 0 95.400002 103.8"
   version="1.1"
   id="svg2444"
   inkscape:version="0.92.5 (2060ec1f9f, 2020-04-08)"
   sodipodi:docname="cat6.svg">
  <defs
     id="defs2438" />
  <sodipodi:namedview
     id="base"
     pagecolor="#ffffff"
     bordercolor="#666666"
     borderopacity="1.0"
     inkscape:pageopacity="0.0"
     inkscape:pageshadow="2"
     inkscape:zoom="0.83278036"
     inkscape:cx="338.55756"
     inkscape:cy="176.66539"
     inkscape:document-units="mm"
     inkscape:current-layer="layer1"
     showgrid="false"
     units="mm"
     inkscape:window-width="1038"
     inkscape:window-height="987"
     inkscape:window-x="870"
     inkscape:window-y="45"
     inkscape:window-maximized="0" />
  <metadata
     id="metadata2441">
    <rdf:RDF>
      <cc:Work
         rdf:about="">
        <dc:format>image/svg+xml</dc:format>
        <dc:type
           rdf:resource="http://purl.org/dc/dcmitype/StillImage" />
        <dc:title></dc:title>
      </cc:Work>
    </rdf:RDF>
  </metadata>
  <g
     inkscape:label="Layer 1"
     inkscape:groupmode="layer"
     id="layer1"
     transform="translate(0,-193.20001)">
    <g
       id="g854"
       transform="matrix(0.35277777,0,0,-0.35277777,32.517714,282.93125)">
      <path
         d="m 0,0 v -12.419 c 0,-12.799 10.375,-23.174 23.174,-23.174 h 37.89 c 12.799,0 23.174,10.375 23.174,23.174 V 0 c 0,12.798 -10.375,23.174 -23.174,23.174 H 23.174 C 10.375,23.174 0,12.798 0,0"
         style="fill:#353535;fill-opacity:1;fill-rule:nonzero;stroke:none"
         id="path856"
         inkscape:connector-curvature="0" />
    </g>
    <g
       id="g858"
       transform="matrix(0.35277777,0,0,-0.35277777,54.117715,274.75605)">
      <path
         d="m 0,0 h -17.618 l -0.466,-58.767 H 0 c 12.708,0 23.009,10.376 23.009,23.174 v 12.419 C 23.009,-10.375 12.708,0 0,0"
         style="fill:#282827;fill-opacity:1;fill-rule:nonzero;stroke:none"
         id="path860"
         inkscape:connector-curvature="0" />
    </g>
    <g
       id="g862"
       transform="matrix(0.35277777,0,0,-0.35277777,49.123969,233.90503)">
      <path
         d="m 0,0 14.61,47.871 c 7.292,23.891 -2.666,49.672 -24.123,62.459 l -0.04,0.024 c -15.807,9.42 -36.236,4.606 -46.174,-10.881 v 0 c -1.843,-2.872 -1.13,-6.683 1.628,-8.695 v 0 c 3.856,-2.812 9.27,-1.906 11.999,2.01 v 0 c 6.172,8.856 18.384,10.973 27.177,4.714 v 0 C -0.091,86.943 6.388,68.123 1.199,50.672 L -13.87,0 Z"
         style="fill:#282827;fill-opacity:1;fill-rule:nonzero;stroke:none"
         id="path864"
         inkscape:connector-curvature="0" />
    </g>
    <g
       id="g866"
       transform="matrix(0.35277777,0,0,-0.35277777,85.728835,258.9247)">
      <path
         d="m 0,0 c 3.163,5.774 5.53,11.852 6.977,18.163 l 1.353,8.114 c 0.008,0.074 0.015,0.148 0.023,0.222 0.23,2.344 0.261,4.703 0.195,7.056 L 8.109,49.052 c 0.048,0.575 0.047,1.235 -0.068,2.088 -2.834,21.003 18.165,66.571 11.321,76.858 -5.504,8.271 -38.279,-18.448 -50.917,-29.24 -16.434,10.682 -36.925,17.956 -59.505,20.541 l -5.054,8.754 c -0.387,0.67 -1.355,0.67 -1.742,0 l -4.549,-7.879 h -0.796 l -4.599,7.965 c -0.365,0.632 -1.278,0.632 -1.643,0 l -4.563,-7.904 h -0.867 l -4.513,7.818 c -0.388,0.67 -6.768,-8.705 -6.768,-8.705 -22.715,-2.441 -43.357,-9.609 -59.928,-20.254 -12.909,10.997 -45.074,37.091 -50.522,28.904 -6.844,-10.287 14.155,-55.855 11.321,-76.858 -0.073,-0.542 -0.068,-0.951 -0.072,-1.375 l -0.764,-4.943 c -0.379,-2.447 -0.569,-4.92 -0.569,-7.396 0,0 0.076,-3.706 0.134,-6.833 0.051,-2.791 0.309,-5.573 0.77,-8.326 l 0.52,-3.109 c 0.177,-1.061 0.385,-2.117 0.66,-3.157 1.492,-5.642 3.738,-11.081 6.614,-16.278 -7.626,-4.212 -11.901,-11.392 -11.901,-23.222 0,-19.175 43.951,-35.076 101.526,-38.066 3.16,-7.752 10.761,-13.221 19.649,-13.221 8.888,0 16.489,5.469 19.649,13.221 57.575,2.99 101.527,18.891 101.527,38.066 C 12.46,-11.392 7.965,-4.169 0,0"
         style="fill:#575757;fill-opacity:1;fill-rule:nonzero;stroke:none"
         id="path868"
         inkscape:connector-curvature="0" />
    </g>
    <g
       id="g870"
       transform="matrix(0.35277777,0,0,-0.35277777,54.308056,280.6434)">
      <path
         d="m 0,0 c 57.575,2.99 101.527,18.89 101.527,38.066 0,12.107 -4.495,19.33 -12.46,23.499 3.163,5.774 5.53,11.851 6.977,18.163 l 1.353,8.114 c 0.008,0.074 0.015,0.148 0.023,0.222 0.229,2.343 0.261,4.702 0.195,7.056 l -0.439,15.497 c 0.048,0.575 0.047,1.234 -0.068,2.088 -2.834,21.003 18.165,66.571 11.321,76.858 -5.504,8.271 -38.279,-18.448 -50.917,-29.24 -16.434,10.682 -36.925,17.956 -59.505,20.54 l -5.054,8.755 c -0.387,0.67 -1.355,0.67 -1.742,0 l -4.549,-7.879 h -0.796 l -4.599,7.964 V -13.151 C -10.247,-12.785 -3.049,-7.48 0,0"
         style="fill:#464646;fill-opacity:1;fill-rule:nonzero;stroke:none"
         id="path872"
         inkscape:connector-curvature="0" />
    </g>
    <g
       id="g874"
       transform="matrix(0.35277777,0,0,-0.35277777,52.324316,288.12976)">
      <path
         d="m 0,0 h -27.851 c -9.408,0 -17.034,-4.712 -17.034,-10.525 v -5.641 c 0,-1.002 0.241,-1.968 0.664,-2.886 3.333,-1.147 7.165,-1.805 11.25,-1.805 h 37.89 c 4.185,0 8.099,0.695 11.488,1.894 0.397,0.892 0.627,1.827 0.627,2.797 v 5.641 C 17.034,-4.712 9.408,0 0,0"
         style="fill:#58595b;fill-opacity:1;fill-rule:nonzero;stroke:none"
         id="path876"
         inkscape:connector-curvature="0" />
    </g>
    <g
       id="g878"
       transform="matrix(0.35277777,0,0,-0.35277777,58.277018,294.32342)">
      <path
         d="m 0,0 c 0.102,0.455 0.16,0.918 0.16,1.39 v 5.641 c 0,5.813 -7.626,10.526 -17.034,10.526 H -29.708 L -29.874,-3.3 h 17.92 c 0.297,0 0.582,0.029 0.876,0.036 C -7.033,-3.139 -3.259,-1.966 0,0"
         style="fill:#404041;fill-opacity:1;fill-rule:nonzero;stroke:none"
         id="path880"
         inkscape:connector-curvature="0" />
    </g>
    <g
       id="g882"
       transform="matrix(0.35277777,0,0,-0.35277777,77.146916,225.82282)">
      <path
         d="M 0,0 C 0,0 27.78,26.165 31.656,20.027 35.532,13.89 23.64,-13.299 25.245,-25.83 26.849,-38.362 0,0 0,0"
         style="fill:#282827;fill-opacity:1;fill-rule:nonzero;stroke:none"
         id="path884"
         inkscape:connector-curvature="0" />
    </g>
    <g
       id="g886"
       transform="matrix(0.35277777,0,0,-0.35277777,17.32555,225.82282)">
      <path
         d="M 0,0 C 0,0 -27.78,26.165 -31.656,20.027 -35.532,13.89 -23.64,-13.299 -25.245,-25.83 -26.849,-38.362 0,0 0,0"
         style="fill:#464646;fill-opacity:1;fill-rule:nonzero;stroke:none"
         id="path888"
         inkscape:connector-curvature="0" />
    </g>
    <g
       id="g890"
       transform="matrix(0.35277777,0,0,-0.35277777,40.092444,248.34271)">
      <path
         d="m 0,0 c 0,-5.293 -4.29,-9.583 -9.583,-9.583 -5.292,0 -9.583,4.29 -9.583,9.583 0,5.293 4.291,9.583 9.583,9.583 C -4.29,9.583 0,5.293 0,0"
         style="fill:#262626;fill-opacity:1;fill-rule:nonzero;stroke:none"
         id="path892"
         inkscape:connector-curvature="0" />
    </g>
    <g
       id="g894"
       transform="matrix(0.35277777,0,0,-0.35277777,61.421485,248.34271)">
      <path
         d="m 0,0 c 0,-5.293 -4.29,-9.583 -9.583,-9.583 -5.292,0 -9.583,4.29 -9.583,9.583 0,5.293 4.291,9.583 9.583,9.583 C -4.29,9.583 0,5.293 0,0"
         style="fill:#262626;fill-opacity:1;fill-rule:nonzero;stroke:none"
         id="path896"
         inkscape:connector-curvature="0" />
    </g>
    <g
       id="g898"
       transform="matrix(0.35277777,0,0,-0.35277777,54.075382,265.78708)">
      <path
         d="m 0,0 c -0.04,-0.059 -3.976,-5.966 -9.009,-5.966 h -0.004 c -2.889,0.003 -5.649,1.962 -8.206,5.806 v 19.813 h -1.385 V -0.196 c -0.513,-0.871 -3.372,-5.381 -7.697,-5.756 -3.193,-0.284 -6.512,1.742 -9.873,6.002 l -1.086,-0.858 c 3.434,-4.352 6.921,-6.553 10.376,-6.553 0.234,0 0.469,0.01 0.702,0.03 4.252,0.369 7.147,3.965 8.309,5.699 2.702,-3.778 5.678,-5.718 8.864,-5.718 5.786,0 9.99,6.323 10.167,6.591 z"
         style="fill:#262626;fill-opacity:1;fill-rule:nonzero;stroke:none"
         id="path900"
         inkscape:connector-curvature="0" />
    </g>
    <g
       id="g902"
       transform="matrix(0.35277777,0,0,-0.35277777,52.681425,259.87738)">
      <path
         d="M 0,0 -0.209,1.659 C 0.66,1.769 87.065,12.473 121.089,1.627 L 120.582,0.033 C 86.905,10.771 0.866,0.11 0,0"
         style="fill:#282827;fill-opacity:1;fill-rule:nonzero;stroke:none"
         id="path904"
         inkscape:connector-curvature="0" />
    </g>
    <g
       id="g906"
       transform="matrix(0.35277777,0,0,-0.35277777,93.318487,275.47836)">
      <path
         d="m 0,0 c -29.129,20.018 -114.577,34.705 -115.437,34.851 l 0.281,1.648 C -114.292,36.352 -28.485,21.604 0.947,1.378 Z"
         style="fill:#282827;fill-opacity:1;fill-rule:nonzero;stroke:none"
         id="path908"
         inkscape:connector-curvature="0" />
    </g>
    <g
       id="g910"
       transform="matrix(0.35277777,0,0,-0.35277777,42.717507,259.74068)">
      <path
         d="m 0,0 c -0.864,0.11 -86.907,10.771 -120.582,0.033 l -0.507,1.594 C -87.065,12.477 -0.66,1.769 0.209,1.659 Z"
         style="fill:#282827;fill-opacity:1;fill-rule:nonzero;stroke:none"
         id="path912"
         inkscape:connector-curvature="0" />
    </g>
    <g
       id="g914"
       transform="matrix(0.35277777,0,0,-0.35277777,0.46116739,267.92674)">
      <path
         d="m 0,0 -0.74,1.498 c 32.012,15.828 119.046,18.2 119.922,18.223 l 0.041,-1.672 C 118.352,18.027 31.685,15.664 0,0"
         style="fill:#282827;fill-opacity:1;fill-rule:nonzero;stroke:none"
         id="path916"
         inkscape:connector-curvature="0" />
    </g>
    <g
       id="g918"
       transform="matrix(0.35277777,0,0,-0.35277777,94.937707,267.92674)">
      <path
         d="m 0,0 c -31.687,15.665 -118.352,18.027 -119.223,18.049 l 0.041,1.672 c 0.876,-0.023 87.91,-2.395 119.922,-18.223 z"
         style="fill:#282827;fill-opacity:1;fill-rule:nonzero;stroke:none"
         id="path920"
         inkscape:connector-curvature="0" />
    </g>
    <g
       id="g922"
       transform="matrix(0.35277777,0,0,-0.35277777,2.0804704,275.34163)">
      <path
         d="M 0,0 -0.947,1.378 C 28.485,21.604 114.292,36.353 115.156,36.5 l 0.281,-1.648 C 114.576,34.706 29.129,20.018 0,0"
         style="fill:#282827;fill-opacity:1;fill-rule:nonzero;stroke:none"
         id="path924"
         inkscape:connector-curvature="0" />
    </g>
    <g
       id="g926"
       transform="matrix(0.35277777,0,0,-0.35277777,50.845322,257.74173)">
      <path
         d="m 0,0 -6.009,-10.408 c -1.25,-2.166 -4.377,-2.166 -5.627,0 L -17.645,0 c -1.251,2.166 0.312,4.874 2.814,4.874 H -2.814 C -0.313,4.874 1.251,2.166 0,0"
         style="fill:#262626;fill-opacity:1;fill-rule:nonzero;stroke:none"
         id="path928"
         inkscape:connector-curvature="0" />
    </g>
    <g
       id="g930"
       transform="matrix(0.35277777,0,0,-0.35277777,36.960491,247.24726)">
      <path
         d="m 0,0 c 0,-1.715 -1.39,-3.105 -3.105,-3.105 -1.715,0 -3.105,1.39 -3.105,3.105 0,1.715 1.39,3.105 3.105,3.105 C -1.39,3.105 0,1.715 0,0"
         style="fill:#f1f1f2;fill-opacity:1;fill-rule:nonzero;stroke:none"
         id="path932"
         inkscape:connector-curvature="0" />
    </g>
    <g
       id="g934"
       transform="matrix(0.35277777,0,0,-0.35277777,58.040904,247.24726)">
      <path
         d="m 0,0 c 0,-1.715 -1.39,-3.105 -3.105,-3.105 -1.715,0 -3.105,1.39 -3.105,3.105 0,1.715 1.39,3.105 3.105,3.105 C -1.39,3.105 0,1.715 0,0"
         style="fill:#f1f1f2;fill-opacity:1;fill-rule:nonzero;stroke:none"
         id="path936"
         inkscape:connector-curvature="0" />
    </g>
    <g
       id="g938"
       transform="matrix(0.35277777,0,0,-0.35277777,42.884327,293.6391)">
      <path
         d="m 0,0 c -1.73,0 -3.133,-1.173 -3.602,-2.752 -0.131,2.449 -2.116,4.408 -4.597,4.408 -2.481,0 -4.467,-1.959 -4.598,-4.407 -0.468,1.578 -1.872,2.751 -3.602,2.751 -2.108,0 -3.817,-1.709 -3.817,-3.818 0,-0.108 0.052,-0.199 0.061,-0.305 v -3.843 c 0,-0.862 0.699,-1.561 1.562,-1.561 H 2.265 c 0.838,0 1.518,0.679 1.518,1.517 v 4.019 C 3.786,-3.93 3.818,-3.879 3.818,-3.818 3.818,-1.709 2.109,0 0,0"
         style="fill:#404041;fill-opacity:1;fill-rule:nonzero;stroke:none"
         id="path940"
         inkscape:connector-curvature="0" />
    </g>
    <g
       id="g942"
       transform="matrix(0.35277777,0,0,-0.35277777,57.653501,293.6391)">
      <path
         d="m 0,0 c -1.73,0 -3.133,-1.173 -3.602,-2.752 -0.131,2.449 -2.116,4.408 -4.597,4.408 -2.481,0 -4.467,-1.959 -4.598,-4.407 -0.468,1.578 -1.872,2.751 -3.602,2.751 -2.108,0 -3.817,-1.709 -3.817,-3.818 0,-0.108 0.052,-0.199 0.061,-0.305 v -3.843 c 0,-0.862 0.699,-1.561 1.562,-1.561 H 2.265 c 0.838,0 1.518,0.679 1.518,1.517 v 4.019 C 3.786,-3.93 3.818,-3.879 3.818,-3.818 3.818,-1.709 2.109,0 0,0"
         style="fill:#282827;fill-opacity:1;fill-rule:nonzero;stroke:none"
         id="path944"
         inkscape:connector-curvature="0" />
    </g>
  </g>
</svg>
