<svg xmlns="http://www.w3.org/2000/svg" width="360.567" height="103.8mm" viewBox="0 0 95.4 103.8" version="1.1" id="cat6" class="cat"><g id="layer1" transform="translate(0 -193.2)"><g id="g854" transform="matrix(.35278 0 0 -.35278 32.518 282.931)"><path d="M0 0v-12.419c0-12.799 10.375-23.174 23.174-23.174h37.89c12.799 0 23.174 10.375 23.174 23.174V0c0 12.798-10.375 23.174-23.174 23.174h-37.89C10.375 23.174 0 12.798 0 0" style="fill:#353535;fill-opacity:1;fill-rule:nonzero;stroke:none" id="path856"/></g><g id="g858" transform="matrix(.35278 0 0 -.35278 54.118 274.756)"><path d="M0 0h-17.618l-.466-58.767H0c12.708 0 23.009 10.376 23.009 23.174v12.419C23.009-10.375 12.708 0 0 0" style="fill:#282827;fill-opacity:1;fill-rule:nonzero;stroke:none" id="path860"/></g><g id="g862" transform="matrix(.35278 0 0 -.35278 49.124 233.905)"><path d="m0 0 14.61 47.871c7.292 23.891-2.666 49.672-24.123 62.459l-.04.024c-15.807 9.42-36.236 4.606-46.174-10.881a6.45 6.45 0 0 1 1.628-8.695 8.512 8.512 0 0 1 11.999 2.01c6.172 8.856 18.384 10.973 27.177 4.714C-.091 86.943 6.388 68.123 1.199 50.672L-13.87 0z" style="fill:#282827;fill-opacity:1;fill-rule:nonzero;stroke:none" id="path864"/></g><g id="g866" transform="matrix(.35278 0 0 -.35278 85.729 258.925)"><path d="M0 0c3.163 5.774 5.53 11.852 6.977 18.163l1.353 8.114.023.222c.23 2.344.261 4.703.195 7.056l-.439 15.497a9.387 9.387 0 0 1-.068 2.088c-2.834 21.003 18.165 66.571 11.321 76.858-5.504 8.271-38.279-18.448-50.917-29.24-16.434 10.682-36.925 17.956-59.505 20.541l-5.054 8.754c-.387.67-1.355.67-1.742 0l-4.549-7.879h-.796l-4.599 7.965a.949.949 0 0 1-1.643 0l-4.563-7.904h-.867l-4.513 7.818c-.388.67-6.768-8.705-6.768-8.705-22.715-2.441-43.357-9.609-59.928-20.254-12.909 10.997-45.074 37.091-50.522 28.904-6.844-10.287 14.155-55.855 11.321-76.858-.073-.542-.068-.951-.072-1.375l-.764-4.943a48.325 48.325 0 0 1-.569-7.396s.076-3.706.134-6.833c.051-2.791.309-5.573.77-8.326l.52-3.109c.177-1.061.385-2.117.66-3.157 1.492-5.642 3.738-11.081 6.614-16.278-7.626-4.212-11.901-11.392-11.901-23.222 0-19.175 43.951-35.076 101.526-38.066 3.16-7.752 10.761-13.221 19.649-13.221 8.888 0 16.489 5.469 19.649 13.221C-31.492-58.575 12.46-42.674 12.46-23.499 12.46-11.392 7.965-4.169 0 0" style="fill:#575757;fill-opacity:1;fill-rule:nonzero;stroke:none" id="path868"/></g><g id="g870" transform="matrix(.35278 0 0 -.35278 54.308 280.643)"><path d="M0 0c57.575 2.99 101.527 18.89 101.527 38.066 0 12.107-4.495 19.33-12.46 23.499 3.163 5.774 5.53 11.851 6.977 18.163l1.353 8.114.023.222c.229 2.343.261 4.702.195 7.056l-.439 15.497a9.388 9.388 0 0 1-.068 2.088c-2.834 21.003 18.165 66.571 11.321 76.858-5.504 8.271-38.279-18.448-50.917-29.24-16.434 10.682-36.925 17.956-59.505 20.54l-5.054 8.755c-.387.67-1.355.67-1.742 0l-4.549-7.879h-.796l-4.599 7.964V-13.151A21.194 21.194 0 0 1 0 0" style="fill:#464646;fill-opacity:1;fill-rule:nonzero;stroke:none" id="path872"/></g><g id="g874" transform="matrix(.35278 0 0 -.35278 52.324 288.13)"><path d="M0 0h-27.851c-9.408 0-17.034-4.712-17.034-10.525v-5.641c0-1.002.241-1.968.664-2.886 3.333-1.147 7.165-1.805 11.25-1.805h37.89c4.185 0 8.099.695 11.488 1.894.397.892.627 1.827.627 2.797v5.641C17.034-4.712 9.408 0 0 0" style="fill:#58595b;fill-opacity:1;fill-rule:nonzero;stroke:none" id="path876"/></g><g id="g878" transform="matrix(.35278 0 0 -.35278 58.277 294.323)"><path d="M0 0c.102.455.16.918.16 1.39v5.641c0 5.813-7.626 10.526-17.034 10.526h-12.834L-29.874-3.3h17.92c.297 0 .582.029.876.036A22.73 22.73 0 0 1 0 0" style="fill:#404041;fill-opacity:1;fill-rule:nonzero;stroke:none" id="path880"/></g><g id="g882" transform="matrix(.35278 0 0 -.35278 77.147 225.823)"><path d="M0 0s27.78 26.165 31.656 20.027c3.876-6.137-8.016-33.326-6.411-45.857C26.849-38.362 0 0 0 0" style="fill:#282827;fill-opacity:1;fill-rule:nonzero;stroke:none" id="path884"/></g><g id="g886" transform="matrix(.35278 0 0 -.35278 17.326 225.823)"><path d="M0 0s-27.78 26.165-31.656 20.027c-3.876-6.137 8.016-33.326 6.411-45.857C-26.849-38.362 0 0 0 0" style="fill:#464646;fill-opacity:1;fill-rule:nonzero;stroke:none" id="path888"/></g><g id="g890" transform="matrix(.35278 0 0 -.35278 40.092 248.343)"><path d="M0 0a9.582 9.582 0 0 0-9.583-9.583c-5.292 0-9.583 4.29-9.583 9.583s4.291 9.583 9.583 9.583A9.582 9.582 0 0 0 0 0" style="fill:#262626;fill-opacity:1;fill-rule:nonzero;stroke:none" id="path892"/></g><g id="g894" transform="matrix(.35278 0 0 -.35278 61.421 248.343)"><path d="M0 0a9.582 9.582 0 0 0-9.583-9.583c-5.292 0-9.583 4.29-9.583 9.583s4.291 9.583 9.583 9.583A9.582 9.582 0 0 0 0 0" style="fill:#262626;fill-opacity:1;fill-rule:nonzero;stroke:none" id="path896"/></g><g id="g898" transform="matrix(.35278 0 0 -.35278 54.075 265.787)"><path d="M0 0c-.04-.059-3.976-5.966-9.009-5.966h-.004c-2.889.003-5.649 1.962-8.206 5.806v19.813h-1.385V-.196c-.513-.871-3.372-5.381-7.697-5.756-3.193-.284-6.512 1.742-9.873 6.002l-1.086-.858c3.434-4.352 6.921-6.553 10.376-6.553.234 0 .469.01.702.03 4.252.369 7.147 3.965 8.309 5.699 2.702-3.778 5.678-5.718 8.864-5.718 5.786 0 9.99 6.323 10.167 6.591z" style="fill:#262626;fill-opacity:1;fill-rule:nonzero;stroke:none" id="path900"/></g><g id="g902" transform="matrix(.35278 0 0 -.35278 52.681 259.877)"><path d="m0 0-.209 1.659c.869.11 87.274 10.814 121.298-.032l-.507-1.594C86.905 10.771.866.11 0 0" style="fill:#282827;fill-opacity:1;fill-rule:nonzero;stroke:none" id="path904"/></g><g id="g906" transform="matrix(.35278 0 0 -.35278 93.318 275.478)"><path d="M0 0c-29.129 20.018-114.577 34.705-115.437 34.851l.281 1.648c.864-.147 86.671-14.895 116.103-35.121z" style="fill:#282827;fill-opacity:1;fill-rule:nonzero;stroke:none" id="path908"/></g><g id="g910" transform="matrix(.35278 0 0 -.35278 42.718 259.74)"><path d="M0 0c-.864.11-86.907 10.771-120.582.033l-.507 1.594C-87.065 12.477-.66 1.769.209 1.659z" style="fill:#282827;fill-opacity:1;fill-rule:nonzero;stroke:none" id="path912"/></g><g id="g914" transform="matrix(.35278 0 0 -.35278 .461 267.927)"><path d="m0 0-.74 1.498c32.012 15.828 119.046 18.2 119.922 18.223l.041-1.672C118.352 18.027 31.685 15.664 0 0" style="fill:#282827;fill-opacity:1;fill-rule:nonzero;stroke:none" id="path916"/></g><g id="g918" transform="matrix(.35278 0 0 -.35278 94.938 267.927)"><path d="M0 0c-31.687 15.665-118.352 18.027-119.223 18.049l.041 1.672c.876-.023 87.91-2.395 119.922-18.223z" style="fill:#282827;fill-opacity:1;fill-rule:nonzero;stroke:none" id="path920"/></g><g id="g922" transform="matrix(.35278 0 0 -.35278 2.08 275.342)"><path d="m0 0-.947 1.378C28.485 21.604 114.292 36.353 115.156 36.5l.281-1.648C114.576 34.706 29.129 20.018 0 0" style="fill:#282827;fill-opacity:1;fill-rule:nonzero;stroke:none" id="path924"/></g><g id="g926" transform="matrix(.35278 0 0 -.35278 50.845 257.742)"><path d="m0 0-6.009-10.408c-1.25-2.166-4.377-2.166-5.627 0L-17.645 0c-1.251 2.166.312 4.874 2.814 4.874h12.017C-.313 4.874 1.251 2.166 0 0" style="fill:#262626;fill-opacity:1;fill-rule:nonzero;stroke:none" id="path928"/></g><g id="g930" transform="matrix(.35278 0 0 -.35278 36.96 247.247)"><path d="M0 0a3.105 3.105 0 1 0-6.21 0A3.105 3.105 0 0 0 0 0" style="fill:#f1f1f2;fill-opacity:1;fill-rule:nonzero;stroke:none" id="path932"/></g><g id="g934" transform="matrix(.35278 0 0 -.35278 58.04 247.247)"><path d="M0 0a3.105 3.105 0 1 0-6.21 0A3.105 3.105 0 0 0 0 0" style="fill:#f1f1f2;fill-opacity:1;fill-rule:nonzero;stroke:none" id="path936"/></g><g id="g938" transform="matrix(.35278 0 0 -.35278 42.884 293.64)"><path d="M0 0c-1.73 0-3.133-1.173-3.602-2.752-.131 2.449-2.116 4.408-4.597 4.408-2.481 0-4.467-1.959-4.598-4.407C-13.265-1.173-14.669 0-16.399 0a3.817 3.817 0 0 1-3.817-3.818c0-.108.052-.199.061-.305v-3.843c0-.862.699-1.561 1.562-1.561H2.265c.838 0 1.518.679 1.518 1.517v4.019c.003.061.035.112.035.173A3.818 3.818 0 0 1 0 0" style="fill:#404041;fill-opacity:1;fill-rule:nonzero;stroke:none" id="path940"/></g><g id="g942" transform="matrix(.35278 0 0 -.35278 57.654 293.64)"><path d="M0 0c-1.73 0-3.133-1.173-3.602-2.752-.131 2.449-2.116 4.408-4.597 4.408-2.481 0-4.467-1.959-4.598-4.407C-13.265-1.173-14.669 0-16.399 0a3.817 3.817 0 0 1-3.817-3.818c0-.108.052-.199.061-.305v-3.843c0-.862.699-1.561 1.562-1.561H2.265c.838 0 1.518.679 1.518 1.517v4.019c.003.061.035.112.035.173A3.818 3.818 0 0 1 0 0" style="fill:#282827;fill-opacity:1;fill-rule:nonzero;stroke:none" id="path944"/></g></g></svg>