<svg xmlns="http://www.w3.org/2000/svg" width="30mm" height="34mm" viewBox="0 0 30 34"><g style="stroke-opacity:1"><path d="M12.547 247.07v48.607H91.46v-48.606zm39.133 3.709c30.331.655 30.426.728 31.007 21.07-.134 18.694.055 18.926-31.007 19.518-32.449-1.64-32.125-1.461-31.912-19.518-.458-20.19-.514-20.21 31.912-21.07z" style="fill-opacity:1;fill-rule:evenodd;stroke-width:2.64583325;stroke-linecap:round;stroke-linejoin:round;stroke-miterlimit:4;stroke-dasharray:none;stroke-dashoffset:19.60000038;stroke-opacity:1;paint-order:normal" transform="translate(0 -52.204) scale(.29025)"/><path d="M29.131 223.804a4.86 9.435 0 0 1-6.282-1.932 4.86 9.435 0 0 1 .082-12.347 4.86 9.435 0 0 1 6.306-1.617l-2.672 7.883zm45.001-17.545a4.86 9.435 0 0 1 5.51 3.61 4.86 9.435 0 0 1-.217 11.281 4.86 9.435 0 0 1-5.634 2.802l1.85-8.725zm-39.264 1.849h14.296v9.721H34.868zm19.755-.203h14.296v9.721H54.623z" style="fill:none;fill-opacity:1;fill-rule:evenodd;stroke-width:.91157187;stroke-linecap:round;stroke-linejoin:round;stroke-miterlimit:4;stroke-dasharray:none;stroke-dashoffset:19.60000038;stroke-opacity:1;paint-order:normal" transform="translate(0 -52.204) scale(.29025)"/><path d="m49.164 208.108-14.296 9.72zm19.756-.203-14.297 9.722zm-34.297 5.551-5.661-5.661z" style="fill:none;stroke-width:.5291667;stroke-linecap:butt;stroke-linejoin:round;stroke-miterlimit:4;stroke-dasharray:none;stroke-opacity:1" transform="translate(0 -52.204) scale(.29025)"/><path d="m68.184 214.669 5.66-5.66z" style="fill:none;stroke-width:.52916676;stroke-linecap:butt;stroke-linejoin:round;stroke-miterlimit:4;stroke-dasharray:none;stroke-opacity:1" transform="translate(0 -52.204) scale(.29025)"/><path d="m49.13 210.473 5.433.143z" style="fill:none;stroke-width:.5291667;stroke-linecap:butt;stroke-linejoin:round;stroke-miterlimit:4;stroke-dasharray:none;stroke-opacity:1" transform="translate(0 -52.204) scale(.29025)"/><path d="m47.719 231.495 8.399-2.575z" style="stroke-width:.43755639;stroke-linecap:butt;stroke-linejoin:round;stroke-miterlimit:4;stroke-dasharray:none;stroke-opacity:1" transform="translate(0 -52.204) scale(.29025)"/><path d="M28.962 207.795c4.123-7.409 3.724-16.495 22.037-17.791 16.427 1.026 21.51 7.724 22.935 16.252-3.938-1.778-5.015-3.23-10.805-6.346L51 197.484l-11.524 3.033zm-2.397 7.995 15.681 17.097c8.856 2.503 8.856 2.503 16.75.577l16.645-18.237c-8.205 18.323-9.21 20.556-24.728 24.07-15.97-4.607-16-6.748-24.348-23.506z" style="stroke-width:.5291667;stroke-linecap:butt;stroke-linejoin:round;stroke-miterlimit:4;stroke-dasharray:none;stroke-opacity:1" transform="translate(0 -52.204) scale(.29025)"/><path d="M22.801 221.528c-9.827-.1-15.068 28.85-22.14 46.205l12.13 16.942 17.47 6.695 21.226-.004 20.908-.44 21.062-6.444 9.24-14.439c-7.064-18.533-9.9-50.726-22.91-50.055-1.178 4.601-3.574 4.333-5.996 3.964-.739.72.931-5.403.245-4.75-18.16 17.264-6.102 19.09-22.934 16.187-6.842 2.363-7.473 1.605-8.924.11-1.79-1.847-4.136-5.565-12.617-14.864-.71-.779.312 3.785-.43 3.169-2.11 1.432-4.22 2.686-6.33-2.276z" style="fill:none;stroke-width:.91157186;stroke-linecap:butt;stroke-linejoin:round;stroke-miterlimit:4;stroke-dasharray:none;stroke-opacity:1" transform="translate(0 -52.204) scale(.29025)"/><path d="m24.407 245.947 2.042-4.22-.204 6.67z" style="fill:none;stroke-width:.5291667;stroke-linecap:butt;stroke-linejoin:round;stroke-miterlimit:4;stroke-dasharray:none;stroke-opacity:1" transform="translate(0 -52.204) scale(.29025)"/><path d="m77.658 246.177-2.042-4.22.205 6.67z" style="fill:none;stroke-width:.52916676;stroke-linecap:butt;stroke-linejoin:round;stroke-miterlimit:4;stroke-dasharray:none;stroke-opacity:1" transform="translate(0 -52.204) scale(.29025)"/><path d="m52.178 219.946-1.497 4.9m-.001.001 2.107.387" style="fill:none;stroke-width:.79374999;stroke-linecap:round;stroke-linejoin:round;stroke-miterlimit:4;stroke-dasharray:none;stroke-opacity:1" transform="translate(0 -52.204) scale(.29025)"/><text transform="matrix(.28123 -.09991 .0945 .26598 0 -52.204)" y="199.451" x="-60.615" style="font-style:normal;font-weight:400;font-size:26.07628441px;line-height:1.25;font-family:sans-serif;letter-spacing:0;word-spacing:0;fill:#000;fill-opacity:1;stroke-width:.65190709;stroke-opacity:1" xml:space="preserve"><tspan style="font-style:normal;font-variant:normal;font-weight:400;font-stretch:normal;font-size:26.07628441px;font-family:'FiraCode Nerd Font Mono';-inkscape-font-specification:'FiraCode Nerd Font Mono, Normal';font-variant-ligatures:normal;font-variant-caps:normal;font-variant-numeric:normal;font-feature-settings:normal;text-align:start;writing-mode:lr-tb;text-anchor:start;stroke-width:.65190709;stroke-opacity:1" y="199.451" x="-60.615">?</tspan></text><text transform="matrix(.25157 .16059 -.15188 .23792 0 -52.204)" y="125.014" x="168.969" style="font-style:normal;font-weight:400;font-size:29.66188622px;line-height:1.25;font-family:sans-serif;letter-spacing:0;word-spacing:0;fill:#000;fill-opacity:1;stroke-width:.74154717;stroke-opacity:1" xml:space="preserve"><tspan style="font-style:normal;font-variant:normal;font-weight:400;font-stretch:normal;font-size:29.66188622px;font-family:'FiraCode Nerd Font Mono';-inkscape-font-specification:'FiraCode Nerd Font Mono, Normal';font-variant-ligatures:normal;font-variant-caps:normal;font-variant-numeric:normal;font-feature-settings:normal;text-align:start;writing-mode:lr-tb;text-anchor:start;stroke-width:.74154717;stroke-opacity:1" y="125.014" x="168.969">!</tspan></text></g></svg>