<?xml version="1.0" encoding="UTF-8" standalone="no"?>
<!-- Created with Inkscape (http://www.inkscape.org/) -->

<svg
   xmlns:dc="http://purl.org/dc/elements/1.1/"
   xmlns:cc="http://creativecommons.org/ns#"
   xmlns:rdf="http://www.w3.org/1999/02/22-rdf-syntax-ns#"
   xmlns:svg="http://www.w3.org/2000/svg"
   xmlns="http://www.w3.org/2000/svg"
   xmlns:sodipodi="http://sodipodi.sourceforge.net/DTD/sodipodi-0.dtd"
   xmlns:inkscape="http://www.inkscape.org/namespaces/inkscape"
   version="1.1"
   id="egg-hatcher"
   width="800"
   height="541.20001"
   viewBox="0 0 800 541.20001"
   sodipodi:docname="egg-hatching.svg"
   inkscape:version="0.92.5 (2060ec1f9f, 2020-04-08)">
  <metadata
     id="metadata891">
    <rdf:RDF>
      <cc:Work
         rdf:about="">
        <dc:format>image/svg+xml</dc:format>
        <dc:type
           rdf:resource="http://purl.org/dc/dcmitype/StillImage" />
        <dc:title></dc:title>
      </cc:Work>
    </rdf:RDF>
  </metadata>
  <defs
     id="defs889" />
  <sodipodi:namedview
     pagecolor="#ffffff"
     bordercolor="#666666"
     borderopacity="1"
     objecttolerance="10"
     gridtolerance="10"
     guidetolerance="10"
     inkscape:pageopacity="0"
     inkscape:pageshadow="2"
     inkscape:window-width="1920"
     inkscape:window-height="1011"
     id="namedview887"
     showgrid="false"
     inkscape:zoom="1.2716607"
     inkscape:cx="458.72722"
     inkscape:cy="272.01379"
     inkscape:window-x="0"
     inkscape:window-y="33"
     inkscape:window-maximized="1"
     inkscape:current-layer="shell" />
  <g
     id="shell">
    <path
       style="fill:#ffaa01;stroke:#07aa01;stroke-width:1.10156202;stroke-linecap:round;stroke-linejoin:miter;stroke-miterlimit:4;stroke-dasharray:none;stroke-opacity:1"
       d="m 274.27256,357.1779 12.72716,37.4328 37.43282,-35.1868 11.22985,27.7002 15.72178,-21.711 12.72716,25.4544 17.21909,-20.9625 14.97313,23.9571 20.96238,-15.7218 14.97314,20.2137 20.96238,-24.7056 16.47043,20.9623 11.97849,-21.711 11.22986,24.7056 8.98387,-20.9623 C 621.93139,635.7402 145.05952,556.1066 274.27256,357.1779 Z"
       id="shell-bottom"
       inkscape:connector-curvature="0"
       sodipodi:nodetypes="cccccccccccccccc" />
    <path
       style="fill:#ffaa01;stroke:#07aa01;stroke-width:1.10156202;stroke-linecap:square;stroke-linejoin:miter;stroke-miterlimit:4;stroke-dasharray:none;stroke-opacity:1"
       d="m 274.27256,357.1779 12.72716,37.4328 37.43282,-35.1868 -0.37433,-24.7058 -20.58804,8.6096 11.97849,-29.9462 -15.72178,-2.9946 z"
       id="path918"
       inkscape:connector-curvature="0" />
    <path
       style="fill:#ffaa01;stroke:#07aa01;stroke-width:1.10156202;stroke-linecap:square;stroke-linejoin:miter;stroke-miterlimit:4;stroke-dasharray:none;stroke-opacity:1"
       d="m 324.43254,359.4239 11.22985,27.7002 15.72178,-21.711 15.34745,-10.4811 -10.85552,-26.2031 -14.97311,3.7433 -9.73255,-7.8609 -7.11223,10.1068 z"
       id="path920"
       inkscape:connector-curvature="0" />
    <path
       style="fill:#ffaa01;stroke:#07aa01;stroke-width:1.10156202;stroke-linecap:square;stroke-linejoin:miter;stroke-miterlimit:4;stroke-dasharray:none;stroke-opacity:1"
       d="m 315.44866,313.3815 -11.97849,29.9462 20.58804,-8.6096 7.11223,-10.1068 9.73255,7.8609 14.97311,-3.7433 16.47045,-9.7324 -13.47581,-17.9678 5.98924,-14.5989 -18.7164,-5.6149 -27.32597,4.1176 c -7.03142,7.817 -13.02636,16.6704 -19.09073,25.4544 z"
       id="path922"
       inkscape:connector-curvature="0"
       sodipodi:nodetypes="ccccccccccccc" />
    <path
       style="fill:#ffaa01;fill-opacity:1;stroke:#07aa01;stroke-width:1.10156202;stroke-linecap:square;stroke-linejoin:miter;stroke-miterlimit:4;stroke-dasharray:none;stroke-opacity:1"
       d="m 318.81761,284.9325 c 15.04274,-18.0067 27.10795,-26.3365 38.18149,-31.4436 l 11.97849,13.4759 15.72178,5.2405 6.73793,29.9463 -32.56656,-1.1229 5.98924,-14.5989 -18.7164,-5.6149 z"
       id="path924"
       inkscape:connector-curvature="0"
       sodipodi:nodetypes="ccccccccc" />
    <path
       style="fill:#ffaa01;fill-opacity:1;stroke:#07aa01;stroke-width:1.10156202;stroke-linecap:square;stroke-linejoin:miter;stroke-miterlimit:4;stroke-dasharray:none;stroke-opacity:1"
       d="m 356.9991,253.4889 67.00474,10.4813 4.11761,19.8394 -18.34209,2.9946 -25.07999,-14.5989 -15.72178,-5.2405 z"
       id="path926"
       inkscape:connector-curvature="0" />
    <path
       style="fill:#ffaa01;fill-opacity:1;stroke:#07aa01;stroke-width:1.10156202;stroke-linecap:square;stroke-linejoin:miter;stroke-miterlimit:4;stroke-dasharray:none;stroke-opacity:1"
       d="m 384.69937,272.2053 25.07999,14.5989 -1.87164,8.9838 -16.47042,6.3636 z"
       id="path928"
       inkscape:connector-curvature="0" />
    <path
       style="fill:#ffaa01;stroke:#07aa01;stroke-width:1.10156202;stroke-linecap:square;stroke-linejoin:miter;stroke-miterlimit:4;stroke-dasharray:none;stroke-opacity:1"
       d="m 358.87074,301.0287 32.56656,1.1229 16.47042,-6.3636 1.87164,-8.9838 18.34209,-2.9946 14.59881,15.7217 0.74863,16.0962 -12.72715,10.8555 -28.07462,2.6203 -30.32057,-10.1068 z"
       id="path930"
       inkscape:connector-curvature="0" />
    <path
       style="fill:#ffaa01;fill-opacity:1;stroke:#07aa01;stroke-width:1.10156202;stroke-linecap:butt;stroke-linejoin:miter;stroke-miterlimit:4;stroke-dasharray:none;stroke-opacity:1"
       d="M 424.00384,263.9702 356.9991,253.4889 c 30.34733,-12.531 48.26275,-0.1983 67.00474,10.4813 z"
       id="path932"
       inkscape:connector-curvature="0"
       sodipodi:nodetypes="ccc" />
    <path
       style="fill:#ffaa01;stroke:#07aa01;stroke-width:1.10156202;stroke-linecap:square;stroke-linejoin:miter;stroke-miterlimit:4;stroke-dasharray:none;stroke-opacity:1"
       d="m 424.00384,263.9702 c 18.93807,16.3042 34.31939,36.8766 48.28833,59.1438 l -28.82328,-7.4865 -0.74863,-16.0962 -14.59881,-15.7217 z"
       id="path938"
       inkscape:connector-curvature="0"
       sodipodi:nodetypes="cccccc" />
    <path
       style="fill:#ffaa01;stroke:#07aa01;stroke-width:1.10156202;stroke-linecap:square;stroke-linejoin:miter;stroke-miterlimit:4;stroke-dasharray:none;stroke-opacity:1"
       d="m 351.38417,365.4131 12.72716,25.4544 17.21909,-20.9625 -14.5988,-14.973 z"
       id="path940"
       inkscape:connector-curvature="0" />
    <path
       style="fill:#ffaa01;stroke:#07aa01;stroke-width:1.10156202;stroke-linecap:square;stroke-linejoin:miter;stroke-miterlimit:4;stroke-dasharray:none;stroke-opacity:1"
       d="m 396.30355,393.8621 -14.97313,-23.9571 6.73791,-20.588 14.59879,-20.2137 14.59881,49.037 z"
       id="path942"
       inkscape:connector-curvature="0" />
    <path
       style="fill:#ffaa01;stroke:#07aa01;stroke-width:1.10156202;stroke-linecap:square;stroke-linejoin:miter;stroke-miterlimit:4;stroke-dasharray:none;stroke-opacity:1"
       d="m 372.34655,318.9965 -16.47045,9.7324 10.85552,26.2031 14.5988,14.973 6.73791,-20.588 14.59879,-20.2137 z"
       id="path944"
       inkscape:connector-curvature="0" />
    <path
       style="fill:#ffaa01;stroke:#07aa01;stroke-width:1.10156202;stroke-linecap:square;stroke-linejoin:miter;stroke-miterlimit:4;stroke-dasharray:none;stroke-opacity:1"
       d="m 417.26593,378.1403 14.97314,20.2137 20.96238,-24.7056 -18.34209,-17.5935 -4.11762,-29.5719 -28.07462,2.6203 z"
       id="path946"
       inkscape:connector-curvature="0" />
    <path
       style="fill:#ffaa01;stroke:#07aa01;stroke-width:1.10156202;stroke-linecap:square;stroke-linejoin:miter;stroke-miterlimit:4;stroke-dasharray:none;stroke-opacity:1"
       d="m 430.74174,326.483 12.72715,-10.8555 28.82328,7.4865 1.4973,32.1922 7.8609,17.5935 -11.97849,21.711 -16.47043,-20.9623 -18.34209,-17.5935 z"
       id="path948"
       inkscape:connector-curvature="0" />
    <path
       style="fill:#ffaa01;stroke:#07aa01;stroke-width:1.10156202;stroke-linecap:square;stroke-linejoin:miter;stroke-miterlimit:4;stroke-dasharray:none;stroke-opacity:1"
       d="m 472.29217,323.114 c 11.21181,17.1658 20.28584,35.4004 29.57193,53.529 l -8.98387,20.9623 -11.22986,-24.7056 -7.8609,-17.5935 z"
       id="path950"
       inkscape:connector-curvature="0"
       sodipodi:nodetypes="cccccc" />
    <path
       style="opacity:0.95999995;fill:none;stroke:#07aa01;stroke-width:0.68413919px;stroke-linecap:butt;stroke-linejoin:miter;stroke-opacity:1"
       d="M 288.45682,353.68416 C 166.60681,275.39934 42.16304,362.61498 40.21605,534.73294"
       inkscape:connector-curvature="0"
       id="path867"
       sodipodi:nodetypes="cc" />
    <path
       style="opacity:0.95999995;fill:none;stroke:#07aa01;stroke-width:0.91964513px;stroke-linecap:butt;stroke-linejoin:miter;stroke-opacity:1"
       d="M 356.70626,293.09304 C 225.15593,63.762111 91.93464,310.65901 92.12383,539.10952"
       inkscape:connector-curvature="0"
       id="path867-9"
       sodipodi:nodetypes="cc" />
    <path
       style="opacity:0.95999995;fill:none;stroke:#07aa01;stroke-width:1.23755383px;stroke-linecap:butt;stroke-linejoin:miter;stroke-opacity:1"
       d="M 396.30993,265.08275 C 283.42694,-181.0185 75.65446,173.87786 78.89179,533.06744"
       inkscape:connector-curvature="0"
       id="path867-7"
       sodipodi:nodetypes="cc" />
    <path
       style="opacity:0.95999995;fill:none;stroke:#07aa01;stroke-width:1.23142743px;stroke-linecap:butt;stroke-linejoin:miter;stroke-opacity:1"
       d="M 387.66731,250.75796 C 327.86821,-285.09655 236.9276,191.15261 224.36939,530.89865"
       inkscape:connector-curvature="0"
       id="path867-2"
       sodipodi:nodetypes="cc" />
    <path
       style="opacity:0.95999995;fill:none;stroke:#07aa01;stroke-width:0.61949503px;stroke-linecap:butt;stroke-linejoin:miter;stroke-opacity:1"
       d="m 341.24106,354.39089 c -97.07577,-80.15987 -186.127,30.74461 -189.69349,182.0434"
       inkscape:connector-curvature="0"
       id="path867-72"
       sodipodi:nodetypes="cc" />
    <path
       style="opacity:0.95999995;fill:none;stroke:#07aa01;stroke-width:0.56217462px;stroke-linecap:butt;stroke-linejoin:miter;stroke-opacity:1"
       d="M 366.81258,368.1815 C 285.98507,272.5558 200.33932,378.75434 191.03386,535.30437"
       inkscape:connector-curvature="0"
       id="path867-26"
       sodipodi:nodetypes="cc" />
    <path
       style="opacity:0.95999995;fill:none;stroke:#07aa01;stroke-width:0.9885307px;stroke-linecap:butt;stroke-linejoin:miter;stroke-opacity:1"
       d="M 382.87506,330.89578 C 326.98858,-33.155027 61.95725,317.08747 62.99683,531.97366"
       inkscape:connector-curvature="0"
       id="path867-1"
       sodipodi:nodetypes="cc" />
    <path
       style="opacity:0.95999995;fill:none;stroke:#07aa01;stroke-width:1.13320005px;stroke-linecap:butt;stroke-linejoin:miter;stroke-opacity:1"
       d="M 365.29009,276.17057 C 284.08695,-318.79141 107.80471,206.13411 96.23997,523.41599"
       inkscape:connector-curvature="0"
       id="path867-0"
       sodipodi:nodetypes="cc" />
    <path
       style="opacity:0.95999995;fill:none;stroke:#07aa01;stroke-width:1.38983524px;stroke-linecap:butt;stroke-linejoin:miter;stroke-opacity:1"
       d="M 397.19739,288.37695 C 485.24543,-321.61397 589.4937,202.3462 616.00025,552.29614"
       inkscape:connector-curvature="0"
       id="path867-6"
       sodipodi:nodetypes="cc" />
    <path
       style="opacity:0.95999995;fill:none;stroke:#07aa01;stroke-width:1.20148778px;stroke-linecap:butt;stroke-linejoin:miter;stroke-opacity:1"
       d="M 439.13068,283.02323 C 617.92369,-190.09474 757.31969,202.55848 791.61177,541.44707"
       inkscape:connector-curvature="0"
       id="path867-6-1"
       sodipodi:nodetypes="cc" />
    <path
       style="opacity:0.95999995;fill:none;stroke:#07aa01;stroke-width:1.30957782px;stroke-linecap:butt;stroke-linejoin:miter;stroke-opacity:1"
       d="m 394.22769,310.56933 c 176.8414,-544.64305 334.36139,-194.1882 364.08973,220.83083"
       inkscape:connector-curvature="0"
       id="path867-6-1-5"
       sodipodi:nodetypes="cc" />
    <path
       style="opacity:0.95999995;fill:none;stroke:#07aa01;stroke-width:0.77888113px;stroke-linecap:butt;stroke-linejoin:miter;stroke-opacity:1"
       d="m 400.7204,373.62519 c 54.65102,-90.0202 170.84586,-65.94246 197.90632,159.83108"
       inkscape:connector-curvature="0"
       id="path867-6-1-5-9"
       sodipodi:nodetypes="cc" />
    <path
       style="opacity:0.95999995;fill:none;stroke:#07aa01;stroke-width:0.69639671px;stroke-linecap:butt;stroke-linejoin:miter;stroke-opacity:1"
       d="M 419.00951,371.32419 C 565.23986,216.88636 683.56489,351.80368 705.46501,530.35245"
       inkscape:connector-curvature="0"
       id="path867-6-1-5-9-4"
       sodipodi:nodetypes="cc" />
    <path
       style="opacity:0.95999995;fill:none;stroke:#07aa01;stroke-width:0.77888113px;stroke-linecap:butt;stroke-linejoin:miter;stroke-opacity:1"
       d="M 487.46539,373.1311 C 621.52408,214.82728 776.4964,397.59408 775.80464,534.53492"
       inkscape:connector-curvature="0"
       id="path867-6-1-5-9-9"
       sodipodi:nodetypes="cc" />
    <path
       style="opacity:0.95999995;fill:none;stroke:#07aa01;stroke-width:0.9316929px;stroke-linecap:butt;stroke-linejoin:miter;stroke-opacity:1"
       d="M 443.00847,329.21102 C 586.04006,145.41449 709.41536,274.97543 735.57732,528.29071"
       inkscape:connector-curvature="0"
       id="path867-6-1-5-9-0"
       sodipodi:nodetypes="cc" />
  </g>
  <g
     id="chick">
    <path
       sodipodi:nodetypes="ccccc"
       inkscape:connector-curvature="0"
       id="path952"
       d="m 3323.3985,2920.8023 c 26.0525,21.5217 47.5742,20.389 64.565,-3.3981 -21.6912,-207.9399 -19.3382,-405.4744 -3.3982,-676.2335 -31.7831,-8.063 -57.3038,-3.6011 -84.9539,-3.3981 51.9809,165.0986 -11.8143,472.6484 23.7871,683.0297 z"
       style="fill:#12b296;stroke:#33135c;stroke-width:5;stroke-linecap:round;stroke-linejoin:miter;stroke-miterlimit:4;stroke-dasharray:none;stroke-opacity:1" />
    <path
       sodipodi:nodetypes="cc"
       inkscape:connector-curvature="0"
       id="path954"
       d="m 3350.5838,2395.7869 c -2.4584,33.2223 -14.5848,56.7766 -44.1761,62.866"
       style="fill:none;stroke:#33135c;stroke-width:5;stroke-linecap:butt;stroke-linejoin:miter;stroke-miterlimit:4;stroke-dasharray:none;stroke-opacity:1" />
    <path
       sodipodi:nodetypes="cc"
       inkscape:connector-curvature="0"
       id="path956"
       d="m 3342.0884,2412.7777 c 10.1787,9.2958 29.2265,6.3966 5.0972,62.8659"
       style="fill:none;stroke:#33135c;stroke-width:5;stroke-linecap:butt;stroke-linejoin:miter;stroke-miterlimit:4;stroke-dasharray:none;stroke-opacity:1" />
    <path
       inkscape:connector-curvature="0"
       id="path958"
       d="m 3372.6718,2353.31 32.2825,30.5834"
       style="fill:none;stroke:#33135c;stroke-width:5;stroke-linecap:butt;stroke-linejoin:miter;stroke-miterlimit:4;stroke-dasharray:none;stroke-opacity:1" />
    <path
       sodipodi:nodetypes="cc"
       inkscape:connector-curvature="0"
       id="path960"
       d="m 3359.0792,2502.8289 c -1.0244,24.9198 -28.8058,49.8397 -61.1669,74.7595"
       style="fill:none;stroke:#33135c;stroke-width:5;stroke-linecap:butt;stroke-linejoin:miter;stroke-miterlimit:4;stroke-dasharray:none;stroke-opacity:1" />
    <path
       sodipodi:nodetypes="cc"
       inkscape:connector-curvature="0"
       id="path962"
       d="m 3348.8847,2567.3939 c -6.2501,49.7333 13.7051,53.6073 23.7871,74.7595"
       style="fill:none;stroke:#33135c;stroke-width:5;stroke-linecap:butt;stroke-linejoin:miter;stroke-miterlimit:4;stroke-dasharray:none;stroke-opacity:1" />
    <path
       sodipodi:nodetypes="cc"
       inkscape:connector-curvature="0"
       id="path964"
       d="m 3335.2921,2643.8525 c -6.0385,26.0606 -18.7868,31.9918 -28.8844,45.8751"
       style="fill:none;stroke:#33135c;stroke-width:5;stroke-linecap:butt;stroke-linejoin:miter;stroke-miterlimit:4;stroke-dasharray:none;stroke-opacity:1" />
    <path
       sodipodi:nodetypes="cc"
       inkscape:connector-curvature="0"
       id="path966"
       d="m 3348.8847,2689.7276 c -6.7887,39.6376 26.5986,39.099 44.176,54.3705"
       style="fill:none;stroke:#33135c;stroke-width:5;stroke-linecap:butt;stroke-linejoin:miter;stroke-miterlimit:4;stroke-dasharray:none;stroke-opacity:1" />
    <path
       sodipodi:nodetypes="ccc"
       inkscape:connector-curvature="0"
       id="path968"
       d="m 3342.0884,2863.0337 v -78.1577 c 1.6533,15.6787 -0.3408,31.2712 -44.1761,45.8752"
       style="fill:none;stroke:#33135c;stroke-width:5;stroke-linecap:butt;stroke-linejoin:miter;stroke-miterlimit:4;stroke-dasharray:none;stroke-opacity:1" />
    <path
       sodipodi:nodetypes="cc"
       inkscape:connector-curvature="0"
       id="path970"
       d="m 3406.6534,2864.7327 c -52.1474,-8.6701 -58.2023,-32.7043 -71.3613,-54.3705"
       style="fill:none;stroke:#33135c;stroke-width:5;stroke-linecap:butt;stroke-linejoin:miter;stroke-miterlimit:4;stroke-dasharray:none;stroke-opacity:1" />
    <path
       sodipodi:nodetypes="cccccccc"
       inkscape:connector-curvature="0"
       id="path1021"
       d="m 3173.8027,1444.8318 c -154.7474,-408.5831 -483.293,-88.6374 -485.9787,22.0185 -0.7097,57.6399 12.2532,84.9487 53.4733,113.2377 67.7591,52.8219 97.6941,115.6561 23.5912,206.0298 -90.269,131.1324 -94.862,430.1946 31.455,459.242 67.4745,-3.121 102.3901,-38.5257 196.5933,-94.3647 -61.0745,-67.0143 35.2186,-111.275 116.3648,-142.2037 -118.7999,-283.1054 -63.137,-447.9309 64.5011,-563.9596 z"
       style="fill:#33135c;stroke:#f5d300;stroke-width:5;stroke-linecap:round;stroke-linejoin:miter;stroke-miterlimit:4;stroke-dasharray:none;stroke-opacity:1" />
    <path
       sodipodi:nodetypes="cssc"
       inkscape:connector-curvature="0"
       id="path1023"
       d="m 2986.6458,1521.8964 c -112.4119,-47.2798 -116.2364,82.7884 -44.36,161.6335 33.441,36.6831 23.5215,92.1365 -18.6169,139.2863 -85.7704,95.9707 -45.2069,133.0325 40.9585,79.6849"
       style="fill:none;stroke:#f5d300;stroke-width:5;stroke-linecap:round;stroke-linejoin:miter;stroke-miterlimit:4;stroke-dasharray:none;stroke-opacity:1" />
    <path
       sodipodi:nodetypes="cccccccc"
       inkscape:connector-curvature="0"
       id="path1049"
       d="m 3562.2711,1462.132 c 21.3222,-332.3278 451.8987,-382.5465 474.9694,-78.6373 3.6283,75.1758 -34.0274,107.0299 -78.6373,160.4202 -109.3348,118.8189 -34.258,211.5494 18.873,316.122 79.2294,182.7452 86.934,333.095 29.8822,364.8772 -186.519,28.1598 -237.6287,8.4981 -291.3254,-63.965 74.8163,-99.1777 -73.6699,-138.3828 -145.3822,-154.5605 76.9691,-204.2081 116.5291,-412.332 -8.3797,-544.2566 z"
       style="fill:#33135c;stroke:#f5d300;stroke-width:5;stroke-linecap:round;stroke-linejoin:miter;stroke-miterlimit:4;stroke-dasharray:none;stroke-opacity:1" />
    <path
       sodipodi:nodetypes="csssc"
       inkscape:connector-curvature="0"
       id="path1023-0"
       d="m 3703.6339,1552.4449 c 38.8344,-58.6983 93.9688,-65.076 104.9969,-36.8439 29.7726,76.2183 -53.5729,149.0132 -38.6184,198.4774 28.0715,92.8511 82.9014,139.8317 68.9447,200.6234 -5.5999,24.3921 -58.5943,26.0857 -119.5958,-3.6707"
       style="fill:none;stroke:#f5d300;stroke-width:5;stroke-linecap:round;stroke-linejoin:miter;stroke-miterlimit:4;stroke-dasharray:none;stroke-opacity:1" />
    <path
       sodipodi:nodetypes="ccc"
       inkscape:connector-curvature="0"
       id="path984"
       d="m 3109.3016,2008.7914 c -346.9395,-785.8121 830.6007,-891.073 461.3492,-2.4028 -149.3403,-34.7413 -302.9479,-35.3443 -461.3492,2.4028 z"
       style="fill:#12b296;stroke:#12b296;stroke-width:5;stroke-linecap:round;stroke-linejoin:miter;stroke-miterlimit:4;stroke-dasharray:none;stroke-opacity:1" />
    <path
       sodipodi:nodetypes="cccccccccc"
       inkscape:connector-curvature="0"
       id="path986"
       d="m 3296.2132,1328.7653 c 3.7803,34.9199 14.4012,61.2889 27.1853,84.954 -0.2244,-45.0737 1.9374,-80.6025 8.4954,-98.5466 14.3916,25.1036 13.977,62.5457 15.2917,98.5466 l 11.8936,-84.954 c 13.1319,3.3671 -4.2401,79.6861 -8.4954,118.9355 16.8847,-27.0965 35.293,-78.5299 58.6182,-117.2364 -2.9042,27.3631 -7.6486,55.6462 -19.5394,87.5025 26.5303,-30.1318 38.9805,-66.3833 54.3705,-81.5557 -6.3442,57.6485 -23.8163,78.6577 -40.7779,107.8915"
       style="fill:none;stroke:#33135c;stroke-width:5;stroke-linecap:round;stroke-linejoin:miter;stroke-miterlimit:4;stroke-dasharray:none;stroke-opacity:1" />
    <path
       sodipodi:nodetypes="cc"
       inkscape:connector-curvature="0"
       id="path1009"
       d="m 3192.6756,1589.5245 c -31.5559,-18.6229 -42.3532,-45.5492 -53.4734,-72.3463"
       style="fill:none;stroke:#33135c;stroke-width:5;stroke-linecap:round;stroke-linejoin:miter;stroke-miterlimit:4;stroke-dasharray:none;stroke-opacity:1" />
    <path
       sodipodi:nodetypes="cc"
       inkscape:connector-curvature="0"
       id="path1011"
       d="m 3224.1305,1576.9425 c 4.4427,-30.1577 0.5867,-68.6142 -3.1454,-106.9467"
       style="fill:none;stroke:#33135c;stroke-width:5;stroke-linecap:round;stroke-linejoin:miter;stroke-miterlimit:4;stroke-dasharray:none;stroke-opacity:1" />
    <path
       sodipodi:nodetypes="cc"
       inkscape:connector-curvature="0"
       id="path1013"
       d="m 3260.3037,1594.2428 c 25.164,-35.3409 50.3279,-60.6687 75.4919,-88.0739"
       style="fill:none;stroke:#33135c;stroke-width:5;stroke-linecap:round;stroke-linejoin:miter;stroke-miterlimit:4;stroke-dasharray:none;stroke-opacity:1" />
    <path
       sodipodi:nodetypes="cc"
       inkscape:connector-curvature="0"
       id="path1015"
       d="m 3398.7054,1518.7509 c -8.1109,40.102 6.8405,75.5916 18.873,111.665"
       style="fill:none;stroke:#33135c;stroke-width:5;stroke-linecap:round;stroke-linejoin:miter;stroke-miterlimit:4;stroke-dasharray:none;stroke-opacity:1" />
    <path
       sodipodi:nodetypes="cc"
       inkscape:connector-curvature="0"
       id="path1017"
       d="m 3464.7608,1591.0973 c -15.3355,-34.8846 8.7345,-63.2016 15.7274,-94.3648"
       style="fill:none;stroke:#33135c;stroke-width:5;stroke-linecap:round;stroke-linejoin:miter;stroke-miterlimit:4;stroke-dasharray:none;stroke-opacity:1" />
    <path
       sodipodi:nodetypes="cc"
       inkscape:connector-curvature="0"
       id="path1019"
       d="m 3505.6522,1592.67 c 23.4201,-40.7312 40.0621,-54.3503 59.7644,-80.2101"
       style="fill:none;stroke:#33135c;stroke-width:5;stroke-linecap:round;stroke-linejoin:miter;stroke-miterlimit:4;stroke-dasharray:none;stroke-opacity:1" />
    <path
       sodipodi:nodetypes="csscc"
       inkscape:connector-curvature="0"
       id="path988-2"
       d="m 3367.3921,1982.3345 c 29.9568,-174.9362 -5.9747,-258.1018 31.3294,-319.8333 76.0152,-125.7912 136.5716,-86.424 154.057,68.6399 7.1232,63.1696 -19.8559,131.4092 -26.9707,266.7161 -68.3703,-8.3855 -107.3034,-12.8899 -158.4157,-15.5227 z"
       style="fill:#e1ef7e;stroke:#33135c;stroke-width:5;stroke-linecap:round;stroke-linejoin:miter;stroke-miterlimit:4;stroke-dasharray:none;stroke-opacity:1" />
    <path
       inkscape:connector-curvature="0"
       id="path1007"
       d="m 3465.3029,1689.9178 -20.0177,293.5944"
       style="fill:#027a9f;stroke:#027a9f;stroke-width:5;stroke-linecap:round;stroke-linejoin:miter;stroke-miterlimit:4;stroke-dasharray:none;stroke-opacity:1" />
    <path
       sodipodi:nodetypes="csscc"
       inkscape:connector-curvature="0"
       id="path988"
       d="m 3159.9079,2006.0661 c -32.3208,-139.349 -66.5212,-268.0505 -33.4422,-332.1454 85.5342,-165.7339 181.1633,-95.5218 171.8506,102.0029 -2.9852,63.316 1.3714,76.9953 3.2468,212.3022 z"
       style="fill:#e1ef7e;stroke:#33135c;stroke-width:5;stroke-linecap:round;stroke-linejoin:miter;stroke-miterlimit:4;stroke-dasharray:none;stroke-opacity:1" />
    <ellipse
       ry="129.13"
       rx="379.74414"
       cy="2110.3416"
       cx="3353.1323"
       id="path974"
       style="fill:#f5d300;fill-opacity:1;fill-rule:evenodd;stroke:#f5d300;stroke-width:5;stroke-linecap:round;stroke-miterlimit:4;stroke-dasharray:none;stroke-opacity:1;paint-order:normal" />
    <path
       inkscape:connector-curvature="0"
       id="path1005"
       d="m 3198.399,1685.4694 17.7936,300.267"
       style="fill:#027a9f;stroke:#027a9f;stroke-width:5;stroke-linecap:round;stroke-linejoin:miter;stroke-miterlimit:4;stroke-dasharray:none;stroke-opacity:1" />
    <path
       sodipodi:nodetypes="cc"
       inkscape:connector-curvature="0"
       id="path978"
       d="m 3158.5878,2093.6518 c 127.5272,1.6952 273.9435,23.4601 333.0195,-47.5742"
       style="fill:none;stroke:#33135c;stroke-width:5;stroke-linecap:butt;stroke-linejoin:miter;stroke-miterlimit:4;stroke-dasharray:none;stroke-opacity:1" />
    <path
       inkscape:connector-curvature="0"
       id="path980"
       d="m 3240.9932,2095.05 -30.5834,56.0696 86.653,11.8935 11.8936,-66.2641"
       style="fill:#027a9f;stroke:#027a9f;stroke-width:5;stroke-linecap:round;stroke-linejoin:miter;stroke-miterlimit:4;stroke-dasharray:none;stroke-opacity:1" />
    <path
       sodipodi:nodetypes="cccc"
       inkscape:connector-curvature="0"
       id="path982"
       d="m 3370.9727,2097.5986 c -2.2654,22.1468 -4.5309,38.0612 -6.7963,56.0696 68.0821,3.688 73.7087,-9.6573 95.1484,-18.6899 l -22.088,-52.6714"
       style="fill:#027a9f;stroke:#027a9f;stroke-width:5;stroke-linecap:round;stroke-linejoin:miter;stroke-miterlimit:4;stroke-dasharray:none;stroke-opacity:1" />
  </g>
</svg>
