<?xml version="1.0" encoding="UTF-8" standalone="no"?>
<!-- Created with Inkscape (http://www.inkscape.org/) -->

<svg
   xmlns:dc="http://purl.org/dc/elements/1.1/"
   xmlns:cc="http://creativecommons.org/ns#"
   xmlns:rdf="http://www.w3.org/1999/02/22-rdf-syntax-ns#"
   xmlns:svg="http://www.w3.org/2000/svg"
   xmlns="http://www.w3.org/2000/svg"
   xmlns:sodipodi="http://sodipodi.sourceforge.net/DTD/sodipodi-0.dtd"
   xmlns:inkscape="http://www.inkscape.org/namespaces/inkscape"
   width="53mm"
   height="19.799999mm"
   viewBox="0 0 53 19.799999"
   version="1.1"
   id="svg8"
   inkscape:version="0.92.5 (2060ec1f9f, 2020-04-08)"
   sodipodi:docname="email-sig.svg">
  <defs
     id="defs2" />
  <sodipodi:namedview
     id="base"
     pagecolor="#ffffff"
     bordercolor="#666666"
     borderopacity="1.0"
     inkscape:pageopacity="0.0"
     inkscape:pageshadow="2"
     inkscape:zoom="1"
     inkscape:cx="213.84999"
     inkscape:cy="127.08465"
     inkscape:document-units="mm"
     inkscape:current-layer="layer1"
     showgrid="false"
     units="mm"
     inkscape:window-width="1920"
     inkscape:window-height="1011"
     inkscape:window-x="0"
     inkscape:window-y="33"
     inkscape:window-maximized="1" />
  <metadata
     id="metadata5">
    <rdf:RDF>
      <cc:Work
         rdf:about="">
        <dc:format>image/svg+xml</dc:format>
        <dc:type
           rdf:resource="http://purl.org/dc/dcmitype/StillImage" />
        <dc:title></dc:title>
      </cc:Work>
    </rdf:RDF>
  </metadata>
  <g
     inkscape:label="Layer 1"
     inkscape:groupmode="layer"
     id="layer1"
     transform="translate(0,-277.2)">
    <g
       id="g896"
       transform="matrix(0.45492306,0,0,0.45492306,-13.328873,179.15057)">
      <g
         id="text817"
         style="font-style:normal;font-weight:normal;font-size:10.58333302px;line-height:1.25;font-family:sans-serif;letter-spacing:0px;word-spacing:0px;fill:#fe53bb;fill-opacity:1;stroke:none;stroke-width:0.26458332;stroke-miterlimit:4;stroke-dasharray:none"
         aria-label="dmai.developer@gmail.com">
        <path
           inkscape:connector-curvature="0"
           id="path821"
           style="font-style:normal;font-variant:normal;font-weight:normal;font-stretch:normal;font-size:5.64444447px;font-family:'FiraCode Nerd Font Mono';-inkscape-font-specification:'FiraCode Nerd Font Mono, Normal';font-variant-ligatures:normal;font-variant-caps:normal;font-variant-numeric:normal;font-feature-settings:normal;text-align:start;writing-mode:lr-tb;text-anchor:start;fill:#fe53bb;stroke:none;stroke-width:0.26458332;stroke-miterlimit:4;stroke-dasharray:none"
           d="m 49.582564,236.19305 v 1.58334 c -0.202621,-0.23735 -0.466029,-0.35893 -0.816274,-0.35893 -0.752592,0 -1.195464,0.67444 -1.195464,1.59203 0,0.94363 0.364718,1.58623 1.160729,1.58623 0.335772,0 0.636809,-0.14473 0.865482,-0.46892 l 0.04631,0.40234 h 0.425504 v -4.2753 z m -0.688912,1.61518 c 0.280775,0 0.52392,0.14473 0.688912,0.39077 v 1.52255 c -0.164992,0.24894 -0.405242,0.48051 -0.749698,0.48051 -0.477607,0 -0.732331,-0.40235 -0.732331,-1.19257 0,-0.8047 0.28367,-1.20126 0.793117,-1.20126 z" />
        <path
           inkscape:connector-curvature="0"
           id="path823"
           style="font-style:normal;font-variant:normal;font-weight:normal;font-stretch:normal;font-size:5.64444447px;font-family:'FiraCode Nerd Font Mono';-inkscape-font-specification:'FiraCode Nerd Font Mono, Normal';font-variant-ligatures:normal;font-variant-caps:normal;font-variant-numeric:normal;font-feature-settings:normal;text-align:start;writing-mode:lr-tb;text-anchor:start;fill:#fe53bb;stroke:none;stroke-width:0.26458332;stroke-miterlimit:4;stroke-dasharray:none"
           d="m 53.241313,237.41746 c -0.312615,0 -0.506552,0.1621 -0.671544,0.40235 -0.09552,-0.31551 -0.321299,-0.40235 -0.552866,-0.40235 -0.303931,0 -0.497869,0.18236 -0.66286,0.41682 l -0.02895,-0.35314 h -0.382086 v 3.048 h 0.448661 v -2.36777 c 0.167886,-0.26051 0.344456,-0.36472 0.532604,-0.36472 0.219989,0 0.234462,0.15921 0.234462,0.54129 v 2.1912 h 0.45445 v -2.36777 c 0.167886,-0.26051 0.350245,-0.36472 0.532604,-0.36472 0.219989,0 0.234462,0.15921 0.234462,0.54129 v 2.1912 h 0.451555 v -2.26935 c 0,-0.70339 -0.301037,-0.84233 -0.590496,-0.84233 z" />
        <path
           inkscape:connector-curvature="0"
           id="path825"
           style="font-style:normal;font-variant:normal;font-weight:normal;font-stretch:normal;font-size:5.64444447px;font-family:'FiraCode Nerd Font Mono';-inkscape-font-specification:'FiraCode Nerd Font Mono, Normal';font-variant-ligatures:normal;font-variant-caps:normal;font-variant-numeric:normal;font-feature-settings:normal;text-align:start;writing-mode:lr-tb;text-anchor:start;fill:#fe53bb;stroke:none;stroke-width:0.26458332;stroke-miterlimit:4;stroke-dasharray:none"
           d="m 56.888485,239.86339 v -1.46177 c 0,-0.60207 -0.382086,-0.98416 -1.140468,-0.98416 -0.295248,0 -0.62523,0.0521 -0.995738,0.19105 l 0.127362,0.36761 c 0.31551,-0.11 0.590496,-0.15631 0.793117,-0.15631 0.45445,0 0.726541,0.16499 0.726541,0.60497 v 0.25472 h -0.448661 c -0.926267,0 -1.429926,0.34735 -1.429926,0.97548 0,0.56734 0.373402,0.94074 0.98416,0.94074 0.393664,0 0.73812,-0.14473 0.955214,-0.4284 0.08684,0.27209 0.295248,0.39366 0.558655,0.4284 l 0.118678,-0.34156 c -0.170781,-0.0521 -0.248934,-0.14473 -0.248934,-0.39077 z m -1.259146,0.36182 c -0.396558,0 -0.587601,-0.19683 -0.587601,-0.57602 0,-0.39077 0.24604,-0.6397 0.917584,-0.6397 h 0.439977 v 0.78443 c -0.182359,0.27209 -0.468923,0.43129 -0.76996,0.43129 z" />
        <path
           inkscape:connector-curvature="0"
           id="path827"
           style="font-style:normal;font-variant:normal;font-weight:normal;font-stretch:normal;font-size:5.64444447px;font-family:'FiraCode Nerd Font Mono';-inkscape-font-specification:'FiraCode Nerd Font Mono, Normal';font-variant-ligatures:normal;font-variant-caps:normal;font-variant-numeric:normal;font-feature-settings:normal;text-align:start;writing-mode:lr-tb;text-anchor:start;fill:#fe53bb;stroke:none;stroke-width:0.26458332;stroke-miterlimit:4;stroke-dasharray:none"
           d="m 59.334403,236.05411 c -0.205516,0 -0.350245,0.14763 -0.350245,0.33867 0,0.19683 0.144729,0.34735 0.350245,0.34735 0.217094,0 0.356034,-0.15052 0.356034,-0.34735 0,-0.19104 -0.13894,-0.33867 -0.356034,-0.33867 z m 0.387874,1.42703 h -1.398085 v 0.38498 h 0.911795 v 2.27804 h -0.940741 v 0.38498 h 2.286724 v -0.38498 h -0.859693 z" />
        <path
           inkscape:connector-curvature="0"
           id="path829"
           style="font-style:normal;font-variant:normal;font-weight:normal;font-stretch:normal;font-size:5.64444447px;font-family:'FiraCode Nerd Font Mono';-inkscape-font-specification:'FiraCode Nerd Font Mono, Normal';font-variant-ligatures:normal;font-variant-caps:normal;font-variant-numeric:normal;font-feature-settings:normal;text-align:start;writing-mode:lr-tb;text-anchor:start;fill:#fe53bb;stroke:none;stroke-width:0.26458332;stroke-miterlimit:4;stroke-dasharray:none"
           d="m 62.295556,240.08338 c 0,0.28656 0.219989,0.51234 0.506553,0.51234 0.292353,0 0.512342,-0.22578 0.512342,-0.51234 0,-0.28078 -0.219989,-0.50655 -0.512342,-0.50655 -0.286564,0 -0.506553,0.22577 -0.506553,0.50655 z" />
        <path
           inkscape:connector-curvature="0"
           id="path831"
           style="font-style:normal;font-variant:normal;font-weight:normal;font-stretch:normal;font-size:5.64444447px;font-family:'FiraCode Nerd Font Mono';-inkscape-font-specification:'FiraCode Nerd Font Mono, Normal';font-variant-ligatures:normal;font-variant-caps:normal;font-variant-numeric:normal;font-feature-settings:normal;text-align:start;writing-mode:lr-tb;text-anchor:start;fill:#fe53bb;stroke:none;stroke-width:0.26458332;stroke-miterlimit:4;stroke-dasharray:none"
           d="m 66.950043,236.19305 v 1.58334 c -0.202621,-0.23735 -0.466028,-0.35893 -0.816273,-0.35893 -0.752593,0 -1.195465,0.67444 -1.195465,1.59203 0,0.94363 0.364718,1.58623 1.16073,1.58623 0.335772,0 0.636809,-0.14473 0.865481,-0.46892 l 0.04631,0.40234 h 0.425504 v -4.2753 z m -0.688911,1.61518 c 0.280774,0 0.52392,0.14473 0.688911,0.39077 v 1.52255 c -0.164991,0.24894 -0.405242,0.48051 -0.749698,0.48051 -0.477607,0 -0.73233,-0.40235 -0.73233,-1.19257 0,-0.8047 0.283669,-1.20126 0.793117,-1.20126 z" />
        <path
           inkscape:connector-curvature="0"
           id="path833"
           style="font-style:normal;font-variant:normal;font-weight:normal;font-stretch:normal;font-size:5.64444447px;font-family:'FiraCode Nerd Font Mono';-inkscape-font-specification:'FiraCode Nerd Font Mono, Normal';font-variant-ligatures:normal;font-variant-caps:normal;font-variant-numeric:normal;font-feature-settings:normal;text-align:start;writing-mode:lr-tb;text-anchor:start;fill:#fe53bb;stroke:none;stroke-width:0.26458332;stroke-miterlimit:4;stroke-dasharray:none"
           d="m 68.982036,239.17737 h 2.049368 c 0.0058,-0.0666 0.01158,-0.16209 0.01158,-0.2663 0,-0.92627 -0.468923,-1.49361 -1.238883,-1.49361 -0.810484,0 -1.33151,0.66865 -1.33151,1.59203 0,0.94653 0.503658,1.58623 1.395191,1.58623 0.379191,0 0.764171,-0.13605 1.04784,-0.35893 l -0.228672,-0.3213 c -0.269197,0.18236 -0.503658,0.27499 -0.813379,0.27499 -0.471818,0 -0.865481,-0.30683 -0.891533,-1.01311 z m 0.827852,-1.36045 c 0.457345,0 0.752593,0.33287 0.764171,0.98416 h -1.589128 c 0.04052,-0.67155 0.370507,-0.98416 0.824957,-0.98416 z" />
        <path
           inkscape:connector-curvature="0"
           id="path835"
           style="font-style:normal;font-variant:normal;font-weight:normal;font-stretch:normal;font-size:5.64444447px;font-family:'FiraCode Nerd Font Mono';-inkscape-font-specification:'FiraCode Nerd Font Mono, Normal';font-variant-ligatures:normal;font-variant-caps:normal;font-variant-numeric:normal;font-feature-settings:normal;text-align:start;writing-mode:lr-tb;text-anchor:start;fill:#fe53bb;stroke:none;stroke-width:0.26458332;stroke-miterlimit:4;stroke-dasharray:none"
           d="m 74.614894,237.48114 h -0.503658 l -0.871271,2.60513 -0.882849,-2.60513 h -0.515237 l 1.099943,3.048 h 0.564445 z" />
        <path
           inkscape:connector-curvature="0"
           id="path837"
           style="font-style:normal;font-variant:normal;font-weight:normal;font-stretch:normal;font-size:5.64444447px;font-family:'FiraCode Nerd Font Mono';-inkscape-font-specification:'FiraCode Nerd Font Mono, Normal';font-variant-ligatures:normal;font-variant-caps:normal;font-variant-numeric:normal;font-feature-settings:normal;text-align:start;writing-mode:lr-tb;text-anchor:start;fill:#fe53bb;stroke:none;stroke-width:0.26458332;stroke-miterlimit:4;stroke-dasharray:none"
           d="m 75.929027,239.17737 h 2.049368 c 0.0058,-0.0666 0.01158,-0.16209 0.01158,-0.2663 0,-0.92627 -0.468923,-1.49361 -1.238883,-1.49361 -0.810484,0 -1.33151,0.66865 -1.33151,1.59203 0,0.94653 0.503658,1.58623 1.395191,1.58623 0.379191,0 0.764171,-0.13605 1.04784,-0.35893 l -0.228672,-0.3213 c -0.269197,0.18236 -0.503658,0.27499 -0.813379,0.27499 -0.471818,0 -0.865481,-0.30683 -0.891533,-1.01311 z m 0.827852,-1.36045 c 0.457345,0 0.752593,0.33287 0.764171,0.98416 h -1.589128 c 0.04052,-0.67155 0.370507,-0.98416 0.824957,-0.98416 z" />
        <path
           inkscape:connector-curvature="0"
           id="path839"
           style="font-style:normal;font-variant:normal;font-weight:normal;font-stretch:normal;font-size:5.64444447px;font-family:'FiraCode Nerd Font Mono';-inkscape-font-specification:'FiraCode Nerd Font Mono, Normal';font-variant-ligatures:normal;font-variant-caps:normal;font-variant-numeric:normal;font-feature-settings:normal;text-align:start;writing-mode:lr-tb;text-anchor:start;fill:#fe53bb;stroke:none;stroke-width:0.26458332;stroke-miterlimit:4;stroke-dasharray:none"
           d="m 80.207218,236.25384 h -1.421242 v 0.38498 h 0.934951 v 3.11168 c 0,0.52971 0.367613,0.84522 0.908901,0.84522 0.306826,0 0.558655,-0.0753 0.723646,-0.15631 l -0.130256,-0.35603 c -0.164992,0.0666 -0.329983,0.1071 -0.512342,0.1071 -0.295248,0 -0.503658,-0.11289 -0.503658,-0.41393 z" />
        <path
           inkscape:connector-curvature="0"
           id="path841"
           style="font-style:normal;font-variant:normal;font-weight:normal;font-stretch:normal;font-size:5.64444447px;font-family:'FiraCode Nerd Font Mono';-inkscape-font-specification:'FiraCode Nerd Font Mono, Normal';font-variant-ligatures:normal;font-variant-caps:normal;font-variant-numeric:normal;font-feature-settings:normal;text-align:start;writing-mode:lr-tb;text-anchor:start;fill:#fe53bb;stroke:none;stroke-width:0.26458332;stroke-miterlimit:4;stroke-dasharray:none"
           d="m 83.654662,237.41746 c -0.859692,0 -1.317037,0.65129 -1.317037,1.59203 0,0.9581 0.451556,1.58623 1.311248,1.58623 0.853903,0 1.311248,-0.65997 1.311248,-1.59202 0,-0.9668 -0.445767,-1.58624 -1.305459,-1.58624 z m 0,0.39656 c 0.518131,0 0.784433,0.37919 0.784433,1.18968 0,0.81048 -0.266302,1.19257 -0.790222,1.19257 -0.52392,0 -0.790222,-0.38209 -0.790222,-1.18678 0,-0.81628 0.272091,-1.19547 0.796011,-1.19547 z" />
        <path
           inkscape:connector-curvature="0"
           id="path843"
           style="font-style:normal;font-variant:normal;font-weight:normal;font-stretch:normal;font-size:5.64444447px;font-family:'FiraCode Nerd Font Mono';-inkscape-font-specification:'FiraCode Nerd Font Mono, Normal';font-variant-ligatures:normal;font-variant-caps:normal;font-variant-numeric:normal;font-feature-settings:normal;text-align:start;writing-mode:lr-tb;text-anchor:start;fill:#fe53bb;stroke:none;stroke-width:0.26458332;stroke-miterlimit:4;stroke-dasharray:none"
           d="m 87.330779,237.41746 c -0.367613,0 -0.686017,0.17657 -0.908901,0.48919 l -0.04052,-0.42551 h -0.413926 v 4.27531 l 0.486291,-0.0608 v -1.45308 c 0.202621,0.23736 0.471818,0.35314 0.804695,0.35314 0.793117,0 1.175202,-0.66865 1.175202,-1.59202 0,-0.95522 -0.289458,-1.58624 -1.102837,-1.58624 z m -0.115784,0.39077 c 0.477607,0 0.697596,0.39656 0.697596,1.19257 0,0.81338 -0.254724,1.18968 -0.761277,1.18968 -0.289458,0 -0.538393,-0.14473 -0.697595,-0.38209 v -1.51097 c 0.164991,-0.24604 0.42261,-0.48919 0.761276,-0.48919 z" />
        <path
           inkscape:connector-curvature="0"
           id="path845"
           style="font-style:normal;font-variant:normal;font-weight:normal;font-stretch:normal;font-size:5.64444447px;font-family:'FiraCode Nerd Font Mono';-inkscape-font-specification:'FiraCode Nerd Font Mono, Normal';font-variant-ligatures:normal;font-variant-caps:normal;font-variant-numeric:normal;font-feature-settings:normal;text-align:start;writing-mode:lr-tb;text-anchor:start;fill:#fe53bb;stroke:none;stroke-width:0.26458332;stroke-miterlimit:4;stroke-dasharray:none"
           d="m 89.823013,239.17737 h 2.049368 c 0.0058,-0.0666 0.01158,-0.16209 0.01158,-0.2663 0,-0.92627 -0.468923,-1.49361 -1.238883,-1.49361 -0.810485,0 -1.33151,0.66865 -1.33151,1.59203 0,0.94653 0.503658,1.58623 1.395191,1.58623 0.379191,0 0.764171,-0.13605 1.04784,-0.35893 l -0.228672,-0.3213 c -0.269197,0.18236 -0.503658,0.27499 -0.813379,0.27499 -0.471818,0 -0.865482,-0.30683 -0.891533,-1.01311 z m 0.827852,-1.36045 c 0.457345,0 0.752592,0.33287 0.764171,0.98416 h -1.589128 c 0.04052,-0.67155 0.370507,-0.98416 0.824957,-0.98416 z" />
        <path
           inkscape:connector-curvature="0"
           id="path847"
           style="font-style:normal;font-variant:normal;font-weight:normal;font-stretch:normal;font-size:5.64444447px;font-family:'FiraCode Nerd Font Mono';-inkscape-font-specification:'FiraCode Nerd Font Mono, Normal';font-variant-ligatures:normal;font-variant-caps:normal;font-variant-numeric:normal;font-feature-settings:normal;text-align:start;writing-mode:lr-tb;text-anchor:start;fill:#fe53bb;stroke:none;stroke-width:0.26458332;stroke-miterlimit:4;stroke-dasharray:none"
           d="m 94.972474,237.41457 c -0.552866,0 -0.859692,0.28656 -1.094154,0.78733 l -0.08973,-0.72076 h -0.845219 v 0.37341 h 0.474712 v 2.30119 h -0.474712 v 0.3734 h 1.580444 v -0.3734 h -0.619441 v -1.29098 c 0.202621,-0.67155 0.532604,-1.00153 1.004421,-1.00153 h 0.02605 v 0.64839 h 0.399453 l 0.06947,-1.03048 c -0.13894,-0.0405 -0.260513,-0.0666 -0.431294,-0.0666 z" />
        <path
           inkscape:connector-curvature="0"
           id="path849"
           style="font-style:normal;font-variant:normal;font-weight:normal;font-stretch:normal;font-size:5.64444447px;font-family:'FiraCode Nerd Font Mono';-inkscape-font-specification:'FiraCode Nerd Font Mono, Normal';font-variant-ligatures:normal;font-variant-caps:normal;font-variant-numeric:normal;font-feature-settings:normal;text-align:start;writing-mode:lr-tb;text-anchor:start;fill:#fe53bb;stroke:none;stroke-width:0.26458332;stroke-miterlimit:4;stroke-dasharray:none"
           d="m 97.447337,236.47962 c -0.515236,0 -1.068102,0.17946 -1.586233,0.63102 l 0.27788,0.32419 c 0.49208,-0.43419 0.937846,-0.5326 1.314143,-0.5326 1.065207,0 1.244672,0.87995 1.244672,1.98568 0,0.98995 0,1.77439 -0.361823,1.77439 -0.228673,0 -0.408137,-0.13605 -0.408137,-0.76128 v -1.7107 c -0.324194,-0.17368 -0.547077,-0.2171 -0.816274,-0.2171 -0.714963,0 -1.134678,0.48629 -1.134678,1.49361 0,0.76707 0.243145,1.32572 0.874165,1.32572 0.463134,0 0.683123,-0.29525 0.790223,-0.56155 h 0.02316 c -0.0058,0.28367 0.196832,0.82206 0.680228,0.82206 0.697596,0 0.851009,-0.71206 0.851009,-2.17094 0,-1.18388 -0.251829,-2.4025 -1.748331,-2.4025 z m -0.312615,1.85253 c 0.13894,0 0.248934,0.0232 0.370507,0.0868 v 1.4994 c -0.06947,0.16788 -0.193937,0.50944 -0.596285,0.50944 -0.350245,0 -0.460239,-0.39366 -0.460239,-0.961 0,-0.7468 0.159202,-1.13468 0.686017,-1.13468 z" />
        <path
           inkscape:connector-curvature="0"
           id="path851"
           style="font-style:normal;font-variant:normal;font-weight:normal;font-stretch:normal;font-size:5.64444447px;font-family:'FiraCode Nerd Font Mono';-inkscape-font-specification:'FiraCode Nerd Font Mono, Normal';font-variant-ligatures:normal;font-variant-caps:normal;font-variant-numeric:normal;font-feature-settings:normal;text-align:start;writing-mode:lr-tb;text-anchor:start;fill:#fe53bb;stroke:none;stroke-width:0.26458332;stroke-miterlimit:4;stroke-dasharray:none"
           d="m 102.33918,237.15695 c -0.35893,0.15631 -0.61944,0.25472 -1.3894,0.25762 -0.71786,0 -1.215728,0.44287 -1.215728,1.05942 0,0.39077 0.162097,0.65707 0.512338,0.84232 -0.21998,0.14473 -0.335768,0.33577 -0.335768,0.53261 0,0.30103 0.240248,0.57312 0.767068,0.57312 h 0.54418 c 0.39366,0 0.68891,0.14763 0.68891,0.43709 0,0.33287 -0.29525,0.50076 -0.96679,0.50076 -0.68312,0 -0.84522,-0.16499 -0.84522,-0.52102 h -0.439977 c 0,0.61944 0.31551,0.91758 1.288087,0.91758 0.92627,0 1.45598,-0.32998 1.45598,-0.92916 0,-0.46893 -0.46313,-0.82786 -1.07679,-0.82786 h -0.54997 c -0.31551,0 -0.40813,-0.10999 -0.40813,-0.25472 0,-0.11578 0.0666,-0.23157 0.1592,-0.29525 0.12736,0.0405 0.24893,0.0579 0.45445,0.0579 0.72075,0 1.14626,-0.43419 1.14626,-1.03627 0,-0.34735 -0.17657,-0.60497 -0.52971,-0.76706 0.34156,0 0.63102,-0.009 0.89153,-0.0897 z m -1.3894,0.61365 c 0.44577,0 0.67444,0.24025 0.67444,0.70049 0,0.44866 -0.23446,0.71207 -0.66286,0.71207 -0.49787,0 -0.72944,-0.29525 -0.72944,-0.70917 0,-0.40814 0.22578,-0.70339 0.71786,-0.70339 z" />
        <path
           inkscape:connector-curvature="0"
           id="path853"
           style="font-style:normal;font-variant:normal;font-weight:normal;font-stretch:normal;font-size:5.64444447px;font-family:'FiraCode Nerd Font Mono';-inkscape-font-specification:'FiraCode Nerd Font Mono, Normal';font-variant-ligatures:normal;font-variant-caps:normal;font-variant-numeric:normal;font-feature-settings:normal;text-align:start;writing-mode:lr-tb;text-anchor:start;fill:#fe53bb;stroke:none;stroke-width:0.26458332;stroke-miterlimit:4;stroke-dasharray:none"
           d="m 105.34375,237.41746 c -0.31261,0 -0.50655,0.1621 -0.67154,0.40235 -0.0955,-0.31551 -0.3213,-0.40235 -0.55287,-0.40235 -0.30393,0 -0.49787,0.18236 -0.66286,0.41682 l -0.0289,-0.35314 h -0.38209 v 3.048 h 0.44866 v -2.36777 c 0.16789,-0.26051 0.34446,-0.36472 0.53261,-0.36472 0.21998,0 0.23446,0.15921 0.23446,0.54129 v 2.1912 h 0.45445 v -2.36777 c 0.16788,-0.26051 0.35024,-0.36472 0.5326,-0.36472 0.21999,0 0.23446,0.15921 0.23446,0.54129 v 2.1912 h 0.45156 v -2.26935 c 0,-0.70339 -0.30104,-0.84233 -0.5905,-0.84233 z" />
        <path
           inkscape:connector-curvature="0"
           id="path855"
           style="font-style:normal;font-variant:normal;font-weight:normal;font-stretch:normal;font-size:5.64444447px;font-family:'FiraCode Nerd Font Mono';-inkscape-font-specification:'FiraCode Nerd Font Mono, Normal';font-variant-ligatures:normal;font-variant-caps:normal;font-variant-numeric:normal;font-feature-settings:normal;text-align:start;writing-mode:lr-tb;text-anchor:start;fill:#fe53bb;stroke:none;stroke-width:0.26458332;stroke-miterlimit:4;stroke-dasharray:none"
           d="m 108.99092,239.86339 v -1.46177 c 0,-0.60207 -0.38208,-0.98416 -1.14046,-0.98416 -0.29525,0 -0.62523,0.0521 -0.99574,0.19105 l 0.12736,0.36761 c 0.31551,-0.11 0.5905,-0.15631 0.79312,-0.15631 0.45445,0 0.72654,0.16499 0.72654,0.60497 v 0.25472 h -0.44866 c -0.92627,0 -1.42993,0.34735 -1.42993,0.97548 0,0.56734 0.3734,0.94074 0.98416,0.94074 0.39366,0 0.73812,-0.14473 0.95521,-0.4284 0.0868,0.27209 0.29525,0.39366 0.55866,0.4284 l 0.11868,-0.34156 c -0.17078,-0.0521 -0.24894,-0.14473 -0.24894,-0.39077 z m -1.25914,0.36182 c -0.39656,0 -0.5876,-0.19683 -0.5876,-0.57602 0,-0.39077 0.24604,-0.6397 0.91758,-0.6397 h 0.43998 v 0.78443 c -0.18236,0.27209 -0.46892,0.43129 -0.76996,0.43129 z" />
        <path
           inkscape:connector-curvature="0"
           id="path857"
           style="font-style:normal;font-variant:normal;font-weight:normal;font-stretch:normal;font-size:5.64444447px;font-family:'FiraCode Nerd Font Mono';-inkscape-font-specification:'FiraCode Nerd Font Mono, Normal';font-variant-ligatures:normal;font-variant-caps:normal;font-variant-numeric:normal;font-feature-settings:normal;text-align:start;writing-mode:lr-tb;text-anchor:start;fill:#fe53bb;stroke:none;stroke-width:0.26458332;stroke-miterlimit:4;stroke-dasharray:none"
           d="m 111.43684,236.05411 c -0.20552,0 -0.35024,0.14763 -0.35024,0.33867 0,0.19683 0.14472,0.34735 0.35024,0.34735 0.21709,0 0.35603,-0.15052 0.35603,-0.34735 0,-0.19104 -0.13894,-0.33867 -0.35603,-0.33867 z m 0.38788,1.42703 h -1.39809 v 0.38498 h 0.91179 v 2.27804 h -0.94074 v 0.38498 h 2.28673 v -0.38498 h -0.85969 z" />
        <path
           inkscape:connector-curvature="0"
           id="path859"
           style="font-style:normal;font-variant:normal;font-weight:normal;font-stretch:normal;font-size:5.64444447px;font-family:'FiraCode Nerd Font Mono';-inkscape-font-specification:'FiraCode Nerd Font Mono, Normal';font-variant-ligatures:normal;font-variant-caps:normal;font-variant-numeric:normal;font-feature-settings:normal;text-align:start;writing-mode:lr-tb;text-anchor:start;fill:#fe53bb;stroke:none;stroke-width:0.26458332;stroke-miterlimit:4;stroke-dasharray:none"
           d="m 114.94218,236.25384 h -1.42125 v 0.38498 h 0.93496 v 3.11168 c 0,0.52971 0.36761,0.84522 0.9089,0.84522 0.30682,0 0.55865,-0.0753 0.72364,-0.15631 l -0.13025,-0.35603 c -0.16499,0.0666 -0.32999,0.1071 -0.51235,0.1071 -0.29524,0 -0.50365,-0.11289 -0.50365,-0.41393 z" />
        <path
           inkscape:connector-curvature="0"
           id="path861"
           style="font-style:normal;font-variant:normal;font-weight:normal;font-stretch:normal;font-size:5.64444447px;font-family:'FiraCode Nerd Font Mono';-inkscape-font-specification:'FiraCode Nerd Font Mono, Normal';font-variant-ligatures:normal;font-variant-caps:normal;font-variant-numeric:normal;font-feature-settings:normal;text-align:start;writing-mode:lr-tb;text-anchor:start;fill:#fe53bb;stroke:none;stroke-width:0.26458332;stroke-miterlimit:4;stroke-dasharray:none"
           d="m 117.87149,240.08338 c 0,0.28656 0.21999,0.51234 0.50655,0.51234 0.29236,0 0.51234,-0.22578 0.51234,-0.51234 0,-0.28078 -0.21998,-0.50655 -0.51234,-0.50655 -0.28656,0 -0.50655,0.22577 -0.50655,0.50655 z" />
        <path
           inkscape:connector-curvature="0"
           id="path863"
           style="font-style:normal;font-variant:normal;font-weight:normal;font-stretch:normal;font-size:5.64444447px;font-family:'FiraCode Nerd Font Mono';-inkscape-font-specification:'FiraCode Nerd Font Mono, Normal';font-variant-ligatures:normal;font-variant-caps:normal;font-variant-numeric:normal;font-feature-settings:normal;text-align:start;writing-mode:lr-tb;text-anchor:start;fill:#fe53bb;stroke:none;stroke-width:0.26458332;stroke-miterlimit:4;stroke-dasharray:none"
           d="m 122.08021,240.176 c -0.52392,0 -0.90311,-0.34445 -0.90311,-1.15783 0,-0.8047 0.3763,-1.19546 0.90311,-1.19546 0.2663,0 0.52682,0.0926 0.78733,0.27209 l 0.23735,-0.3242 c -0.28945,-0.23446 -0.62812,-0.35314 -1.01889,-0.35314 -0.91469,0 -1.43572,0.68602 -1.43572,1.60071 0,0.95521 0.51814,1.57755 1.42993,1.57755 0.35893,0 0.76417,-0.14183 1.03047,-0.36761 l -0.23735,-0.31841 c -0.22578,0.15631 -0.48629,0.2663 -0.79312,0.2663 z" />
        <path
           inkscape:connector-curvature="0"
           id="path865"
           style="font-style:normal;font-variant:normal;font-weight:normal;font-stretch:normal;font-size:5.64444447px;font-family:'FiraCode Nerd Font Mono';-inkscape-font-specification:'FiraCode Nerd Font Mono, Normal';font-variant-ligatures:normal;font-variant-caps:normal;font-variant-numeric:normal;font-feature-settings:normal;text-align:start;writing-mode:lr-tb;text-anchor:start;fill:#fe53bb;stroke:none;stroke-width:0.26458332;stroke-miterlimit:4;stroke-dasharray:none"
           d="m 125.33661,237.41746 c -0.85969,0 -1.31704,0.65129 -1.31704,1.59203 0,0.9581 0.45156,1.58623 1.31125,1.58623 0.85391,0 1.31125,-0.65997 1.31125,-1.59202 0,-0.9668 -0.44577,-1.58624 -1.30546,-1.58624 z m 0,0.39656 c 0.51813,0 0.78443,0.37919 0.78443,1.18968 0,0.81048 -0.2663,1.19257 -0.79022,1.19257 -0.52392,0 -0.79022,-0.38209 -0.79022,-1.18678 0,-0.81628 0.27209,-1.19547 0.79601,-1.19547 z" />
        <path
           inkscape:connector-curvature="0"
           id="path867"
           style="font-style:normal;font-variant:normal;font-weight:normal;font-stretch:normal;font-size:5.64444447px;font-family:'FiraCode Nerd Font Mono';-inkscape-font-specification:'FiraCode Nerd Font Mono, Normal';font-variant-ligatures:normal;font-variant-caps:normal;font-variant-numeric:normal;font-feature-settings:normal;text-align:start;writing-mode:lr-tb;text-anchor:start;fill:#fe53bb;stroke:none;stroke-width:0.26458332;stroke-miterlimit:4;stroke-dasharray:none"
           d="m 129.65822,237.41746 c -0.31261,0 -0.50655,0.1621 -0.67154,0.40235 -0.0955,-0.31551 -0.3213,-0.40235 -0.55287,-0.40235 -0.30393,0 -0.49787,0.18236 -0.66286,0.41682 l -0.0289,-0.35314 h -0.38208 v 3.048 h 0.44866 v -2.36777 c 0.16789,-0.26051 0.34446,-0.36472 0.5326,-0.36472 0.21999,0 0.23447,0.15921 0.23447,0.54129 v 2.1912 h 0.45445 v -2.36777 c 0.16788,-0.26051 0.35024,-0.36472 0.5326,-0.36472 0.21999,0 0.23446,0.15921 0.23446,0.54129 v 2.1912 h 0.45156 v -2.26935 c 0,-0.70339 -0.30104,-0.84233 -0.5905,-0.84233 z" />
      </g>
      <path
         sodipodi:nodetypes="ccccc"
         inkscape:connector-curvature="0"
         id="path819"
         d="m 34.550727,222.28854 c -30.9225403,9.41076 112.419383,17.30194 106.430263,-0.17985 -16.00435,-25.32152 -4.36024,38.02155 2.77335,33.32092 16.71018,-12.14667 -124.9422,-12.92907 -113.280962,-2.42265 16.571589,23.84352 18.227598,-37.02937 4.077349,-30.71842 z"
         style="fill:none;stroke:#fe53bb;stroke-width:0.9875055;stroke-linecap:round;stroke-linejoin:miter;stroke-miterlimit:4;stroke-dasharray:none;stroke-opacity:1" />
    </g>
  </g>
</svg>
