<?xml version="1.0" encoding="UTF-8" standalone="no"?>
<svg
   xmlns:dc="http://purl.org/dc/elements/1.1/"
   xmlns:cc="http://creativecommons.org/ns#"
   xmlns:rdf="http://www.w3.org/1999/02/22-rdf-syntax-ns#"
   xmlns:svg="http://www.w3.org/2000/svg"
   xmlns="http://www.w3.org/2000/svg"
   xmlns:sodipodi="http://sodipodi.sourceforge.net/DTD/sodipodi-0.dtd"
   xmlns:inkscape="http://www.inkscape.org/namespaces/inkscape"
   viewBox="0 0 466 328"
   version="1.1"
   id="svg1013"
   sodipodi:docname="karate-kick.svg"
   width="466"
   height="328"
   inkscape:version="0.92.5 (2060ec1f9f, 2020-04-08)">
  <metadata
     id="metadata1019">
    <rdf:RDF>
      <cc:Work
         rdf:about="">
        <dc:format>image/svg+xml</dc:format>
        <dc:type
           rdf:resource="http://purl.org/dc/dcmitype/StillImage" />
        <dc:title></dc:title>
      </cc:Work>
    </rdf:RDF>
  </metadata>
  <defs
     id="defs1017" />
  <sodipodi:namedview
     pagecolor="#ffffff"
     bordercolor="#666666"
     borderopacity="1"
     objecttolerance="10"
     gridtolerance="10"
     guidetolerance="10"
     inkscape:pageopacity="0"
     inkscape:pageshadow="2"
     inkscape:window-width="1920"
     inkscape:window-height="1011"
     id="namedview1015"
     showgrid="false"
     inkscape:zoom="1.8452656"
     inkscape:cx="266.27068"
     inkscape:cy="218.67286"
     inkscape:window-x="0"
     inkscape:window-y="33"
     inkscape:window-maximized="1"
     inkscape:current-layer="svg1013"
     inkscape:pagecheckerboard="true" />
  <path
     d="m 360.70711,206.82988 v 1 l -1,1 h -1 q -1,0 -6,3 l -5,3 h -4 l -1,1 -1,1 h 1 v 1 h -3 l -3,-1 h -1 v -1 h 1 v -1 l 1,-1 v -1 h 1 q 1,0 1,-1 l 7,-4 q 7,-5 9,-5 2,0 3,2 z"
     id="path815"
     inkscape:connector-curvature="0"
     style="fill:#fe53bb;fill-rule:evenodd;stroke:#fe53bb" />
  <path
     d="m 270.70711,223.82988 c 1.3333,3.3333 2.3333,5.3333 3,6 0.66667,0 1,-1.6667 1,-5 0.66667,-2.6667 2,-4 4,-4 h 3 l 5,1 c 3.3333,0.66667 6,1.3333 8,2 l 3,1 h 5 v 1 l 1,1 v 1 h -1 v 1 h -12 l -2,1 h -2 v 2 h 1 v 1 h 1 v 1 l 1,1 1,1 v 2 c 0.66667,2 1.3333,3 2,3 h 2 l -6,3 c -9.5664,0.0546 -16.765,-4.3537 -18,-20 z"
     id="path817"
     inkscape:connector-curvature="0"
     style="fill:#b537f2;fill-rule:evenodd;stroke:#b537f2" />
  <path
     d="m 296.70711,228.82988 h 6 v -1 h 2 c 1.3333,0 2.3333,1 3,3 0.6667,2 1,3.3333 1,4 -7.5027,3.5774 -4.9998,3.2148 -8,5 l -6,1 h -2 c -0.66667,0 -1.3333,-1 -2,-3 v -2 l -1,-1 -1,-1 v -1 h -1 v -1 h -1 v -2 h 2 l 2,-1 z"
     id="path819"
     inkscape:connector-curvature="0"
     style="fill:#b537f2;fill-rule:evenodd;stroke:#b537f2" />
  <path
     d="m 347.70711,229.82988 v 1 h -1 l 2,1 q 3,0 2,2 0,2 2,2 2,0 4,3 1,2 2,3 2,1 2,2 v 1 h -1 q -1,0 -11,-6 l -9,-6 h -1 l -1,-1 h -1 v -1 l 1,-1 h 5 q 5,-1 5,0 z"
     id="path821"
     inkscape:connector-curvature="0"
     style="fill:#fe53bb;fill-rule:evenodd;stroke:#fe53bb" />
  <path
     d="m 31.707107,142.82988 h 1 l 12,1 q 11,1 16,3 5,2 10,3 h 5 l 1,-1 q 2,0 4,-1 h 1 v 1 q -1,0 -2,1 -2,1 -3,3 v 2 l 1,2 1,1 v 2 h -2 v -1 h -4 q 0,-1 -1,-1 v -1 h -7 q -7,0 -14,-1 -7,-1 -14,-1 -8,0 -10,1 l -3,1 h -1 q -2,0 -4,-1 l -2,-1 h -1 l -3,-1 h -2 v -9 h 3 l 3,-1 h 14 v -1 z"
     id="path823"
     inkscape:connector-curvature="0"
     style="fill:#b537f2;fill-rule:evenodd;stroke:#b537f2" />
  <path
     d="m 386.70711,278.82988 v 1 h -2 l -1,1 h 1 v 2 h -1 l -1,2 -2,1 -1,1 h -1 l -6,1 -5,2 h -1 v 1 q -1,0 -4,-1 h -3 v -1 l 1,-1 v -1 h 2 v -1 l 1,-1 1,-1 v -1 h 2 q 2,-1 3,-2 0,-1 9,-2 z"
     id="path825"
     inkscape:connector-curvature="0"
     style="fill:#fe53bb;fill-rule:evenodd;stroke:#fe53bb" />
  <path
     d="m 270.70711,223.82988 -1,-6 6,1 6,2 h -3 q -3,0 -4,4 0,5 -1,5 -1,-1 -3,-6 z"
     id="path827"
     inkscape:connector-curvature="0"
     style="fill:#b537f2;fill-rule:evenodd;stroke:#b537f2" />
  <path
     d="m 81.707107,147.82988 29.000003,2 q 30,1 38,2 h 11 l 13,2 q 13,1 16,3 h 20 v 1 l -5,2 q -6,1 -5,2 1,1 -1,1 -2,0 -6,3 -3,2 -3,3 1,0 1,2 0,1 -1,1 h -2 v 2 h -2 v 2 h -1 v 1 h -3 q -2,0 -4,-2 l -3,-2 v -1 q 0,-1 -11,-1 h -12 l -3,-2 q -3,-2 -8,0 -5,2 -11,0 -7,0 -12,-1 h -5 v 1 l -1,1 v 1 h -2 v 2 h -4 q -1,0 -3,-2 -2.000003,0 -7.000003,-2 -6,-2 -11,-5 l -5,-3 v -3 l -1,-1 -1,-2 v -1 l 1,-2 1,-2 1,-1 h 1 q 1,0 1,-1 z"
     id="path829"
     inkscape:connector-curvature="0"
     style="fill:#fe53bb;fill-rule:evenodd;stroke:#fe53bb;stroke-opacity:1;fill-opacity:1" />
  <path
     d="m 152.70711,71.82988 v -1 l 1,1 q 1,1 6,4 5,3 6,4 1,1 2,1 v 1 h -1 q -1,-1 -5,-1 -4,-2 -7,-2 h -8 v -3 q 0,-1 2,-2 1,-1 2,-1 h 2 z"
     id="path831"
     inkscape:connector-curvature="0"
     style="fill:#b537f2;fill-rule:evenodd;stroke:#b537f2;stroke-opacity:1;fill-opacity:1" />
  <path
     d="m 366.70711,193.82988 v -1 h 1 v 1 h 1 v 1 h 1 l 1,1 1,1 h 1 v 2 h -1 l -1,1 -2,1 h -1 q -1,0 -3,2 -3,2 -2,3 0,1 -1,2 l -2,1 v -2 q -1,-1 -1,-2 -1,-2 -3,-2 -2,0 -9,5 l -7,4 h -1 l -1,1 h -3 v -4 q 0,-1 -2,-2 -2,-2 -2,-3 v -1 h -1 l -1,1 h -1 v -4 h 1 l 1,-1 h 1 v -2 h -1 l 1,-1 h 2 l 1,1 h 1 v 1 l -1,1 v 1 h 1 l 2,-1 9,-1 q 9,-1 14,-1 h 5 l 1,-1 q 1,-1 1,-2 z"
     id="path833"
     inkscape:connector-curvature="0"
     style="fill:#fe53bb;fill-rule:evenodd;stroke:#fe53bb" />
  <path
     d="m 252.70711,117.82988 h 12 l 17,3 q 17,2 21,3 h 3 l -1,1 v 2 q -1,0 -1,1 v 1 h -3 q -2,0 -2,4 l -1,4 h -1 v -3 h -1 v -1 q -1,0 -1,-2 -2,-2 -12,-4 -10,-1 -11,1 l -1,2 q -1,-1 -9,-1 -8,0 -9,-1 -2,-1 -4,-3 -2,-2 -14,-2 l -12,-2 5,-1 q 5,-1 8,-1 h 5 q 1,0 12,-1 z"
     id="path835"
     inkscape:connector-curvature="0"
     style="fill:#fe53bb;fill-rule:evenodd;stroke:#fe53bb" />
  <path
     d="m 239.70711,16.82988 v 2 l 1,1 v -1 h 1 v -1 h 1 v 5 q -1,0 0,1 v 1 q -1,0 -1,1 h -1 v 1 q -1,0 -1,1 v 1 q -1,1 -1,3 l -1,2 q -1,0 -1,6 v 7 h -3 v -1 h -1 v -1 l -1,-1 -1,-1 v -1 h -1 v -1 h -1 v -7 q 0,-5 1,-6 1,0 1,-1 1,-2 4,-2 2,-1 2,-3 v -2 l 1,-1 q 1,-2 2,-2 z"
     id="path837"
     inkscape:connector-curvature="0"
     style="fill:#de38c8;fill-rule:evenodd;stroke:#de38c8" />
  <path
     d="m 324.70711,132.82988 -1,-2 h 15 v 1 q 0,1 -2,2 l -1,1 h -5 q -4,0 -6,-2 z"
     id="path839"
     inkscape:connector-curvature="0"
     style="fill:#fe53bb;fill-rule:evenodd;stroke:#fe53bb" />
  <path
     d="m 173.70711,171.82988 v 1 q -1,1 -1,2 v 1 q -1,-1 -8,-1 -7,0 -10,-2 l -3,-2 h 11 q 11,0 11,1 z"
     id="path841"
     inkscape:connector-curvature="0"
     style="fill:#fe53bb;fill-rule:evenodd;stroke:#fe53bb" />
  <path
     d="m 397.70711,278.82988 1,-1 v 6 q 0,1 -2,1 h -3 q -1,0 -4,-3 l -3,-2 v -1 h 3 l 3,1 q 3,1 4,0 h 1 z"
     id="path843"
     inkscape:connector-curvature="0"
     style="fill:#fe53bb;fill-rule:evenodd;stroke:#fe53bb" />
  <path
     d="m 305.70711,124.82988 v -1 l 7,1 q 6,2 9,2 h 3 l 2,1 1,1 h 5 q 5,0 6,1 h 1 v 1 h -16 l 1,2 q 2,2 6,2 h 5 l 1,1 v -1 h 2 v 1 h 1 v 1 h 1 l 6,6 q 6,6 7,6 h 1 v 1 h 1 v 4 q 1,4 1,7 v 4 h 2 l -2,1 -1,1 h -4 v -1 h -1 v -1 h -1 l -4,-3 -4,-2 v -1 h -1 q 0,-1 -1,-1 h -1 q 0,-1 -3,-3 -3,-2 -11,-2 h -8 v 1 q 0,1 -1,1 -1,0 -1,-1 0,-1 -1,-1 h -1 v 1 h -1 v -1 h -1 v -1 h -1 v -1 h -1 v -7 h 2 l 1,-1 q 1,0 -2,-8 -2,-7 -4,-7 h -2 v -1 q 0,-1 1,-1 1,0 1,-1 z"
     id="path845"
     inkscape:connector-curvature="0"
     style="fill:#fe53bb;fill-rule:evenodd;stroke:#fe53bb;fill-opacity:1;stroke-opacity:1" />
  <path
     d="m 296.70711,101.82988 h 3 l 1,1 h 2 l 20,10 q 19,8 20,9 l 2,1 h 2 l 1,1 h 1 v 1 h 1 v 2 h -3 l -2,-1 -2,-1 h -2 q -2,0 -3,-1 h -3 q -2,-1 -16,-3 -13,-4 -29,-5 l -16,-1 -3,-1 -4,-1 h 2 v -2 h 1 v -1 h 2 l 2,-1 h 1 q 2,0 4,-1 h 1 l 9,-2 8,-3 q -1,0 0,-1 z"
     id="path847"
     inkscape:connector-curvature="0"
     style="fill:#fe53bb;fill-rule:evenodd;stroke:#fe53bb" />
  <path
     d="m 18.707107,143.82988 h -2 l -3,1 h -3 v 9 l -1.0000002,-1 v -4 q -1,-2 -3,-2 -3,0 -2,1 0,2 -1,2 -1,0 -1,-4 0,-4 -1,-5 l -1.00000002,-1 2.00000002,-2 q 1,-3 4,-2 2,0 3,1 0,2 1.0000002,2 1,0 2,1 0,1 3,3 3,0 3,1 z"
     id="path849"
     inkscape:connector-curvature="0"
     style="fill:#b537f2;fill-rule:evenodd;stroke:#b537f2" />
  <path
     d="m 187.70711,120.82988 -1,-3 h 1 q 1,0 1,1 0,1 9,1 9,1 16,1 h 7 l -4,1 -3,1 h -19 q -6,0 -7,-2 z"
     id="path851"
     inkscape:connector-curvature="0"
     style="fill:#fe53bb;fill-rule:evenodd;stroke:#fe53bb" />
  <path
     d="m 8.7071068,152.82988 1,-1 v 1 l 1.0000002,1 h 2 l 3,1 h 1 l 2,1 q 2,1 4,1 h 7 l 4,1 q 4,1 7,1 h 4 l -8,2 -7,1 h -2 q -2,1 -6,1 h -4 l -1,-1 v -1 q 0,-1 -2,-2 l -1,-1 q 0,-1 -1,-1 h -2 v -1 H 9.7071068 v 1 h -1 q -1,0 -1,-1 -1,-2 1,-3 z"
     id="path853"
     inkscape:connector-curvature="0"
     style="fill:#b537f2;fill-rule:evenodd;stroke:#b537f2" />
  <path
     d="m 246.70711,53.82988 h 3 l 2,1 v 3 c -0.66667,2 3.5532,-0.34122 3.5532,0.32545 -0.66667,0.66667 1.3166,4.355 1.3166,4.355 l -3.9941,3.6746 c -3.2672,2.4828 -6.0939,2.9522 -7.8757,-1.355 v -6 c 0,-3.3333 0.66667,-5 2,-5 z"
     id="path855"
     inkscape:connector-curvature="0"
     style="fill:#b537f2;fill-rule:evenodd;stroke:#b537f2" />
  <path
     d="m 304.70711,126.82988 h 2 q 1,1 3,8 3,8 2,8 l -1,1 h -2 v -3 q 0,-4 -3,-8 l -2,-4 v -1 q 1,0 1,-1 z"
     id="path857"
     inkscape:connector-curvature="0"
     style="fill:#fe53bb;fill-rule:evenodd;stroke:#fe53bb" />
  <path
     d="m 365.70711,131.82988 h 2 q 2,1 3,1 v 1 h 1 l 5,5 q 4,6 5,6 v 1 q 1,1 0,1 h -3 q -2,0 -2,1 1,2 0,2 -1,-1 -2,1 -2,2 -2,1 -1,-1 -4,-1 h -4 v 5 h -2 v -1 h -2 v -3 l -1,-1 -1,-2 v -6 q 0,-2 2,-3 h 1 v -1 q 0,-1 2,-1 2,0 3,-1 v -2 q 0,-2 -1,-2 z"
     id="path859"
     inkscape:connector-curvature="0"
     style="fill:#fe53bb;fill-rule:evenodd;stroke:#fe53bb;fill-opacity:1;stroke-opacity:1" />
  <path
     d="m 149.70711,80.82988 1,-2 3,1 q 3,1 2,2 -1,1 -1,2 h -1 v 1 h -3 q -2,-1 -2,-2 0,-1 1,-2 z"
     id="path861"
     inkscape:connector-curvature="0"
     style="fill:#b537f2;fill-rule:evenodd;stroke:#b537f2;stroke-opacity:1;fill-opacity:1" />
  <path
     d="m 222.70711,208.82988 h 10 q 11,0 22,1 l 11,1 h -14 l -1,1 h -2 v 2 l 1,1 h -3 q -2,0 -13,-3 z"
     id="path863"
     inkscape:connector-curvature="0"
     style="fill:#fe53bb;fill-rule:evenodd;stroke:#fe53bb" />
  <path
     d="m 237.70711,33.82988 q 0,1 1,1 v 3 l 6,2 q 5,1 5,2 h -1 q -2,1 -3,1 -1,0 -1,1 0,1 -1,1 -1,0 -1,-2 1,-2 0,-2 -2,0 -3,3 -1,3 -2,3 l -1,-1 v -6 q 0,-6 1,-6 z"
     id="path865"
     inkscape:connector-curvature="0"
     style="fill:#b537f2;fill-rule:evenodd;stroke:#b537f2" />
  <path
     d="m 339.70711,130.82988 v -1 h 3 l 2,1 h 5 l -1,1 q -2,1 0,2 0,1 1,2 l 1,1 2,3 q 2,2 2,5 0,3 1,4 v 1 h -1 q -1,-1 -8,-7 l -6,-6 h -1 v -1 h -1 v -1 h -2 v 1 l -1,-1 1,-1 q 2,-1 2,-2 v -1 z"
     id="path867"
     inkscape:connector-curvature="0"
     style="fill:#fe53bb;fill-rule:evenodd;stroke:#fe53bb" />
  <path
     d="m 210.70711,194.82988 h 1 l 1,1 2,1 h 3 l 4,2 c 2.6667,0 4.3333,0.33333 5,1 l 1,1 h 1 v 1 h 1 v 1 h 1 v 1 h 1 v 1 h 2 l -5.9138,2.2069 -9.0862,-0.2069 h -1 c -0.66667,0 -17.787,-6.4253 -23.121,-5.7586 l -7.8793,-1.2414 2,-2 c 2,-2 4.6667,-2.6667 8,-2 4,0.66667 6,0.66667 6,0 0.66667,-0.66667 2,-1 4,-1 h 4 z"
     id="path869"
     inkscape:connector-curvature="0"
     style="fill:#fe53bb;fill-rule:evenodd;stroke:#fe53bb" />
  <path
     d="m 237.70711,110.82988 1,-1 v 1 h 3 l 5,2 q 5,2 10,2 h 6 q 0,1 1,1 v 1 h 1 v 1 h -12 q -11,1 -12,1 h -2 v -1 h 1 v -1 h 1 l 2,-1 1,-1 h -1 l -1,-1 q -1,-1 -3,-1 l -1,-1 z"
     id="path871"
     inkscape:connector-curvature="0"
     style="fill:#fe53bb;fill-rule:evenodd;stroke:#fe53bb" />
  <path
     d="m 336.70711,124.82988 v -1 h 1 q 1,1 3,1 h 2 l 2,1 2,1 1,-1 q 1,0 1,-1 v -1 h 1 q 1,0 1,1 0,1 1,2 l 1,1 q 0,1 2,1 h 3 v 1 h -6 l -6,1 h -1 l -2,-1 h -4 q -1,-1 -6,-1 h -5 l -1,-1 -2,-1 h 6 q 6,-1 6,-2 z"
     id="path873"
     inkscape:connector-curvature="0"
     style="fill:#fe53bb;fill-rule:evenodd;stroke:#fe53bb" />
  <path
     d="m 348.70711,131.82988 1,-1 h 1 q 2,0 4,5 2,5 2,6 v 1 l 1,2 1,1 v 3 l 1,2 1,1 v 3 h 1 l 1,4 q 1,5 -1,5 l -2,1 h -3 v -4 q 0,-3 -1,-7 v -5 h -1 v -4 q 0,-3 -2,-5 l -2,-3 -1,-1 q -1,-1 -1,-2 -2,-1 0,-2 z"
     id="path875"
     inkscape:connector-curvature="0"
     style="fill:#fe53bb;fill-rule:evenodd;stroke:#fe53bb" />
  <path
     d="m 293.70711,301.82988 h 9 v 1 l -4,3 -3,3 h -1 q 0,1 -1,2 v 1 h -1 l -1,1 h -1 v 1 l -1,1 q -1,2 -1,5 v 4 h -1 v 1 h -1 l -2,1 h -2 v -2 h -1 v -1 h -1 q -1,0 -2,-1 l -1,-1 -3,-1 q -2,-1 -2,-3 0,-3 -2,-4 l -2,-2 -1,-2 v -1 h 2 v -1 l 1,-1 v -1 h -2 v -1 l 12,-1 q 13,0 13,-1 z"
     id="path877"
     inkscape:connector-curvature="0"
     style="fill:#b537f2;fill-rule:evenodd;stroke:#b537f2;fill-opacity:1;stroke-opacity:1" />
  <path
     d="m 150.28711,77.44988 3.3174,-5.8387 -2.9193,-2.6539 -5.1136,-0.38856 c -1.288,4.6685 -3.1618,7.2485 2.4267,13.744 l 2.2888,-4.863 z"
     id="path879"
     inkscape:connector-curvature="0"
     style="fill:#b537f2;fill-rule:evenodd;stroke:#b537f2;stroke-opacity:1;fill-opacity:1" />
  <path
     d="m 419.70711,256.82988 v -1 h 5 q 0,1 2,1 h 1 l 2,1 2,1 h 5 q 4,0 6,-1 h 3 q 2,-1 3,-1 l 2,-1 h 2 v 1 h -1 v 1 h -1 v 1 h -1 v 1 h -1 v 1 q -1,0 -1,1 v 1 q -1,0 -7,2 l -6,2 q -1,0 -1,1 h -1 q -1,1 -4,3 -4,2 -14,6 l -9,4 h -1 l -1,1 h -1 v 2 h -1 v -7 h 2 q 2,0 7,-8 4,-8 6,-10 2,-2 3,-2 z"
     id="path881"
     inkscape:connector-curvature="0"
     style="fill:#fe53bb;fill-rule:evenodd;stroke:#fe53bb" />
  <path
     d="m 316.70711,176.82988 -1,-2 4,3 5,3 1,1 1,1 h 2 v 1 h 1 q 0,1 1,1 l 1,1 2,2 q 1,1 2,3 l 1,1 v 7 l -2,1 h -1 v -1 l 1,-1 v -1 h -1 l -1,-1 h -2 v -1 h -3 q -2,0 -5,-3 -3,-3 -4,-5 v -5 q 0,-2 -2,-5 z"
     id="path883"
     inkscape:connector-curvature="0"
     style="fill:#fe53bb;fill-rule:evenodd;stroke:#fe53bb" />
  <path
     d="m 150.70711,170.82988 h 1 l 3,2 q 3,2 10,2 7,0 8,1 v 12 h -1 v 1 h -8 q -4,0 -12,-1 h -8 q 0,-1 -2,-1 -2,0 -7,-1 h -8 q -1,-1 -10,-5 l -8,-6 h -2 l -1,-1 -1,-1 h 4 v -2 h 2 v -1 l 1,-1 v -1 h 5 q 5,1 12,1 6,2 11,0 5,-2 8,0 z"
     id="path885"
     inkscape:connector-curvature="0"
     style="fill:#fe53bb;fill-rule:evenodd;stroke:#fe53bb" />
  <path
     d="m 366.70711,289.82988 h 1 v 2 h -1 v 1 l -2,1 q -2,1 -3,3 -1,1 -6,2 h -5 4 v -1 h 1 v -1 h 1 v -3 q 0,-2 1,-3 l 2,-1 h 3 q 3,1 4,1 z"
     id="path887"
     inkscape:connector-curvature="0"
     style="fill:#fe53bb;fill-rule:evenodd;stroke:#fe53bb" />
  <path
     d="m 324.70711,83.82988 h 1 v 1 h 2 q 1,0 1,1 v 2 q 0,1 8,7 7,6 11,8 4,2 5,3 l 2,1 h 8 -1 v -1 h -1 v -2 l -1,-1 h 2 v 1 h 1 v 1 l 5,5 q 5,5 5,9 0,4 -1,8 l -2,4 h 1 v 1 l 1,1 v 1 h -2 v -1 q 0,-1 -2,-1 h -3 q 0,-1 -4,-1 l -3,-1 v -1 h -3 q -2,0 -2,-1 l -1,-1 -2,-2 -1,-1 h -1 l -1,-1 h -2 l -2,-1 q -1,-1 -20,-9 l -20,-10 h -2 l -1,-1 h -1 v -1 h -1 v -1 h -1 v -1 h 5 v -1 h 1 v -1 l 4,-2 q 4,-4 8,-5 4,-2 4,-5 0,-3 2,-2 3,0 4,1 z m 1,3 v -1 q 1,0 1,1 z"
     id="path889"
     inkscape:connector-curvature="0"
     style="fill:#fe53bb;fill-rule:evenodd;stroke:#fe53bb;stroke-opacity:1;fill-opacity:1" />
  <path
     d="m 309.70711,154.82988 v -3 h 1 v 1 h 1 v 1 h 1 v -1 h 4 v 1 l 2,4 q 1,4 0,5 l 3,4 q 3,5 4,7 l 1,3 h 1 v 1 h 1 v 1 l 1,1 v 1 h 3 v 4 h -2 v -1 h -1 v -1 h -3 l -1,-1 -1,-1 -5,-3 -4,-3 v -1 q -1,-1 -4,-8 l -3,-7 -1,-1 v -1 h 1 q 1,0 1,-2 z"
     id="path891"
     inkscape:connector-curvature="0"
     style="fill:#ffaa01;fill-rule:evenodd;stroke:#ffaa01;fill-opacity:1" />
  <path
     d="m 316.70711,152.82988 h 8 q 8,0 11,2 3,2 3,3 h 1 q 0,1 1,1 v 1 h 1 l 1,3 q 2,3 2,4 v 4 l -2,1 -2,1 h -2 v 1 h -1 v 1 h -2 l -1,1 q -2,1 -4,1 h -4 l -1,-3 q -1,-2 -5,-8 -4,-6 -3,-6 1,0 0,-3 l -1,-3 z"
     id="path893"
     inkscape:connector-curvature="0"
     style="fill:#fe53bb;fill-rule:evenodd;stroke:#fe53bb;stroke-opacity:1;fill-opacity:1" />
  <path
     d="m 64.707107,156.82988 h 7 v 1 q 1,0 1,1 h -32 q -3,0 -7,-1 l -4,-1 h -6 l 3,-1 q 2,-1 10,-1 7,0 14,1 7,1 14,1 z"
     id="path895"
     inkscape:connector-curvature="0"
     style="fill:#b537f2;fill-rule:evenodd;stroke:#b537f2" />
  <path
     d="m 303.70711,65.82988 v 3 q -1,2 -1,3 l -1,1 v -1 l -2,-2 q -1,-1 -7,-3 -6,-2 -10,2 -4,4 -10,5 l -5,1 h -4 v -1 h -1 v -6 h -3 v -1 l 1,-1 v -1 h 1 l 1,-1 h 1 v -2 l 1,1 q 2,2 4,1 l 6,-3 q 3,-2 12,0 8,0 12,2 5,1 5,3 z"
     id="path897"
     inkscape:connector-curvature="0"
     style="fill:#b537f2;fill-rule:evenodd;stroke:#b537f2" />
  <path
     d="m 362.70711,40.82988 v -2 l 7,5 q 7,5 12,11 5,6 6,6 v 1 q 0,1 1,1 v 1 h 1 q 0,1 1,1 v 3 l 5,7 q 4,8 6,10 3,3 3,8 2,5 4,9 2,4 3,11 1,8 2,11 l 1,3 1,8 q 1,7 1,10 v 3 l 1,1 v 1 h -1 l -1,-1 h -1 l -1,-1 q -1,-1 -13,-3 -11,-4 -14,-4 -4,0 -4,2 l -1,2 q -1,0 -5,-6 l -5,-5 v -1 h -1 v -2 h -1 l 2,-4 q 1,-4 1,-8 0,-4 -5,-9 l -5,-5 -1,-1 h -1 v -1 h -2 l -2,-1 q -1,-1 -2,-1 l -2,-2 h -2 v -1 h -1 v -1 h -1 v -1 h -1 v -1 l 1,-1 v -1 h 1 l 1,1 1,1 h 6 v -2 h -2 v -1 h -1 v -1 h -1 l -1,-1 -1,-1 h -1 l -2,-1 q -1,-1 -8,-3 -8,-2 -8,-1 0,1 -2,1 h -5 v -1 h 1 v -3 l 2,-1 q 1,0 2,-3 0,-4 2,-6 2,-3 2,-4 v -3 q 0,-1 3,-2 3,-1 5,-3 2,-2 8,-6 7,-3 7,-4 0,-1 3,-2 2,-2 2,-4 z"
     id="path899"
     inkscape:connector-curvature="0"
     style="fill:#fe53bb;fill-rule:evenodd;stroke:#fe53bb;fill-opacity:1;stroke-opacity:1" />
  <path
     d="m 337.70711,276.82988 2,2 q 3,2 3,3 0,1 1,1 l 2,2 q 0,1 3,3 4,2 4,3 0,2 -1,2 -1,-1 -3,-1 l -2,-1 -3,1 q -3,1 -5,1 h -2 q -1,0 -1,1 h -3 q -2,1 -10,1 -7,1 -8,3 0,2 -3,2 l -3,1 h -8 v 1 h -12 l -4,-1 h -6 l -2,-1 -1,-1 h 1 v -3 l 1,-1 h 2 l 14,-4 q 14,-2 15,-4 2,0 2,-1 h 1 l 6,-1 q 6,0 14,-2 8,-1 7,-3 -1,-1 -1,-2 z"
     id="path901"
     inkscape:connector-curvature="0"
     style="fill:#b537f2;fill-rule:evenodd;stroke:#b537f2" />
  <path
     d="m 280.70711,186.82988 3,1 q 3,1 4,3 1,1 5,2 3,0 4,1 l 2,1 h -1 q -1,0 -2,2 -1,3 0,4 h 3 q 0,-1 1,2 v 4 h -5 v 1 h -1 v 1 h -7 q -7,0 -14,1 l -7,1 -11,-1 q -11,-1 -22,-1 h -11 l -1,-1 -2,-1 8,-1 7,-1 h -2 v -1 h -1 v -1 h -1 v -1 h -1 v -1 h -1 l -1,-1 q -1,-1 -5,-1 l -4,-2 h -3 l -2,-1 -1,-1 h 4 l 5,-2 q 6,-1 8,-3 2,-1 4,-1 h 1 l 23,-1 q 23,-1 24,-1 z"
     id="path903"
     inkscape:connector-curvature="0"
     style="fill:#fe53bb;fill-rule:evenodd;stroke:#fe53bb" />
  <path
     d="m 413.70711,147.82988 1,1 h 2 v 1 h 1 l 1,5 v 6 q -1,0 -1,1 h -1 v 2 q 0,1 -7,6 l -7,5 -3,1 q -3,1 -3,2 0,1 9,1 9,0 10,-2 l 2,-2 q 1,0 1,-1 v -1 l 2,3 q 1,3 6,3 4,0 4,1 h 1 v 5 q -1,4 -1,6 v 2 h -8 q -4,0 -4,2 0,3 -2,3 -2,-1 -3,0 l -1,1 h -10 q -1,0 -6,2 -4,1 -6,3 l -2,3 h 1 l -1,1 q -2,1 -9,4 -7,3 -7,5 0,2 -2,2 h -1 v 1 h -1 v 1 h -2 v 1 h -1 v -1 h -2 v -1 q 1,0 1,-1 l 1,-1 q 1,-1 1,-2 v -1 h -4 l -3,1 q -3,1 -5,1 h -1 v 1 h -2 l -1,1 h -4 l -2,-1 h -2 v -1 h -1 l 1,-1 1,-1 h 4 l 5,-3 q 5,-3 6,-3 h 2 v -1 l 1,-1 q 1,0 1,-1 -1,-1 2,-3 2,-2 3,-2 h 1 l 2,-1 1,-1 h 1 v -2 h -1 l -1,-1 -1,-1 h -1 v -1 h -1 v -1 h -3 l -2,-1 q -1,-1 -2,-1 l -3,1 q -3,1 -8,1 h -11 l -1,-1 v -3 h 2 v -1 l 1,-1 8,-1 q 7,-1 9,-1 3,-1 5,-6 2,-6 5,-6 h 3 l 1,-1 h 1 v -3 h -1 l -1,-1 q -2,-1 -4,-1 h -1 q -1,-1 1,-2 2,-2 0,-4 l -2,-3 v -1 h -1 v -1 h -1 v -1 l 1,-1 h 1 v -3 h 4 q 3,0 4,1 0,1 2,-1 1,-2 2,-1 1,0 0,-2 0,-1 2,-1 h 3 q 1,0 0,-1 v -1 l 1,-2 q 0,-2 4,-2 3,0 14,4 12,2 13,3 z"
     id="path905"
     inkscape:connector-curvature="0"
     style="fill:#fe53bb;fill-rule:evenodd;stroke:#fe53bb;stroke-opacity:1;fill-opacity:1" />
  <path
     d="m 301.70711,71.82988 v 1 h -1 l -4,1 -15,5 -12,4 -1,-1 c -3.9254,0.10566 -5.5413,-3.3306 -6,-7 v -1 h 1 v 1 h 4 l 5,-1 c 4,-0.66667 7.3333,-2.3333 10,-5 2.6667,-2.6667 6,-3.3333 10,-2 4,1.3333 6.3333,2.3333 7,3 z"
     id="path907"
     inkscape:connector-curvature="0"
     style="fill:#b537f2;fill-rule:evenodd;stroke:#b537f2" />
  <path
     d="m 178.70711,178.82988 h 1 v 1 h -1 v 2 h -2 l 4,1 3,1 16,1 q 16,1 29,5 14,2 16,3 h 2 v 1 q 0,1 -6,2 h -9 q -3,0 -9,-2 l -7,-1 h -3 q -4,-1 -21,-3 l -17,-3 v -1 h -1 v -1 q -1,0 -1,-1 h -1 l 3,-2 q 2,-2 4,-3 z"
     id="path909"
     inkscape:connector-curvature="0"
     style="fill:#fe53bb;fill-rule:evenodd;stroke:#fe53bb" />
  <path
     d="m 336.70711,292.82988 h 1 q -1,1 -4,3 l -3,3 h -1 l -1,1 h -2 q -3,1 -4,1 -1,0 -1,1 -1,1 -3,1 l -3,1 h -1 q -2,-1 -6,-1 h -5 v -1 h -3 v -1 h 8 l 3,-1 q 3,0 3,-2 1,-2 10,-3 10,-2 12,-2 z"
     id="path911"
     inkscape:connector-curvature="0"
     style="fill:#b537f2;fill-rule:evenodd;stroke:#b537f2" />
  <path
     d="m 293.70711,146.82988 3,-10 h 1 l 5,10 q 4,9 5,10 l 1,1 3,7 q 3,8 4,9 v 1 l 1,2 q 2,3 2,5 v 5 q 1,2 4,5 3,3 5,3 h 3 v 1 l -1,1 h 1 v 2 h -1 l -1,1 h -1 v 4 h 1 l 1,-1 h 1 v 1 q 0,1 2,3 2,1 2,2 v 4 l 1,1 h 1 v -1 q 0,-1 2,-1 h 1 v 1 h -1 v 1 h -1 v 1 h -1 v 1 h -1 v 1 h -3 q -3,0 -5,3 -2,3 -10,5 l -8,1 h -1 v -1 h 5 v -1 h 1 v -1 h -1 v -1 q 1,0 0,-1 -1,0 1,-1 1,-1 -2,-5 -4,-4 -10,-5 l -7,-1 h -2 v -1 h 1 v -1 h 5 v -4 q -1,-3 -1,-2 h -3 q -1,-1 0,-4 1,-2 2,-2 h 1 l -2,-1 q -1,-1 -4,-1 -4,-1 -5,-2 -1,-2 -4,-3 l -3,-1 v -2 h 1 q 1,-1 2,-1 v 1 h 1 v -4 q 0,-2 -1,-3 l -1,-1 h 3 v 1 h 1 v -1 h 1 v -1 h 1 v -2 h -2 q -1,-1 -2,-1 -1,0 -1,-2 l 4,-8 q 3,-6 6,-16 z m -6,39 v -1 h 1 q 0,1 -1,1 z"
     id="path913"
     inkscape:connector-curvature="0"
     style="fill:#fe53bb;fill-rule:evenodd;stroke:#fe53bb;fill-opacity:1;stroke-opacity:1" />
  <path
     d="m 202.70711,182.82988 h 4 l 2,1 3,1 5,1 q 6,1 8,1 h 4 q 2,-2 3,0 l 2,2 h -1 q -2,0 -4,1 -2,2 -8,3 l -5,2 h -9 q -3,0 -4,1 0,1 -6,0 -5,-1 -8,2 l -2,2 v -3 q 0,-2 -2,-2 h -2 l -2,-1 -1,-1 h -1 v -1 h -1 v -1 h -1 v -2 h 1 v -1 h 1 v -1 h 1 v -1 h 1 l 1,-1 q 1,-2 9,-2 z"
     id="path915"
     inkscape:connector-curvature="0"
     style="fill:#fe53bb;fill-rule:evenodd;stroke:#fe53bb" />
  <path
     d="m 282.70711,27.82988 4,1 q 5,2 6,2 h 9 v -1 h 1 q 0,-1 2,-1 h 6 q 2,0 2,1 h -3 v 10 q -1,10 -2,15 -1,4 -2,7 l -1,3 v 3 h -1 v -2 q 0,-2 -5,-3 -4,-2 -12,-2 -9,-2 -12,0 l -6,3 q -2,1 -4,-1 l -1,-1 v -1 q -1,0 -5,-4 -5,-3 -5,-4 0,-1 -2,-2 l -2,-2 v -2 l -1,-1 v -2 l 1,-1 v -1 q 0,-1 -5,-2 l -6,-2 v -4 h 1 v -1 h 1 v -1 h 1 v -1 h 14 l 1,2 q 1,1 4,0 2,0 3,-1 l 1,-1 v -1 h 1 v -1 l 1,-1 q 0,-1 2,-1 2,1 2,2 2,2 2,1 v -1 h 2 q 1,-1 1,1 1,2 0,3 l -1,2 2,1 1,1 h 1 v -1 l 1,-5 1,-4 q 1,0 2,1 z"
     id="path917"
     inkscape:connector-curvature="0"
     style="fill:#b537f2;fill-rule:evenodd;stroke:#b537f2" />
  <path
     d="m 302.70711,128.82988 h 1 l 2,4 q 3,4 3,8 v 10 h 1 v 4 l -1,3 v -1 h -1 q -1,-1 -5,-10 l -5,-10 1,-4 q 0,-4 2,-4 z"
     id="path919"
     inkscape:connector-curvature="0"
     style="fill:#ffaa01;fill-rule:evenodd;stroke:#ffaa01;stroke-opacity:1;fill-opacity:1" />
  <path
     d="m 363.70711,218.82988 h 1 v 1 q 0,1 1,1 v 1 l -2,3 q -3,3 -3,6 0,2 4,4 l 4,2 1,1 h 1 v 5 l -3,2 q -3,2 -3,3 0,1 -3,3 l -2,1 1,-1 q 0,-2 1,-2 h 1 v -3 h -1 q 0,-1 -1,-1 0,-1 -1,-1 v -1 h -1 q 0,-1 -2,-4 -2,-3 -4,-3 -2,0 -2,-2 1,-2 -2,-2 l -2,-1 h 1 v -1 h 1 l 1,-1 5,-2 q 4,-2 5,-2 h 1 l 1,-1 2,-2 v -1 l -1,-1 q 0,-1 1,-1 z"
     id="path921"
     inkscape:connector-curvature="0"
     style="fill:#fe53bb;fill-rule:evenodd;stroke:#fe53bb" />
  <path
     d="m 341.70711,160.82988 -2,-3 5,3 5,4 h 1 v 1 h 1 v 1 h 4 l 1,-1 2,-1 h 1 l 1,1 q 1,1 3,1 h 3 q 2,0 4,1 l 1,1 h 1 v 3 h -1 l -1,1 h -3 q -3,0 -5,6 -2,5 -5,6 -2,0 -9,1 l -8,1 -1,1 v 1 h -2 v 2 h -1 v 1 l -1,-1 q -1,-2 -2,-3 -1,-1 -3,-2 l -1,-1 h -1 v -2 l 2,1 q 2,1 2,-1 v -2 h -3 v -1 l -1,-1 v -1 h -1 v -1 h 3 q 2,0 4,-1 l 1,-1 h 2 v -1 h 1 v -1 h 2 l 2,-1 2,-1 v -6 q 0,-1 -3,-4 z"
     id="path923"
     inkscape:connector-curvature="0"
     style="fill:#fe53bb;fill-rule:evenodd;stroke:#fe53bb;fill-opacity:1;stroke-opacity:1" />
  <path
     d="m 243.18711,49.90988 -2.929,-2.1302 -2.5503,-0.95266 c 0.66667,0 1.3333,-1 2,-3 0.6667,-2 1.6667,-3 3,-3 0.66667,0 1,0.33333 1,1 0,0.66667 0.33333,1 1,1 1.3333,0 2.6667,-0.33333 4,-1 h 1 v 1 l -1,1 v 2 l 1,1 v 4 c -0.66667,0.66667 0.59763,0.29487 0.59763,0.96154 l 0.59764,1.1598 1.6361,0.95858 0.2071,1.8905 c 3.9999,1.2381 3.535,-1.4148 2.1213,-0.19823 7.0398,0.37329 0.82774,-2.8473 3.8402,9.2278 h 2 v 1 l -1,1 v 1 h 3 l 0.17751,2.5562 -0.17751,3.4438 c -0.92186,-1.6042 -1.0746,-2.6677 -1.946,-3.7178 -0.49517,-0.59681 -1.3913,-0.50859 -1.911,-0.94219 -0.49213,-0.41054 -1.3278,-1.3696 -0.82885,-2.0086 -1.308,0.5788 -2.2249,-0.0361 -2.6007,-0.74149 -0.91622,-1.72 0.18646,-1.6546 -2.1395,-2.294 3.508,-2.2736 2.8014,-5.4166 -1.1308,-4.3186 1.9929,-7.8986 -5.4323,-5.3643 -6.6237,-5.6784 l -2.3402,-4.216 z"
     id="path925"
     inkscape:connector-curvature="0"
     style="fill:#b537f2;fill-rule:evenodd;stroke:#b537f2" />
  <path
     d="m 274.70711,17.82988 h 1 l 1,2 3,3 q 3,1 3,3 v 2 q -1,-1 -2,-1 l -1,4 -1,5 v 1 h -1 l -1,-1 -2,-1 1,-2 q 1,-1 0,-3 0,-2 -1,-1 h -2 v -5 l -1,-3 h -1 q 0,-1 1,-1 2,0 2,-1 0,-1 1,-1 z"
     id="path927"
     inkscape:connector-curvature="0"
     style="fill:#b537f2;fill-rule:evenodd;stroke:#b537f2" />
  <path
     d="m 399.70711,278.82988 v -1 h 2 v 6 l -1,5 -2,5 q 0,1 -1,1 h -1 v 1 q -1,-1 -3,-1 -1,0 -1,-3 0,-3 -4,-3 l -3,1 q 0,-1 -1,-1 0,-1 -1,-2 h -4 v -1 q 0,-1 2,-2 l 2,-1 h 1 v -2 h -1 l 1,-1 h 2 l 3,2 q 3,3 4,3 h 3 q 2,0 2,-1 v -5 z"
     id="path929"
     inkscape:connector-curvature="0"
     style="fill:#fe53bb;fill-rule:evenodd;stroke:#fe53bb" />
  <path
     d="m 258.70711,2.82988 h 2 q 0,1 1,2 v 1 h 3 q 3,0 3,1 l 1,1 v 3 h -1 q -1,0 -2,2 l -1,2 h -1 v 1 h -1 v 1 l 1,1 v 2 q 0,1 -1,1 -1,0 -2,2 0,1 -3,1 -3,0 -6,1 -3,0 -3,-2 0,-1 -3,-1 -2,0 -2,1 l -1,1 v -6 h -1 v 1 h -1 v 1 l -1,-1 v -2 l 1,-1 q 2,0 4,-3 3,-4 5,-4 l 2,-2 q 0,-1 3,-2 3,-2 4,-2 z"
     id="path931"
     inkscape:connector-curvature="0"
     style="fill:#de38c8;fill-rule:evenodd;stroke:#de38c8;fill-opacity:1" />
  <path
     d="m 262.70711,0.82988 h 10 q 8,0 12,3 4,2 8,7 l 5,6 h 1 v 1 h 1 v 1 h 1 v 1 h 1 v 1 h 1 q 1,0 1,1 0,1 2,3 3,2 2,3 v 1 h -3 q -2,0 -2,1 h -1 v 1 h -9 q -1,0 -6,-2 l -4,-1 v -2 q 0,-2 -3,-3 l -3,-3 -1,-2 v -1 q -1,0 -2,-1 -2,-1 -5,1 h -3 v 1 h -1 v 1 h -1 v -1 l -1,-1 v -1 h 1 v -1 h 1 l 1,-2 q 1,-2 2,-2 h 1 v -3 l -1,-1 q 0,-1 -3,-1 h -3 v -1 q -1,-1 -1,-2 v -1 q 0,-1 2,-1 z"
     id="path933"
     inkscape:connector-curvature="0"
     style="fill:#b537f2;fill-rule:evenodd;stroke:#b537f2" />
  <path
     d="m 326.70711,299.82988 h 2 l -2,2 c -2,2 -2,3 0,3 h 4 l -2,1 c -2,0.66667 -6,2.3333 -12,5 l -10,4 -1,1 -1.6164,1.0771 -1.3836,0.92294 -2,1 h -7 l 1,-1 v -2 h -1 v -1 h -1 l -1,1 h -1 v -2 h 2 v -1 h 1 v -1 h 1 v -1 l 10,-2 10,-4 h 1 v -1 l 3,-1 c 1.3333,0 2.3333,-0.33333 3,-1 0,-0.66667 0.33333,-1 1,-1 0.66667,0 2,-0.33333 4,-1 z"
     id="path935"
     inkscape:connector-curvature="0"
     style="fill:#b537f2;fill-rule:evenodd;stroke:#b537f2;fill-opacity:1;stroke-opacity:1" />
  <path
     d="m 309.70711,39.82988 v -10 h 3 l 4,1 q 3,2 18,2 16,2 22,4 5,2 6,2 v 1 h 1 v 1 q -1,0 -1,2 0,2 -2,4 -3,1 -3,2 0,1 -7,4 -6,4 -8,6 -2,2 -5,3 -3,1 -3,2 v 3 q 0,1 -1,3 -2,3 -3,7 -2,5 -3,4 h -1 v 3 h -2 q -1,-1 -4,-1 -2,-1 -2,2 0,3 -4,5 -4,1 -8,5 l -4,2 v 1 h -1 v 1 h -6 q -1,0 -5,-1 -5,-1 -4,2 1,2 -1,3 l -1,1 h -1 q 0,1 -2,2 l -2,2 h -1 q -2,1 -4,1 h -1 l -2,1 h -3 q -2,1 -4,3 l -3,2 h -5 q -5,0 -10,-2 l -5,-2 h -3 v -1 l -1,1 v 1 l 1,1 q 2,0 3,1 l 1,1 h 1 l -1,1 -2,1 h -1 v 1 h -1 v 1 h -3 q -3,0 -8,1 l -5,1 h -9 q -7,0 -16,-1 -9,0 -9,-1 0,-1 -1,-1 h -1 v -9 q 0,-5 -1,-13 v -8 h 1 v -8 q 0,-8 1,-9 0,-1 4,-1 l 4,-1 7,1 q 7,1 11,3 5,2 5,3 1,1 10,3 10,2 19,2 h 15 l 2,1 1,1 h 4 l 12,-4 15,-5 4,-1 h 1 l 1,-1 q 0,-1 1,-3 v -1 h 1 v -3 l 1,-3 q 1,-3 2,-7 1,-5 2,-15 z"
     id="path937"
     inkscape:connector-curvature="0"
     style="fill:#fe53bb;fill-rule:evenodd;stroke:#fe53bb;stroke-opacity:1;fill-opacity:1" />
  <path
     d="m 44.707107,158.82988 h 4 l 1,2 q 1,2 0,3 l -1,1 q -1,0 -4,2 -2,2 -8,2 h -6 q -2,-1 -2,-4 -1,-2 0,-2 l 1,-1 7,-1 z"
     id="path939"
     inkscape:connector-curvature="0"
     style="fill:#b537f2;fill-rule:evenodd;stroke:#b537f2" />
  <path
     d="m 275.70711,16.82988 v 1 h -1 q -1,0 -1,1 0,1 -2,1 -1,0 -1,1 h 1 l 1,3 v 6 q 0,1 -2,-1 0,-1 -2,-2 -2,0 -2,1 l -1,1 v 1 h -1 v -12 h 1 v -1 h 3 q 3,-2 5,-1 1,1 2,1 z"
     id="path941"
     inkscape:connector-curvature="0"
     style="fill:#b537f2;fill-rule:evenodd;stroke:#b537f2" />
  <path
     d="m 286.70711,208.82988 h 9 l 7,1 q 6,1 10,5 3,4 2,5 -2,1 -1,1 1,1 0,1 v 1 h 1 v 1 h -1 v 1 h -5 v 1 h -2 q -1,-1 -2,-1 h -7 l -3,-1 q -3,-1 -8,-2 l -5,-1 -6,-2 -6,-1 h -2 q -2,-1 -9,-1 l -6,-2 h -3 l -1,-1 v -2 h 2 l 1,-1 h 14 l 7,-1 q 7,-1 14,-1 z"
     id="path943"
     inkscape:connector-curvature="0"
     style="fill:#fe53bb;fill-rule:evenodd;stroke:#fe53bb" />
  <path
     d="m 345.70711,130.82988 6,-1 h 6 l 3,1 q 4,0 4,1 h 1 v 1 q 1,0 1,2 v 2 q -1,1 -3,1 -2,0 -2,1 v 1 h -1 q -2,1 -2,3 v 3 l -1,-1 -1,-2 v -1 q 0,-1 -2,-6 -2,-5 -4,-5 z"
     id="path945"
     inkscape:connector-curvature="0"
     style="fill:#fe53bb;fill-rule:evenodd;stroke:#fe53bb" />
  <path
     d="m 166.70711,81.82988 h 8 c 4,0.66667 6.6667,1 8,1 h 2 l 1,4.7866 c -12.328,-0.44951 -25.198,-0.55283 -28.948,-6.4926 -0.69079,-0.85536 -0.73465,0.14338 -1.052,0.706 0.66667,-0.66667 0,-1.3333 -2,-2 l -3,-1 h 4 c 2,0 4.3333,0.66667 7,2 2.6667,0 4.3333,0.33333 5,1 z"
     id="path947"
     inkscape:connector-curvature="0"
     style="fill:#b537f2;fill-rule:evenodd;stroke:#b537f2" />
  <path
     d="m 428.70711,192.82988 h 2 -1 q -1,1 1,3 l 6,6 q 6,5 14,14 10,9 10,11 2,2 2,3 v 4 l -1,2 -1,2 v 1 h -1 l -4,1 q -4,1 -16,0 l -12,-1 v 1 h -1 v 1 h 1 l 1,2 q 2,2 -1,3 -3,1 -1,4 2,3 2,4 v 1 h -1 v -1 h -1 v 1 h -1 l -1,1 h -7 q -2,1 -11,3 l -9,2 v 1 h -1 v 2 l 3,4 q 3,4 3,5 l -1,1 q -1,1 -1,2 v 1 h -1 v 1 h -1 l -1,1 v 1 h -1 q -1,1 -4,0 l -3,-1 h -11 q -9,1 -9,2 -1,1 -3,2 h -2 v 1 l -1,1 -1,1 v 1 h -2 v 1 l -1,1 v 1 l -2,1 q -1,1 -1,3 v 3 h -1 v 1 h -1 v 1 h -4 v -4 l 1,-1 v -1 q 1,0 0,-1 v -1 l -3,-3 q -3,-2 -6,-5 l -3,-4 -1,-1 v -1 h -1 v -2 q 1,-2 8,-9 8,-7 11,-10 2,-3 3,-3 v -1 q 1,0 1,-1 h 1 v -1 l 1,-1 q 2,0 2,-1 0,-1 3,-3 l 3,-2 v -5 h -1 l -1,-1 -4,-2 q -4,-2 -4,-4 0,-3 3,-6 l 2,-3 h 1 v -1 h 2 v -1 h 1 v -1 h 1 q 2,0 2,-2 0,-2 7,-5 7,-3 9,-4 l 1,-1 10,-3 q 11,-3 12,-4 l 1,-1 v -1 h 3 q 3,0 3,-3 0,-2 4,-2 z"
     id="path949"
     inkscape:connector-curvature="0"
     style="fill:#fe53bb;fill-rule:evenodd;stroke:#fe53bb" />
  <path
     d="m 295.70711,132.82988 v 1 h 1 v 3 l -3,10 q -3,10 -6,16 l -4,8 q 0,2 1,2 1,0 2,1 h 2 v 2 h -1 v 1 h -1 v 1 h -1 v -1 h -23 q -17,0 -19,1 -3,1 -6,-1 -3,-2 -11,-1 -7,1 -8,3 -2,2 -7,3 l -5,1 h -1 l -1,-1 q -1,-1 -11,-2 l -10,-1 v -3 h 1 v -2 h 2 v -2 h 2 q 1,0 1,-1 0,-2 -1,-2 0,-1 3,-3 4,-3 6,-3 2,0 1,-1 -1,-1 5,-2 l 5,-2 v -1 l 17,1 q 17,1 30,-3 13,-3 13,-8 2,-4 2,-10 v -7 l 1,-2 q 1,-2 11,-1 10,2 12,4 0,2 1,2 z"
     id="path951"
     inkscape:connector-curvature="0"
     style="fill:#fe53bb;fill-rule:evenodd;stroke:#fe53bb;stroke-opacity:1;fill-opacity:1" />
  <path
     d="m 78.707107,161.82988 -1,-2 h 1 v 1 l 5,3 q 5,3 11,5 5,2 7.000003,2 2,2 3,2 l 1,1 1,1 h 2 l 8,6 q 9,4 10,5 h 3 v 1 h 1 l 1,1 1,1 1,1 v 1 h -5 q -6,0 -14,1 l -8,1 v 2 h 1 l 1,1 q 1,0 1,1 v 1 h -1 l -1,-1 h -1 q -1,0 -2,-1 -1,-1 -4,-1 -4.000003,-1 -4.000003,-3 0,-2 -4,-4 -5,-3 -7,-7 -2,-5 -3,-6 h -1 q 1,-1 0,-4 l -1,-2 v -2 l -1,-2 -1,-1 z"
     id="path953"
     inkscape:connector-curvature="0"
     style="fill:#fe53bb;fill-rule:evenodd;stroke:#fe53bb" />
  <path
     d="m 242.70711,24.82988 3,1 q 3,1 3,2 1,1 4,2 l 3,1 h -14 v 1 h -1 v 1 h -1 v 1 h -1 v 1 q -1,0 -1,-1 l 1,-2 q 0,-2 1,-3 v -1 q 1,0 1,-1 h 1 v -1 q 1,0 1,-1 z"
     id="path955"
     inkscape:connector-curvature="0"
     style="fill:#b537f2;fill-rule:evenodd;stroke:#b537f2" />
  <path
     d="m 326.70711,86.82988 1,-1 q 1,0 1,1 h 3 l 1,1 1,1 5,3 8,4 h 1 q 0,1 1,1 h 1 v 1 h 1 v 1 h 2 l 2,2 q 1,0 2,1 l 2,1 h 1 l 1,1 v 2 h 1 v 1 h 1 -8 l -2,-1 q -1,-1 -5,-3 -4,-2 -13,-9 z"
     id="path957"
     inkscape:connector-curvature="0"
     style="fill:#fe53bb;fill-rule:evenodd;stroke:#fe53bb" />
  <path
     d="m 192.70711,68.82988 h 3 l -4,1 q -4,0 -4,1 -1,1 -1,9 v 8 h -1 v -3 l -1,-2 h -2 q -2,0 -8,-1 h -7 v -1 q -1,0 -2,-1 -1,-1 -6,-4 -5,-3 -6,-4 l -1,-1 h -1 q -1,0 -1,-1 h -1 v -1 h -2 l -1,1 h -1 v -1 l 1,-2 2,-1 q 2,-1 5,-4 l 3,-3 v -1 h 1 v -1 h 2 v -1 l 5,-1 q 5,0 7,-2 2,0 8,6 7,6 8,8 1,2 5,2 z"
     id="path959"
     inkscape:connector-curvature="0"
     style="fill:#b537f2;fill-rule:evenodd;stroke:#b537f2;fill-opacity:1;stroke-opacity:1" />
  <path
     d="m 332.70711,216.82988 h 4 l 3,1 h 5 l 2,1 h 4 l 1,-1 h 1 l 2,1 q 3,0 2,1 l -1,1 h -3 l -2,1 q -1,1 -8,3 -6,3 -6,4 l 1,1 -1,1 v 1 h -1 q -1,-1 -3,-1 -2,0 -10,-2 h -7 l -1,-1 -1,-1 h -4 v -1 l 8,-1 q 8,-2 10,-5 2,-3 5,-3 z"
     id="path961"
     inkscape:connector-curvature="0"
     style="fill:#fe53bb;fill-rule:evenodd;stroke:#fe53bb" />
  <path
     d="m 348.70711,87.82988 2,1 h 1 l 1,1 1,1 h 1 v 1 h 1 v 1 h 2 v 2 h -6 l -1,-1 -1,-1 h -1 v 4 h -1 q -1,0 -7,-4 l -7,-4 -1,-1 -1,-1 h -3 q 0,-1 -1,-1 v -1 h 3 q 2,0 2,-1 0,-1 8,1 7,2 8,3 z"
     id="path963"
     inkscape:connector-curvature="0"
     style="fill:#fe53bb;fill-rule:evenodd;stroke:#fe53bb" />
  <path
     d="m 173.70711,172.82988 3,2 q 2,2 4,2 h 3 v 2 l 10,1 q 10,1 11,2 l 1,1 h -15 q -8,0 -9,2 l -1,1 h -1 v 1 h -1 v 1 h -1 v 1 h -1 v 1 q 0,1 1,1 1,0 1,1 v 1 h -2 l -2,-1 -1,-1 h -2 l -2,-1 -2,-1 h 4 v -1 h 1 v -13 q 0,-1 1,-2 z"
     id="path965"
     inkscape:connector-curvature="0"
     style="fill:#fe53bb;fill-rule:evenodd;stroke:#fe53bb;fill-opacity:1;stroke-opacity:1" />
  <path
     d="m 336.70711,190.82988 h 1 v 1 l 1,1 h 11 q 5,0 8,-1 l 3,-1 q 1,0 2,1 l 2,1 h 2 v 1 q 0,1 -1,2 l -1,1 h -5 q -5,0 -14,1 l -9,1 z"
     id="path967"
     inkscape:connector-curvature="0"
     style="fill:#fe53bb;fill-rule:evenodd;stroke:#fe53bb" />
  <path
     d="m 0.70710678,139.82988 1.00000002,4 c 0.66667,2.6667 1.3333,3.6667 2,3 h 3 c 1.3333,0 2.3333,0.66667 3,2 v 3 l -1,1 c -1.3333,0.66667 -1.6667,1.6667 -1,3 0,0.66667 0.33333,1 1,1 h 1 v -1 h 1.0000002 v 1 h 2 c 0.66667,0 1,0.33333 1,1 l -1,1 c -1.3333,0 -2,1.3333 -2,4 v 5 c 0.66667,0.66667 1.3333,1 2,1 h 2 v -1 c 0.66667,-0.66667 1.3333,-1 2,-1 h 2.7962 l 10.35,1.8578 -0.79619,-6.1657 -10.35,0.79618 c 0.24822,4.3964 -19.23000022,18.769 -18.00000022,-23.488 z"
     id="path969"
     inkscape:connector-curvature="0"
     style="fill:#b537f2;fill-rule:evenodd;stroke:#b537f2" />
  <path
     d="m 343.70711,291.82988 3,-1 h 5 v 3 l -1,1 v 1 q -1,1 -4,1 l -6,4 q -3,2 -6,3 l -4,1 h -4 q -3,0 0,-3 l 2,-2 1,-1 h 1 l 2,-2 q 2,-2 3,-2 v -1 h 1 l 1,-1 h 1 q 2,0 5,-1 z"
     id="path971"
     inkscape:connector-curvature="0"
     style="fill:#b537f2;fill-rule:evenodd;stroke:#b537f2" />
  <path
     d="m 362.70711,158.82988 -1,-4 h 1 v 1 h 1 v 1 h 1 v 1 l 2,3 q 2,2 0,4 -2,1 -1,2 h -2 q -2,0 -3,-1 l -1,-1 2,-1 q 2,0 1,-5 z"
     id="path973"
     inkscape:connector-curvature="0"
     style="fill:#fe53bb;fill-rule:evenodd;stroke:#fe53bb" />
  <path
     d="m 417.70711,255.82988 h 2 v 1 q -1,0 -3,2 -2,2 -6,10 -5,8 -7,8 h -2 v 1 h -1 q 0,1 -1,1 h -1 v -1 l 1,-1 q 1,-2 2,-3 l 1,-1 q 0,-1 -3,-5 l -3,-4 v -2 h 1 v -1 l 9,-2 q 9,-2 11,-3 z"
     id="path975"
     inkscape:connector-curvature="0"
     style="fill:#fe53bb;fill-rule:evenodd;stroke:#fe53bb" />
  <path
     d="m 378.70711,286.82988 h 2 v -1 l 2,1 q 2,1 2,2 1,0 1,1 h -1 q -1,1 -6,1 h -6 q -1,0 -1,1 -1,0 -3,1 h -2 v -2 h 1 v -1 l 5,-2 z"
     id="path977"
     inkscape:connector-curvature="0"
     style="fill:#fe53bb;fill-rule:evenodd;stroke:#fe53bb" />
  <path
     d="m 143.70711,187.82988 h -2 l -2,1 3,2 4,3 v 1 h 11 v 1 h -3 l -3,1 h -3 q -4,0 -15,2 l -11,1 h -4 q -3,-1 -4,-1 h -2 l -2,-1 h -1 v -1 h -1 v -1 h -1 v -1 h -1 v -2 l 8,-1 q 8,-1 14,-1 h 5 v -1 l -1,-1 -1,-1 -1,-1 h -1 v -1 h -1 6 q 5,1 7,1 2,0 2,1 z"
     id="path979"
     inkscape:connector-curvature="0"
     style="fill:#fe53bb;fill-rule:evenodd;stroke:#fe53bb" />
  <path
     d="m 12.707107,158.82988 1,-1 1,1 q 2,1 2,2 v 2 h 1 v 4 h -1 q -1,0 -2,1 v 1 h -2 q -1,0 -2,-1 v -5 q 0,-4 2,-4 z"
     id="path981"
     inkscape:connector-curvature="0"
     style="fill:#b537f2;fill-rule:evenodd;stroke:#b537f2" />
  <path
     d="m 276.70711,294.82988 h 1 l -1,1 v 3 h -1 l 1,1 2,1 h 6 l 4,1 h 5 q 0,1 -13,1 l -12,1 h -1 l -1,-1 h -1 l 1,-4 q 1,-3 5,-3 4,-1 5,-1 z"
     id="path983"
     inkscape:connector-curvature="0"
     style="fill:#b537f2;fill-rule:evenodd;stroke:#b537f2;fill-opacity:1;stroke-opacity:1" />
  <path
     d="m 295.70711,98.82988 h 1 v 1 h 1 v 1 h 1 v 1 h -2 q -1,1 0,1 l -8,3 -9,2 2,-2 q 2,-1 2,-2 h 1 l 1,-1 q 2,-1 1,-3 -1,-3 4,-2 4,1 5,1 z"
     id="path985"
     inkscape:connector-curvature="0"
     style="fill:#fe53bb;fill-rule:evenodd;stroke:#fe53bb" />
  <path
     d="m 402.70711,198.82988 h 1 l 5,-1 h 4 v 1 l -1,1 q -1,1 -12,4 l -10,3 h -1 l 2,-3 q 2,-2 6,-3 5,-2 6,-2 z"
     id="path987"
     inkscape:connector-curvature="0"
     style="fill:#fe53bb;fill-rule:evenodd;stroke:#fe53bb" />
  <path
     d="m 249.70711,50.82988 v -2 l 2,2 c 1.3333,0.66667 2,1.3333 2,2 0,0.6667 1.6667,2 5,4 2.6667,2.6667 4.3333,4 5,4 v 3 h -1 l -1,1 h -3 c -0.66667,0 -4.5286,-1.5178 -5.1953,-1.5178 0.73106,-1.8571 1.1824,-2.3026 -1.4024,0.71893 l -1.8432,1.4349 c -1.2222,1.2408 6.867,-2.1196 6.4704,-4.713 0,0 -2.7821,-5.4458 -6.0296,1.0769 0,-0.66667 0.33333,-2 1,-4 l -2.8954,-1.5876 0.8954,-2.4124 h -2 l 1,-1 c 0,-0.66667 0.33333,-1.3333 1,-2 z"
     id="path989"
     inkscape:connector-curvature="0"
     style="fill:#b537f2;fill-rule:evenodd;stroke:#b537f2" />
  <path
     d="m 290.70711,312.82988 2,-1 v 2 h -1 l -1,1 h 3 v 1 h 1 v 2 l 7.7072,-0.002 c -6.299,3.4758 -5.2593,5.0747 -9.4417,6.851 -11.488,5.4439 -12.024,1.9264 -16.11,-1.5411 l -1.1558,-1.3082 v -1 h 2 l 1,1 c 0.66667,0.66667 1.3333,1 2,1 h 1 v 1 h 1 v 2 h 2 l 2,-1 h 1 v -1 h 1 v -5 c 0,-2.6667 0.66667,-4.6667 2,-6 z"
     id="path991"
     inkscape:connector-curvature="0"
     style="fill:#b537f2;fill-rule:evenodd;stroke:#b537f2;fill-opacity:1;stroke-opacity:1" />
  <path
     d="m 462.70711,232.82988 v -2 h 1 v 1 q 0,1 1,1 v 7 q -1,7 -2,7 -1,0 -1,1 v 1 h -1 v 1 h -22 q -6,0 -5,3 1,3 -2,4 h -5 q -2,0 -2,-1 l 1,-1 h 1 v -1 h 1 v 1 h 1 v -1 q 0,-1 -2,-4 -2,-3 1,-4 3,-1 1,-3 l -1,-2 h -1 v -1 h 1 v -1 l 12,1 q 12,1 16,0 l 4,-1 h 1 v -1 l 1,-2 1,-2 z"
     id="path993"
     inkscape:connector-curvature="0"
     style="fill:#fe53bb;fill-rule:evenodd;stroke:#fe53bb" />
  <path
     d="m 417.70711,162.82988 v -1 h 1 q 1,0 0,5 v 6 l -1,1 v 1 l -2,2 q -1,2 -10,2 -9,0 -9,-1 0,-1 3,-2 l 3,-1 7,-5 q 7,-5 7,-6 v -1 z"
     id="path995"
     inkscape:connector-curvature="0"
     style="fill:#ffaa01;fill-rule:evenodd;stroke:#ffaa01;stroke-opacity:1;fill-opacity:1" />
  <path
     d="m 438.70711,249.82988 h 6 v 1 q -1,0 0,2 2,1 0,3 -1,1 -1,2 h -1 q -2,1 -6,1 h -5 l -2,-1 -2,-1 h 4 q 3,-1 2,-4 -1,-3 5,-3 z"
     id="path997"
     inkscape:connector-curvature="0"
     style="fill:#fe53bb;fill-rule:evenodd;stroke:#fe53bb" />
  <path
     d="m 460.70711,248.82988 h 1 v 1 q 0,1 -3,2 -4,1 -4,2 0,1 -1,1 h -1 v 1 h -2 l -2,1 q -1,0 -3,1 h -2 q 0,-1 1,-2 2,-2 0,-3 -1,-2 0,-2 v -1 h 8 q 7,-1 8,-1 z"
     id="path999"
     inkscape:connector-curvature="0"
     style="fill:#fe53bb;fill-rule:evenodd;stroke:#fe53bb" />
  <path
     d="m 302.70711,302.82988 v -1 h 1 v 1 h 5 q 4,0 6,1 h 1 v 1 h -1 l -10,3 q -9,3 -11,4 l -2,2 v -1 l 1,-1 1,-1 q 1,-2 2,-2 l 3,-3 z"
     id="path1001"
     inkscape:connector-curvature="0"
     style="fill:#b537f2;fill-rule:evenodd;stroke:#b537f2;fill-opacity:1;stroke-opacity:1" />
  <path
     d="m 142.70711,190.82988 -3,-2 2,-1 h 10 q 8,1 12,1 h 4 l 2,1 2,1 h 2 l 2,1 h 2 q 0,1 1,1 h 1 l 1,1 2,1 h 2 q 2,0 2,2 v 3 h -2 q -3,-1 -15,-2 l -12,-2 v -1 h -11 v -1 z"
     id="path1003"
     inkscape:connector-curvature="0"
     style="fill:#fe53bb;fill-rule:evenodd;stroke:#fe53bb" />
  <path
     d="m 49.707107,160.82988 -1,-2 h 28 v 1 h 1 l 1,2 v 2 l 1,1 1,2 v 4 h -1 q -1,0 -3,-1 -2,-1 -13,-1 -11,-2 -13,-3 l -2,-1 1,-1 q 1,-1 0,-3 z"
     id="path1005"
     inkscape:connector-curvature="0"
     style="fill:#b537f2;fill-rule:evenodd;stroke:#b537f2" />
  <path
     d="m 359.70711,215.82988 3,-1 h 4 v 1 q 0,1 -1,2 l -1,1 q -1,0 -1,1 h -1 v 1 h 1 v 1 l -2,2 -1,1 h -1 q -1,0 -5,2 l -5,2 -1,1 h -1 q 0,-1 -5,0 h -5 l -1,-1 q 0,-1 6,-4 7,-2 8,-3 l 2,-1 h 3 l 1,-1 q 1,-1 -2,-1 l -2,-1 h 1 v -1 h 1 q 2,0 5,-1 z"
     id="path1007"
     inkscape:connector-curvature="0"
     style="fill:#fe53bb;fill-rule:evenodd;stroke:#fe53bb" />
  <path
     d="m 280.70711,176.82988 h 2 l 1,1 q 1,1 2,3 v 2 h 2 v 1 h 1 v 2 h -1 l -1,-1 h -1 v -1 h -1 v 1 h -1 v -1 q -1,0 -2,1 h -1 v 2 q -1,0 -24,1 l -23,1 -2,-2 q -1,-2 -3,0 h -4 q -2,0 -8,-1 l -5,-1 -3,-1 -2,-1 5,-1 q 5,-1 7,-3 1,-2 8,-3 8,-1 11,1 3,2 6,1 2,-1 19,-1 z"
     id="path1009"
     inkscape:connector-curvature="0"
     style="fill:#fe53bb;fill-rule:evenodd;stroke:#fe53bb;stroke-opacity:1;fill-opacity:1" />
  <path
     d="m 263.70711,19.82988 v -1 h 1 v 12 l -1,1 q -1,1 -3,1 -3,1 -4,0 l -1,-2 -3,-1 q -3,-1 -4,-2 0,-1 -2,-2 -2,-1 -4,1 l -3,1 1,-2 2,-2 v -1 l 2,-1 q 3,-1 4,1 0,2 3,2 3,-1 6,-1 3,0 3,-1 1,-2 2,-2 1,0 1,-1 z"
     id="path1011"
     inkscape:connector-curvature="0"
     style="fill:#de38c8;fill-rule:evenodd;stroke:#de38c8" />
  <path
     style="fill:#fe53bb;fill-opacity:1;stroke:#fe53bb;stroke-width:0.19160028;stroke-linecap:round;stroke-linejoin:round;stroke-miterlimit:4;stroke-dasharray:none;stroke-dashoffset:19.60000038;stroke-opacity:1;paint-order:normal"
     d="m 319.89241,126.113 c -1.34409,-0.19742 -3.83129,-0.81562 -5.72167,-1.42213 -1.8901,-0.60643 -6.30754,-1.26236 -9.77161,-1.45097 -1.52801,-0.0832 -3.12309,-0.2392 -3.54461,-0.34668 -1.07945,-0.27524 -9.16814,-1.43502 -14.17842,-2.03294 -3.4272,-0.409 -19.80871,-3.11374 -21.01628,-3.46999 -0.17791,-0.0525 -0.35035,-0.32841 -0.3832,-0.61317 -0.0419,-0.36313 -0.18497,-0.53557 -0.47907,-0.57743 -0.25791,-0.0367 -0.44229,-0.21807 -0.479,-0.47115 -0.037,-0.25505 -0.24138,-0.45406 -0.53767,-0.52352 -0.71419,-0.16742 -0.69055,-0.66369 0.0535,-1.12354 0.35698,-0.22063 1.33139,-0.97033 2.16536,-1.66601 2.13885,-1.78416 2.18692,-1.803 2.18692,-0.85705 0,0.7704 -0.003,0.77314 -0.74406,0.77314 -0.60877,0 -0.76439,0.0778 -0.85592,0.4278 -0.14881,0.56904 -0.0706,0.61832 1.59998,1.00827 0.79035,0.18448 2.34516,0.62487 3.45514,0.97864 2.01422,0.64197 2.036,0.64435 11.20862,1.22517 9.6337,0.61002 11.62494,0.76982 15.70488,1.26033 5.5718,0.66987 12.25165,1.96253 16.76502,3.24429 2.47282,0.70227 3.66604,0.93279 10.82542,2.09144 2.31836,0.3752 5.07741,0.90789 6.13121,1.18376 1.0538,0.27586 2.3731,0.54346 2.93177,0.59465 1.23319,0.113 1.22504,0.40288 -0.0244,0.86677 -2.32373,0.86278 -4.45529,1.10687 -9.45192,1.08234 -2.61795,-0.0129 -5.24597,-0.0948 -5.84005,-0.18202 z"
     id="path918"
     inkscape:connector-curvature="0" />
  <path
     style="fill:#fe53bb;fill-opacity:1;stroke:#fe53bb;stroke-width:0.19160028;stroke-linecap:round;stroke-linejoin:round;stroke-miterlimit:4;stroke-dasharray:none;stroke-dashoffset:19.60000038;stroke-opacity:1;paint-order:normal"
     d="m 347.89239,263.43409 c 0,-0.0386 1.67154,-1.58556 3.71455,-3.43784 2.043,-1.85226 4.13384,-3.86372 4.64631,-4.46992 0.51246,-0.60619 1.38441,-1.57266 1.93766,-2.14771 0.55324,-0.57506 1.0059,-1.19826 1.0059,-1.38488 0,-0.1866 0.24429,-0.58358 0.54284,-0.88215 0.34177,-0.34176 0.5904,-0.84015 0.67119,-1.34549 0.13935,-0.87138 0.67265,-1.39834 1.4152,-1.39834 0.40119,0 0.43637,-0.0849 0.43637,-1.0538 0,-0.98828 -0.029,-1.0538 -0.46566,-1.0538 -0.33707,0 -0.48261,-0.11908 -0.52691,-0.4311 -0.0529,-0.37213 -0.20926,-0.44703 -1.14333,-0.54744 -0.81361,-0.0875 -1.62178,-0.40235 -3.25721,-1.26907 -3.69255,-1.95695 -8.10944,-4.63828 -12.80826,-7.77546 -3.37658,-2.25437 -4.64945,-3.00575 -5.09192,-3.00575 -0.38155,0 -0.7489,-0.1692 -1.03994,-0.479 -0.36044,-0.38366 -0.63558,-0.479 -1.38236,-0.479 -0.64865,0 -1.0991,-0.12326 -1.48025,-0.40508 -0.39789,-0.29417 -1.01215,-0.45187 -2.24354,-0.57601 -2.23793,-0.22559 -3.37113,-0.43513 -7.2081,-1.33279 -3.11981,-0.72987 -3.31503,-0.75173 -6.71322,-0.75173 h -3.49997 l -0.9436,-0.958 -0.94359,-0.958 h -2.16271 -2.16271 v -0.479 c 0,-0.46231 -0.0438,-0.479 -1.25818,-0.479 -1.07753,0 -1.35728,-0.0757 -1.94831,-0.5269 l -0.69013,-0.5269 -4.23079,-0.10732 c -4.15121,-0.1053 -4.26324,-0.11892 -5.95521,-0.72369 -2.05467,-0.73441 -5.94139,-1.69923 -10.15481,-2.52075 -1.69621,-0.33074 -4.4778,-1.06066 -6.22701,-1.63407 -3.21271,-1.05315 -6.46701,-1.72952 -9.67581,-2.01102 -0.94842,-0.0832 -2.24173,-0.29248 -2.87401,-0.46505 -0.71978,-0.19646 -2.3316,-0.35781 -4.311,-0.43155 l -3.16141,-0.11778 -3.05907,-1.02389 -3.05908,-1.0239 h -3.38634 c -4.47386,0 -4.97719,-0.10374 -19.12624,-3.94213 -4.04971,-1.09861 -7.63437,-1.99748 -7.96591,-1.99748 -0.40562,0 -0.75476,-0.16493 -1.06731,-0.50419 -0.5654,-0.61372 -2.57752,-1.60305 -3.26073,-1.60326 -0.27336,-8e-5 -2.64441,-0.69533 -5.269,-1.545 -9.02425,-2.92144 -13.07404,-3.90567 -17.30961,-4.20681 -1.32396,-0.0941 -3.73772,-0.38803 -5.3639,-0.65312 -2.04237,-0.33294 -3.02955,-0.42154 -3.19225,-0.2865 -0.16062,0.13329 -0.27504,0.13157 -0.35971,-0.005 -0.0683,-0.11049 -0.50146,-0.2009 -0.96259,-0.2009 -0.46113,0 -1.04466,-0.0784 -1.29673,-0.17425 -0.8628,-0.32803 -5.21797,-0.95747 -9.43405,-1.36345 -2.31836,-0.22325 -7.07848,-0.87391 -10.57805,-1.44591 -7.29393,-1.19218 -8.54347,-1.25835 -10.59378,-0.56099 -1.1449,0.3894 -1.77936,0.479 -3.39201,0.479 -2.692,0 -6.70321,0.44217 -12.11142,1.3351 -2.48534,0.41034 -5.14389,0.80388 -5.9079,0.87453 l -1.3891,0.12846 V 174.9085 150.26842 h 1.22305 c 1.82081,0 10.69937,0.54386 14.15569,0.86711 1.83092,0.17123 5.15938,0.28249 8.45131,0.28249 h 5.4308 l 6.1103,0.94504 c 3.36067,0.51977 7.87782,1.12523 10.03811,1.34548 6.06088,0.61793 10.38175,1.44619 12.0895,2.31742 0.69862,0.35641 1.19971,0.3738 10.847,0.37657 8.94363,0.003 11.21251,0.0689 19.59876,0.57286 18.0265,1.0833 25.16657,0.64126 35.92506,-2.22411 6.69016,-1.78184 9.49798,-2.85004 11.6567,-4.43469 1.02966,-0.75585 2.04272,-2.16896 2.04272,-2.84941 0,-0.23486 0.26942,-1.09986 0.59871,-1.92224 1.11766,-2.79121 1.3433,-4.38051 1.45449,-10.24462 l 0.10035,-5.29228 -0.93308,-0.20734 c -1.68236,-0.37384 -2.40024,-0.42592 -8.40548,-0.60978 -3.26679,-0.10002 -6.36689,-0.27065 -6.88912,-0.37917 -1.19602,-0.24854 -3.09168,-1.37245 -4.7027,-2.78816 -1.46998,-1.29177 -2.37655,-1.73609 -4.28868,-2.10194 -1.6646,-0.31849 -6.1771,-0.66429 -8.7037,-0.66697 -1.24197,-10e-4 -3.52268,-0.29288 -7.50885,-0.9599 -3.1488,-0.5269 -6.34098,-0.958 -7.09373,-0.958 -1.45695,0 -3.40066,0.42274 -6.2563,1.36071 l -1.75821,0.5775 -11.36641,-0.0649 c -11.16112,-0.0638 -11.38944,-0.0726 -12.64175,-0.49225 -1.6966,-0.56847 -2.29495,-1.16254 -2.83834,-2.81802 -0.24212,-0.73767 -0.47138,-1.39698 -0.50946,-1.46514 -0.0381,-0.0682 -0.1077,-3.12898 -0.15471,-6.80181 -0.078,-6.09749 -0.33954,-10.46579 -0.86427,-14.437687 -0.10442,-0.790351 -0.19251,-3.096739 -0.19577,-5.125307 l -0.006,-3.688306 h 1.0538 1.0538 v -6.567335 c 0,-6.684424 0.17632,-9.320598 0.69674,-10.417322 0.35662,-0.751496 0.52062,-0.817585 2.34923,-0.946624 1.43579,-0.10132 4.60355,-0.745011 5.22346,-1.061414 0.20046,-0.102316 0.28073,-0.304893 0.21715,-0.548024 -0.0555,-0.21214 -0.007,-0.385709 0.1069,-0.385709 0.11427,0 2.30138,0.304514 4.86025,0.676698 6.85013,0.996342 9.24949,1.613462 13.54948,3.484954 2.91433,1.268415 3.79935,1.777117 4.57537,2.629913 0.46832,0.51465 0.99096,0.784227 2.37757,1.226366 2.7739,0.884492 7.15912,1.903284 10.85407,2.521665 6.89014,1.153119 7.67596,1.204985 19.55449,1.290629 l 11.00402,0.07934 1.25839,0.63429 c 0.69212,0.34886 1.42264,0.816244 1.62339,1.038629 0.32049,0.355041 0.57764,0.404338 2.10916,0.404338 h 1.74417 l 13.21886,-4.411794 c 12.6144,-4.210056 17.02536,-5.55142 18.25536,-5.55142 0.31029,0 0.70748,-0.167041 0.89813,-0.377708 0.46436,-0.513111 1.2683,-2.769526 1.38433,-3.885398 0.0839,-0.807048 0.14677,-0.910102 0.55514,-0.910102 0.43752,0 0.46051,-0.06022 0.46051,-1.206476 0,-0.9027 0.1945,-1.783126 0.77247,-3.496705 1.96896,-5.837547 2.77765,-9.685488 3.72358,-17.717622 0.41634,-3.535214 0.48555,-4.935063 0.48555,-9.819514 v -5.696537 h 1.79446 c 1.85738,0 5.26296,0.726997 6.56874,1.402243 1.59695,0.825816 6.18704,1.355317 14.34144,1.654395 3.83451,0.140639 5.70727,0.311613 9.38841,0.857119 8.5891,1.272816 13.56622,2.373542 17.52008,3.874698 2.69162,1.021914 3.46015,1.245821 3.46015,1.00809 0,-0.18974 0.7245,0.164978 1.04997,0.514075 0.10749,0.115283 2.04917,1.530619 4.31484,3.14519 7.02679,5.007448 9.97155,7.623238 14.66537,13.027026 3.16334,3.641816 5.06668,5.556408 5.52374,5.556408 0.21137,0 0.30712,0.249303 0.34952,0.910102 0.0493,0.768602 0.12362,0.919384 0.47791,0.969809 0.29366,0.0418 0.43736,0.214232 0.479,0.574801 0.0427,0.36949 0.18426,0.532781 0.50092,0.577671 0.25567,0.03625 0.51571,0.257963 0.61795,0.526901 0.10658,0.280355 0.33024,0.464322 0.56447,0.464322 0.36002,0 0.38795,0.120894 0.38795,1.678601 v 1.678602 l 2.40769,3.350905 c 1.32423,1.842999 2.75841,4.040668 3.1871,4.883709 2.0616,4.054392 3.78366,6.828733 5.38603,8.677203 1.80565,2.082969 2.61656,4.030486 2.92193,7.017398 0.13745,1.344451 1.5643,4.998466 3.32959,8.526674 1.9079,3.8133 2.94405,7.40764 3.76048,13.04498 1.04838,7.23889 1.2815,8.41014 2.28801,11.49601 0.90001,2.75931 2.38583,14.06379 2.53568,19.292 l 0.0999,3.48497 0.54965,0.52658 c 0.43326,0.4151 0.54962,0.69594 0.54962,1.32659 0,0.44 0.21555,1.85836 0.479,3.1519 0.39522,1.94055 0.479,2.89847 0.479,5.47695 v 3.12504 l -1.0059,0.0579 c -0.93821,0.054 -1.00998,0.0934 -1.06652,0.58482 -0.0476,0.41385 -0.16068,0.5269 -0.5269,0.5269 -0.42344,0 -0.46628,0.0776 -0.46628,0.84444 0,0.77579 -0.0818,0.91819 -1.0059,1.75143 -1.29892,1.17117 -3.67909,2.9665 -8.66992,6.5396 -3.84652,2.75384 -4.11731,2.91165 -6.1527,3.58563 -3.20892,1.06256 -4.44151,2.00997 -4.02547,3.09414 0.35278,0.91934 4.05846,1.33533 10.46557,1.17484 4.48048,-0.11224 6.45142,-0.35238 7.9166,-0.96457 0.98282,-0.41064 3.5671,-3.14034 3.57406,-3.77515 0.003,-0.28667 0.23666,-0.71266 0.5611,-1.02347 l 0.55572,-0.53243 0.74919,1.11928 c 0.41208,0.6156 0.97755,1.51659 1.25663,2.0022 0.91581,1.59351 2.06336,2.04272 5.79213,2.26729 2.49226,0.1501 3.73621,0.41923 3.73621,0.80835 0,0.0885 0.30177,0.16084 0.6706,0.16084 h 0.6706 v 2.54297 c 0,1.95568 -0.10852,3.06631 -0.46992,4.80905 -0.25845,1.24635 -0.52968,3.21061 -0.60271,4.36502 l -0.13282,2.09893 -0.54689,0.10938 c -0.70532,0.14106 -0.70374,0.55826 0.006,1.51763 0.70875,0.95833 6.37707,6.5058 10.06281,9.84826 1.56875,1.42263 4.4106,4.26789 6.31524,6.32281 1.90464,2.05491 4.37094,4.59172 5.48067,5.63736 4.9522,4.66621 8.62789,8.69552 8.62789,9.45792 0,0.1087 0.37418,0.65817 0.83153,1.22107 1.05725,1.30133 1.27608,1.72109 1.27608,2.44789 0,0.5226 0.0623,0.58738 0.56478,0.58738 0.54625,0 0.56669,0.033 0.6227,1.00591 0.0512,0.88912 0.11005,1.01327 0.50701,1.06949 l 0.44909,0.0636 -0.0829,4.34324 c -0.0676,3.5418 -0.16194,4.71392 -0.5111,6.35227 -0.57401,2.69356 -1.02287,3.7022 -1.79974,4.04426 -0.5962,0.26253 -0.61448,0.30712 -0.70781,1.72594 -0.0562,0.8548 -0.20955,1.5931 -0.37116,1.78725 -0.41541,0.49904 -1.82615,1.15144 -3.74824,1.73338 -2.04043,0.61778 -2.77821,1.01388 -2.77821,1.49155 0,0.56402 -0.86469,1.29118 -1.5354,1.29118 -0.32714,0 -0.54476,0.081 -0.48358,0.17997 0.0612,0.099 0.056,0.52544 -0.0115,0.94767 -0.0942,0.58914 -0.21771,0.78123 -0.53102,0.82594 -0.28456,0.0406 -0.42664,0.21786 -0.46888,0.58512 -0.0476,0.41386 -0.16068,0.5269 -0.5269,0.5269 -0.36964,0 -0.46628,0.0993 -0.46628,0.479 0,0.38321 -0.0958,0.47901 -0.479,0.47901 -0.37972,0 -0.479,0.0966 -0.479,0.46627 0,0.36623 -0.11305,0.47927 -0.5269,0.5269 -0.35793,0.0412 -0.54478,0.1854 -0.58262,0.44965 -0.0306,0.21398 -0.24619,0.47264 -0.479,0.5748 -0.33394,0.14658 -0.4354,0.37265 -0.48067,1.07114 l -0.0574,0.88535 -0.87946,0.12056 c -0.91054,0.12479 -99.30851,0.17479 -99.30851,0.0504 z m -15.68771,-80.22463 c 0.0714,-0.25564 0.13849,-0.78812 0.14899,-1.1833 l 0.0192,-0.7185 h -1.53281 -1.5328 v -0.6372 c 0,-0.43195 -0.15429,-0.78215 -0.479,-1.0872 -0.26345,-0.2475 -0.479,-0.65052 -0.479,-0.8956 0,-0.36738 -0.1009,-0.4456 -0.5748,-0.4456 -0.48099,0 -0.5748,-0.076 -0.5748,-0.46568 0,-0.3283 -0.12042,-0.48373 -0.40823,-0.5269 -0.32639,-0.049 -0.52904,-0.40939 -1.01076,-1.79783 -0.6949,-2.00268 -1.33076,-3.11843 -4.85213,-8.51401 -2.91799,-4.47105 -3.98686,-6.4625 -3.7943,-7.06922 0.0704,-0.22175 0.26251,-0.40319 0.42695,-0.40319 0.4067,0 0.24064,-0.97616 -0.6178,-3.63159 -0.36576,-1.13137 -0.66501,-2.36645 -0.66501,-2.74461 0,-0.60298 0.0648,-0.69737 0.52691,-0.76737 0.28979,-0.0439 -0.83107,-0.0927 -2.49081,-0.10853 l -3.0177,-0.0287 v -0.479 c 0,-0.3832 -0.0958,-0.479 -0.479,-0.479 -0.3832,0 -0.479,-0.0958 -0.479,-0.479 0,-0.40259 -0.0901,-0.479 -0.56472,-0.479 h -0.56471 l -0.0598,-5.98751 c -0.0577,-5.76881 -0.0768,-6.03572 -0.5248,-7.30747 -0.25572,-0.72598 -0.87447,-1.97617 -1.375,-2.7782 -0.50052,-0.80204 -1.4373,-2.47884 -2.08173,-3.72624 l -1.1717,-2.26799 -2.0782,0.0646 c -1.74975,0.0544 -2.14625,0.12515 -2.50878,0.44779 -0.62345,0.55485 -1.0847,1.73546 -1.23512,3.1614 -0.0723,0.68497 -0.34048,2.0845 -0.59606,3.11005 l -0.46469,1.86465 2.37267,4.74556 c 1.30496,2.61006 3.04065,6.21131 3.85707,8.00277 2.60807,5.72281 3.7467,7.75981 4.33753,7.75981 0.17483,0 0.3628,0.11707 0.41771,0.26016 0.0549,0.14308 0.34978,0.31014 0.65528,0.37124 0.51273,0.10255 0.66079,0.35881 1.92531,3.33235 0.75343,1.77169 1.88264,4.51456 2.50936,6.09526 1.41566,3.57052 2.0572,5.00897 2.53023,5.67329 0.20251,0.28439 0.36819,0.74374 0.36819,1.02077 0,0.87344 0.90129,2.35322 1.92718,3.16413 0.53126,0.41994 2.14716,1.46779 3.59089,2.32854 1.6005,0.95423 3.07561,2.00346 3.7797,2.68845 1.07785,1.04862 1.21504,1.12345 2.05971,1.12345 0.87775,0 0.90494,-0.0173 0.90494,-0.5748 0,-0.31614 0.0367,-0.5748 0.0815,-0.5748 0.0448,0 0.79658,0.34578 1.6705,0.7684 0.87393,0.42262 1.67551,0.73955 1.78127,0.70429 0.10578,-0.0353 0.25077,-0.27326 0.3222,-0.5289 z M 320.5451,126.19271 c -0.12972,-0.0525 -0.38838,-0.0557 -0.5748,-0.007 -0.18642,0.0486 -0.0803,0.0915 0.23585,0.0954 0.31614,0.004 0.46867,-0.0358 0.33895,-0.0883 z m 10.82401,-0.006 c -0.18319,-0.048 -0.52807,-0.0497 -0.7664,-0.004 -0.23835,0.0458 -0.0885,0.0851 0.33306,0.0872 0.42152,0.002 0.61651,-0.0354 0.43334,-0.0833 z m 4.83566,-1.78437 c 0,-0.10538 -0.19399,-0.18554 -0.4311,-0.17813 -0.41134,0.0129 -0.41355,0.021 -0.0479,0.17813 0.21076,0.0906 0.40476,0.17073 0.4311,0.17813 0.0263,0.007 0.0479,-0.0727 0.0479,-0.17813 z m -24.76832,-0.30736 c -0.0637,-0.0637 -0.22893,-0.0705 -0.36724,-0.0151 -0.15284,0.0612 -0.10744,0.10656 0.11576,0.11575 0.20198,0.008 0.31514,-0.037 0.25148,-0.10063 z m -1.24141,-0.20273 c -0.13173,-0.0532 -0.34728,-0.0532 -0.479,0 -0.13173,0.0532 -0.024,0.0966 0.2395,0.0966 0.26345,0 0.37122,-0.0435 0.2395,-0.0966 z m 23.46704,0.0111 c -0.0637,-0.0637 -0.22892,-0.0705 -0.36724,-0.0151 -0.15284,0.0612 -0.10745,0.10657 0.11577,0.11576 0.20197,0.008 0.31514,-0.037 0.25147,-0.10063 z m -24.80825,-0.20273 c -0.13172,-0.0531 -0.34727,-0.0531 -0.479,0 -0.13172,0.0532 -0.0239,0.0966 0.2395,0.0966 0.26345,0 0.37123,-0.0435 0.2395,-0.0966 z m 24.04185,0.0111 c -0.0637,-0.0637 -0.22892,-0.0705 -0.36724,-0.0151 -0.15284,0.0612 -0.10745,0.10657 0.11577,0.11576 0.20196,0.008 0.31514,-0.037 0.25147,-0.10063 z m -25.48284,-0.1916 c -0.0637,-0.0637 -0.22892,-0.0705 -0.36723,-0.0151 -0.15285,0.0612 -0.10745,0.10657 0.11576,0.11576 0.20197,0.008 0.31514,-0.037 0.25147,-0.10063 z m 24.71644,0 c -0.0637,-0.0637 -0.22892,-0.0705 -0.36724,-0.0151 -0.15284,0.0612 -0.10745,0.10657 0.11577,0.11576 0.20196,0.008 0.31514,-0.037 0.25147,-0.10063 z m -27.17132,-0.14531 c -0.0439,-0.0382 -0.8127,-0.11776 -1.70843,-0.17678 -0.9561,-0.063 -1.43081,-0.0422 -1.14961,0.0504 0.46485,0.15301 3.0184,0.26594 2.85804,0.1264 z m 26.31311,-0.0574 c -0.13173,-0.0532 -0.34728,-0.0532 -0.479,0 -0.13173,0.0531 -0.024,0.0966 0.2395,0.0966 0.26345,0 0.37122,-0.0435 0.2395,-0.0966 z m -0.958,-0.1916 c -0.13173,-0.0532 -0.34728,-0.0532 -0.47901,0 -0.13172,0.0532 -0.024,0.0966 0.2395,0.0966 0.26346,0 0.37123,-0.0435 0.23951,-0.0966 z m -0.95437,-0.19039 c -0.12971,-0.0525 -0.38837,-0.0557 -0.5748,-0.007 -0.1864,0.0486 -0.0803,0.0915 0.23586,0.0954 0.31614,0.004 0.46868,-0.0358 0.33894,-0.0883 z m -1.15324,-0.19281 c -0.13172,-0.0532 -0.34727,-0.0532 -0.479,0 -0.13172,0.0532 -0.0239,0.0966 0.2395,0.0966 0.26345,0 0.37123,-0.0435 0.2395,-0.0966 z m -0.95436,-0.19039 c -0.12971,-0.0525 -0.38837,-0.0557 -0.5748,-0.007 -0.18641,0.0486 -0.0803,0.0915 0.23586,0.0954 0.31614,0.004 0.46867,-0.0358 0.33894,-0.0883 z m -1.34484,-0.19281 c -0.13173,-0.0532 -0.34728,-0.0532 -0.479,0 -0.13173,0.0532 -0.024,0.0966 0.2395,0.0966 0.26345,0 0.37122,-0.0435 0.2395,-0.0966 z m -1.05779,-0.18047 c -0.0637,-0.0637 -0.22892,-0.0705 -0.36724,-0.0151 -0.15284,0.0612 -0.10745,0.10657 0.11577,0.11576 0.20196,0.008 0.31514,-0.037 0.25147,-0.10063 z m -1.3412,-0.1916 c -0.0637,-0.0637 -0.22892,-0.0705 -0.36724,-0.0151 -0.15284,0.0612 -0.10745,0.10657 0.11576,0.11576 0.20197,0.008 0.31515,-0.037 0.25148,-0.10063 z m -34.29645,-0.7664 c -0.0637,-0.0637 -0.22893,-0.0705 -0.36724,-0.0151 -0.15284,0.0612 -0.10744,0.10657 0.11576,0.11576 0.20198,0.008 0.31514,-0.037 0.25148,-0.10063 z m -1.53281,-0.1916 c -0.0637,-0.0637 -0.22892,-0.0705 -0.36723,-0.0151 -0.15285,0.0612 -0.10745,0.10657 0.11576,0.11576 0.20197,0.008 0.31514,-0.037 0.25147,-0.10063 z m -1.42936,-0.20152 c -0.12972,-0.0525 -0.38838,-0.0557 -0.5748,-0.007 -0.18642,0.0486 -0.0803,0.0915 0.23585,0.0954 0.31614,0.004 0.46867,-0.0358 0.33895,-0.0883 z m -1.5328,-0.1916 c -0.12972,-0.0525 -0.38838,-0.0557 -0.5748,-0.007 -0.18643,0.0486 -0.0803,0.0915 0.23585,0.0954 0.31614,0.004 0.46867,-0.0358 0.33895,-0.0883 z m -3.59616,-0.56007 c -1.47532,-0.25334 -2.85484,-0.43979 -3.0656,-0.41434 -0.50101,0.0605 4.20394,0.86881 5.07741,0.87229 0.36883,0.002 -0.53648,-0.20461 -2.01181,-0.45795 z m 34.14876,0.18679 c -0.0637,-0.0637 -0.22892,-0.0705 -0.36723,-0.0151 -0.15285,0.0612 -0.10745,0.10656 0.11576,0.11576 0.20197,0.008 0.31514,-0.037 0.25147,-0.10064 z m -0.7664,-0.1916 c -0.0637,-0.0637 -0.22892,-0.0705 -0.36723,-0.0151 -0.15285,0.0612 -0.10745,0.10656 0.11576,0.11576 0.20197,0.008 0.31514,-0.037 0.25147,-0.10064 z m -37.07066,-0.58594 c -0.13173,-0.0532 -0.34728,-0.0532 -0.479,0 -0.13173,0.0532 -0.0239,0.0966 0.2395,0.0966 0.26345,0 0.37122,-0.0435 0.2395,-0.0966 z m 34.77146,0.0111 c -0.0637,-0.0637 -0.22893,-0.0705 -0.36724,-0.0151 -0.15284,0.0612 -0.10744,0.10656 0.11576,0.11575 0.20198,0.008 0.31514,-0.037 0.25148,-0.10063 z m -35.72582,-0.20152 c -0.12972,-0.0525 -0.38838,-0.0557 -0.5748,-0.007 -0.18642,0.0486 -0.0803,0.0915 0.23586,0.0954 0.31614,0.004 0.46866,-0.0358 0.33894,-0.0883 z m 34.95942,0.01 c -0.0637,-0.0637 -0.22893,-0.0705 -0.36724,-0.0151 -0.15284,0.0612 -0.10744,0.10657 0.11576,0.11576 0.20198,0.008 0.31514,-0.037 0.25148,-0.10063 z m -36.30426,-0.20274 c -0.13173,-0.0531 -0.34728,-0.0531 -0.479,0 -0.13173,0.0532 -0.024,0.0966 0.2395,0.0966 0.26345,0 0.37122,-0.0435 0.2395,-0.0966 z m 35.34626,0.0111 c -0.0637,-0.0637 -0.22893,-0.0705 -0.36724,-0.0151 -0.15284,0.0612 -0.10744,0.10656 0.11576,0.11575 0.20198,0.008 0.31514,-0.037 0.25148,-0.10063 z m -36.40406,-0.1916 c -0.0637,-0.0637 -0.22892,-0.0705 -0.36723,-0.0151 -0.15285,0.0612 -0.10745,0.10656 0.11576,0.11575 0.20198,0.008 0.31514,-0.037 0.25147,-0.10063 z m 35.63765,0 c -0.0637,-0.0637 -0.22892,-0.0705 -0.36723,-0.0151 -0.15285,0.0612 -0.10745,0.10656 0.11576,0.11575 0.20198,0.008 0.31514,-0.037 0.25147,-0.10063 z m -36.78725,-0.1916 c -0.0637,-0.0637 -0.22892,-0.0705 -0.36723,-0.0151 -0.15285,0.0612 -0.10745,0.10656 0.11576,0.11575 0.20197,0.008 0.31514,-0.037 0.25147,-0.10063 z m 35.82925,0 c -0.0637,-0.0637 -0.22892,-0.0705 -0.36723,-0.0151 -0.15285,0.0612 -0.10745,0.10656 0.11576,0.11575 0.20198,0.008 0.31514,-0.037 0.25147,-0.10063 z m -0.958,-0.1916 c -0.0637,-0.0637 -0.22892,-0.0705 -0.36723,-0.0151 -0.15285,0.0612 -0.10745,0.10656 0.11576,0.11575 0.20197,0.008 0.31514,-0.037 0.25147,-0.10063 z m -1.04981,-0.20273 c -0.13172,-0.0532 -0.34727,-0.0532 -0.479,0 -0.13172,0.0532 -0.0239,0.0966 0.2395,0.0966 0.26345,0 0.37123,-0.0435 0.2395,-0.0966 z m -1.05779,-0.18047 c -0.0637,-0.0637 -0.22893,-0.0705 -0.36724,-0.0151 -0.15284,0.0612 -0.10744,0.10656 0.11576,0.11575 0.20198,0.008 0.31515,-0.037 0.25148,-0.10063 z m -1.04981,-0.20273 c -0.13173,-0.0532 -0.34728,-0.0532 -0.479,0 -0.13173,0.0532 -0.024,0.0966 0.2395,0.0966 0.26345,0 0.37122,-0.0435 0.2395,-0.0966 z m -1.24939,-0.18047 c -0.0637,-0.0637 -0.22893,-0.0705 -0.36724,-0.0151 -0.15284,0.0612 -0.10744,0.10656 0.11576,0.11575 0.20198,0.008 0.31514,-0.037 0.25148,-0.10063 z m -36.97886,-0.1916 c -0.0637,-0.0637 -0.22892,-0.0705 -0.36723,-0.0151 -0.15285,0.0612 -0.10745,0.10656 0.11576,0.11575 0.20197,0.008 0.31514,-0.037 0.25147,-0.10063 z m 35.73744,-0.0111 c -0.13172,-0.0532 -0.34727,-0.0532 -0.479,0 -0.13172,0.0532 -0.0239,0.0966 0.2395,0.0966 0.26345,0 0.37123,-0.0435 0.2395,-0.0966 z M 265.5809,117.3581 c -0.11592,-0.0774 -0.26,-0.2701 -0.32017,-0.42817 -0.0731,-0.19204 -0.11442,-0.14436 -0.12453,0.1437 -0.0102,0.28963 0.0949,0.43014 0.32017,0.42817 0.20682,-0.002 0.25454,-0.0569 0.12453,-0.1437 z m 35.41732,0.0197 c -0.13172,-0.0532 -0.34727,-0.0532 -0.479,0 -0.13172,0.0532 -0.024,0.0966 0.2395,0.0966 0.26345,0 0.37123,-0.0435 0.2395,-0.0966 z m -1.5328,-0.1916 c -0.13172,-0.0532 -0.34727,-0.0532 -0.479,0 -0.13172,0.0532 -0.024,0.0966 0.2395,0.0966 0.26345,0 0.37123,-0.0435 0.2395,-0.0966 z m -1.52916,-0.19039 c -0.12971,-0.0525 -0.38837,-0.0557 -0.5748,-0.007 -0.18642,0.0486 -0.0803,0.0915 0.23586,0.0954 0.31614,0.004 0.46866,-0.0358 0.33894,-0.0883 z m -1.7244,-0.1916 c -0.12972,-0.0525 -0.38838,-0.0557 -0.5748,-0.007 -0.18642,0.0486 -0.0803,0.0915 0.23586,0.0954 0.31614,0.004 0.46866,-0.0358 0.33894,-0.0883 z m -2.01545,-0.19799 c -0.18441,-0.0482 -0.48618,-0.0482 -0.6706,0 -0.18441,0.0482 -0.0335,0.0876 0.3353,0.0876 0.36883,0 0.51972,-0.0394 0.3353,-0.0876 z m -2.29697,-0.19117 c -0.18318,-0.048 -0.52806,-0.0497 -0.7664,-0.004 -0.23833,0.0458 -0.0884,0.0851 0.33307,0.0872 0.42152,0.002 0.61652,-0.0354 0.43333,-0.0833 z m -26.98593,-0.11418 c -0.0439,-0.0298 -0.23072,-0.1697 -0.41514,-0.31086 -0.28701,-0.21968 -0.3353,-0.21187 -0.3353,0.0542 0,0.1911 0.15993,0.31086 0.41513,0.31086 0.22833,0 0.37921,-0.0244 0.33531,-0.0542 z m 24.3971,-0.081 c -0.23711,-0.0457 -0.6251,-0.0457 -0.8622,0 -0.23711,0.0457 -0.0431,0.083 0.4311,0.083 0.47421,0 0.6682,-0.0374 0.4311,-0.083 z m -3.15917,-0.18802 c -0.18319,-0.048 -0.52807,-0.0497 -0.76641,-0.004 -0.23833,0.0458 -0.0884,0.0851 0.33307,0.0872 0.42152,0.002 0.61652,-0.0354 0.43334,-0.0833 z m -2.87401,-0.1916 c -0.18319,-0.048 -0.52807,-0.0497 -0.7664,-0.004 -0.23833,0.0458 -0.0885,0.0851 0.33307,0.0872 0.42152,0.002 0.61652,-0.0354 0.43333,-0.0833 z m -3.15999,-0.18564 c -0.12972,-0.0525 -0.38838,-0.0557 -0.5748,-0.007 -0.18642,0.0486 -0.0803,0.0915 0.23585,0.0954 0.31614,0.004 0.46867,-0.0358 0.33895,-0.0883 z m -2.78584,-0.18168 c -0.0637,-0.0637 -0.22893,-0.0705 -0.36724,-0.0151 -0.15284,0.0612 -0.10744,0.10657 0.11576,0.11576 0.20198,0.008 0.31514,-0.037 0.25148,-0.10063 z m -13.36013,-0.14929 c 0,-0.0404 -0.17256,-0.11858 -0.38346,-0.17374 -0.21091,-0.0551 -0.33515,-0.0221 -0.2761,0.0735 0.10313,0.16686 0.65956,0.25146 0.65956,0.10028 z m 2.7782,-3.56696 c 0.19074,-0.21076 0.30369,-0.3832 0.251,-0.3832 -0.0527,0 -0.25186,0.17244 -0.4426,0.3832 -0.19073,0.21076 -0.30368,0.3832 -0.25099,0.3832 0.0527,0 0.25186,-0.17244 0.44259,-0.3832 z m 1.43701,-0.958 c 0,-0.10538 -0.038,-0.1916 -0.0845,-0.1916 -0.0465,0 -0.13778,0.0862 -0.2029,0.1916 -0.0651,0.10538 -0.0271,0.1916 0.0845,0.1916 0.1116,0 0.20291,-0.0862 0.20291,-0.1916 z"
     id="path920"
     inkscape:connector-curvature="0" />
  <path
     style="fill:#fe53bb;fill-opacity:1;stroke:#fe53bb;stroke-width:0.19160028;stroke-linecap:round;stroke-linejoin:round;stroke-miterlimit:4;stroke-dasharray:none;stroke-dashoffset:19.60000038;stroke-opacity:1;paint-order:normal"
     d="m 347.91038,263.36048 c 0.01,-0.079 1.55583,-1.54368 3.43545,-3.25477 3.75805,-3.42116 7.85098,-7.72942 7.85098,-8.26406 0,-0.18781 0.2071,-0.53604 0.46022,-0.77384 0.25312,-0.2378 0.55213,-0.7974 0.66449,-1.24358 0.23118,-0.91813 0.66596,-1.39135 1.36609,-1.4869 0.43834,-0.0598 0.479,-0.14667 0.479,-1.02337 0,-0.84149 -0.0513,-0.9653 -0.42204,-1.01805 -0.23212,-0.033 -0.47497,-0.22682 -0.53968,-0.43064 -0.11624,-0.36626 -0.28939,-0.43472 -1.64958,-0.65221 -1.48617,-0.2376 -7.6561,-3.75943 -14.72852,-8.40709 -2.58182,-1.69664 -5.10395,-3.22494 -5.60475,-3.39623 -0.50081,-0.17127 -1.07775,-0.46274 -1.28212,-0.64767 -0.20436,-0.18495 -0.87237,-0.40169 -1.48446,-0.48164 -0.61208,-0.08 -1.38676,-0.28986 -1.72151,-0.46645 -0.33474,-0.17658 -1.36938,-0.4052 -2.2992,-0.50805 -1.91803,-0.21216 -3.70114,-0.55133 -7.15119,-1.36031 -2.05444,-0.48172 -2.93131,-0.57817 -6.16651,-0.67826 l -3.7715,-0.11667 -0.9155,-0.92949 -0.9155,-0.92947 h -2.14938 c -2.08311,0 -2.15127,-0.0132 -2.21061,-0.4311 -0.0553,-0.38918 -0.19167,-0.44041 -1.40243,-0.5269 -0.95433,-0.0682 -1.507,-0.21475 -1.916,-0.50816 -0.52977,-0.38006 -0.89205,-0.42185 -4.62443,-0.53338 -4.04492,-0.12088 -4.05249,-0.12192 -6.51441,-0.89318 -2.75603,-0.86341 -4.90049,-1.39447 -9.60197,-2.37784 -1.76244,-0.36864 -4.4557,-1.05589 -5.98503,-1.52723 -4.15501,-1.28057 -8.6599,-2.20742 -10.72895,-2.20742 -0.34009,0 -1.14812,-0.1376 -1.79561,-0.30576 -0.64749,-0.16817 -2.81544,-0.41789 -4.81766,-0.55495 -3.60635,-0.24685 -3.66729,-0.25845 -6.51441,-1.23986 -2.45771,-0.84719 -3.02665,-0.97824 -3.92781,-0.90477 -0.57959,0.0472 -2.30399,0.0199 -3.832,-0.0608 -3.36801,-0.17786 -4.50585,-0.42569 -15.78637,-3.43849 -4.65933,-1.24441 -8.8549,-2.32706 -9.32349,-2.40588 -0.46859,-0.0788 -1.10138,-0.3527 -1.4062,-0.60862 -0.77234,-0.64844 -2.17649,-1.32442 -3.08619,-1.48574 -0.42152,-0.0748 -3.05123,-0.85888 -5.8438,-1.74251 -8.96858,-2.83785 -12.01864,-3.5783 -16.5136,-4.00891 -1.64861,-0.15793 -4.13075,-0.46331 -5.51588,-0.67862 -1.38513,-0.21531 -2.83655,-0.38618 -3.22539,-0.37971 -0.74012,0.0123 -1.38131,-0.0817 -5.04292,-0.73925 -1.22558,-0.22011 -4.32951,-0.62556 -6.89761,-0.90101 -2.56809,-0.27545 -7.37654,-0.9288 -10.68543,-1.45189 -6.89757,-1.09042 -8.78578,-1.19301 -10.84466,-0.58922 -0.93559,0.27438 -2.18139,0.42981 -4.1194,0.51397 -3.14345,0.13651 -6.91142,0.58362 -12.04273,1.42898 -1.93153,0.31821 -4.19377,0.63544 -5.02719,0.70494 l -1.51531,0.12637 v -24.70516 -24.70516 l 1.1975,0.0528 c 4.761,0.20996 9.74796,0.50552 12.59772,0.74664 1.84415,0.15604 6.19827,0.33339 9.67581,0.39413 6.20377,0.10834 6.42743,0.12609 11.87922,0.94302 3.05602,0.45792 7.49636,1.05459 9.86741,1.32592 6.95139,0.79547 10.13387,1.39304 12.05431,2.26342 0.84936,0.38495 1.28513,0.40269 13.04533,0.53109 9.05188,0.0988 13.8834,0.24017 18.87263,0.55209 12.0866,0.75565 20.12826,0.58094 27.11144,-0.589 2.93758,-0.49216 9.67201,-2.17871 12.92345,-3.23651 4.75736,-1.54774 7.62459,-3.43766 8.16139,-5.37953 0.12819,-0.46372 0.48204,-1.51277 0.78634,-2.33122 0.9405,-2.52959 1.11344,-3.74995 1.34137,-9.46595 0.11838,-2.9687 0.16617,-5.52552 0.1062,-5.68181 -0.19263,-0.50198 -1.8369,-0.70426 -7.32013,-0.90054 -7.58041,-0.27135 -9.0256,-0.42953 -10.43782,-1.14241 -0.63036,-0.31821 -1.8592,-1.15427 -2.73076,-1.85792 -0.87155,-0.70364 -1.84454,-1.4327 -2.16219,-1.62012 -1.23618,-0.72936 -4.49099,-1.17925 -10.24787,-1.41646 -1.97024,-0.0812 -4.54976,-0.37175 -7.66401,-0.86329 -6.62961,-1.04639 -7.8286,-1.18894 -8.8097,-1.04744 -1.1655,0.16811 -4.24323,0.94908 -5.63821,1.43069 -1.08758,0.37548 -1.55449,0.39056 -11.97502,0.38686 -5.96383,-0.002 -11.38148,-0.0817 -12.03922,-0.17682 -1.63768,-0.23687 -3.20401,-0.9824 -3.66842,-1.74606 -0.20448,-0.33624 -0.58592,-1.2258 -0.84764,-1.97681 -0.46622,-1.33778 -0.47811,-1.51697 -0.58675,-8.83788 -0.0732,-4.93281 -0.21431,-8.3515 -0.41522,-10.05901 -0.16739,-1.422634 -0.35059,-4.720554 -0.4071,-7.328713 l -0.10275,-4.742107 h 0.97738 0.97739 l 0.009,-2.921904 c 0.0145,-4.840775 0.34154,-12.646697 0.56121,-13.396687 0.3863,-1.318875 0.66821,-1.496036 2.71214,-1.70443 1.01483,-0.103468 2.6099,-0.380068 3.54461,-0.614665 1.46148,-0.366809 1.70805,-0.48691 1.7607,-0.857641 0.0389,-0.274154 0.19363,-0.431101 0.42491,-0.431101 1.0541,0 9.80783,1.416857 11.87208,1.921586 4.04756,0.989665 9.10266,3.190997 10.77195,4.690833 0.69812,0.627257 1.31193,0.944589 2.68986,1.390634 3.4835,1.127627 10.00135,2.473966 15.56563,3.215262 2.49689,0.332645 12.11657,0.636178 20.6513,0.651619 l 5.13168,0.0093 0.99953,0.49959 c 0.54974,0.274775 1.22928,0.714958 1.51008,0.978184 0.43531,0.408057 0.74594,0.493241 2.10761,0.577978 l 1.59705,0.09938 13.41202,-4.453706 c 7.37661,-2.449539 14.67999,-4.77449 16.22974,-5.166557 1.54974,-0.392066 2.9459,-0.819226 3.10256,-0.949242 0.30154,-0.25026 1.15988,-2.686544 1.3726,-3.895948 0.0904,-0.51414 0.22347,-0.718501 0.46775,-0.718501 0.4354,0 0.57398,-0.372868 0.57398,-1.544394 0,-0.589068 0.32682,-1.955892 0.87817,-3.672634 1.73295,-5.39596 2.5036,-8.987709 3.34105,-15.571602 0.55234,-4.342419 0.75628,-7.776267 0.75955,-12.789318 l 0.003,-4.358916 1.86811,0.0023 c 2.01375,0.0024 4.77263,0.569076 6.50011,1.335026 1.83476,0.813523 6.75817,1.379248 14.24062,1.636321 3.97097,0.13643 8.04317,0.607084 14.13749,1.633974 5.65805,0.95338 9.17842,1.803363 12.68655,3.063135 1.52801,0.54871 3.05575,1.023603 3.395,1.055318 0.76109,0.07115 0.26897,-0.247041 5.40537,3.494951 7.40592,5.39539 10.12763,7.788433 14.42947,12.687045 2.63656,3.002288 5.47115,5.90139 5.90459,6.03896 0.21978,0.06976 0.37446,0.398705 0.46202,0.982621 0.0932,0.621348 0.23444,0.904646 0.48358,0.969798 0.19358,0.05062 0.40368,0.29813 0.46689,0.550017 0.0677,0.26957 0.30336,0.505269 0.57293,0.572925 0.25189,0.06322 0.50285,0.286483 0.55767,0.49614 0.0548,0.209654 0.27853,0.427958 0.49711,0.485118 0.36225,0.09473 0.39741,0.245927 0.39741,1.708699 v 1.604771 l 1.75889,2.444388 c 2.3314,3.240043 3.60157,5.211072 4.453,6.910126 1.22544,2.445371 3.16369,5.566007 4.40304,7.089022 2.17552,2.673439 2.79278,3.996864 3.2819,7.036516 0.34495,2.143664 1.03715,4.020914 3.13128,8.492129 2.45998,5.25237 3.15045,7.70622 4.23998,15.06866 0.75541,5.10465 1.16376,7.12227 1.9974,9.86881 0.9977,3.28709 2.25942,12.62316 2.61507,19.35023 0.18879,3.57073 0.21829,3.75789 0.66631,4.22569 0.25782,0.26922 0.46877,0.70856 0.46877,0.97632 0,0.26775 0.21473,1.64256 0.47718,3.05512 0.38621,2.07864 0.47753,3.17889 0.479,5.77099 l 0.002,3.20271 -0.94292,0.12508 c -0.77342,0.1026 -0.96291,0.20473 -1.05413,0.56812 -0.0675,0.26903 -0.28037,0.46706 -0.54198,0.50421 -0.35214,0.05 -0.44175,0.20107 -0.49088,0.82759 -0.0451,0.57551 -0.23603,0.94925 -0.7664,1.50052 -0.7907,0.82185 -4.51478,3.67939 -8.56191,6.56969 -4.16156,2.97201 -4.2825,3.04367 -6.41861,3.8026 -3.15004,1.11918 -4.42181,2.02345 -4.13161,2.93775 0.29428,0.92722 2.44813,1.23728 8.53842,1.22919 5.01333,-0.007 7.40217,-0.19705 9.21612,-0.73452 0.85941,-0.25464 1.28463,-0.56016 2.51242,-1.80516 0.82471,-0.83624 1.53612,-1.73737 1.60954,-2.03875 0.0724,-0.29706 0.37007,-0.81513 0.66157,-1.15127 l 0.53001,-0.61116 1.40508,2.14396 c 1.83572,2.80106 2.07517,2.92953 6.12728,3.28755 2.89223,0.25555 3.83494,0.45322 4.08412,0.8564 0.0691,0.11188 0.37929,0.20342 0.6892,0.20342 h 0.5635 v 2.6345 c 0,1.86939 -0.11218,3.19096 -0.38472,4.55051 -0.21126,1.0538 -0.43192,2.82132 -0.49036,3.92781 -0.14353,2.71674 -0.18432,2.874 -0.74523,2.874 -1.41711,0 -0.74553,0.87305 4.80486,6.24621 5.21695,5.05037 8.03372,7.85325 17.50282,17.41642 6.151,6.21211 7.36477,7.54651 8.01686,8.81362 0.21691,0.42152 0.78366,1.28092 1.25943,1.90979 0.50534,0.66798 0.91592,1.44473 0.98746,1.86811 0.10211,0.6044 0.19915,0.7247 0.5846,0.7247 0.3758,0 0.46265,0.0985 0.46478,0.5269 0.004,0.87364 0.20335,1.34816 0.61,1.45452 0.3758,0.0983 0.38345,0.21658 0.30104,4.66401 -0.0713,3.84649 -0.15282,4.86368 -0.51929,6.47636 -0.53196,2.3408 -1.04589,3.47819 -1.73197,3.83298 -0.47249,0.24433 -0.53373,0.40067 -0.65093,1.66171 -0.19114,2.05643 -0.55029,2.36674 -4.05405,3.50255 -2.29399,0.74366 -2.96264,1.1071 -2.96264,1.61042 0,0.50209 -0.80441,1.17859 -1.40146,1.17859 -0.44145,0 -0.51454,0.0799 -0.51454,0.56233 0,0.79351 -0.32216,1.54527 -0.66221,1.54527 -0.15866,0 -0.34135,0.21061 -0.40596,0.46804 -0.0715,0.28493 -0.27907,0.49106 -0.53054,0.5269 -0.25512,0.0364 -0.43591,0.21923 -0.47278,0.47818 -0.0372,0.26123 -0.21777,0.44183 -0.479,0.479 -0.25895,0.0369 -0.44183,0.21766 -0.47817,0.47278 -0.0353,0.24772 -0.24111,0.4588 -0.51414,0.52734 -0.25039,0.0628 -0.50997,0.28659 -0.57682,0.49722 -0.0669,0.21063 -0.27799,0.46668 -0.46921,0.56901 -0.21616,0.11569 -0.39561,0.50581 -0.47442,1.03135 -0.11279,0.75216 -0.19177,0.85825 -0.7171,0.96333 -0.85504,0.171 -99.60325,0.14558 -99.58181,-0.0256 z m -15.76755,-80.95111 0.0575,-1.10171 h -1.44656 c -1.39246,0 -1.44657,-0.0169 -1.44657,-0.45226 0,-0.24874 -0.20691,-0.75717 -0.45982,-1.12984 -0.25289,-0.37267 -0.51736,-0.85891 -0.58771,-1.08054 -0.0838,-0.26406 -0.28855,-0.40296 -0.59398,-0.40296 -0.34025,0 -0.46609,-0.10474 -0.46609,-0.38794 0,-0.22563 -0.18037,-0.45707 -0.4311,-0.55316 -0.31384,-0.12027 -0.57988,-0.57502 -0.97802,-1.67176 -0.74592,-2.05477 -1.3533,-3.13383 -4.58292,-8.14205 -3.80116,-5.89451 -4.65779,-7.65239 -3.87537,-7.95263 0.45541,-0.17476 0.34589,-1.16706 -0.37968,-3.4401 -0.36689,-1.14939 -0.66866,-2.45623 -0.6706,-2.9041 l -0.004,-0.8143 -1.4849,-0.002 c -0.81669,-9.6e-4 -1.93306,-0.0555 -2.48082,-0.12131 -0.82193,-0.0987 -1.00603,-0.1905 -1.0538,-0.52523 -0.0353,-0.24774 -0.22108,-0.42883 -0.4772,-0.46528 -0.26123,-0.0372 -0.44182,-0.21777 -0.479,-0.479 -0.0411,-0.28874 -0.21421,-0.43728 -0.55589,-0.47698 l -0.4962,-0.0577 -0.12728,-5.95115 c -0.14684,-6.86522 -0.21467,-7.20123 -2.09549,-10.38094 -0.57082,-0.96503 -1.5016,-2.64882 -2.0684,-3.74174 l -1.03053,-1.98713 -2.01003,0.13464 c -1.10551,0.074 -2.15526,0.21238 -2.33278,0.30738 -0.55081,0.29479 -1.12652,1.77986 -1.41618,3.65314 -0.15267,0.98731 -0.40758,2.26932 -0.56648,2.84891 -0.15889,0.57959 -0.28992,1.23211 -0.29117,1.45005 -0.002,0.34079 1.47608,3.48316 7.86246,16.71603 1.35475,2.80716 2.17603,4.05961 2.66199,4.05961 0.19442,0 0.40056,0.12264 0.45808,0.27254 0.0575,0.1499 0.30307,0.30078 0.54567,0.3353 0.51683,0.0735 1.11982,1.35614 4.18297,8.89754 1.06535,2.62286 2.19044,5.22019 2.50019,5.77184 0.30976,0.55165 0.56404,1.15519 0.56507,1.3412 0.004,0.70524 0.93412,2.2979 1.76851,3.02791 0.4772,0.4175 2.15539,1.5561 3.72931,2.5302 1.57392,0.97411 3.0712,1.99889 3.32729,2.27728 0.87697,0.95332 1.93426,1.60383 2.60676,1.60383 0.56647,0 0.66104,-0.0719 0.76261,-0.5798 0.13487,-0.67433 0.29215,-0.65718 1.98207,0.21605 1.54567,0.7987 1.80717,0.70927 1.87766,-0.64215 z"
     id="path922"
     inkscape:connector-curvature="0" />
</svg>
