<?xml version="1.0" encoding="UTF-8" standalone="no"?>
<!-- Created with Inkscape (http://www.inkscape.org/) -->

<svg
   xmlns:dc="http://purl.org/dc/elements/1.1/"
   xmlns:cc="http://creativecommons.org/ns#"
   xmlns:rdf="http://www.w3.org/1999/02/22-rdf-syntax-ns#"
   xmlns:svg="http://www.w3.org/2000/svg"
   xmlns="http://www.w3.org/2000/svg"
   xmlns:sodipodi="http://sodipodi.sourceforge.net/DTD/sodipodi-0.dtd"
   xmlns:inkscape="http://www.inkscape.org/namespaces/inkscape"
   width="200"
   height="32.599998"
   viewBox="0 0 52.916664 8.6254163"
   version="1.1"
   id="svg8"
   inkscape:version="0.92.5 (2060ec1f9f, 2020-04-08)"
   sodipodi:docname="logo.svg">
  <defs
     id="defs2">
    <marker
       inkscape:stockid="Arrow1Mstart"
       orient="auto"
       refY="0"
       refX="0"
       id="Arrow1Mstart"
       style="overflow:visible"
       inkscape:isstock="true">
      <path
         id="path908"
         d="M 0,0 5,-5 -12.5,0 5,5 Z"
         style="fill:#08f7fe;fill-opacity:0.94117647;fill-rule:evenodd;stroke:#08f7fe;stroke-width:1.00000003pt;stroke-opacity:0.94117647"
         transform="matrix(0.4,0,0,0.4,4,0)"
         inkscape:connector-curvature="0" />
    </marker>
    <marker
       inkscape:stockid="Arrow2Lstart"
       orient="auto"
       refY="0"
       refX="0"
       id="marker1272"
       style="overflow:visible"
       inkscape:isstock="true">
      <path
         id="path1270"
         style="fill:#08f7fe;fill-opacity:0.94117647;fill-rule:evenodd;stroke:#08f7fe;stroke-width:0.625;stroke-linejoin:round;stroke-opacity:0.94117647"
         d="M 8.7185878,4.0337352 -2.2072895,0.01601326 8.7185884,-4.0017078 c -1.7454984,2.3720609 -1.7354408,5.6174519 -6e-7,8.035443 z"
         transform="matrix(1.1,0,0,1.1,1.1,0)"
         inkscape:connector-curvature="0" />
    </marker>
    <marker
       inkscape:stockid="Arrow2Lstart"
       orient="auto"
       refY="0"
       refX="0"
       id="Arrow2Lstart"
       style="overflow:visible"
       inkscape:isstock="true">
      <path
         id="path920"
         style="fill:#08f7fe;fill-opacity:0.94117647;fill-rule:evenodd;stroke:#08f7fe;stroke-width:0.625;stroke-linejoin:round;stroke-opacity:0.94117647"
         d="M 8.7185878,4.0337352 -2.2072895,0.01601326 8.7185884,-4.0017078 c -1.7454984,2.3720609 -1.7354408,5.6174519 -6e-7,8.035443 z"
         transform="matrix(1.1,0,0,1.1,1.1,0)"
         inkscape:connector-curvature="0" />
    </marker>
    <marker
       inkscape:stockid="Arrow1Lstart"
       orient="auto"
       refY="0"
       refX="0"
       id="Arrow1Lstart"
       style="overflow:visible"
       inkscape:isstock="true">
      <path
         id="path902"
         d="M 0,0 5,-5 -12.5,0 5,5 Z"
         style="fill:#08f7fe;fill-opacity:0.94117647;fill-rule:evenodd;stroke:#08f7fe;stroke-width:1.00000003pt;stroke-opacity:0.94117647"
         transform="matrix(0.8,0,0,0.8,10,0)"
         inkscape:connector-curvature="0" />
    </marker>
  </defs>
  <sodipodi:namedview
     id="base"
     pagecolor="#ffffff"
     bordercolor="#666666"
     borderopacity="1.0"
     inkscape:pageopacity="0.0"
     inkscape:pageshadow="2"
     inkscape:zoom="0.97462165"
     inkscape:cx="14.616339"
     inkscape:cy="-14.869007"
     inkscape:document-units="mm"
     inkscape:current-layer="text848"
     showgrid="false"
     units="px"
     inkscape:window-width="1437"
     inkscape:window-height="750"
     inkscape:window-x="58"
     inkscape:window-y="91"
     inkscape:window-maximized="0" />
  <metadata
     id="metadata5">
    <rdf:RDF>
      <cc:Work
         rdf:about="">
        <dc:format>image/svg+xml</dc:format>
        <dc:type
           rdf:resource="http://purl.org/dc/dcmitype/StillImage" />
        <dc:title></dc:title>
      </cc:Work>
    </rdf:RDF>
  </metadata>
  <g
     inkscape:label="Layer 1"
     inkscape:groupmode="layer"
     id="layer1"
     transform="translate(0,-288.37457)">
    <g
       aria-label="Dennis Mai"
       transform="matrix(0.33673798,0,0,0.33673798,-26.726609,261.09843)"
       style="font-style:normal;font-weight:normal;font-size:40px;line-height:1.25;font-family:sans-serif;letter-spacing:0px;word-spacing:0px;fill:#000000;fill-opacity:1;stroke:none"
       id="flowRoot815">
      <flowRoot
         xml:space="preserve"
         id="flowRoot838"
         style="font-style:normal;font-weight:normal;font-size:40px;line-height:1.25;font-family:sans-serif;letter-spacing:0px;word-spacing:0px;fill:#000000;fill-opacity:1;stroke:none"
         transform="matrix(0.78572466,0,0,0.78572466,79.369155,61.829408)"><flowRegion
           id="flowRegion840"><rect
             id="rect842"
             width="95.714287"
             height="43.57143"
             x="224.28572"
             y="8.4285717" /></flowRegion><flowPara
           id="flowPara844">Ded</flowPara></flowRoot>      <g
         aria-label="Dennis Mai"
         style="font-style:normal;font-weight:normal;font-size:58.46186447px;line-height:1.25;font-family:sans-serif;letter-spacing:0px;word-spacing:0px;fill:#08f7fe;fill-opacity:0.94117647;stroke:none;stroke-width:1.46154761"
         id="text848">
        <path
           d="m 94.170124,91.997573 q 0.182723,0.730907 0.182723,1.827269 0,1.050679 -0.182723,1.827268 0.182723,0.730908 0.182723,1.827269 0,1.050679 -0.182723,1.827268 h -1.82727 q 0.182727,0.730903 0.182727,1.827273 0,1.05068 -0.182727,1.82726 h -1.827268 q 0.182727,0.73091 0.182727,1.82727 0,1.05068 -0.182727,1.82727 H 79.551975 q -0.182727,-0.77659 -0.182727,-1.82727 0,-1.09636 0.182727,-1.82727 -0.182727,-0.77658 -0.182727,-1.82726 0,-1.09637 0.182727,-1.827273 -0.182727,-0.776589 -0.182727,-1.827268 0,-1.096361 0.182727,-1.827269 -0.182727,-0.776589 -0.182727,-1.827268 0,-1.096362 0.182727,-1.827269 -0.182727,-0.776589 -0.182727,-1.827269 0,-1.09636 0.182727,-1.827268 -0.182727,-0.776589 -0.182727,-1.827268 0,-1.096362 0.182727,-1.827269 -0.182727,-0.776589 -0.182727,-1.827268 0,-1.096362 0.182727,-1.827269 h 10.963611 q 0.182727,0.730907 0.182727,1.827269 0,1.050679 -0.182727,1.827268 h 1.827268 q 0.182727,0.730907 0.182727,1.827269 0,1.050679 -0.182727,1.827268 h 1.82727 q 0.182723,0.730908 0.182723,1.827268 0,1.05068 -0.182723,1.827269 z m -3.654538,7.309074 q -0.182727,-0.776589 -0.182727,-1.827268 0,-1.096361 0.182727,-1.827269 -0.182727,-0.776589 -0.182727,-1.827268 0,-1.096362 0.182727,-1.827269 -0.182727,-0.776589 -0.182727,-1.827269 0,-1.09636 0.182727,-1.827268 h -1.827269 q -0.182727,-0.776589 -0.182727,-1.827268 0,-1.096362 0.182727,-1.827269 h -5.481805 q 0.182726,0.730907 0.182726,1.827269 0,1.050679 -0.182726,1.827268 0.182726,0.730908 0.182726,1.827268 0,1.05068 -0.182726,1.827269 0.182726,0.730907 0.182726,1.827269 0,1.050679 -0.182726,1.827268 0.182726,0.730908 0.182726,1.827269 0,1.050679 -0.182726,1.827268 0.182726,0.730903 0.182726,1.827273 0,1.05068 -0.182726,1.82726 h 5.481805 q -0.182727,-0.77658 -0.182727,-1.82726 0,-1.09637 0.182727,-1.827273 z"
           style="font-style:normal;font-variant:normal;font-weight:normal;font-stretch:normal;font-size:70.15398407px;font-family:VT323;-inkscape-font-specification:'VT323, Normal';font-variant-ligatures:normal;font-variant-caps:normal;font-variant-numeric:normal;font-feature-settings:normal;text-align:start;writing-mode:lr-tb;text-anchor:start;fill:#08f7fe;fill-opacity:0.94117647;stroke-width:0.95170647"
           inkscape:connector-curvature="0"
           id="path850" />
        <path
           d="m 110.57898,93.824842 q 0,1.050679 -0.18273,1.827268 0.18273,0.730908 0.18273,1.827269 0,1.050679 -0.18273,1.827268 h -9.59316 q 0.18273,0.730903 0.18273,1.827273 0,1.05068 -0.18273,1.82726 h 7.76589 q 0.18273,0.73091 0.18273,1.82727 0,1.05068 -0.18273,1.82727 h -9.136341 q -0.18273,-0.77659 -0.18273,-1.82727 0,-1.09636 0.18273,-1.82727 h -2.284087 q -0.182729,-0.77658 -0.182729,-1.82726 0,-1.09637 0.182729,-1.827273 h -1.370451 q -0.18273,-0.776589 -0.18273,-1.827268 0,-1.096361 0.18273,-1.827269 h 1.370451 q -0.182729,-0.776589 -0.182729,-1.827268 0,-1.096362 0.182729,-1.827269 h 2.284087 q -0.18273,-0.776589 -0.18273,-1.827269 0,-1.09636 0.18273,-1.827268 h 9.136341 q 0.18273,0.730908 0.18273,1.827268 0,1.05068 -0.18273,1.827269 h 1.82727 q 0.18273,0.730907 0.18273,1.827269 z m -3.83727,1.827268 q -0.18272,-0.776589 -0.18272,-1.827268 0,-1.096362 0.18272,-1.827269 h -5.93862 q 0.18273,0.730907 0.18273,1.827269 0,1.050679 -0.18273,1.827268 z"
           style="font-style:normal;font-variant:normal;font-weight:normal;font-stretch:normal;font-size:70.15398407px;font-family:VT323;-inkscape-font-specification:'VT323, Normal';font-variant-ligatures:normal;font-variant-caps:normal;font-variant-numeric:normal;font-feature-settings:normal;text-align:start;writing-mode:lr-tb;text-anchor:start;fill:#08f7fe;fill-opacity:0.94117647;stroke-width:0.95170647"
           inkscape:connector-curvature="0"
           id="path852" />
        <path
           d="m 115.38467,90.170304 q 0,1.05068 -0.18272,1.827269 h 1.82727 q 0.18272,0.730907 0.18272,1.827269 0,1.050679 -0.18272,1.827268 h -1.37045 q 0.18272,0.730908 0.18272,1.827269 0,1.050679 -0.18272,1.827268 0.18272,0.730903 0.18272,1.827273 0,1.05068 -0.18272,1.82726 0.18272,0.73091 0.18272,1.82727 0,1.05068 -0.18272,1.82727 h -3.65454 q -0.18273,-0.77659 -0.18273,-1.82727 0,-1.09636 0.18273,-1.82727 -0.18273,-0.77658 -0.18273,-1.82726 0,-1.09637 0.18273,-1.827273 -0.18273,-0.776589 -0.18273,-1.827268 0,-1.096361 0.18273,-1.827269 -0.18273,-0.776589 -0.18273,-1.827268 0,-1.096362 0.18273,-1.827269 -0.18273,-0.776589 -0.18273,-1.827269 0,-1.09636 0.18273,-1.827268 h 3.19772 q 0.18272,0.730908 0.18272,1.827268 z m 11.2377,5.481806 q 0.18273,0.730908 0.18273,1.827269 0,1.050679 -0.18273,1.827268 0.18273,0.730903 0.18273,1.827273 0,1.05068 -0.18273,1.82726 0.18273,0.73091 0.18273,1.82727 0,1.05068 -0.18273,1.82727 h -3.65453 q -0.18273,-0.77659 -0.18273,-1.82727 0,-1.09636 0.18273,-1.82727 -0.18273,-0.77658 -0.18273,-1.82726 0,-1.09637 0.18273,-1.827273 -0.18273,-0.776589 -0.18273,-1.827268 0,-1.096361 0.18273,-1.827269 -0.18273,-0.776589 -0.18273,-1.827268 0,-1.096362 0.18273,-1.827269 h -5.93862 q -0.18273,-0.776589 -0.18273,-1.827269 0,-1.09636 0.18273,-1.827268 h 7.30907 q 0.18273,0.730908 0.18273,1.827268 0,1.05068 -0.18273,1.827269 h 2.28408 q 0.18273,0.730907 0.18273,1.827269 0,1.050679 -0.18273,1.827268 z"
           style="font-style:normal;font-variant:normal;font-weight:normal;font-stretch:normal;font-size:70.15398407px;font-family:VT323;-inkscape-font-specification:'VT323, Normal';font-variant-ligatures:normal;font-variant-caps:normal;font-variant-numeric:normal;font-feature-settings:normal;text-align:start;writing-mode:lr-tb;text-anchor:start;fill:#08f7fe;fill-opacity:0.94117647;stroke-width:0.95170647"
           inkscape:connector-curvature="0"
           id="path854" />
        <path
           d="m 132.63407,90.170304 q 0,1.05068 -0.18273,1.827269 h 1.82727 q 0.18273,0.730907 0.18273,1.827269 0,1.050679 -0.18273,1.827268 h -1.37045 q 0.18273,0.730908 0.18273,1.827269 0,1.050679 -0.18273,1.827268 0.18273,0.730903 0.18273,1.827273 0,1.05068 -0.18273,1.82726 0.18273,0.73091 0.18273,1.82727 0,1.05068 -0.18273,1.82727 h -3.65454 q -0.18272,-0.77659 -0.18272,-1.82727 0,-1.09636 0.18272,-1.82727 -0.18272,-0.77658 -0.18272,-1.82726 0,-1.09637 0.18272,-1.827273 -0.18272,-0.776589 -0.18272,-1.827268 0,-1.096361 0.18272,-1.827269 -0.18272,-0.776589 -0.18272,-1.827268 0,-1.096362 0.18272,-1.827269 -0.18272,-0.776589 -0.18272,-1.827269 0,-1.09636 0.18272,-1.827268 h 3.19772 q 0.18273,0.730908 0.18273,1.827268 z m 11.2377,5.481806 q 0.18273,0.730908 0.18273,1.827269 0,1.050679 -0.18273,1.827268 0.18273,0.730903 0.18273,1.827273 0,1.05068 -0.18273,1.82726 0.18273,0.73091 0.18273,1.82727 0,1.05068 -0.18273,1.82727 h -3.65453 q -0.18273,-0.77659 -0.18273,-1.82727 0,-1.09636 0.18273,-1.82727 -0.18273,-0.77658 -0.18273,-1.82726 0,-1.09637 0.18273,-1.827273 -0.18273,-0.776589 -0.18273,-1.827268 0,-1.096361 0.18273,-1.827269 -0.18273,-0.776589 -0.18273,-1.827268 0,-1.096362 0.18273,-1.827269 h -5.93863 q -0.18272,-0.776589 -0.18272,-1.827269 0,-1.09636 0.18272,-1.827268 h 7.30908 q 0.18273,0.730908 0.18273,1.827268 0,1.05068 -0.18273,1.827269 h 2.28408 q 0.18273,0.730907 0.18273,1.827269 0,1.050679 -0.18273,1.827268 z"
           style="font-style:normal;font-variant:normal;font-weight:normal;font-stretch:normal;font-size:70.15398407px;font-family:VT323;-inkscape-font-specification:'VT323, Normal';font-variant-ligatures:normal;font-variant-caps:normal;font-variant-numeric:normal;font-feature-settings:normal;text-align:start;writing-mode:lr-tb;text-anchor:start;fill:#08f7fe;fill-opacity:0.94117647;stroke-width:0.95170647"
           inkscape:connector-curvature="0"
           id="path856" />
        <path
           d="m 149.93829,84.688499 q -0.18273,-0.776589 -0.18273,-1.827268 0,-1.096362 0.18273,-1.827269 h 3.65453 q 0.18273,0.730907 0.18273,1.827269 0,1.050679 -0.18273,1.827268 z m 7.30907,18.272681 q 0.18273,0.73091 0.18273,1.82727 0,1.05068 -0.18273,1.82727 h -10.96361 q -0.18272,-0.77659 -0.18272,-1.82727 0,-1.09636 0.18272,-1.82727 h 3.65454 q -0.18273,-0.77658 -0.18273,-1.82726 0,-1.09637 0.18273,-1.827273 -0.18273,-0.776589 -0.18273,-1.827268 0,-1.096361 0.18273,-1.827269 -0.18273,-0.776589 -0.18273,-1.827268 0,-1.096362 0.18273,-1.827269 h -2.74091 q -0.18272,-0.776589 -0.18272,-1.827269 0,-1.09636 0.18272,-1.827268 h 6.39544 q 0.18273,0.730908 0.18273,1.827268 0,1.05068 -0.18273,1.827269 0.18273,0.730907 0.18273,1.827269 0,1.050679 -0.18273,1.827268 0.18273,0.730908 0.18273,1.827269 0,1.050679 -0.18273,1.827268 0.18273,0.730903 0.18273,1.827273 0,1.05068 -0.18273,1.82726 z"
           style="font-style:normal;font-variant:normal;font-weight:normal;font-stretch:normal;font-size:70.15398407px;font-family:VT323;-inkscape-font-specification:'VT323, Normal';font-variant-ligatures:normal;font-variant-caps:normal;font-variant-numeric:normal;font-feature-settings:normal;text-align:start;writing-mode:lr-tb;text-anchor:start;fill:#08f7fe;fill-opacity:0.94117647;stroke-width:0.95170647"
           inkscape:connector-curvature="0"
           id="path858" />
        <path
           d="m 172.52331,101.13392 q 0,1.05068 -0.18273,1.82726 h -1.82727 q 0.18273,0.73091 0.18273,1.82727 0,1.05068 -0.18273,1.82727 h -10.04998 q -0.18272,-0.77659 -0.18272,-1.82727 0,-1.09636 0.18272,-1.82727 h 8.22271 q -0.18273,-0.77658 -0.18273,-1.82726 0,-1.09637 0.18273,-1.827273 h -7.30908 q -0.18272,-0.776589 -0.18272,-1.827268 0,-1.096361 0.18272,-1.827269 h -1.82727 q -0.18272,-0.776589 -0.18272,-1.827268 0,-1.096362 0.18272,-1.827269 h 1.82727 q -0.18272,-0.776589 -0.18272,-1.827269 0,-1.09636 0.18272,-1.827268 h 10.04998 q 0.18273,0.730908 0.18273,1.827268 0,1.05068 -0.18273,1.827269 h -8.22271 q 0.18273,0.730907 0.18273,1.827269 0,1.050679 -0.18273,1.827268 h 7.30908 q 0.18273,0.730908 0.18273,1.827269 0,1.050679 -0.18273,1.827268 h 1.82727 q 0.18273,0.730903 0.18273,1.827273 z"
           style="font-style:normal;font-variant:normal;font-weight:normal;font-stretch:normal;font-size:70.15398407px;font-family:VT323;-inkscape-font-specification:'VT323, Normal';font-variant-ligatures:normal;font-variant-caps:normal;font-variant-numeric:normal;font-feature-settings:normal;text-align:start;writing-mode:lr-tb;text-anchor:start;fill:#08f7fe;fill-opacity:0.94117647;stroke-width:0.95170647"
           inkscape:connector-curvature="0"
           id="path860" />
        <path
           d="m 205.70647,84.688499 q 0.18272,0.730907 0.18272,1.827269 0,1.050679 -0.18272,1.827268 0.18272,0.730908 0.18272,1.827268 0,1.05068 -0.18272,1.827269 0.18272,0.730907 0.18272,1.827269 0,1.050679 -0.18272,1.827268 0.18272,0.730908 0.18272,1.827269 0,1.050679 -0.18272,1.827268 0.18272,0.730903 0.18272,1.827273 0,1.05068 -0.18272,1.82726 0.18272,0.73091 0.18272,1.82727 0,1.05068 -0.18272,1.82727 h -3.65454 q -0.18273,-0.77659 -0.18273,-1.82727 0,-1.09636 0.18273,-1.82727 -0.18273,-0.77658 -0.18273,-1.82726 0,-1.09637 0.18273,-1.827273 -0.18273,-0.776589 -0.18273,-1.827268 0,-1.096361 0.18273,-1.827269 -0.18273,-0.776589 -0.18273,-1.827268 0,-1.096362 0.18273,-1.827269 -0.18273,-0.776589 -0.18273,-1.827269 0,-1.09636 0.18273,-1.827268 h -1.37045 q 0.18273,0.730908 0.18273,1.827268 0,1.05068 -0.18273,1.827269 0.18273,0.730907 0.18273,1.827269 0,1.050679 -0.18273,1.827268 h -0.91364 q 0.18273,0.730908 0.18273,1.827269 0,1.050679 -0.18273,1.827268 0.18273,0.730903 0.18273,1.827273 0,1.05068 -0.18273,1.82726 h -2.7409 q -0.18273,-0.77658 -0.18273,-1.82726 0,-1.09637 0.18273,-1.827273 -0.18273,-0.776589 -0.18273,-1.827268 0,-1.096361 0.18273,-1.827269 h -0.91363 q -0.18273,-0.776589 -0.18273,-1.827268 0,-1.096362 0.18273,-1.827269 -0.18273,-0.776589 -0.18273,-1.827269 0,-1.09636 0.18273,-1.827268 h -1.37046 q 0.18273,0.730908 0.18273,1.827268 0,1.05068 -0.18273,1.827269 0.18273,0.730907 0.18273,1.827269 0,1.050679 -0.18273,1.827268 0.18273,0.730908 0.18273,1.827269 0,1.050679 -0.18273,1.827268 0.18273,0.730903 0.18273,1.827273 0,1.05068 -0.18273,1.82726 0.18273,0.73091 0.18273,1.82727 0,1.05068 -0.18273,1.82727 h -3.65453 q -0.18273,-0.77659 -0.18273,-1.82727 0,-1.09636 0.18273,-1.82727 -0.18273,-0.77658 -0.18273,-1.82726 0,-1.09637 0.18273,-1.827273 -0.18273,-0.776589 -0.18273,-1.827268 0,-1.096361 0.18273,-1.827269 -0.18273,-0.776589 -0.18273,-1.827268 0,-1.096362 0.18273,-1.827269 -0.18273,-0.776589 -0.18273,-1.827269 0,-1.09636 0.18273,-1.827268 -0.18273,-0.776589 -0.18273,-1.827268 0,-1.096362 0.18273,-1.827269 -0.18273,-0.776589 -0.18273,-1.827268 0,-1.096362 0.18273,-1.827269 h 4.56817 q 0.18273,0.730907 0.18273,1.827269 0,1.050679 -0.18273,1.827268 h 1.37045 q 0.18273,0.730907 0.18273,1.827269 0,1.050679 -0.18273,1.827268 h 0.68523 q 0.18273,0.730908 0.18273,1.827268 0,1.05068 -0.18273,1.827269 h 1.37045 q -0.18273,-0.776589 -0.18273,-1.827269 0,-1.09636 0.18273,-1.827268 h 0.68522 q -0.18273,-0.776589 -0.18273,-1.827268 0,-1.096362 0.18273,-1.827269 h 1.37046 q -0.18273,-0.776589 -0.18273,-1.827268 0,-1.096362 0.18273,-1.827269 h 4.56817 q 0.18272,0.730907 0.18272,1.827269 0,1.050679 -0.18272,1.827268 z"
           style="font-style:normal;font-variant:normal;font-weight:normal;font-stretch:normal;font-size:70.15398407px;font-family:VT323;-inkscape-font-specification:'VT323, Normal';font-variant-ligatures:normal;font-variant-caps:normal;font-variant-numeric:normal;font-feature-settings:normal;text-align:start;writing-mode:lr-tb;text-anchor:start;fill:#08f7fe;fill-opacity:0.94117647;stroke-width:0.95170647"
           inkscape:connector-curvature="0"
           id="path862" />
        <path
           d="m 222.95587,102.96118 q 0.18272,0.73091 0.18272,1.82727 0,1.05068 -0.18272,1.82727 h -3.65454 q -0.18273,-0.77659 -0.18273,-1.82727 0,-1.09636 0.18273,-1.82727 h -1.82727 q -0.18273,-0.77658 -0.18273,-1.82726 0,-1.09637 0.18273,-1.827273 h -5.48181 q 0.18273,0.730903 0.18273,1.827273 0,1.05068 -0.18273,1.82726 h 5.48181 q 0.18272,0.73091 0.18272,1.82727 0,1.05068 -0.18272,1.82727 h -7.30908 q -0.18272,-0.77659 -0.18272,-1.82727 0,-1.09636 0.18272,-1.82727 h -1.82726 q -0.18273,-0.77658 -0.18273,-1.82726 0,-1.09637 0.18273,-1.827273 h 1.82726 q -0.18272,-0.776589 -0.18272,-1.827268 0,-1.096361 0.18272,-1.827269 h 7.30908 q -0.18273,-0.776589 -0.18273,-1.827268 0,-1.096362 0.18273,-1.827269 h -6.39544 q -0.18272,-0.776589 -0.18272,-1.827269 0,-1.09636 0.18272,-1.827268 h 8.22271 q 0.18272,0.730908 0.18272,1.827268 0,1.05068 -0.18272,1.827269 h 1.82727 q 0.18272,0.730907 0.18272,1.827269 0,1.050679 -0.18272,1.827268 0.18272,0.730908 0.18272,1.827269 0,1.050679 -0.18272,1.827268 0.18272,0.730903 0.18272,1.827273 0,1.05068 -0.18272,1.82726 z"
           style="font-style:normal;font-variant:normal;font-weight:normal;font-stretch:normal;font-size:70.15398407px;font-family:VT323;-inkscape-font-specification:'VT323, Normal';font-variant-ligatures:normal;font-variant-caps:normal;font-variant-numeric:normal;font-feature-settings:normal;text-align:start;writing-mode:lr-tb;text-anchor:start;fill:#08f7fe;fill-opacity:0.94117647;stroke-width:0.95170647"
           inkscape:connector-curvature="0"
           id="path864" />
        <path
           d="m 229.02238,84.688499 q -0.18273,-0.776589 -0.18273,-1.827268 0,-1.096362 0.18273,-1.827269 h 3.65454 q 0.18272,0.730907 0.18272,1.827269 0,1.050679 -0.18272,1.827268 z m 7.30908,18.272681 q 0.18272,0.73091 0.18272,1.82727 0,1.05068 -0.18272,1.82727 h -10.96362 q -0.18273,-0.77659 -0.18273,-1.82727 0,-1.09636 0.18273,-1.82727 h 3.65454 q -0.18273,-0.77658 -0.18273,-1.82726 0,-1.09637 0.18273,-1.827273 -0.18273,-0.776589 -0.18273,-1.827268 0,-1.096361 0.18273,-1.827269 -0.18273,-0.776589 -0.18273,-1.827268 0,-1.096362 0.18273,-1.827269 h -2.7409 q -0.18273,-0.776589 -0.18273,-1.827269 0,-1.09636 0.18273,-1.827268 h 6.39544 q 0.18272,0.730908 0.18272,1.827268 0,1.05068 -0.18272,1.827269 0.18272,0.730907 0.18272,1.827269 0,1.050679 -0.18272,1.827268 0.18272,0.730908 0.18272,1.827269 0,1.050679 -0.18272,1.827268 0.18272,0.730903 0.18272,1.827273 0,1.05068 -0.18272,1.82726 z"
           style="font-style:normal;font-variant:normal;font-weight:normal;font-stretch:normal;font-size:70.15398407px;font-family:VT323;-inkscape-font-specification:'VT323, Normal';font-variant-ligatures:normal;font-variant-caps:normal;font-variant-numeric:normal;font-feature-settings:normal;text-align:start;writing-mode:lr-tb;text-anchor:start;fill:#08f7fe;fill-opacity:0.94117647;stroke-width:0.95170647"
           inkscape:connector-curvature="0"
           id="path866" />
      </g>
    </g>
  </g>
</svg>
