<?xml version="1.0" encoding="UTF-8" standalone="no"?>
<!-- Created with Inkscape (http://www.inkscape.org/) -->

<svg
   xmlns:dc="http://purl.org/dc/elements/1.1/"
   xmlns:cc="http://creativecommons.org/ns#"
   xmlns:rdf="http://www.w3.org/1999/02/22-rdf-syntax-ns#"
   xmlns:svg="http://www.w3.org/2000/svg"
   xmlns="http://www.w3.org/2000/svg"
   xmlns:sodipodi="http://sodipodi.sourceforge.net/DTD/sodipodi-0.dtd"
   xmlns:inkscape="http://www.inkscape.org/namespaces/inkscape"
   width="30"
   height="24"
   viewBox="0 0 7.9374996 6.3500002"
   version="1.1"
   id="svg8"
   inkscape:version="0.92.5 (2060ec1f9f, 2020-04-08)"
   sodipodi:docname="menu.svg">
  <defs
     id="defs2" />
  <sodipodi:namedview
     id="base"
     pagecolor="#ffffff"
     bordercolor="#666666"
     borderopacity="1.0"
     inkscape:pageopacity="0.0"
     inkscape:pageshadow="2"
     inkscape:zoom="28.263942"
     inkscape:cx="14.198911"
     inkscape:cy="20.579684"
     inkscape:document-units="mm"
     inkscape:current-layer="layer1"
     showgrid="false"
     units="px"
     inkscape:window-width="1204"
     inkscape:window-height="475"
     inkscape:window-x="708"
     inkscape:window-y="560"
     inkscape:window-maximized="0" />
  <metadata
     id="metadata5">
    <rdf:RDF>
      <cc:Work
         rdf:about="">
        <dc:format>image/svg+xml</dc:format>
        <dc:type
           rdf:resource="http://purl.org/dc/dcmitype/StillImage" />
        <dc:title />
      </cc:Work>
    </rdf:RDF>
  </metadata>
  <g
     inkscape:label="Layer 1"
     inkscape:groupmode="layer"
     id="layer1"
     transform="translate(0,-290.64999)">
    <g
       aria-label="menu"
       style="font-style:normal;font-weight:normal;font-size:10.58333302px;line-height:1.25;font-family:sans-serif;letter-spacing:0px;word-spacing:0px;fill:#000000;fill-opacity:1;stroke:none;stroke-width:0.26458332"
       id="text817">
      <path
         d="m 0.48185035,293.10533 q 0,0.1136 -0.0197555,0.19756 h 0.14816667 q 0.0197556,0.079 0.0197556,0.19755 0,0.1136 -0.0197556,0.19756 0.0197556,0.079 0.0197556,0.19755 0,0.1136 -0.0197556,0.19756 0.0197556,0.079 0.0197556,0.19755 0,0.1136 -0.0197556,0.19756 0.0197556,0.079 0.0197556,0.19756 0,0.11359 -0.0197556,0.19755 H 0.21515035 q -0.0197556,-0.084 -0.0197556,-0.19755 0,-0.11854 0.0197556,-0.19756 -0.0197556,-0.084 -0.0197556,-0.19756 0,-0.11853 0.0197556,-0.19755 -0.0197556,-0.084 -0.0197556,-0.19756 0,-0.11853 0.0197556,-0.19755 -0.0197556,-0.084 -0.0197556,-0.19756 0,-0.11853 0.0197556,-0.19755 -0.0197556,-0.084 -0.0197556,-0.19756 0,-0.11853 0.0197556,-0.19755 H 0.4620948 q 0.0197555,0.079 0.0197555,0.19755 z m 0.54327775,0 q 0,0.1136 -0.019756,0.19756 h 0.1481667 q 0.019756,0.079 0.019756,0.19755 0,0.1136 -0.019756,0.19756 0.019756,0.079 0.019756,0.19755 0,0.1136 -0.019756,0.19756 0.019756,0.079 0.019756,0.19755 0,0.1136 -0.019756,0.19756 0.019756,0.079 0.019756,0.19756 0,0.11359 -0.019756,0.19755 H 0.85720592 q -0.0197556,-0.084 -0.0197556,-0.19755 0,-0.11854 0.0197556,-0.19756 -0.0197556,-0.084 -0.0197556,-0.19756 0,-0.11853 0.0197556,-0.19755 -0.0197556,-0.084 -0.0197556,-0.19756 0,-0.11853 0.0197556,-0.19755 -0.0197556,-0.084 -0.0197556,-0.19756 0,-0.11853 0.0197556,-0.19755 H 0.61026147 q -0.0197556,-0.084 -0.0197556,-0.19756 0,-0.11853 0.0197556,-0.19755 H 1.0053726 q 0.019756,0.079 0.019756,0.19755 z m 0.7704667,0.59267 q 0.019756,0.079 0.019756,0.19755 0,0.1136 -0.019756,0.19756 0.019756,0.079 0.019756,0.19755 0,0.1136 -0.019756,0.19756 0.019756,0.079 0.019756,0.19756 0,0.11359 -0.019756,0.19755 H 1.4004837 q -0.019756,-0.084 -0.019756,-0.19755 0,-0.11854 0.019756,-0.19756 -0.019756,-0.084 -0.019756,-0.19756 0,-0.11853 0.019756,-0.19755 -0.019756,-0.084 -0.019756,-0.19756 0,-0.11853 0.019756,-0.19755 -0.019756,-0.084 -0.019756,-0.19756 0,-0.11853 0.019756,-0.19755 H 1.1535393 q -0.019756,-0.084 -0.019756,-0.19756 0,-0.11853 0.019756,-0.19755 h 0.4445 q 0.019756,0.079 0.019756,0.19755 0,0.1136 -0.019756,0.19756 h 0.1975555 q 0.019756,0.079 0.019756,0.19755 0,0.1136 -0.019756,0.19756 z"
         style="font-style:normal;font-variant:normal;font-weight:normal;font-stretch:normal;font-size:4.93888903px;font-family:VT323;-inkscape-font-specification:'VT323, Normal';font-variant-ligatures:normal;font-variant-caps:normal;font-variant-numeric:normal;font-feature-settings:normal;text-align:start;writing-mode:lr-tb;text-anchor:start;fill:#08f7fe;fill-opacity:0.94117647;stroke-width:0.26458332"
         id="path1427" />
      <path
         d="m 3.7909041,293.50044 q 0,0.1136 -0.019756,0.19756 0.019756,0.079 0.019756,0.19755 0,0.1136 -0.019756,0.19756 H 2.7339819 q 0.019756,0.079 0.019756,0.19755 0,0.1136 -0.019756,0.19756 H 3.573593 q 0.019756,0.079 0.019756,0.19756 0,0.11359 -0.019756,0.19755 H 2.5858152 q -0.019756,-0.084 -0.019756,-0.19755 0,-0.11854 0.019756,-0.19756 H 2.3388708 q -0.019756,-0.084 -0.019756,-0.19756 0,-0.11853 0.019756,-0.19755 H 2.1907041 q -0.019756,-0.084 -0.019756,-0.19756 0,-0.11853 0.019756,-0.19755 h 0.1481667 q -0.019756,-0.084 -0.019756,-0.19756 0,-0.11853 0.019756,-0.19755 h 0.2469444 q -0.019756,-0.084 -0.019756,-0.19756 0,-0.11853 0.019756,-0.19755 H 3.573593 q 0.019756,0.079 0.019756,0.19755 0,0.1136 -0.019756,0.19756 h 0.1975556 q 0.019756,0.079 0.019756,0.19755 z M 3.3760375,293.698 q -0.019756,-0.084 -0.019756,-0.19756 0,-0.11853 0.019756,-0.19755 H 2.7339819 q 0.019756,0.079 0.019756,0.19755 0,0.1136 -0.019756,0.19756 z"
         style="font-style:normal;font-variant:normal;font-weight:normal;font-stretch:normal;font-size:4.93888903px;font-family:VT323;-inkscape-font-specification:'VT323, Normal';font-variant-ligatures:normal;font-variant-caps:normal;font-variant-numeric:normal;font-feature-settings:normal;text-align:start;writing-mode:lr-tb;text-anchor:start;fill:#08f7fe;fill-opacity:0.94117647;stroke-width:0.26458332"
         id="path1429" />
      <path
         d="m 4.5317356,293.10533 q 0,0.1136 -0.019756,0.19756 h 0.1975555 q 0.019756,0.079 0.019756,0.19755 0,0.1136 -0.019756,0.19756 H 4.561369 q 0.019755,0.079 0.019755,0.19755 0,0.1136 -0.019755,0.19756 0.019755,0.079 0.019755,0.19755 0,0.1136 -0.019755,0.19756 0.019755,0.079 0.019755,0.19756 0,0.11359 -0.019755,0.19755 H 4.1662578 q -0.019756,-0.084 -0.019756,-0.19755 0,-0.11854 0.019756,-0.19756 -0.019756,-0.084 -0.019756,-0.19756 0,-0.11853 0.019756,-0.19755 -0.019756,-0.084 -0.019756,-0.19756 0,-0.11853 0.019756,-0.19755 -0.019756,-0.084 -0.019756,-0.19756 0,-0.11853 0.019756,-0.19755 -0.019756,-0.084 -0.019756,-0.19756 0,-0.11853 0.019756,-0.19755 h 0.3457223 q 0.019756,0.079 0.019756,0.19755 z m 1.2149667,0.59267 q 0.019756,0.079 0.019756,0.19755 0,0.1136 -0.019756,0.19756 0.019756,0.079 0.019756,0.19755 0,0.1136 -0.019756,0.19756 0.019756,0.079 0.019756,0.19756 0,0.11359 -0.019756,0.19755 H 5.3515912 q -0.019755,-0.084 -0.019755,-0.19755 0,-0.11854 0.019755,-0.19756 -0.019755,-0.084 -0.019755,-0.19756 0,-0.11853 0.019755,-0.19755 -0.019755,-0.084 -0.019755,-0.19756 0,-0.11853 0.019755,-0.19755 -0.019755,-0.084 -0.019755,-0.19756 0,-0.11853 0.019755,-0.19755 H 4.7095356 q -0.019755,-0.084 -0.019755,-0.19756 0,-0.11853 0.019755,-0.19755 h 0.7902223 q 0.019756,0.079 0.019756,0.19755 0,0.1136 -0.019756,0.19756 h 0.2469444 q 0.019756,0.079 0.019756,0.19755 0,0.1136 -0.019756,0.19756 z"
         style="font-style:normal;font-variant:normal;font-weight:normal;font-stretch:normal;font-size:4.93888903px;font-family:VT323;-inkscape-font-specification:'VT323, Normal';font-variant-ligatures:normal;font-variant-caps:normal;font-variant-numeric:normal;font-feature-settings:normal;text-align:start;writing-mode:lr-tb;text-anchor:start;fill:#08f7fe;fill-opacity:0.94117647;stroke-width:0.26458332"
         id="path1431" />
      <path
         d="m 6.7048452,294.29066 q 0,0.1136 -0.019756,0.19756 h 0.4938889 q 0.019756,0.079 0.019756,0.19756 0,0.11359 -0.019756,0.19755 H 6.3887563 q -0.019756,-0.084 -0.019756,-0.19755 0,-0.11854 0.019756,-0.19756 H 6.1418118 q -0.019756,-0.084 -0.019756,-0.19756 0,-0.11853 0.019756,-0.19755 -0.019756,-0.084 -0.019756,-0.19756 0,-0.11853 0.019756,-0.19755 -0.019756,-0.084 -0.019756,-0.19756 0,-0.11853 0.019756,-0.19755 -0.019756,-0.084 -0.019756,-0.19756 0,-0.11853 0.019756,-0.19755 H 6.536923 q 0.019756,0.079 0.019756,0.19755 0,0.1136 -0.019756,0.19756 0.019756,0.079 0.019756,0.19755 0,0.1136 -0.019756,0.19756 0.019756,0.079 0.019756,0.19755 0,0.1136 -0.019756,0.19756 h 0.1481666 q 0.019756,0.079 0.019756,0.19755 z m 1.0174111,-0.98777 q 0.019756,0.079 0.019756,0.19755 0,0.1136 -0.019756,0.19756 0.019756,0.079 0.019756,0.19755 0,0.1136 -0.019756,0.19756 0.019756,0.079 0.019756,0.19755 0,0.1136 -0.019756,0.19756 0.019756,0.079 0.019756,0.19756 0,0.11359 -0.019756,0.19755 H 7.3271452 q -0.019756,-0.084 -0.019756,-0.19755 0,-0.11854 0.019756,-0.19756 H 7.1789785 q -0.019756,-0.084 -0.019756,-0.19756 0,-0.11853 0.019756,-0.19755 h 0.1481667 q -0.019756,-0.084 -0.019756,-0.19756 0,-0.11853 0.019756,-0.19755 -0.019756,-0.084 -0.019756,-0.19756 0,-0.11853 0.019756,-0.19755 -0.019756,-0.084 -0.019756,-0.19756 0,-0.11853 0.019756,-0.19755 h 0.3951111 q 0.019756,0.079 0.019756,0.19755 0,0.1136 -0.019756,0.19756 z"
         style="font-style:normal;font-variant:normal;font-weight:normal;font-stretch:normal;font-size:4.93888903px;font-family:VT323;-inkscape-font-specification:'VT323, Normal';font-variant-ligatures:normal;font-variant-caps:normal;font-variant-numeric:normal;font-feature-settings:normal;text-align:start;writing-mode:lr-tb;text-anchor:start;fill:#08f7fe;fill-opacity:0.94117647;stroke-width:0.26458332"
         id="path1433" />
    </g>
    <g
       id="g1462"
       transform="matrix(1,0,0,-1,0,587.70667)">
      <path
         style="fill:none;stroke:#08f7fe;stroke-width:0.26458332;stroke-linecap:square;stroke-linejoin:bevel;stroke-miterlimit:4;stroke-dasharray:none;stroke-opacity:0.94117647"
         d="m 0.13229167,295.60149 v 0.52914 l 0.396875,1e-5 v 0.39687 h 0.396875 v 0.39688 c 6.21770833,0 -0.13229167,0.0134 6.08541663,0.0134 v -0.41028 h 0.396875 v -0.39687 h 0.396875 v -0.52918 z"
         id="path1464"
         inkscape:connector-curvature="0"
         sodipodi:nodetypes="ccccccccccccc" />
      <path
         style="fill:none;stroke:#08f7fe;stroke-width:0.26458332;stroke-linecap:square;stroke-linejoin:bevel;stroke-miterlimit:4;stroke-dasharray:none;stroke-opacity:0.94117647"
         d="m 0.13229166,292.17527 10e-9,-0.93942 0.396875,0 v -0.39688 H 7.4083333 l 1e-7,0.39688 0.396875,0 v 0.93945 z"
         id="path1464-2"
         inkscape:connector-curvature="0"
         sodipodi:nodetypes="ccccccccc" />
    </g>
  </g>
</svg>
