<svg xmlns="http://www.w3.org/2000/svg" width="30" height="24" viewBox="0 0 7.937 6.35"><g style="font-style:normal;font-weight:400;font-size:10.58333302px;line-height:1.25;font-family:sans-serif;letter-spacing:0;word-spacing:0;fill:#000;fill-opacity:1;stroke:none;stroke-width:.26458332"><path d="M.482 293.105q0 .114-.02.198H.61q.02.079.02.197 0 .114-.02.198.02.079.02.198 0 .113-.02.197.02.08.02.198 0 .113-.02.197.02.08.02.198 0 .113-.02.197H.215q-.02-.084-.02-.197 0-.119.02-.198-.02-.084-.02-.197 0-.119.02-.198-.02-.084-.02-.197 0-.119.02-.198-.02-.084-.02-.198 0-.118.02-.197-.02-.084-.02-.198 0-.118.02-.197h.247q.02.079.02.197zm.543 0q0 .114-.02.198h.149q.02.079.02.197 0 .114-.02.198.02.079.02.198 0 .113-.02.197.02.08.02.198 0 .113-.02.197.02.08.02.198 0 .113-.02.197H.857q-.02-.084-.02-.197 0-.119.02-.198-.02-.084-.02-.197 0-.119.02-.198-.02-.084-.02-.197 0-.119.02-.198-.02-.084-.02-.198 0-.118.02-.197H.61q-.02-.084-.02-.198 0-.118.02-.197h.395q.02.079.02.197zm.77.593q.02.079.02.198 0 .113-.02.197.02.08.02.198 0 .113-.02.197.02.08.02.198 0 .113-.02.197H1.4q-.02-.084-.02-.197 0-.119.02-.198-.02-.084-.02-.197 0-.119.02-.198-.02-.084-.02-.197 0-.119.02-.198-.02-.084-.02-.198 0-.118.02-.197h-.246q-.02-.084-.02-.198 0-.118.02-.197h.444q.02.079.02.197 0 .114-.02.198h.198q.02.079.02.197 0 .114-.02.198zm1.995-.198q0 .114-.019.198.02.079.02.198 0 .113-.02.197H2.734q.02.08.02.198 0 .113-.02.197h.84q.02.08.02.198 0 .113-.02.197h-.988q-.02-.084-.02-.197 0-.119.02-.198h-.247q-.02-.084-.02-.197 0-.119.02-.198H2.19q-.02-.084-.02-.197 0-.119.02-.198h.148q-.02-.084-.02-.198 0-.118.02-.197h.247q-.02-.084-.02-.198 0-.118.02-.197h.988q.02.079.02.197 0 .114-.02.198h.197q.02.079.02.197zm-.414.198q-.02-.084-.02-.198 0-.118.02-.197h-.642q.02.079.02.197 0 .114-.02.198zm1.156-.593q0 .114-.02.198h.198q.02.079.02.197 0 .114-.02.198h-.15q.02.079.02.198 0 .113-.02.197.02.08.02.198 0 .113-.02.197.02.08.02.198 0 .113-.02.197h-.395q-.02-.084-.02-.197 0-.119.02-.198-.02-.084-.02-.197 0-.119.02-.198-.02-.084-.02-.197 0-.119.02-.198-.02-.084-.02-.198 0-.118.02-.197-.02-.084-.02-.198 0-.118.02-.197h.346q.02.079.02.197zm1.215.593q.02.079.02.198 0 .113-.02.197.02.08.02.198 0 .113-.02.197.02.08.02.198 0 .113-.02.197h-.395q-.02-.084-.02-.197 0-.119.02-.198-.02-.084-.02-.197 0-.119.02-.198-.02-.084-.02-.197 0-.119.02-.198-.02-.084-.02-.198 0-.118.02-.197H4.71q-.02-.084-.02-.198 0-.118.02-.197h.79q.02.079.02.197 0 .114-.02.198h.247q.02.079.02.197 0 .114-.02.198zm.958.592q0 .114-.02.198h.494q.02.08.02.198 0 .113-.02.197h-.79q-.02-.084-.02-.197 0-.119.02-.198h-.247q-.02-.084-.02-.197 0-.119.02-.198-.02-.084-.02-.197 0-.119.02-.198-.02-.084-.02-.198 0-.118.02-.197-.02-.084-.02-.198 0-.118.02-.197h.395q.02.079.02.197 0 .114-.02.198.02.079.02.197 0 .114-.02.198.02.079.02.198 0 .113-.02.197h.148q.02.08.02.198zm1.017-.987q.02.079.02.197 0 .114-.02.198.02.079.02.198 0 .113-.02.197.02.08.02.198 0 .113-.02.197.02.08.02.198 0 .113-.02.197h-.395q-.02-.084-.02-.197 0-.119.02-.198H7.18q-.02-.084-.02-.197 0-.119.02-.198h.148q-.02-.084-.02-.197 0-.119.02-.198-.02-.084-.02-.198 0-.118.02-.197-.02-.084-.02-.198 0-.118.02-.197h.395q.02.079.02.197 0 .114-.02.198z" style="font-style:normal;font-variant:normal;font-weight:400;font-stretch:normal;font-size:4.93888903px;font-family:VT323;-inkscape-font-specification:'VT323, Normal';font-variant-ligatures:normal;font-variant-caps:normal;font-variant-numeric:normal;font-feature-settings:normal;text-align:start;writing-mode:lr-tb;text-anchor:start;fill:#08f7fe;fill-opacity:.94117647;stroke-width:.26458332" transform="translate(0 -290.65)" aria-label="menu"/></g><path style="fill:none;stroke:#08f7fe;stroke-width:.26458332;stroke-linecap:square;stroke-linejoin:bevel;stroke-miterlimit:4;stroke-dasharray:none;stroke-opacity:.94117647" d="M.132 295.601v.53H.53v.397h.397v.396c6.218 0-.132.014 6.085.014v-.41h.397v-.397h.397v-.53zm0-3.426v-.94H.53v-.396h6.88v.397h.396v.94z" transform="matrix(1 0 0 -1 0 297.057)"/></svg>