<?xml version="1.0" encoding="UTF-8" standalone="no"?>
<!-- Created with Inkscape (http://www.inkscape.org/) -->

<svg
   xmlns:dc="http://purl.org/dc/elements/1.1/"
   xmlns:cc="http://creativecommons.org/ns#"
   xmlns:rdf="http://www.w3.org/1999/02/22-rdf-syntax-ns#"
   xmlns:svg="http://www.w3.org/2000/svg"
   xmlns="http://www.w3.org/2000/svg"
   xmlns:sodipodi="http://sodipodi.sourceforge.net/DTD/sodipodi-0.dtd"
   xmlns:inkscape="http://www.inkscape.org/namespaces/inkscape"
   width="30mm"
   height="22mm"
   viewBox="0 0 30 22"
   version="1.1"
   id="sob-svg"
   inkscape:version="0.92.5 (2060ec1f9f, 2020-04-08)"
   sodipodi:docname="sob.svg">
  <defs
     id="defs2" />
  <sodipodi:namedview
     id="base"
     pagecolor="#ffffff"
     bordercolor="#666666"
     borderopacity="1.0"
     inkscape:pageopacity="0.0"
     inkscape:pageshadow="2"
     inkscape:zoom="1.1512865"
     inkscape:cx="28.776114"
     inkscape:cy="117.55741"
     inkscape:document-units="mm"
     inkscape:current-layer="g885"
     showgrid="false"
     inkscape:window-width="1509"
     inkscape:window-height="884"
     inkscape:window-x="269"
     inkscape:window-y="141"
     inkscape:window-maximized="0"
     units="mm" />
  <metadata
     id="metadata5">
    <rdf:RDF>
      <cc:Work
         rdf:about="">
        <dc:format>image/svg+xml</dc:format>
        <dc:type
           rdf:resource="http://purl.org/dc/dcmitype/StillImage" />
        <dc:title></dc:title>
      </cc:Work>
    </rdf:RDF>
  </metadata>
  <g
     inkscape:label="Layer 1"
     inkscape:groupmode="layer"
     id="layer1"
     transform="translate(0,-274.99999)">
    <g
       id="g885"
       transform="matrix(0.26458333,0,0,0.26458333,4.9873943,95.897769)">
      <g
         id="g1116"
         transform="matrix(0.35303732,0,0,0.35303732,-12.725955,492.27025)">
        <path
           inkscape:connector-curvature="0"
           id="path928"
           d="m 55.328671,689.08211 c 24.215446,8.38227 23.594536,8.69272 23.594536,8.69272 v 0 z"
           style="fill:none;stroke-width:3;stroke-linecap:butt;stroke-linejoin:round;stroke-miterlimit:4;stroke-dasharray:none;stroke-opacity:1" />
        <path
           inkscape:connector-curvature="0"
           id="path930"
           d="m 144.11862,653.69032 -19.24817,40.97997 z"
           style="fill:none;stroke-width:3;stroke-linecap:butt;stroke-linejoin:round;stroke-miterlimit:4;stroke-dasharray:none;stroke-opacity:1" />
        <path
           inkscape:connector-curvature="0"
           id="path932"
           d="m 156.22634,645.61851 -28.5618,76.99271 z"
           style="fill:none;stroke-width:3;stroke-linecap:butt;stroke-linejoin:round;stroke-miterlimit:4;stroke-dasharray:none;stroke-opacity:1" />
        <path
           sodipodi:nodetypes="cccccc"
           inkscape:connector-curvature="0"
           id="path942"
           d="M 69.609573,626.99125 C 60.977109,599.42327 53.274232,596.02455 45.434239,589.06082 24.598415,579.8629 6.328949,578.07891 -7.07265,590.35764 c -11.076814,14.42583 -10.895053,32.60452 -9.765963,51.09898 2.805183,22.4797 8.95465,38.04686 20.942319,58.4914 24.78622,-31.50799 35.473383,-43.20532 65.505867,-72.95677 z"
           style="fill:none;stroke-width:3;stroke-linecap:butt;stroke-linejoin:round;stroke-miterlimit:4;stroke-dasharray:none;stroke-opacity:1" />
        <path
           sodipodi:nodetypes="ccccc"
           inkscape:connector-curvature="0"
           id="path948"
           d="m 69.609573,626.99123 12.728624,13.34955 C 54.291159,663.35272 32.256794,687.49203 17.453242,712.98712 L 4.103706,699.94802 C 33.58561,665.01424 32.264497,664.30784 69.609573,626.99123 Z"
           style="fill:none;stroke-width:3;stroke-linecap:butt;stroke-linejoin:round;stroke-miterlimit:4;stroke-dasharray:none;stroke-opacity:1" />
        <path
           sodipodi:nodetypes="ccc"
           inkscape:connector-curvature="0"
           id="path952"
           d="m 46.015041,715.47072 c 16.809599,10.39452 16.63059,12.31583 25.146802,29.1827 -8.937902,-17.59771 -10.025972,-17.95744 -25.146802,-29.1827 z"
           style="fill:none;stroke-width:3;stroke-linecap:butt;stroke-linejoin:round;stroke-miterlimit:4;stroke-dasharray:none;stroke-opacity:1" />
        <path
           sodipodi:nodetypes="ccccc"
           inkscape:connector-curvature="0"
           id="path954"
           d="m 298.10397,591.289 c -14.56224,-13.03592 -29.21811,-13.92966 -46.2577,-9.62409 -16.14933,9.49012 -21.64296,28.09522 -30.73498,34.14998 18.46401,21.25094 36.68991,45.12105 54.32951,75.4404 21.83282,-27.20867 37.25828,-67.90221 22.66317,-99.96629 z"
           style="fill:none;stroke-width:3;stroke-linecap:butt;stroke-linejoin:round;stroke-miterlimit:4;stroke-dasharray:none;stroke-opacity:1" />
        <path
           sodipodi:nodetypes="ccccc"
           inkscape:connector-curvature="0"
           id="path956"
           d="m 221.11129,615.81489 c -7.68663,6.43237 -10.02191,6.41649 -15.83317,16.76454 23.00876,17.80572 36.56811,34.94305 59.60724,70.47317 l 10.55544,-11.79733 c -16.58893,-28.18861 -34.43352,-53.86589 -54.32951,-75.44038 z"
           style="fill:none;stroke-width:3;stroke-linecap:butt;stroke-linejoin:round;stroke-miterlimit:4;stroke-dasharray:none;stroke-opacity:1" />
        <path
           sodipodi:nodetypes="cccccccccccccccccccccc"
           inkscape:connector-curvature="0"
           id="path960"
           d="m 82.338197,640.34076 c -29.516034,23.75147 -49.396708,48.06973 -64.884955,72.64636 11.639388,11.51905 31.374092,21.79266 53.708601,31.6663 15.986474,8.6103 31.727277,16.60642 42.842707,13.0391 16.81023,-3.88672 24.31831,-17.07559 32.28725,-29.8036 15.66872,14.57452 16.37105,14.84508 35.70225,24.5259 28.95215,-5.65714 62.9653,-25.70207 82.89131,-49.3622 -20.35295,-31.67008 -20.27485,-32.02033 -59.60724,-70.47321 -4.28129,12.04808 -3.68762,11.99601 -5.27772,22.35273 -2.25461,13.01092 -4.57816,14.24531 -12.10773,24.83634 -7.08539,-7.58677 -9.87164,-9.40293 -21.7318,-21.11089 l 6.83,-21.1109 c 9.93334,-21.38013 6.46548,-44.77044 0,-68.6104 h -5.58818 l -2.17318,-11.17636 -7.4509,-3.10454 -3.10455,9.31363 -6.82999,-1.55227 -21.1109,7.76135 c -17.79014,43.32233 -8.75216,67.66882 -1.55226,90.03176 -7.75905,11.37985 -7.64952,11.88821 -20.17954,25.1468 -3.93505,-18.62464 -9.698163,-35.42122 -22.663173,-45.0159 z"
           style="fill:none;stroke-width:3;stroke-linecap:butt;stroke-linejoin:round;stroke-miterlimit:4;stroke-dasharray:none;stroke-opacity:1" />
        <path
           sodipodi:nodetypes="ccc"
           inkscape:connector-curvature="0"
           id="path962"
           d="m 166.16087,658.65757 c -5.43832,24.49876 -10.43786,49.52405 -19.86907,69.23135 10.19395,-21.88681 14.35763,-45.78371 19.86907,-69.23135 z"
           style="fill:none;stroke-width:3;stroke-linecap:butt;stroke-linejoin:round;stroke-miterlimit:4;stroke-dasharray:none;stroke-opacity:1" />
        <path
           inkscape:connector-curvature="0"
           id="path966"
           d="m 168.33406,691.25529 18.62726,24.21543 z"
           style="fill:none;stroke-width:3;stroke-linecap:butt;stroke-linejoin:round;stroke-miterlimit:4;stroke-dasharray:none;stroke-opacity:1" />
        <path
           inkscape:connector-curvature="0"
           id="path968"
           d="m 187.89267,679.76846 10.86591,15.52274 z"
           style="fill:#08f7fe;stroke-width:3;stroke-linecap:butt;stroke-linejoin:round;stroke-miterlimit:4;stroke-dasharray:none;stroke-opacity:1" />
        <path
           inkscape:connector-curvature="0"
           id="path970"
           d="m 235.08174,663.3144 -11.48681,14.90181 z"
           style="fill:none;stroke-width:4;stroke-linecap:butt;stroke-linejoin:round;stroke-miterlimit:4;stroke-dasharray:none;stroke-opacity:1" />
        <path
           sodipodi:nodetypes="ccc"
           inkscape:connector-curvature="0"
           id="path972"
           d="m 243.15355,705.53622 c -8.05226,7.93195 -9.23029,16.72317 -10.8659,25.4572 1.42068,-9.11467 3.71678,-17.97923 10.8659,-25.4572 z"
           style="fill:none;stroke-width:3;stroke-linecap:butt;stroke-linejoin:round;stroke-miterlimit:4;stroke-dasharray:none;stroke-opacity:1" />
        <path
           sodipodi:nodetypes="cccccccccccccccc"
           inkscape:connector-curvature="0"
           id="path974"
           d="m 125.18091,660.20984 c 6.34588,-14.44519 15.39008,-26.55184 9.93453,-51.22494 l -4.65681,-3.415 c 4.35056,-2.33813 9.10248,-0.66276 14.2809,5.27772 l 6.20908,-7.76136 7.14045,-1.24181 -0.93136,-8.38227 5.58818,-1.86273 -1.24182,-6.82999 -3.72545,-5.58818 7.76136,-4.03591 c 7.98144,-8.85025 -5.60814,-8.17339 -10.86591,-11.17637 v 0 l -6.82999,-1.55227 -21.1109,7.76135 c -15.48993,38.7043 -11.56005,66.13258 -1.55226,90.03176 z"
           style="fill:none;stroke-width:3;stroke-linecap:butt;stroke-linejoin:round;stroke-miterlimit:4;stroke-dasharray:none;stroke-opacity:1" />
        <path
           inkscape:connector-curvature="0"
           id="path976"
           d="m 150.94861,603.08624 -5.58818,-10.55542 -15.52271,0.93136 15.52271,-0.93136 z"
           style="fill:none;stroke-width:3;stroke-linecap:butt;stroke-linejoin:round;stroke-miterlimit:4;stroke-dasharray:none;stroke-opacity:1" />
        <path
           inkscape:connector-curvature="0"
           id="path978"
           d="m 157.1577,593.46216 -9.31363,-10.86588 -15.83317,1.55227 15.83317,-0.93136 z"
           style="fill:none;stroke-width:3;stroke-linecap:butt;stroke-linejoin:round;stroke-miterlimit:4;stroke-dasharray:none;stroke-opacity:1" />
        <path
           sodipodi:nodetypes="ccc"
           inkscape:connector-curvature="0"
           id="path980"
           d="m 157.77861,579.18126 c -3.03877,-10.27305 -14.01438,-4.67242 -22.35271,-4.34634 8.56121,-0.21668 19.88704,-4.58029 22.35271,4.34634 z"
           style="fill:none;stroke-width:3;stroke-linecap:butt;stroke-linejoin:round;stroke-miterlimit:4;stroke-dasharray:none;stroke-opacity:1" />
        <path
           inkscape:connector-curvature="0"
           id="path986"
           d="m 104.07001,605.5699 -15.522723,5.89863"
           style="fill:none;stroke-width:3;stroke-linecap:butt;stroke-linejoin:round;stroke-miterlimit:4;stroke-dasharray:none;stroke-opacity:1" />
        <path
           sodipodi:nodetypes="cc"
           inkscape:connector-curvature="0"
           id="path986-6"
           d="m 99.413187,588.02924 -17.38544,-0.93136"
           style="fill:none;stroke-width:3;stroke-linecap:butt;stroke-linejoin:round;stroke-miterlimit:4;stroke-dasharray:none;stroke-opacity:1" />
        <path
           sodipodi:nodetypes="cc"
           inkscape:connector-curvature="0"
           id="path986-64"
           d="m 103.44909,569.40198 -14.591353,-6.83"
           style="fill:none;stroke-width:3;stroke-linecap:butt;stroke-linejoin:round;stroke-miterlimit:4;stroke-dasharray:none;stroke-opacity:1" />
        <path
           sodipodi:nodetypes="cc"
           inkscape:connector-curvature="0"
           id="path986-64-5"
           d="m 208.07221,611.00287 -15.21227,-5.89863"
           style="fill:none;stroke-width:3;stroke-linecap:butt;stroke-linejoin:round;stroke-miterlimit:4;stroke-dasharray:none;stroke-opacity:1" />
        <path
           sodipodi:nodetypes="cc"
           inkscape:connector-curvature="0"
           id="path986-64-0"
           d="m 194.10177,540.84019 -12.41818,13.34953"
           style="fill:none;stroke-width:3;stroke-linecap:butt;stroke-linejoin:round;stroke-miterlimit:4;stroke-dasharray:none;stroke-opacity:1" />
        <path
           sodipodi:nodetypes="cc"
           inkscape:connector-curvature="0"
           id="path986-64-4"
           d="m 212.41857,586.78743 -15.83318,-0.93137"
           style="fill:none;stroke-width:3;stroke-linecap:butt;stroke-linejoin:round;stroke-miterlimit:4;stroke-dasharray:none;stroke-opacity:1" />
        <path
           sodipodi:nodetypes="cc"
           inkscape:connector-curvature="0"
           id="path986-64-8"
           d="m 207.4513,561.01971 -14.2809,7.45091"
           style="fill:none;stroke-width:3;stroke-linecap:butt;stroke-linejoin:round;stroke-miterlimit:4;stroke-dasharray:none;stroke-opacity:1" />
        <path
           sodipodi:nodetypes="cc"
           inkscape:connector-curvature="0"
           id="path986-64-7"
           d="m 173.30132,527.49065 -6.20909,15.21226"
           style="fill:none;stroke-width:3;stroke-linecap:butt;stroke-linejoin:round;stroke-miterlimit:4;stroke-dasharray:none;stroke-opacity:1" />
        <path
           sodipodi:nodetypes="cc"
           inkscape:connector-curvature="0"
           id="path986-64-1"
           d="m 148.46497,539.59837 0.31045,-16.14363"
           style="fill:none;stroke-width:3;stroke-linecap:butt;stroke-linejoin:round;stroke-miterlimit:4;stroke-dasharray:none;stroke-opacity:1" />
        <path
           sodipodi:nodetypes="cc"
           inkscape:connector-curvature="0"
           id="path986-64-72"
           d="m 130.14817,542.082 -6.51954,-14.59136"
           style="fill:none;stroke-width:3;stroke-linecap:butt;stroke-linejoin:round;stroke-miterlimit:4;stroke-dasharray:none;stroke-opacity:1" />
        <path
           sodipodi:nodetypes="cc"
           inkscape:connector-curvature="0"
           id="path986-64-722"
           d="M 114.315,553.56882 100.96546,541.15064"
           style="fill:none;stroke-width:3;stroke-linecap:butt;stroke-linejoin:round;stroke-miterlimit:4;stroke-dasharray:none;stroke-opacity:1" />
      </g>
    </g>
  </g>
</svg>
