<?xml version="1.0" encoding="UTF-8" standalone="no"?>
<svg
   xmlns:dc="http://purl.org/dc/elements/1.1/"
   xmlns:cc="http://creativecommons.org/ns#"
   xmlns:rdf="http://www.w3.org/1999/02/22-rdf-syntax-ns#"
   xmlns:svg="http://www.w3.org/2000/svg"
   xmlns="http://www.w3.org/2000/svg"
   xmlns:sodipodi="http://sodipodi.sourceforge.net/DTD/sodipodi-0.dtd"
   xmlns:inkscape="http://www.inkscape.org/namespaces/inkscape"
   viewBox="0 0 50 50"
   version="1.1"
   id="svg1659"
   sodipodi:docname="github.svg"
   width="50"
   height="50"
   inkscape:version="0.92.5 (2060ec1f9f, 2020-04-08)">
  <metadata
     id="metadata1665">
    <rdf:RDF>
      <cc:Work
         rdf:about="">
        <dc:format>image/svg+xml</dc:format>
        <dc:type
           rdf:resource="http://purl.org/dc/dcmitype/StillImage" />
        <dc:title></dc:title>
      </cc:Work>
    </rdf:RDF>
  </metadata>
  <defs
     id="defs1663" />
  <sodipodi:namedview
     pagecolor="#ffffff"
     bordercolor="#666666"
     borderopacity="1"
     objecttolerance="10"
     gridtolerance="10"
     guidetolerance="10"
     inkscape:pageopacity="0"
     inkscape:pageshadow="2"
     inkscape:window-width="1330"
     inkscape:window-height="818"
     id="namedview1661"
     showgrid="false"
     inkscape:zoom="1.1991577"
     inkscape:cx="256"
     inkscape:cy="256"
     inkscape:window-x="0"
     inkscape:window-y="33"
     inkscape:window-maximized="0"
     inkscape:current-layer="svg1659" />
  <path
     d="M 25.000191,-3.8e-4 C 11.268702,-3.8e-4 0,11.26832 0,24.99981 0,36.7175 8.2222612,47.36174 19.140771,50 v -8.27109 c -1.081856,0.23689 -2.0775,0.24376 -3.178811,-0.0809 -1.477444,-0.43603 -2.677938,-1.42022 -3.569058,-2.92094 -0.568013,-0.95826 -1.574719,-1.99739 -2.6249136,-1.92109 L 9.5104943,33.88771 c 2.2709067,-0.19455 4.2354907,1.3836 5.4016527,3.34285 0.51804,0.87128 1.114281,1.38207 1.879515,1.6079 0.739676,0.21782 1.533902,0.1133 2.459355,-0.21362 0.232316,-1.85282 1.081093,-2.54633 1.722349,-3.5229 v -0.002 C 14.461628,34.12871 11.866469,30.6741 10.836493,27.94733 9.4715841,24.32677 10.204012,19.80365 12.617589,16.94528 c 0.04692,-0.0557 0.131608,-0.20142 0.0988,-0.30327 -1.106652,-3.34285 0.241854,-6.10814 0.291445,-6.4015 1.277171,0.37766 1.484692,-0.37994 5.547757,2.08857 l 0.702291,0.42191 c 0.293734,0.17509 0.201418,0.0752 0.495152,0.053 1.696408,-0.46082 3.484752,-0.71526 5.246774,-0.73815 1.775374,0.0229 3.552273,0.27733 5.318873,0.75684 l 0.227358,0.0229 c -0.01984,-0.003 0.0618,-0.0145 0.198747,-0.0961 5.075494,-3.07429 4.89315,-2.06949 6.254244,-2.512 0.04921,0.29374 1.379787,3.10405 0.28496,6.40455 -0.14763,0.45471 4.400287,4.61925 1.879516,11.30418 -1.029976,2.72791 -3.624753,6.18252 -10.136491,7.15375 v 0.002 c 0.834662,1.27221 1.837554,1.94894 1.832213,4.57347 V 50 C 41.77812,47.36174 50,36.7175 50,24.99981 50.000381,11.26832 38.73168,-3.8e-4 25.000191,-3.8e-4 Z m 0,0"
     id="path1657"
     inkscape:connector-curvature="0"
     style="stroke-width:0.097657" />
</svg>
