<?xml version="1.0" encoding="UTF-8" standalone="no"?>
<svg
   xmlns:dc="http://purl.org/dc/elements/1.1/"
   xmlns:cc="http://creativecommons.org/ns#"
   xmlns:rdf="http://www.w3.org/1999/02/22-rdf-syntax-ns#"
   xmlns:svg="http://www.w3.org/2000/svg"
   xmlns="http://www.w3.org/2000/svg"
   xmlns:sodipodi="http://sodipodi.sourceforge.net/DTD/sodipodi-0.dtd"
   xmlns:inkscape="http://www.inkscape.org/namespaces/inkscape"
   enable-background="new 0 0 547.597 547.597"
   height="63.599998"
   viewBox="0 0 50.000001 63.6"
   width="50"
   version="1.1"
   id="svg996"
   sodipodi:docname="stackoverflow.svg"
   inkscape:version="0.92.5 (2060ec1f9f, 2020-04-08)">
  <metadata
     id="metadata1002">
    <rdf:RDF>
      <cc:Work
         rdf:about="">
        <dc:format>image/svg+xml</dc:format>
        <dc:type
           rdf:resource="http://purl.org/dc/dcmitype/StillImage" />
        <dc:title></dc:title>
      </cc:Work>
    </rdf:RDF>
  </metadata>
  <defs
     id="defs1000" />
  <sodipodi:namedview
     pagecolor="#ffffff"
     bordercolor="#666666"
     borderopacity="1"
     objecttolerance="10"
     gridtolerance="10"
     guidetolerance="10"
     inkscape:pageopacity="0"
     inkscape:pageshadow="2"
     inkscape:window-width="1920"
     inkscape:window-height="1011"
     id="namedview998"
     showgrid="false"
     inkscape:zoom="1.5321487"
     inkscape:cx="273.79849"
     inkscape:cy="169.36999"
     inkscape:window-x="0"
     inkscape:window-y="33"
     inkscape:window-maximized="1"
     inkscape:current-layer="svg996" />
  <path
     d="m 9.5562411,55.182285 h 0.00279 l 22.0540249,-0.0312 c 0.979431,-0.002 1.776771,-0.79966 1.776771,-1.77886 v -2.47331 c 0,-0.97873 -0.795946,-1.77538 -1.776771,-1.77538 l -22.0540249,0.0307 c -0.9793144,10e-4 -1.7767711,0.79955 -1.7767711,1.77886 v 2.47471 c 1.162e-4,0.97861 0.7960631,1.77456 1.773984,1.77456 z"
     id="path982"
     inkscape:connector-curvature="0"
     style="stroke-width:0.11612882" />
  <path
     d="m 0.01707094,60.145985 c 0.0084774,3.39792 0.0084774,3.41987 0.35674775,3.41987 h 0.006387 l 1.23235911,0.0341 h 0.00999 c 0,0 9.9654792,0 19.9310742,-0.004 4.983553,-0.002 9.966292,-0.006 13.703202,-0.0107 1.868512,-0.002 3.426381,-0.005 4.515901,-0.009 2.067442,-0.006 2.067442,-0.006 2.067442,-0.35675 l 0.03484,-1.24223 v -23.26374 c 0,-0.97943 -0.79734,-1.77677 -1.776771,-1.77677 H 38.71526 c -0.97943,0 -1.776771,0.79734 -1.776771,1.77677 v 18.91982 c 0,0.58785 -0.478334,1.06607 -1.066179,1.06607 H 6.0375377 c -0.587728,0 -1.0660627,-0.47822 -1.0660627,-1.06607 v -18.91982 c 0,-0.97943 -0.7974566,-1.77677 -1.776771,-1.77677 H 1.776771 C 0.79745665,36.937055 0,37.733695 0,38.713825 c 0,2.71068 0.00139355,8.83555 0.00638709,14.28164 0.00220644,2.72287 0.00580644,5.27712 0.01068385,7.15052 z"
     id="path984"
     inkscape:connector-curvature="0"
     style="stroke-width:0.11612882" />
  <path
     d="m 9.7318279,46.157685 21.9950321,2.02842 c 0.05551,0.005 0.11009,0.007 0.16409,0.007 0.923921,0 1.680152,-0.69503 1.760397,-1.61617 l 0.212515,-2.44985 c 0.08466,-0.97502 -0.639637,-1.84076 -1.613958,-1.93099 l -21.960193,-2.02772 c -0.9978953,-0.0923 -1.8428486,0.63185 -1.9338936,1.60548 l -0.2287738,2.45124 c -0.044129,0.47253 0.098013,0.93391 0.4008767,1.29844 0.3033285,0.36546 0.7312632,0.59063 1.2039076,0.63395 z"
     id="path986"
     inkscape:connector-curvature="0"
     style="stroke-width:0.11612882" />
  <path
     d="m 44.026296,24.261595 c 0.147832,0.85285 0.883392,1.47193 1.747739,1.47193 0.101612,0 0.203922,-0.009 0.307044,-0.0269 l 2.446254,-0.42712 c 0.965147,-0.16851 1.613958,-1.09103 1.446268,-2.05618 L 46.19895,1.4805251 C 46.034047,0.52745514 45.129404,-0.13564486 44.144399,0.03495514 l -2.446254,0.42712 c -0.965146,0.1685 -1.613958,1.09102996 -1.446268,2.05605996 z"
     id="path988"
     inkscape:connector-curvature="0"
     style="stroke-width:0.11612882" />
  <path
     d="m 15.307289,22.580745 18.998676,11.23059 c 0.273599,0.16211 0.586334,0.24805 0.90325,0.24805 0.626283,0 1.213198,-0.33399 1.530926,-0.87201 l 1.263017,-2.13213 c 0.241548,-0.40866 0.310529,-0.88618 0.192542,-1.34605 -0.117987,-0.45917 -0.407961,-0.84577 -0.816618,-1.08673 L 18.380406,17.391175 c -0.814528,-0.48181 -1.955145,-0.18545 -2.434873,0.62408 l -1.262204,2.13213 c -0.241664,0.40865 -0.310529,0.88699 -0.192542,1.34604 0.117871,0.45976 0.408541,0.84565 0.816502,1.08732 z"
     id="path990"
     inkscape:connector-curvature="0"
     style="stroke-width:0.11612882" />
  <path
     d="m 38.206964,27.937305 c 0.331316,0.48472 0.879096,0.7733 1.466243,0.7733 0.358954,0 0.705715,-0.1073 1.002772,-0.31134 l 2.021222,-1.38588 c 0.807444,-0.55371 1.01636,-1.66227 0.466258,-2.47262 L 30.747429,6.2912351 c -0.532334,-0.78178 -1.683636,-1.00138 -2.466112,-0.46265 l -2.059777,1.41793 c -0.806514,0.55498 -1.013456,1.66378 -0.461147,2.4725 z"
     id="path992"
     inkscape:connector-curvature="0"
     style="stroke-width:0.11612882" />
  <path
     d="m 11.143954,35.116155 21.305575,5.70843 c 0.150736,0.0405 0.305651,0.0611 0.460567,0.0611 0.801638,0 1.507352,-0.54232 1.714294,-1.31771 l 0.639638,-2.39504 c 0.253044,-0.94669 -0.311342,-1.92252 -1.257211,-2.17626 l -21.305575,-5.70912 c -0.931005,-0.24945 -1.928203,0.3312 -2.174861,1.25721 l -0.6396373,2.39574 c -0.2530447,0.94552 0.3112253,1.92204 1.2572103,2.17567 z"
     id="path994"
     inkscape:connector-curvature="0"
     style="stroke-width:0.11612882" />
</svg>
