<svg enable-background="new 0 0 547.597 547.597" height="547.597" viewBox="0 0 547.597 547.597" width="547.597" xmlns="http://www.w3.org/2000/svg"><path d="m140.81 475.111h.024l189.91-.269c8.434-.013 15.3-6.886 15.3-15.318v-21.298c0-8.428-6.854-15.288-15.3-15.288l-189.91.264c-8.433.012-15.3 6.885-15.3 15.318v21.31c.001 8.427 6.855 15.281 15.276 15.281z"/><path d="m58.667 517.854c.073 29.26.073 29.449 3.072 29.449h.055l10.612.294h.086s85.814 0 171.629-.036c42.914-.019 85.821-.05 118-.092 16.09-.019 29.505-.043 38.887-.074 17.803-.055 17.803-.055 17.803-3.072l.3-10.697v-200.327c0-8.434-6.866-15.3-15.3-15.3h-11.909c-8.434 0-15.3 6.866-15.3 15.3v162.921c0 5.062-4.119 9.18-9.181 9.18h-256.911c-5.061 0-9.18-4.118-9.18-9.18v-162.921c0-8.434-6.867-15.3-15.3-15.3h-12.21c-8.433 0-15.3 6.86-15.3 15.3 0 23.342.012 76.084.055 122.981.019 23.447.05 45.442.092 61.574z"/><path d="m142.322 397.399 189.402 17.467c.478.043.948.062 1.413.062 7.956 0 14.468-5.985 15.159-13.917l1.83-21.096c.729-8.396-5.508-15.851-13.898-16.628l-189.102-17.461c-8.593-.795-15.869 5.441-16.653 13.825l-1.97 21.108c-.38 4.069.844 8.042 3.452 11.181 2.612 3.147 6.297 5.086 10.367 5.459z"/><path d="m437.636 208.849c1.273 7.344 7.607 12.675 15.05 12.675.875 0 1.756-.074 2.644-.232l21.065-3.678c8.311-1.451 13.898-9.395 12.454-17.706l-32.504-187.23c-1.42-8.207-9.21-13.917-17.692-12.448l-21.065 3.678c-8.311 1.451-13.898 9.395-12.454 17.705z"/><path d="m190.333 194.375 163.6 96.708c2.356 1.396 5.049 2.136 7.778 2.136 5.393 0 10.447-2.876 13.183-7.509l10.876-18.36c2.08-3.519 2.674-7.631 1.658-11.591-1.016-3.954-3.513-7.283-7.032-9.358l-163.6-96.714c-7.014-4.149-16.836-1.597-20.967 5.374l-10.869 18.36c-2.081 3.519-2.674 7.638-1.658 11.591 1.015 3.959 3.518 7.282 7.031 9.363z"/><path d="m387.525 240.501c2.853 4.174 7.57 6.659 12.626 6.659 3.091 0 6.077-.924 8.635-2.681l17.405-11.934c6.953-4.768 8.752-14.314 4.015-21.292l-106.916-157.149c-4.584-6.732-14.498-8.623-21.236-3.984l-17.737 12.21c-6.945 4.779-8.727 14.327-3.971 21.291z"/><path d="m154.482 302.319 183.465 49.156c1.298.349 2.632.526 3.966.526 6.903 0 12.98-4.67 14.762-11.347l5.508-20.624c2.179-8.152-2.681-16.555-10.826-18.74l-183.465-49.162c-8.017-2.148-16.604 2.852-18.728 10.826l-5.508 20.63c-2.179 8.142 2.68 16.551 10.826 18.735z"/></svg>