<svg xmlns="http://www.w3.org/2000/svg" width="200" height="32.6" viewBox="0 0 52.917 8.625"><defs><marker orient="auto" style="overflow:visible"><path d="m0 0 5-5-17.5 5L5 5z" style="fill:#08f7fe;fill-opacity:.94117647;fill-rule:evenodd;stroke:#08f7fe;stroke-width:1.00000003pt;stroke-opacity:.94117647" transform="matrix(.4 0 0 .4 4 0)"/></marker><marker orient="auto" style="overflow:visible"><path style="fill:#08f7fe;fill-opacity:.94117647;fill-rule:evenodd;stroke:#08f7fe;stroke-width:.625;stroke-linejoin:round;stroke-opacity:.94117647" d="M8.719 4.034-2.207.016 8.719-4.002c-1.746 2.372-1.736 5.618 0 8.036z" transform="translate(1.1) scale(1.1)"/></marker><marker orient="auto" style="overflow:visible"><path style="fill:#08f7fe;fill-opacity:.94117647;fill-rule:evenodd;stroke:#08f7fe;stroke-width:.625;stroke-linejoin:round;stroke-opacity:.94117647" d="M8.719 4.034-2.207.016 8.719-4.002c-1.746 2.372-1.736 5.618 0 8.036z" transform="translate(1.1) scale(1.1)"/></marker><marker orient="auto" style="overflow:visible"><path d="m0 0 5-5-17.5 5L5 5z" style="fill:#08f7fe;fill-opacity:.94117647;fill-rule:evenodd;stroke:#08f7fe;stroke-width:1.00000003pt;stroke-opacity:.94117647" transform="matrix(.8 0 0 .8 10 0)"/></marker></defs><g style="font-style:normal;font-weight:400;font-size:40px;line-height:1.25;font-family:sans-serif;letter-spacing:0;word-spacing:0;fill:#000;fill-opacity:1;stroke:none"><g style="font-style:normal;font-weight:400;font-size:58.46186447px;line-height:1.25;font-family:sans-serif;letter-spacing:0;word-spacing:0;fill:#08f7fe;fill-opacity:.94117647;stroke:none;stroke-width:1.46154761"><path d="M94.17 91.998q.183.73.183 1.827 0 1.05-.183 1.827.183.731.183 1.827 0 1.051-.183 1.828h-1.827q.183.73.183 1.827 0 1.05-.183 1.827h-1.827q.182.731.182 1.827 0 1.051-.182 1.828H79.552q-.183-.777-.183-1.828 0-1.096.183-1.827-.183-.776-.183-1.827 0-1.096.183-1.827-.183-.777-.183-1.828 0-1.096.183-1.827-.183-.776-.183-1.827 0-1.097.183-1.827-.183-.777-.183-1.828 0-1.096.183-1.827-.183-.777-.183-1.827 0-1.097.183-1.828-.183-.776-.183-1.827 0-1.096.183-1.827h10.964q.182.73.182 1.827 0 1.05-.182 1.827h1.827q.183.731.183 1.828 0 1.05-.183 1.827h1.827q.183.73.183 1.827 0 1.051-.183 1.828zm-3.654 7.309q-.183-.777-.183-1.828 0-1.096.183-1.827-.183-.776-.183-1.827 0-1.097.183-1.827-.183-.777-.183-1.828 0-1.096.183-1.827h-1.828q-.182-.777-.182-1.827 0-1.097.182-1.828h-5.481q.182.731.182 1.828 0 1.05-.182 1.827.182.73.182 1.827 0 1.051-.182 1.828.182.73.182 1.827 0 1.05-.182 1.827.182.731.182 1.827 0 1.051-.182 1.828.182.73.182 1.827 0 1.05-.182 1.827h5.481q-.182-.776-.182-1.827 0-1.096.182-1.827zm20.063-5.482q0 1.05-.183 1.827.183.731.183 1.827 0 1.051-.183 1.828h-9.593q.183.73.183 1.827 0 1.05-.183 1.827h7.766q.183.731.183 1.827 0 1.051-.183 1.828h-9.136q-.183-.777-.183-1.828 0-1.096.183-1.827h-2.284q-.183-.776-.183-1.827 0-1.096.183-1.827h-1.37q-.184-.777-.184-1.828 0-1.096.183-1.827h1.37q-.182-.776-.182-1.827 0-1.097.183-1.827h2.284q-.183-.777-.183-1.828 0-1.096.183-1.827h9.136q.183.73.183 1.827 0 1.051-.183 1.828h1.827q.183.73.183 1.827zm-3.837 1.827q-.183-.776-.183-1.827 0-1.097.183-1.827h-5.939q.183.73.183 1.827 0 1.05-.183 1.827zm8.643-5.482q0 1.051-.183 1.828h1.827q.183.73.183 1.827 0 1.05-.183 1.827h-1.37q.182.731.182 1.827 0 1.051-.182 1.828.182.73.182 1.827 0 1.05-.182 1.827.182.731.182 1.827 0 1.051-.182 1.828h-3.655q-.183-.777-.183-1.828 0-1.096.183-1.827-.183-.776-.183-1.827 0-1.096.183-1.827-.183-.777-.183-1.828 0-1.096.183-1.827-.183-.776-.183-1.827 0-1.097.183-1.827-.183-.777-.183-1.828 0-1.096.183-1.827h3.198q.183.73.183 1.827zm11.237 5.482q.183.731.183 1.827 0 1.051-.183 1.828.183.73.183 1.827 0 1.05-.183 1.827.183.731.183 1.827 0 1.051-.183 1.828h-3.654q-.183-.777-.183-1.828 0-1.096.183-1.827-.183-.776-.183-1.827 0-1.096.183-1.827-.183-.777-.183-1.828 0-1.096.183-1.827-.183-.776-.183-1.827 0-1.097.183-1.827h-5.939q-.183-.777-.183-1.828 0-1.096.183-1.827h7.31q.182.73.182 1.827 0 1.051-.183 1.828h2.284q.183.73.183 1.827 0 1.05-.183 1.827zm6.012-5.482q0 1.051-.183 1.828h1.828q.182.73.182 1.827 0 1.05-.182 1.827h-1.37q.182.731.182 1.827 0 1.051-.183 1.828.183.73.183 1.827 0 1.05-.183 1.827.183.731.183 1.827 0 1.051-.183 1.828h-3.654q-.183-.777-.183-1.828 0-1.096.183-1.827-.183-.776-.183-1.827 0-1.096.183-1.827-.183-.777-.183-1.828 0-1.096.183-1.827-.183-.776-.183-1.827 0-1.097.183-1.827-.183-.777-.183-1.828 0-1.096.183-1.827h3.197q.183.73.183 1.827zm11.238 5.482q.182.731.182 1.827 0 1.051-.182 1.828.182.73.182 1.827 0 1.05-.182 1.827.182.731.182 1.827 0 1.051-.182 1.828h-3.655q-.182-.777-.182-1.828 0-1.096.182-1.827-.182-.776-.182-1.827 0-1.096.182-1.827-.182-.777-.182-1.828 0-1.096.182-1.827-.182-.776-.182-1.827 0-1.097.182-1.827h-5.938q-.183-.777-.183-1.828 0-1.096.183-1.827h7.309q.182.73.182 1.827 0 1.051-.182 1.828h2.284q.182.73.182 1.827 0 1.05-.182 1.827zm6.066-10.964q-.182-.776-.182-1.827 0-1.096.182-1.827h3.655q.183.73.183 1.827 0 1.05-.183 1.827zm7.31 18.273q.182.731.182 1.827 0 1.051-.183 1.828h-10.963q-.183-.777-.183-1.828 0-1.096.183-1.827h3.654q-.182-.776-.182-1.827 0-1.096.182-1.827-.182-.777-.182-1.828 0-1.096.182-1.827-.182-.776-.182-1.827 0-1.097.182-1.827h-2.74q-.183-.777-.183-1.828 0-1.096.182-1.827h6.396q.183.73.183 1.827 0 1.051-.183 1.828.183.73.183 1.827 0 1.05-.183 1.827.183.731.183 1.827 0 1.051-.183 1.828.183.73.183 1.827 0 1.05-.183 1.827zm15.275-1.827q0 1.05-.182 1.827h-1.828q.183.731.183 1.827 0 1.051-.183 1.828h-10.05q-.182-.777-.182-1.828 0-1.096.182-1.827h8.223q-.183-.776-.183-1.827 0-1.096.183-1.827h-7.309q-.183-.777-.183-1.828 0-1.096.183-1.827h-1.827q-.183-.776-.183-1.827 0-1.097.183-1.827h1.827q-.183-.777-.183-1.828 0-1.096.183-1.827h10.05q.183.73.183 1.827 0 1.051-.183 1.828h-8.223q.183.73.183 1.827 0 1.05-.183 1.827h7.31q.182.731.182 1.827 0 1.051-.183 1.828h1.828q.182.73.182 1.827zm33.183-16.446q.183.731.183 1.828 0 1.05-.183 1.827.183.73.183 1.827 0 1.051-.183 1.828.183.73.183 1.827 0 1.05-.183 1.827.183.731.183 1.827 0 1.051-.183 1.828.183.73.183 1.827 0 1.05-.183 1.827.183.731.183 1.827 0 1.051-.183 1.828h-3.654q-.183-.777-.183-1.828 0-1.096.183-1.827-.183-.776-.183-1.827 0-1.096.183-1.827-.183-.777-.183-1.828 0-1.096.183-1.827-.183-.776-.183-1.827 0-1.097.183-1.827-.183-.777-.183-1.828 0-1.096.183-1.827h-1.37q.182.73.182 1.827 0 1.051-.183 1.828.183.73.183 1.827 0 1.05-.183 1.827h-.913q.183.731.183 1.827 0 1.051-.183 1.828.183.73.183 1.827 0 1.05-.183 1.827h-2.741q-.183-.776-.183-1.827 0-1.096.183-1.827-.183-.777-.183-1.828 0-1.096.183-1.827h-.914q-.182-.776-.182-1.827 0-1.097.182-1.827-.182-.777-.182-1.828 0-1.096.182-1.827h-1.37q.183.73.183 1.827 0 1.051-.183 1.828.183.73.183 1.827 0 1.05-.183 1.827.183.731.183 1.827 0 1.051-.183 1.828.183.73.183 1.827 0 1.05-.183 1.827.183.731.183 1.827 0 1.051-.183 1.828h-3.655q-.182-.777-.182-1.828 0-1.096.182-1.827-.182-.776-.182-1.827 0-1.096.182-1.827-.182-.777-.182-1.828 0-1.096.182-1.827-.182-.776-.182-1.827 0-1.097.182-1.827-.182-.777-.182-1.828 0-1.096.182-1.827-.182-.777-.182-1.827 0-1.097.182-1.828-.182-.776-.182-1.827 0-1.096.182-1.827h4.568q.183.73.183 1.827 0 1.05-.183 1.827h1.37q.184.731.184 1.828 0 1.05-.183 1.827h.685q.183.73.183 1.827 0 1.051-.183 1.828h1.37q-.182-.777-.182-1.828 0-1.096.183-1.827h.685q-.183-.777-.183-1.827 0-1.097.183-1.828h1.37q-.182-.776-.182-1.827 0-1.096.182-1.827h4.568q.183.73.183 1.827 0 1.05-.183 1.827zm17.25 18.273q.183.731.183 1.827 0 1.051-.183 1.828H219.3q-.182-.777-.182-1.828 0-1.096.182-1.827h-1.827q-.183-.776-.183-1.827 0-1.096.183-1.827h-5.482q.183.73.183 1.827 0 1.05-.183 1.827h5.482q.183.731.183 1.827 0 1.051-.183 1.828h-7.309q-.183-.777-.183-1.828 0-1.096.183-1.827h-1.827q-.183-.776-.183-1.827 0-1.096.183-1.827h1.827q-.183-.777-.183-1.828 0-1.096.183-1.827h7.31q-.184-.776-.184-1.827 0-1.097.183-1.827h-6.395q-.183-.777-.183-1.828 0-1.096.183-1.827h8.222q.183.73.183 1.827 0 1.051-.183 1.828h1.828q.182.73.182 1.827 0 1.05-.182 1.827.182.731.182 1.827 0 1.051-.182 1.828.182.73.182 1.827 0 1.05-.182 1.827zm6.066-18.273q-.182-.776-.182-1.827 0-1.096.182-1.827h3.655q.183.73.183 1.827 0 1.05-.183 1.827zm7.31 18.273q.182.731.182 1.827 0 1.051-.183 1.828h-10.963q-.183-.777-.183-1.828 0-1.096.183-1.827h3.654q-.182-.776-.182-1.827 0-1.096.182-1.827-.182-.777-.182-1.828 0-1.096.182-1.827-.182-.776-.182-1.827 0-1.097.182-1.827h-2.74q-.183-.777-.183-1.828 0-1.096.182-1.827h6.396q.183.73.183 1.827 0 1.051-.183 1.828.183.73.183 1.827 0 1.05-.183 1.827.183.731.183 1.827 0 1.051-.183 1.828.183.73.183 1.827 0 1.05-.183 1.827z" style="font-style:normal;font-variant:normal;font-weight:400;font-stretch:normal;font-size:70.15398407px;font-family:VT323;-inkscape-font-specification:'VT323, Normal';font-variant-ligatures:normal;font-variant-caps:normal;font-variant-numeric:normal;font-feature-settings:normal;text-align:start;writing-mode:lr-tb;text-anchor:start;fill:#08f7fe;fill-opacity:.94117647;stroke-width:.95170647" transform="translate(-26.727 -27.276) scale(.33674)" aria-label="Dennis Mai"/></g></g></svg>