<svg xmlns="http://www.w3.org/2000/svg" width="374.929" height="105.8mm" viewBox="0 0 99.2 105.8" version="1.1" id="cat2" class="cat"><g id="layer1" transform="translate(0 -191.2)"><g id="g1238" transform="rotate(180 32.029 141.465) scale(.35278)"><path d="M0 0v-12.419c0-12.799 10.375-23.174 23.174-23.174h37.89c12.799 0 23.174 10.375 23.174 23.174V0c0 12.798-10.375 23.174-23.174 23.174h-37.89C10.375 23.174 0 12.798 0 0" style="fill:#f8c786;fill-opacity:1;fill-rule:nonzero;stroke:none" id="path1240"/></g><g id="g1242" transform="rotate(180 21.258 137.378) scale(.35278)"><path d="M0 0h-19.048v-58.767H0c12.798 0 23.174 10.376 23.174 23.174v12.419C23.174-10.375 12.798 0 0 0" style="fill:#e4b170;fill-opacity:1;fill-rule:nonzero;stroke:none" id="path1244"/></g><g id="g1246" transform="rotate(180 23.725 115.929) scale(.35278)"><path d="m0 0 14.61 47.871c7.292 23.891-2.666 49.672-24.123 62.459l-.041.024c-15.806 9.42-36.235 4.606-46.173-10.881a6.45 6.45 0 0 1 1.628-8.695 8.513 8.513 0 0 1 11.999 2.01c6.172 8.856 18.384 10.973 27.177 4.714C-.091 86.943 6.388 68.123 1.199 50.672L-13.87 0z" style="fill:#e4b170;fill-opacity:1;fill-rule:nonzero;stroke:none" id="path1248"/></g><g id="g1250" transform="rotate(180 0 122.297) scale(.35278)"><path d="M0 0c0 65.972-90.594 119.452-140.508 119.452-49.914 0-140.508-53.48-140.508-119.452 0-53.822 41.877-99.317 99.437-114.254.005-.004-.006-.007 0-.011 9.874-3.337 28.483-4.183 42.31-9.745 13.826 5.441 38.057 8.275 41.928 10.304.017.009-.001.017.013.026C-40.86-98.188 0-53.161 0 0" style="fill:#ad702c;fill-opacity:1;fill-rule:nonzero;stroke:none" id="path1252"/></g><g id="g1254" transform="rotate(180 30.482 98.638) scale(.35278)"><path d="m0 0-14.506-8.002c3.698-1.809 8.271-.734 10.708 2.763A19.385 19.385 0 0 0-.024-1.213z" style="fill:#404041;fill-opacity:1;fill-rule:nonzero;stroke:none" id="path1256"/></g><g id="g1258" transform="rotate(180 33.268 99.916) scale(.35278)"><path d="M0 0c3.76-2.743 8.985-1.926 11.773 1.747l.155 7.92-13.745-7.583A6.391 6.391 0 0 1 0 0" style="fill:#404041;fill-opacity:1;fill-rule:nonzero;stroke:none" id="path1260"/></g><g id="g1262" transform="rotate(180 33.268 99.916) scale(.35278)"><path d="M0 0c2.368-1.727 5.321-2.039 7.881-1.126l.248 12.728-10.735-5.923C-2.761 3.527-1.858 1.355 0 0" style="fill:#404041;fill-opacity:1;fill-rule:nonzero;stroke:none" id="path1264"/></g><g id="g1266" transform="rotate(180 33.555 98.383) scale(.35278)"><path d="M0 0a6.45 6.45 0 0 1 1.628-8.695 8.476 8.476 0 0 1 3.247-1.44l.287 14.734-3.065-1.69A34.327 34.327 0 0 1 0 0" style="fill:#404041;fill-opacity:1;fill-rule:nonzero;stroke:none" id="path1268"/></g><g id="g1270" transform="rotate(180 26.845 146.82) scale(.35278)"><path d="M0 0c-1.73 0-3.133-1.173-3.602-2.752-.131 2.449-2.116 4.408-4.597 4.408-2.481 0-4.467-1.959-4.598-4.407C-13.265-1.173-14.669 0-16.399 0a3.817 3.817 0 0 1-3.817-3.818c0-.108.052-.199.061-.305v-3.843c0-.862.699-1.561 1.562-1.561H2.265c.838 0 1.518.679 1.518 1.517v4.019c.003.061.035.112.035.173A3.818 3.818 0 0 1 0 0" style="fill:#ffe1b2;fill-opacity:1;fill-rule:nonzero;stroke:none" id="path1272"/></g><g id="g1274" transform="rotate(180 19.46 146.82) scale(.35278)"><path d="M0 0c-1.73 0-3.133-1.173-3.602-2.752-.131 2.449-2.116 4.408-4.597 4.408-2.481 0-4.467-1.959-4.598-4.407C-13.265-1.173-14.669 0-16.399 0a3.817 3.817 0 0 1-3.817-3.818c0-.108.052-.199.061-.305v-3.843c0-.862.699-1.561 1.562-1.561H2.265c.838 0 1.518.679 1.518 1.517v4.019c.003.061.035.112.035.173A3.818 3.818 0 0 1 0 0" style="fill:#f2cb9b;fill-opacity:1;fill-rule:nonzero;stroke:none" id="path1276"/></g><g id="g1278" transform="rotate(180 24.32 101.237) scale(.35278)"><path d="M0 0c-.466.007-.93.022-1.397.025v-243.436c13.827 5.442 38.058 8.276 41.928 10.305.018.009 0 .017.013.026 56.469 15.491 97.329 60.519 97.329 113.68C137.873-54.573 50.396-1.811 0 0" style="fill:#926029;fill-opacity:1;fill-rule:nonzero;stroke:none" id="path1280"/></g><g id="g1282" transform="rotate(180 5.423 129.463) scale(.35278)"><path d="M0 0c3.163 5.774 5.53 11.852 6.977 18.163l1.354 8.114.022.222c.23 2.344.261 4.703.195 7.056l-.439 15.497a9.388 9.388 0 0 1-.068 2.088c-2.834 21.003 18.165 66.571 11.321 76.858-5.504 8.271-38.279-18.448-50.917-29.24-16.434 10.682-36.925 17.956-59.505 20.541l-5.054 8.754c-.387.67-1.355.67-1.742 0l-4.549-7.879h-.796l-4.599 7.965a.949.949 0 0 1-1.643 0l-4.563-7.904h-.867l-4.513 7.818c-.388.67-6.768-8.705-6.768-8.705-22.715-2.442-43.357-9.609-59.928-20.254-12.909 10.997-45.074 37.091-50.522 28.904-6.844-10.287 14.155-55.855 11.321-76.858-.073-.542-.068-.951-.072-1.375l-.764-4.943a48.325 48.325 0 0 1-.569-7.396s.076-3.706.134-6.833c.051-2.791.309-5.573.77-8.326l.52-3.109c.177-1.061.385-2.117.66-3.157 1.492-5.642 3.738-11.081 6.614-16.278-7.626-4.212-11.901-11.392-11.901-23.222 0-19.175 43.951-35.076 101.526-38.066 3.16-7.752 10.761-13.221 19.649-13.221 8.888 0 16.489 5.469 19.649 13.221C-31.492-58.575 12.46-42.674 12.46-23.499 12.46-11.392 7.965-4.169 0 0" style="fill:#ffe1b2;fill-opacity:1;fill-rule:nonzero;stroke:none" id="path1284"/></g><g id="g1286" transform="rotate(180 2.008 106.885) scale(.35278)"><path d="M0 0c-5.504 8.271-38.279-18.448-50.916-29.24-16.435 10.682-36.926 17.956-59.505 20.541l-5.055 8.754a1.005 1.005 0 0 1-1.742 0l-4.549-7.879h-.796l-4.599 7.965a.917.917 0 0 1-.725.449v-203.36c8.804.079 16.322 5.512 19.458 13.207 57.576 2.99 101.527 18.891 101.527 38.066 0 12.107-4.494 19.33-12.46 23.499 3.163 5.774 5.53 11.852 6.977 18.163l1.354 8.115.022.221c.23 2.344.261 4.703.195 7.056l-.439 15.498a9.38 9.38 0 0 1-.068 2.087C-14.155-55.854 6.844-10.286 0 0" style="fill:#edc186;fill-opacity:1;fill-rule:nonzero;stroke:none" id="path1288"/></g><g id="g1290" transform="rotate(180 9.714 112.912) scale(.35278)"><path d="M0 0s27.78 26.165 31.656 20.027c3.876-6.137-8.016-33.326-6.411-45.857C26.849-38.362 0 0 0 0" style="fill:#b16d29;fill-opacity:1;fill-rule:nonzero;stroke:none" id="path1292"/></g><g id="g1294" transform="rotate(180 39.625 112.912) scale(.35278)"><path d="M0 0s-27.78 26.165-31.656 20.027c-3.876-6.137 8.016-33.326 6.411-45.857C-26.849-38.362 0 0 0 0" style="fill:#c9802e;fill-opacity:1;fill-rule:nonzero;stroke:none" id="path1296"/></g><g id="g1298" transform="rotate(180 28.241 124.171) scale(.35278)"><path d="M0 0a9.582 9.582 0 0 0-9.583-9.583c-5.292 0-9.583 4.29-9.583 9.583 0 5.292 4.291 9.583 9.583 9.583C-4.29 9.583 0 5.292 0 0" style="fill:#404041;fill-opacity:1;fill-rule:nonzero;stroke:none" id="path1300"/></g><g id="g1302" transform="rotate(180 22.108 129.939) scale(.35278)"><path d="m0 0-.209 1.659c.869.109 87.276 10.815 121.299-.033l-.507-1.593C86.902 10.771.864.109 0 0" style="fill:#404041;fill-opacity:1;fill-rule:nonzero;stroke:none" id="path1304"/></g><g id="g1306" transform="rotate(180 1.79 137.739) scale(.35278)"><path d="M0 0c-29.129 20.018-114.576 34.705-115.437 34.851l.281 1.648c.864-.146 86.671-14.895 116.103-35.121z" style="fill:#404041;fill-opacity:1;fill-rule:nonzero;stroke:none" id="path1308"/></g><g id="g1310" transform="rotate(180 .98 133.964) scale(.35278)"><path d="M0 0c-31.686 15.664-118.353 18.027-119.224 18.049l.041 1.672c.876-.023 87.91-2.395 119.923-18.222z" style="fill:#404041;fill-opacity:1;fill-rule:nonzero;stroke:none" id="path1312"/></g><g id="g1314" transform="rotate(180 29.807 123.624) scale(.35278)"><path d="M0 0a3.105 3.105 0 1 0-6.21 0A3.105 3.105 0 0 0 0 0" style="fill:#f1f1f2;fill-opacity:1;fill-rule:nonzero;stroke:none" id="path1316"/></g><g id="g1318" transform="rotate(180 38.246 111.983) scale(.35278)"><path d="m0 0 67.898-20.133a30.217 30.217 0 0 1 16.867-.089L154.527-.336l-7.834 22.689-82.351 21.813z" style="fill:#ad702c;fill-opacity:1;fill-rule:nonzero;stroke:none" id="path1320"/></g><g id="g1322" transform="rotate(180 27.09 129.87) scale(.35278)"><path d="M0 0c-.866.109-86.909 10.769-120.582.033l-.508 1.593C-87.066 12.474-.659 1.768.209 1.659z" style="fill:#404041;fill-opacity:1;fill-rule:nonzero;stroke:none" id="path1324"/></g><g id="g1326" transform="rotate(180 48.218 133.964) scale(.35278)"><path d="m0 0-.741 1.499c32.012 15.827 119.047 18.199 119.922 18.222l.043-1.672C118.352 18.027 31.684 15.664 0 0" style="fill:#404041;fill-opacity:1;fill-rule:nonzero;stroke:none" id="path1328"/></g><g id="g1330" transform="rotate(180 47.408 137.671) scale(.35278)"><path d="m0 0-.947 1.378c29.432 20.226 115.24 34.975 116.103 35.121l.28-1.648C114.576 34.705 29.129 20.018 0 0" style="fill:#404041;fill-opacity:1;fill-rule:nonzero;stroke:none" id="path1332"/></g><g id="g1334" transform="rotate(180 26.26 134.516) scale(.35278)"><path d="M0 0c-3.69 0-7.414 2.351-11.082 6.999l1.161.916C-6.332 3.366-2.781 1.203.623 1.506c4.619.4 7.673 5.216 8.221 6.147v21.199h1.478V7.27l-.088-.164C10.089 6.838 6.626.542.751.033A8.574 8.574 0 0 0 0 0" style="fill:#404041;fill-opacity:1;fill-rule:nonzero;stroke:none" id="path1336"/></g><g id="g1338" transform="rotate(180 23.026 128.871) scale(.35278)"><path d="m0 0-6.009-10.408c-1.25-2.166-4.377-2.166-5.627 0L-17.645 0c-1.251 2.166.312 4.874 2.814 4.874h12.017C-.313 4.874 1.251 2.166 0 0" style="fill:#803031;fill-opacity:1;fill-rule:nonzero;stroke:none" id="path1340"/></g><g id="g1342" transform="rotate(180 24.566 115.74) scale(.35278)"><path d="M0 0c2.427.086 4.849.404 7.208 1.076l69.763 19.886-7.835 22.688L0 61.963z" style="fill:#926029;fill-opacity:1;fill-rule:nonzero;stroke:none" id="path1344"/></g><g id="g1346" transform="rotate(180 17.576 124.171) scale(.35278)"><path d="M0 0a9.582 9.582 0 0 0-9.583-9.583c-5.292 0-9.583 4.29-9.583 9.583 0 5.292 4.291 9.583 9.583 9.583C-4.29 9.583 0 5.292 0 0" style="fill:#404041;fill-opacity:1;fill-rule:nonzero;stroke:none" id="path1348"/></g><g id="g1350" transform="rotate(180 19.267 123.624) scale(.35278)"><path d="M0 0a3.105 3.105 0 1 0-6.21 0A3.105 3.105 0 0 0 0 0" style="fill:#f1f1f2;fill-opacity:1;fill-rule:nonzero;stroke:none" id="path1352"/></g><g id="g1354" transform="rotate(180 22.892 134.514) scale(.35278)"><path d="M0 0c-3.663 0-7.07 2.368-10.127 7.04l1.237.809c2.765-4.225 5.755-6.368 8.885-6.371H0c5.377 0 9.58 6.308 9.622 6.372l1.237-.81C10.67 6.753 6.179 0 0 0" style="fill:#404041;fill-opacity:1;fill-rule:nonzero;stroke:none" id="path1356"/></g></g></svg>